G04 EAGLE Gerber RS-274X export*
G75*
%MOMM*%
%FSLAX34Y34*%
%LPD*%
%INTop Copper*%
%IPPOS*%
%AMOC8*
5,1,8,0,0,1.08239X$1,22.5*%
G01*
%ADD10R,0.550000X1.150000*%
%ADD11C,1.308000*%
%ADD12C,1.308000*%
%ADD13R,1.500000X1.300000*%
%ADD14R,1.300000X1.500000*%
%ADD15C,1.524000*%
%ADD16R,1.879600X1.879600*%
%ADD17C,1.879600*%
%ADD18R,0.508000X0.700000*%
%ADD19C,5.000000*%
%ADD20C,0.254000*%
%ADD21C,0.304800*%
%ADD22C,0.200000*%
%ADD23C,0.756400*%
%ADD24C,0.152400*%
%ADD25C,0.203200*%


D10*
X-170870Y790270D03*
X-183370Y790270D03*
X-195870Y790270D03*
X-208370Y790270D03*
X-208370Y768770D03*
X-195870Y768770D03*
X-183370Y768770D03*
X-170870Y768770D03*
D11*
X-57020Y666140D02*
X-57020Y653060D01*
X-31620Y653060D02*
X-31620Y666140D01*
X-6220Y666140D02*
X-6220Y653060D01*
X19180Y653060D02*
X19180Y666140D01*
X44580Y666140D02*
X44580Y653060D01*
X69980Y653060D02*
X69980Y666140D01*
X95380Y666140D02*
X95380Y653060D01*
X120780Y653060D02*
X120780Y666140D01*
X146180Y666140D02*
X146180Y653060D01*
X171580Y653060D02*
X171580Y666140D01*
X196980Y666140D02*
X196980Y653060D01*
X222380Y653060D02*
X222380Y666140D01*
X-57020Y805460D02*
X-57020Y818540D01*
X-31620Y818540D02*
X-31620Y805460D01*
X-6220Y805460D02*
X-6220Y818540D01*
X146180Y818540D02*
X146180Y805460D01*
X171580Y805460D02*
X171580Y818540D01*
X196980Y818540D02*
X196980Y805460D01*
X222380Y805460D02*
X222380Y818540D01*
X298580Y818540D02*
X298580Y805460D01*
X298580Y666140D02*
X298580Y653060D01*
X273180Y653060D02*
X273180Y666140D01*
X247780Y666140D02*
X247780Y653060D01*
X273180Y805460D02*
X273180Y818540D01*
X247780Y818540D02*
X247780Y805460D01*
X19180Y805460D02*
X19180Y818540D01*
D12*
X-44320Y761200D03*
X-44320Y735800D03*
X-44320Y710400D03*
D11*
X120780Y805460D02*
X120780Y818540D01*
X95380Y818540D02*
X95380Y805460D01*
X69980Y805460D02*
X69980Y818540D01*
X44580Y818540D02*
X44580Y805460D01*
D12*
X-69720Y761200D03*
X-69720Y735800D03*
X-69720Y710400D03*
D13*
X-146330Y790210D03*
X-146330Y809210D03*
D14*
X-183930Y815080D03*
X-202930Y815080D03*
D15*
X-298500Y821520D02*
X-313740Y821520D01*
X-316280Y796120D02*
X-301040Y796120D01*
X-298500Y770720D02*
X-313740Y770720D01*
X-316280Y745320D02*
X-301040Y745320D01*
X-298500Y719920D02*
X-313740Y719920D01*
X-316280Y694520D02*
X-301040Y694520D01*
X257510Y398600D02*
X272750Y398600D01*
X275290Y424000D02*
X260050Y424000D01*
X257510Y449400D02*
X272750Y449400D01*
X275290Y474800D02*
X260050Y474800D01*
X257510Y500200D02*
X272750Y500200D01*
X275290Y525600D02*
X260050Y525600D01*
D16*
X-228600Y1026160D03*
D17*
X-203200Y1023620D03*
X-177800Y1026160D03*
X-152400Y1023620D03*
D18*
X-177960Y964120D03*
X-187960Y964120D03*
X-197960Y964120D03*
X-197960Y940880D03*
X-187960Y940880D03*
X-177960Y940880D03*
D13*
X-149860Y945540D03*
X-149860Y964540D03*
X-229870Y963270D03*
X-229870Y944270D03*
D14*
X-221590Y913130D03*
X-202590Y913130D03*
X-156870Y913130D03*
X-175870Y913130D03*
D16*
X-78740Y1027430D03*
D17*
X-53340Y1024890D03*
X-27940Y1027430D03*
X-2540Y1024890D03*
D18*
X-28100Y965390D03*
X-38100Y965390D03*
X-48100Y965390D03*
X-48100Y942150D03*
X-38100Y942150D03*
X-28100Y942150D03*
D13*
X0Y946810D03*
X0Y965810D03*
X-80010Y964540D03*
X-80010Y945540D03*
D14*
X-71730Y914400D03*
X-52730Y914400D03*
X-7010Y914400D03*
X-26010Y914400D03*
D16*
X69850Y1028700D03*
D17*
X95250Y1026160D03*
X120650Y1028700D03*
X146050Y1026160D03*
D18*
X120490Y966660D03*
X110490Y966660D03*
X100490Y966660D03*
X100490Y943420D03*
X110490Y943420D03*
X120490Y943420D03*
D13*
X148590Y948080D03*
X148590Y967080D03*
X68580Y965810D03*
X68580Y946810D03*
D14*
X76860Y915670D03*
X95860Y915670D03*
X141580Y915670D03*
X122580Y915670D03*
D16*
X273710Y970430D03*
D17*
X271170Y945030D03*
X273710Y919630D03*
X271170Y894230D03*
D19*
X172800Y487500D03*
X-287200Y487500D03*
D17*
X-221800Y664300D03*
X-196400Y664300D03*
X-171000Y664300D03*
X-145600Y664300D03*
X-120200Y664300D03*
D13*
X215700Y902000D03*
X215700Y921000D03*
X215500Y861500D03*
X215500Y880500D03*
X492700Y916150D03*
X492700Y935150D03*
D14*
X436700Y961050D03*
X417700Y961050D03*
D10*
X447650Y916700D03*
X435150Y916700D03*
X422650Y916700D03*
X410150Y916700D03*
X410150Y895200D03*
X422650Y895200D03*
X435150Y895200D03*
X447650Y895200D03*
D15*
X378100Y821970D02*
X378100Y806730D01*
X403500Y804190D02*
X403500Y819430D01*
X428900Y821970D02*
X428900Y806730D01*
X454300Y804190D02*
X454300Y819430D01*
X479700Y821970D02*
X479700Y806730D01*
X505100Y804190D02*
X505100Y819430D01*
D13*
X492700Y443200D03*
X492700Y462200D03*
D14*
X436700Y488100D03*
X417700Y488100D03*
D10*
X447650Y443750D03*
X435150Y443750D03*
X422650Y443750D03*
X410150Y443750D03*
X410150Y422250D03*
X422650Y422250D03*
X435150Y422250D03*
X447650Y422250D03*
D15*
X378100Y349020D02*
X378100Y333780D01*
X403500Y331240D02*
X403500Y346480D01*
X428900Y349020D02*
X428900Y333780D01*
X454300Y331240D02*
X454300Y346480D01*
X479700Y349020D02*
X479700Y333780D01*
X505100Y331240D02*
X505100Y346480D01*
D20*
X-149860Y920140D02*
X-150029Y920138D01*
X-150199Y920132D01*
X-150368Y920122D01*
X-150537Y920107D01*
X-150705Y920089D01*
X-150873Y920066D01*
X-151040Y920040D01*
X-151207Y920009D01*
X-151373Y919975D01*
X-151538Y919936D01*
X-151702Y919894D01*
X-151864Y919847D01*
X-152026Y919797D01*
X-152187Y919743D01*
X-152346Y919684D01*
X-152503Y919622D01*
X-152660Y919557D01*
X-152814Y919487D01*
X-152967Y919414D01*
X-153118Y919337D01*
X-153267Y919257D01*
X-153414Y919172D01*
X-153559Y919085D01*
X-153702Y918994D01*
X-153842Y918899D01*
X-153980Y918801D01*
X-154116Y918700D01*
X-154250Y918596D01*
X-154380Y918488D01*
X-154508Y918377D01*
X-154634Y918263D01*
X-154757Y918146D01*
X-154876Y918027D01*
X-154993Y917904D01*
X-155107Y917778D01*
X-155218Y917650D01*
X-155326Y917520D01*
X-155430Y917386D01*
X-155531Y917250D01*
X-155629Y917112D01*
X-155724Y916972D01*
X-155815Y916829D01*
X-155902Y916684D01*
X-155987Y916537D01*
X-156067Y916388D01*
X-156144Y916237D01*
X-156217Y916084D01*
X-156287Y915930D01*
X-156352Y915773D01*
X-156414Y915616D01*
X-156473Y915457D01*
X-156527Y915296D01*
X-156577Y915134D01*
X-156624Y914972D01*
X-156666Y914808D01*
X-156705Y914643D01*
X-156739Y914477D01*
X-156770Y914310D01*
X-156796Y914143D01*
X-156819Y913975D01*
X-156837Y913807D01*
X-156852Y913638D01*
X-156862Y913469D01*
X-156868Y913299D01*
X-156870Y913130D01*
X-149860Y920140D02*
X-149860Y945540D01*
D21*
X148590Y948080D02*
X148590Y922680D01*
X141580Y915670D01*
X0Y921410D02*
X0Y946810D01*
X0Y921410D02*
X-7010Y914400D01*
D22*
X-202930Y815080D02*
X-202930Y805830D01*
X-195870Y798770D02*
X-195870Y790270D01*
X-195870Y798770D02*
X-202930Y805830D01*
X-202930Y815080D02*
X-212920Y815080D01*
X-218500Y809500D01*
D23*
X-218500Y809500D03*
D21*
X-156140Y912400D02*
X-156870Y913130D01*
X-156140Y912400D02*
X-144200Y912400D01*
D23*
X-144200Y912400D03*
D21*
X-7010Y914400D02*
X5000Y914400D01*
X6400Y913000D01*
D23*
X6400Y913000D03*
D21*
X141580Y915670D02*
X143550Y913700D01*
X155000Y913700D01*
D23*
X155000Y913700D03*
D21*
X215500Y861500D02*
X215700Y861300D01*
X229400Y861300D01*
D23*
X229400Y861300D03*
D21*
X-145200Y810340D02*
X-146330Y809210D01*
X-145200Y810340D02*
X-145200Y820600D01*
D23*
X-145200Y820600D03*
D20*
X492700Y935150D02*
X492700Y950950D01*
X493000Y950950D01*
D23*
X493000Y950950D03*
D20*
X417700Y961050D02*
X409000Y952350D01*
X409000Y944950D01*
D23*
X409000Y944950D03*
D20*
X423000Y929950D02*
X422650Y916700D01*
D23*
X423000Y929950D03*
D20*
X492700Y478000D02*
X492700Y462200D01*
X492700Y478000D02*
X493000Y478000D01*
D23*
X493000Y478000D03*
D20*
X417700Y488100D02*
X409000Y479400D01*
X409000Y472000D01*
D23*
X409000Y472000D03*
D20*
X423000Y457000D02*
X422650Y443750D01*
D23*
X423000Y457000D03*
D22*
X-183930Y790830D02*
X-183930Y815080D01*
X-183930Y790830D02*
X-183370Y790270D01*
X-175620Y719920D02*
X-306120Y719920D01*
X-175620Y719920D02*
X-175600Y719900D01*
D23*
X-175600Y719900D03*
X-171300Y759500D03*
D22*
X-171300Y768340D01*
X-170870Y768770D01*
D23*
X311900Y500200D03*
D22*
X311900Y798680D01*
X298940Y811640D01*
X298580Y812000D01*
X-128430Y768770D02*
X-170870Y768770D01*
X-128430Y768770D02*
X-119600Y777600D01*
X264900Y777600D01*
X298940Y811640D01*
D20*
X447650Y895200D02*
X479700Y863150D01*
X479700Y814350D01*
X447650Y422250D02*
X479700Y390200D01*
X479700Y341400D01*
X-200851Y778500D02*
X-208370Y770981D01*
X-208370Y768770D01*
X-200851Y778500D02*
X-162700Y778500D01*
X-159900Y775700D01*
X-133000Y775700D01*
D23*
X-133000Y775700D03*
X-116700Y766700D03*
D20*
X-86700Y766700D01*
X-81200Y772200D01*
X116600Y772200D01*
X120300Y768500D01*
D23*
X120300Y768500D03*
D22*
X-285400Y750000D02*
X-306120Y770720D01*
X208180Y750000D02*
X298580Y659600D01*
X-195600Y750000D02*
X-285400Y750000D01*
X-195600Y750000D02*
X208180Y750000D01*
X-195600Y750000D02*
X-195600Y768500D01*
X-195870Y768770D01*
X298580Y659600D02*
X298580Y462580D01*
X285200Y449200D01*
X285000Y449400D01*
X265130Y449400D01*
D20*
X422650Y820600D02*
X422650Y895200D01*
X422650Y820600D02*
X428900Y814350D01*
X422650Y422250D02*
X422650Y347650D01*
X428900Y341400D01*
D22*
X-183200Y741020D02*
X-304360Y741020D01*
X-308660Y745320D01*
X-165900Y723720D02*
X209060Y723720D01*
X-165900Y723720D02*
X-183200Y741020D01*
X209060Y723720D02*
X270740Y662040D01*
X273180Y659600D01*
X-183370Y759130D02*
X-183370Y768770D01*
X-183370Y759130D02*
X-183400Y759100D01*
D23*
X-183400Y759100D03*
X-183200Y741020D03*
D22*
X267670Y474800D02*
X288500Y495630D01*
X288500Y644280D02*
X273180Y659600D01*
X288500Y644280D02*
X288500Y495630D01*
D20*
X435150Y879800D02*
X435150Y895200D01*
X454300Y860650D02*
X454300Y811810D01*
X454300Y860650D02*
X435150Y879800D01*
X435150Y422250D02*
X435150Y406850D01*
X454300Y387700D02*
X454300Y338860D01*
X454300Y387700D02*
X435150Y406850D01*
D22*
X19180Y812000D02*
X-2610Y790210D01*
X-146330Y790210D01*
X-170610Y790210D01*
X-170670Y790270D01*
X-170870Y790270D01*
X-170870Y824870D01*
X-175000Y829000D01*
X-212700Y829000D01*
X-225700Y816000D01*
X-225700Y792600D01*
X-225700Y792100D01*
X-223470Y790270D02*
X-208370Y790270D01*
X-223470Y790270D02*
X-225500Y792300D01*
X-310670Y696530D02*
X-308660Y694520D01*
X-310670Y696530D02*
X-336100Y721960D01*
X-336100Y770600D01*
X-322700Y784000D01*
X-234300Y784000D02*
X-225700Y792600D01*
X-225500Y792300D02*
X-225700Y792100D01*
X-234300Y784000D02*
X-322700Y784000D01*
D21*
X-278440Y664300D02*
X-221800Y664300D01*
X-278440Y664300D02*
X-310670Y696530D01*
X-221800Y664300D02*
X-155800Y598300D01*
X210900Y598300D01*
X267670Y541530D01*
X267670Y525600D01*
D20*
X505100Y903750D02*
X492700Y916150D01*
X505100Y903750D02*
X505100Y811810D01*
X492700Y916150D02*
X469000Y916150D01*
X448200Y916150D01*
X447650Y916700D01*
X410150Y916700D02*
X393000Y933850D01*
X393000Y979950D02*
X400000Y986950D01*
X452000Y986950D01*
X468000Y970950D01*
X468000Y917150D01*
X469000Y916150D01*
X393000Y933850D02*
X393000Y979950D01*
X492700Y443200D02*
X505100Y430800D01*
X505100Y338860D01*
X492700Y443200D02*
X469000Y443200D01*
X448200Y443200D01*
X447650Y443750D01*
X410150Y443750D02*
X393000Y460900D01*
X393000Y507000D02*
X400000Y514000D01*
X452000Y514000D01*
X468000Y498000D01*
X468000Y444200D01*
X469000Y443200D01*
X393000Y460900D02*
X393000Y507000D01*
D21*
X-259480Y796120D02*
X-308660Y796120D01*
X-259480Y796120D02*
X-220700Y834900D01*
X2400Y834900D01*
X2900Y834400D01*
D23*
X2900Y834400D03*
D21*
X236000Y455670D02*
X267670Y424000D01*
X236000Y455670D02*
X236000Y559300D01*
X206400Y588900D01*
X31000Y588900D01*
D23*
X31000Y588900D03*
X32300Y634000D03*
D21*
X32300Y713300D01*
X32400Y713400D01*
D23*
X32400Y713400D03*
D20*
X-175870Y913130D02*
X-187960Y925220D01*
X-187960Y940880D01*
D21*
X-175870Y913130D02*
X-176530Y912470D01*
X-176530Y902970D01*
D23*
X-176530Y902970D03*
X-176530Y873760D03*
D21*
X132300Y873760D01*
X133350Y873760D01*
X176640Y873760D01*
X222380Y828020D02*
X222380Y812000D01*
X222380Y828020D02*
X176640Y873760D01*
D20*
X-149860Y964540D02*
X-150280Y964120D01*
D24*
X-149860Y964540D02*
X-177540Y964540D01*
X-177960Y964120D01*
D20*
X-187960Y964120D02*
X-197960Y964120D01*
X-197960Y1017110D01*
D25*
X-203200Y1023620D01*
D20*
X-197960Y964120D02*
X-228180Y964120D01*
X-230300Y962000D01*
X-230300Y962840D02*
X-229870Y963270D01*
X-230300Y962840D02*
X-230300Y962000D01*
X-229870Y944270D02*
X-226060Y944270D01*
X-226060Y913130D02*
X-221590Y913130D01*
X-226060Y913130D02*
X-226060Y944270D01*
X-229870Y944270D02*
X-217780Y944270D01*
X-210820Y951230D01*
X-182880Y951230D01*
X-177960Y946310D02*
X-177960Y940880D01*
X-177960Y946310D02*
X-182880Y951230D01*
D25*
X-197960Y917760D02*
X-198095Y917758D01*
X-198229Y917752D01*
X-198364Y917742D01*
X-198498Y917729D01*
X-198631Y917711D01*
X-198764Y917690D01*
X-198896Y917664D01*
X-199028Y917635D01*
X-199158Y917602D01*
X-199288Y917565D01*
X-199416Y917525D01*
X-199544Y917481D01*
X-199669Y917433D01*
X-199794Y917381D01*
X-199917Y917326D01*
X-200038Y917268D01*
X-200157Y917205D01*
X-200275Y917140D01*
X-200391Y917071D01*
X-200504Y916998D01*
X-200616Y916923D01*
X-200725Y916844D01*
X-200832Y916762D01*
X-200936Y916677D01*
X-201038Y916589D01*
X-201137Y916498D01*
X-201234Y916404D01*
X-201328Y916307D01*
X-201419Y916208D01*
X-201507Y916106D01*
X-201592Y916002D01*
X-201674Y915895D01*
X-201753Y915786D01*
X-201828Y915674D01*
X-201901Y915561D01*
X-201970Y915445D01*
X-202035Y915327D01*
X-202098Y915208D01*
X-202156Y915087D01*
X-202211Y914964D01*
X-202263Y914839D01*
X-202311Y914714D01*
X-202355Y914586D01*
X-202395Y914458D01*
X-202432Y914328D01*
X-202465Y914198D01*
X-202494Y914066D01*
X-202520Y913934D01*
X-202541Y913801D01*
X-202559Y913668D01*
X-202572Y913534D01*
X-202582Y913399D01*
X-202588Y913265D01*
X-202590Y913130D01*
D20*
X-197960Y917760D02*
X-197960Y940880D01*
D25*
X-52730Y914400D02*
X-52728Y914535D01*
X-52722Y914669D01*
X-52712Y914804D01*
X-52699Y914938D01*
X-52681Y915071D01*
X-52660Y915204D01*
X-52634Y915336D01*
X-52605Y915468D01*
X-52572Y915598D01*
X-52535Y915728D01*
X-52495Y915856D01*
X-52451Y915984D01*
X-52403Y916109D01*
X-52351Y916234D01*
X-52296Y916357D01*
X-52238Y916478D01*
X-52175Y916597D01*
X-52110Y916715D01*
X-52041Y916831D01*
X-51968Y916944D01*
X-51893Y917056D01*
X-51814Y917165D01*
X-51732Y917272D01*
X-51647Y917376D01*
X-51559Y917478D01*
X-51468Y917577D01*
X-51374Y917674D01*
X-51277Y917768D01*
X-51178Y917859D01*
X-51076Y917947D01*
X-50972Y918032D01*
X-50865Y918114D01*
X-50756Y918193D01*
X-50644Y918268D01*
X-50531Y918341D01*
X-50415Y918410D01*
X-50297Y918475D01*
X-50178Y918538D01*
X-50057Y918596D01*
X-49934Y918651D01*
X-49809Y918703D01*
X-49684Y918751D01*
X-49556Y918795D01*
X-49428Y918835D01*
X-49298Y918872D01*
X-49168Y918905D01*
X-49036Y918934D01*
X-48904Y918960D01*
X-48771Y918981D01*
X-48638Y918999D01*
X-48504Y919012D01*
X-48369Y919022D01*
X-48235Y919028D01*
X-48100Y919030D01*
D20*
X-48100Y942150D01*
D25*
X95860Y915670D02*
X95862Y915805D01*
X95868Y915939D01*
X95878Y916074D01*
X95891Y916208D01*
X95909Y916341D01*
X95930Y916474D01*
X95956Y916606D01*
X95985Y916738D01*
X96018Y916868D01*
X96055Y916998D01*
X96095Y917126D01*
X96139Y917254D01*
X96187Y917379D01*
X96239Y917504D01*
X96294Y917627D01*
X96352Y917748D01*
X96415Y917867D01*
X96480Y917985D01*
X96549Y918101D01*
X96622Y918214D01*
X96697Y918326D01*
X96776Y918435D01*
X96858Y918542D01*
X96943Y918646D01*
X97031Y918748D01*
X97122Y918847D01*
X97216Y918944D01*
X97313Y919038D01*
X97412Y919129D01*
X97514Y919217D01*
X97618Y919302D01*
X97725Y919384D01*
X97834Y919463D01*
X97946Y919538D01*
X98059Y919611D01*
X98175Y919680D01*
X98293Y919745D01*
X98412Y919808D01*
X98533Y919866D01*
X98656Y919921D01*
X98781Y919973D01*
X98906Y920021D01*
X99034Y920065D01*
X99162Y920105D01*
X99292Y920142D01*
X99422Y920175D01*
X99554Y920204D01*
X99686Y920230D01*
X99819Y920251D01*
X99952Y920269D01*
X100086Y920282D01*
X100221Y920292D01*
X100355Y920298D01*
X100490Y920300D01*
D20*
X100490Y943420D01*
D21*
X96520Y883920D02*
X172720Y883920D01*
X96520Y883920D02*
X-53340Y883920D01*
X-173380Y883920D01*
X-202590Y913130D01*
X95860Y915670D02*
X95860Y884580D01*
X96520Y883920D01*
X-52730Y884530D02*
X-52730Y914400D01*
X-52730Y884530D02*
X-53340Y883920D01*
X190800Y902000D02*
X215700Y902000D01*
X190800Y902000D02*
X172720Y883920D01*
X215700Y880700D02*
X215700Y902000D01*
X215700Y880700D02*
X215500Y880500D01*
D20*
X122580Y915670D02*
X110490Y927760D01*
X110490Y943420D01*
D21*
X122580Y915670D02*
X122580Y906170D01*
X121920Y905510D01*
D23*
X121920Y905510D03*
X121920Y853440D03*
D21*
X130140Y853440D01*
X171580Y812000D01*
D20*
X-26010Y914400D02*
X-38100Y926490D01*
X-38100Y942150D01*
D21*
X-26010Y914400D02*
X-26010Y906170D01*
X-26670Y905510D01*
D23*
X-26670Y905510D03*
X-26670Y863600D03*
D21*
X145380Y863600D02*
X196980Y812000D01*
X145380Y863600D02*
X-26670Y863600D01*
X69980Y659600D02*
X94180Y635400D01*
X173700Y635400D01*
X183500Y645200D01*
D23*
X183500Y682400D03*
X183600Y921200D03*
D21*
X183600Y988610D01*
X146050Y1026160D01*
X183500Y682400D02*
X183500Y645200D01*
X41910Y979170D02*
X-2540Y1024890D01*
X41910Y979170D02*
X41910Y901700D01*
D23*
X41910Y901700D03*
X41910Y852170D03*
D21*
X101130Y852170D01*
X121800Y831500D01*
X126700Y831500D01*
X133800Y824400D01*
X133800Y787000D01*
D23*
X133800Y787000D03*
X133900Y683000D03*
D21*
X120780Y669880D01*
X120780Y659600D01*
X-110490Y980440D02*
X-152400Y1023620D01*
X-110490Y980440D02*
X-110490Y894080D01*
D23*
X-110490Y894080D03*
X-110490Y858520D03*
D21*
X-35520Y858520D01*
X-27400Y850400D01*
X14500Y850400D01*
X14900Y850800D01*
X29400Y836300D01*
X75000Y836300D01*
X82700Y828600D01*
X82700Y793600D01*
D23*
X82700Y793600D03*
X84900Y693800D03*
D21*
X138600Y693800D01*
X146180Y686220D02*
X146180Y659600D01*
X146180Y686220D02*
X138600Y693800D01*
X74880Y629300D02*
X44580Y659600D01*
X74880Y629300D02*
X199300Y629300D01*
X208700Y638700D01*
X208700Y682800D01*
D23*
X208700Y682800D03*
X208400Y939200D03*
D21*
X208400Y1019100D01*
X183500Y1044000D01*
X140900Y1044000D01*
X139834Y1042934D02*
X139834Y1041484D01*
X127050Y1028700D01*
X139834Y1042934D02*
X140900Y1044000D01*
X127050Y1028700D02*
X120650Y1028700D01*
X26670Y972820D02*
X-27940Y1027430D01*
X26670Y972820D02*
X26670Y901700D01*
D23*
X26670Y901700D03*
X26670Y852170D03*
D21*
X34340Y844500D01*
X97500Y844500D01*
X107900Y834100D01*
X107900Y787400D01*
D23*
X107900Y787400D03*
X108100Y682600D03*
D21*
X108100Y672320D01*
X95380Y659600D01*
X-125730Y974090D02*
X-177800Y1026160D01*
X-125730Y974090D02*
X-125730Y894080D01*
D23*
X-125730Y894080D03*
X-125730Y858520D03*
D21*
X-115910Y848700D01*
X-39200Y848700D01*
X-33600Y843100D01*
X11800Y843100D01*
X24700Y830200D01*
X49000Y830200D01*
X58300Y820900D01*
X58300Y793800D01*
D23*
X58300Y793800D03*
X58500Y705200D03*
D21*
X143400Y705200D01*
X171580Y677020D02*
X171580Y659600D01*
X171580Y677020D02*
X143400Y705200D01*
D20*
X-420Y965390D02*
X-28100Y965390D01*
X-420Y965390D02*
X0Y965810D01*
X-38100Y965390D02*
X-48100Y965390D01*
X-48100Y1018380D01*
D25*
X-53340Y1024890D01*
D20*
X-48100Y965390D02*
X-78320Y965390D01*
X-80440Y963270D01*
X-80440Y964110D02*
X-80010Y964540D01*
X-80440Y964110D02*
X-80440Y963270D01*
X-80010Y945540D02*
X-76200Y945540D01*
X-76200Y914400D02*
X-71730Y914400D01*
X-76200Y914400D02*
X-76200Y945540D01*
X-80010Y945540D02*
X-67920Y945540D01*
X-60960Y952500D01*
X-33020Y952500D01*
X-28100Y947580D02*
X-28100Y942150D01*
X-28100Y947580D02*
X-33020Y952500D01*
X120490Y966410D02*
X147920Y966410D01*
X148590Y967080D01*
X110490Y966660D02*
X100490Y966660D01*
X100490Y1019650D01*
D25*
X95250Y1026160D01*
D20*
X100490Y966660D02*
X70270Y966660D01*
X68150Y964540D01*
X68150Y965380D02*
X68580Y965810D01*
X68150Y965380D02*
X68150Y964540D01*
X68580Y946810D02*
X72390Y946810D01*
X72390Y915670D02*
X76860Y915670D01*
X72390Y915670D02*
X72390Y946810D01*
X68580Y946810D02*
X80670Y946810D01*
X87630Y953770D01*
X115570Y953770D01*
X120490Y948850D02*
X120490Y943420D01*
X120490Y948850D02*
X115570Y953770D01*
D21*
X-120200Y664300D02*
X-77400Y621500D01*
X222380Y635380D02*
X222380Y659600D01*
X208500Y621500D02*
X-77400Y621500D01*
X208500Y621500D02*
X222380Y635380D01*
X-112500Y697400D02*
X-145600Y664300D01*
X-112500Y697400D02*
X2900Y697400D01*
X6200Y700700D01*
X6200Y714800D01*
D23*
X6200Y714800D03*
X11500Y787700D03*
D21*
X14600Y784600D01*
X87400Y784600D01*
X95380Y792580D01*
X95380Y812000D01*
X-144100Y612000D02*
X-196400Y664300D01*
X-144100Y612000D02*
X197200Y612000D01*
D23*
X197200Y612000D03*
D21*
X215700Y921000D02*
X265130Y970430D01*
X273710Y970430D01*
D20*
X435150Y916700D02*
X436700Y918250D01*
X436700Y961050D01*
X410150Y895200D02*
X410150Y858100D01*
X403000Y850950D01*
X403000Y812310D01*
X403500Y811810D01*
X410150Y422250D02*
X410150Y385150D01*
X403000Y378000D01*
X403000Y339360D01*
X403500Y338860D01*
X435150Y443750D02*
X436700Y445300D01*
X436700Y488100D01*
M02*
