M48
;GenerationSoftware,Autodesk,EAGLE,9.2.0*%
;CreationDate,2018-10-12T04:34:13Z*%
FMAT,2
ICI,OFF
METRIC,TZ,000.000
T6C0.350
T5C0.800
T4C1.016
T3C1.300
T2C3.000
T1C3.200
%
G90
M71
T1
X-30190Y8715
X-30190Y94105
T2
X-28720Y48750
X17280Y48750
T3
X12065Y104943
X12065Y100543
X29444Y91963
X25044Y91963
X-2794Y100416
X-17780Y104689
X-17780Y100289
X-2794Y104816
T4
X37810Y34140
X50510Y81181
X47970Y81435
X45430Y81181
X42890Y81435
X40350Y81181
X37810Y81435
X26513Y50020
X-12020Y66430
X-14560Y66430
X-17100Y66430
X-19640Y66430
X-22180Y66430
X27117Y89423
X27371Y91963
X27117Y94503
X47970Y34140
X14605Y102616
X12065Y102870
X9525Y102616
X6985Y102870
X-254Y102489
X-2794Y102743
X-5334Y102489
X-7874Y102743
X-15240Y102362
X-17780Y102616
X-20320Y102362
X-22860Y102616
X26767Y52560
X50510Y33886
X26767Y47480
X26513Y44940
X26767Y42400
X26513Y39860
X-30866Y69452
X-30612Y71992
X27371Y97043
X-30612Y77072
X-30866Y79612
X-30612Y82152
X45430Y33886
X42890Y34140
X40350Y33886
X-30866Y74532
T5
X9538Y81200
X6998Y81200
X4458Y81200
X-6972Y76120
X-6972Y73580
X-6972Y71040
X-5702Y65960
X-3162Y65960
X-622Y65960
X1918Y65960
X4458Y65960
X6998Y65960
X9538Y65960
X12078Y65960
X14618Y65960
X17158Y65960
X19698Y65960
X22238Y65960
X-5702Y81200
X-3162Y81200
X-622Y81200
X14618Y81200
X17158Y81200
X19698Y81200
X22238Y81200
X29858Y81200
X29858Y65960
X27318Y65960
X24778Y65960
X27318Y81200
X24778Y81200
X1918Y81200
X-4432Y76120
X-4432Y73580
X-4432Y71040
X12078Y81200
T6
X-21850Y80950
X-14420Y91240
X640Y91300
X15500Y91370
X22940Y86130
X-14520Y82060
X19720Y61200
X1150Y78770
X620Y71480
X5850Y70520
X5830Y79380
X-12573Y85852
X-12573Y89408
X10810Y68260
X10790Y78740
X2667Y85217
X2667Y90170
X20840Y93920
X20870Y68280
X8490Y69380
X8270Y79360
X-11049Y85852
X-11049Y89408
X13390Y68300
X13380Y78700
X4191Y85217
X4191Y90170
X18360Y92120
X18350Y68240
X-2667Y86360
X-2667Y90551
X12192Y85344
X12192Y90551
X-17653Y87376
X-18340Y75910
X-17653Y90297
X3240Y71340
X3230Y63400
X3100Y58890
X290Y83440
X-18320Y74102
X12030Y76850
X-11670Y76670
X-13300Y77570
X31190Y50020
X-17130Y75950
X-17560Y71990
X42300Y45700
X40900Y47200
X49300Y47800
X42300Y92995
X40900Y94495
X49300Y95095
M30