G04 EAGLE Gerber RS-274X export*
G75*
%MOMM*%
%FSLAX34Y34*%
%LPD*%
%IN*%
%IPPOS*%
%AMOC8*
5,1,8,0,0,1.08239X$1,22.5*%
G01*
%ADD10C,0.254000*%


D10*
X-389090Y47500D02*
X29900Y47500D01*
X29900Y90500D01*
X29995Y92679D01*
X30280Y94841D01*
X30752Y96970D01*
X31408Y99051D01*
X32242Y101065D01*
X33249Y103000D01*
X34421Y104839D01*
X35749Y106570D01*
X37222Y108178D01*
X38830Y109651D01*
X40561Y110979D01*
X42400Y112151D01*
X44335Y113158D01*
X46350Y113992D01*
X48430Y114648D01*
X50559Y115120D01*
X52721Y115405D01*
X54900Y115500D01*
X57079Y115405D01*
X59241Y115120D01*
X61370Y114648D01*
X63451Y113992D01*
X65465Y113158D01*
X67400Y112151D01*
X69239Y110979D01*
X70970Y109651D01*
X72578Y108178D01*
X74051Y106570D01*
X75379Y104839D01*
X76551Y103000D01*
X77558Y101065D01*
X78392Y99051D01*
X79048Y96970D01*
X79520Y94841D01*
X79805Y92679D01*
X79900Y90500D01*
X79900Y3500D01*
X81900Y500D01*
X186900Y500D01*
X189900Y3500D01*
X189900Y78000D01*
X189938Y78872D01*
X190052Y79736D01*
X190241Y80588D01*
X190503Y81420D01*
X190837Y82226D01*
X191240Y83000D01*
X191708Y83736D01*
X192240Y84428D01*
X192829Y85071D01*
X193472Y85660D01*
X194164Y86192D01*
X194900Y86660D01*
X195674Y87063D01*
X196480Y87397D01*
X197312Y87659D01*
X198164Y87848D01*
X199028Y87962D01*
X199900Y88000D01*
X200772Y87962D01*
X201636Y87848D01*
X202488Y87659D01*
X203320Y87397D01*
X204126Y87063D01*
X204900Y86660D01*
X205636Y86192D01*
X206328Y85660D01*
X206971Y85071D01*
X207560Y84428D01*
X208092Y83736D01*
X208560Y83000D01*
X208963Y82226D01*
X209297Y81420D01*
X209559Y80588D01*
X209748Y79736D01*
X209862Y78872D01*
X209900Y78000D01*
X209900Y3500D01*
X212900Y500D01*
X330000Y500D01*
X330000Y290000D01*
X550000Y290000D01*
X550000Y590000D01*
X330000Y590000D01*
X330000Y762950D01*
X550000Y762950D01*
X550000Y1062980D01*
X-389090Y1062980D01*
X-389090Y47500D01*
X330000Y990000D02*
X335000Y990000D01*
X335000Y1040000D01*
X330000Y1040000D01*
X330000Y990000D01*
X330000Y920000D02*
X335000Y920000D01*
X335000Y970000D01*
X330000Y970000D01*
X330000Y920000D01*
X330000Y850000D02*
X335000Y850000D01*
X335000Y900000D01*
X330000Y900000D01*
X330000Y850000D01*
X330000Y780000D02*
X335000Y780000D01*
X335000Y830000D01*
X330000Y830000D01*
X330000Y780000D01*
X330000Y520000D02*
X335000Y520000D01*
X335000Y570000D01*
X330000Y570000D01*
X330000Y520000D01*
X330000Y450000D02*
X335000Y450000D01*
X335000Y500000D01*
X330000Y500000D01*
X330000Y450000D01*
X330000Y380000D02*
X335000Y380000D01*
X335000Y430000D01*
X330000Y430000D01*
X330000Y380000D01*
X330000Y310000D02*
X335000Y310000D01*
X335000Y360000D01*
X330000Y360000D01*
X330000Y310000D01*
X-285900Y86626D02*
X-285969Y85581D01*
X-286105Y84542D01*
X-286310Y83515D01*
X-286581Y82503D01*
X-286917Y81511D01*
X-287318Y80543D01*
X-287782Y79604D01*
X-288306Y78696D01*
X-288888Y77825D01*
X-289525Y76994D01*
X-290216Y76207D01*
X-290957Y75466D01*
X-291744Y74775D01*
X-292575Y74138D01*
X-293446Y73556D01*
X-294354Y73032D01*
X-295293Y72568D01*
X-296261Y72167D01*
X-297253Y71831D01*
X-298265Y71560D01*
X-299292Y71355D01*
X-300331Y71219D01*
X-301376Y71150D01*
X-302424Y71150D01*
X-303469Y71219D01*
X-304508Y71355D01*
X-305535Y71560D01*
X-306547Y71831D01*
X-307539Y72167D01*
X-308507Y72568D01*
X-309446Y73032D01*
X-310354Y73556D01*
X-311225Y74138D01*
X-312056Y74775D01*
X-312843Y75466D01*
X-313584Y76207D01*
X-314275Y76994D01*
X-314913Y77825D01*
X-315495Y78696D01*
X-316018Y79604D01*
X-316482Y80543D01*
X-316883Y81511D01*
X-317219Y82503D01*
X-317490Y83515D01*
X-317695Y84542D01*
X-317832Y85581D01*
X-317900Y86626D01*
X-317900Y87674D01*
X-317832Y88719D01*
X-317695Y89758D01*
X-317490Y90785D01*
X-317219Y91797D01*
X-316883Y92789D01*
X-316482Y93757D01*
X-316018Y94696D01*
X-315495Y95604D01*
X-314913Y96475D01*
X-314275Y97306D01*
X-313584Y98093D01*
X-312843Y98834D01*
X-312056Y99525D01*
X-311225Y100163D01*
X-310354Y100745D01*
X-309446Y101268D01*
X-308507Y101732D01*
X-307539Y102133D01*
X-306547Y102469D01*
X-305535Y102740D01*
X-304508Y102945D01*
X-303469Y103082D01*
X-302424Y103150D01*
X-301376Y103150D01*
X-300331Y103082D01*
X-299292Y102945D01*
X-298265Y102740D01*
X-297253Y102469D01*
X-296261Y102133D01*
X-295293Y101732D01*
X-294354Y101268D01*
X-293446Y100745D01*
X-292575Y100163D01*
X-291744Y99525D01*
X-290957Y98834D01*
X-290216Y98093D01*
X-289525Y97306D01*
X-288888Y96475D01*
X-288306Y95604D01*
X-287782Y94696D01*
X-287318Y93757D01*
X-286917Y92789D01*
X-286581Y91797D01*
X-286310Y90785D01*
X-286105Y89758D01*
X-285969Y88719D01*
X-285900Y87674D01*
X-285900Y86626D01*
X-285900Y940526D02*
X-285969Y939481D01*
X-286105Y938442D01*
X-286310Y937415D01*
X-286581Y936403D01*
X-286917Y935411D01*
X-287318Y934443D01*
X-287782Y933504D01*
X-288306Y932596D01*
X-288888Y931725D01*
X-289525Y930894D01*
X-290216Y930107D01*
X-290957Y929366D01*
X-291744Y928675D01*
X-292575Y928038D01*
X-293446Y927456D01*
X-294354Y926932D01*
X-295293Y926468D01*
X-296261Y926067D01*
X-297253Y925731D01*
X-298265Y925460D01*
X-299292Y925255D01*
X-300331Y925119D01*
X-301376Y925050D01*
X-302424Y925050D01*
X-303469Y925119D01*
X-304508Y925255D01*
X-305535Y925460D01*
X-306547Y925731D01*
X-307539Y926067D01*
X-308507Y926468D01*
X-309446Y926932D01*
X-310354Y927456D01*
X-311225Y928038D01*
X-312056Y928675D01*
X-312843Y929366D01*
X-313584Y930107D01*
X-314275Y930894D01*
X-314913Y931725D01*
X-315495Y932596D01*
X-316018Y933504D01*
X-316482Y934443D01*
X-316883Y935411D01*
X-317219Y936403D01*
X-317490Y937415D01*
X-317695Y938442D01*
X-317832Y939481D01*
X-317900Y940526D01*
X-317900Y941574D01*
X-317832Y942619D01*
X-317695Y943658D01*
X-317490Y944685D01*
X-317219Y945697D01*
X-316883Y946689D01*
X-316482Y947657D01*
X-316018Y948596D01*
X-315495Y949504D01*
X-314913Y950375D01*
X-314275Y951206D01*
X-313584Y951993D01*
X-312843Y952734D01*
X-312056Y953425D01*
X-311225Y954063D01*
X-310354Y954645D01*
X-309446Y955168D01*
X-308507Y955632D01*
X-307539Y956033D01*
X-306547Y956369D01*
X-305535Y956640D01*
X-304508Y956845D01*
X-303469Y956982D01*
X-302424Y957050D01*
X-301376Y957050D01*
X-300331Y956982D01*
X-299292Y956845D01*
X-298265Y956640D01*
X-297253Y956369D01*
X-296261Y956033D01*
X-295293Y955632D01*
X-294354Y955168D01*
X-293446Y954645D01*
X-292575Y954063D01*
X-291744Y953425D01*
X-290957Y952734D01*
X-290216Y951993D01*
X-289525Y951206D01*
X-288888Y950375D01*
X-288306Y949504D01*
X-287782Y948596D01*
X-287318Y947657D01*
X-286917Y946689D01*
X-286581Y945697D01*
X-286310Y944685D01*
X-286105Y943658D01*
X-285969Y942619D01*
X-285900Y941574D01*
X-285900Y940526D01*
X-171300Y1046571D02*
X-171363Y1045935D01*
X-171487Y1045309D01*
X-171673Y1044698D01*
X-171917Y1044108D01*
X-172218Y1043544D01*
X-172573Y1043013D01*
X-172978Y1042520D01*
X-173430Y1042068D01*
X-173923Y1041663D01*
X-174454Y1041308D01*
X-175018Y1041007D01*
X-175608Y1040763D01*
X-176219Y1040577D01*
X-176845Y1040453D01*
X-177481Y1040390D01*
X-178119Y1040390D01*
X-178755Y1040453D01*
X-179381Y1040577D01*
X-179992Y1040763D01*
X-180582Y1041007D01*
X-181146Y1041308D01*
X-181677Y1041663D01*
X-182170Y1042068D01*
X-182622Y1042520D01*
X-183027Y1043013D01*
X-183382Y1043544D01*
X-183683Y1044108D01*
X-183927Y1044698D01*
X-184113Y1045309D01*
X-184237Y1045935D01*
X-184300Y1046571D01*
X-184300Y1047209D01*
X-184237Y1047845D01*
X-184113Y1048471D01*
X-183927Y1049082D01*
X-183683Y1049672D01*
X-183382Y1050236D01*
X-183027Y1050767D01*
X-182622Y1051260D01*
X-182170Y1051712D01*
X-181677Y1052117D01*
X-181146Y1052472D01*
X-180582Y1052773D01*
X-179992Y1053017D01*
X-179381Y1053203D01*
X-178755Y1053327D01*
X-178119Y1053390D01*
X-177481Y1053390D01*
X-176845Y1053327D01*
X-176219Y1053203D01*
X-175608Y1053017D01*
X-175018Y1052773D01*
X-174454Y1052472D01*
X-173923Y1052117D01*
X-173430Y1051712D01*
X-172978Y1051260D01*
X-172573Y1050767D01*
X-172218Y1050236D01*
X-171917Y1049672D01*
X-171673Y1049082D01*
X-171487Y1048471D01*
X-171363Y1047845D01*
X-171300Y1047209D01*
X-171300Y1046571D01*
X-171300Y1002571D02*
X-171363Y1001935D01*
X-171487Y1001309D01*
X-171673Y1000698D01*
X-171917Y1000108D01*
X-172218Y999544D01*
X-172573Y999013D01*
X-172978Y998520D01*
X-173430Y998068D01*
X-173923Y997663D01*
X-174454Y997308D01*
X-175018Y997007D01*
X-175608Y996763D01*
X-176219Y996577D01*
X-176845Y996453D01*
X-177481Y996390D01*
X-178119Y996390D01*
X-178755Y996453D01*
X-179381Y996577D01*
X-179992Y996763D01*
X-180582Y997007D01*
X-181146Y997308D01*
X-181677Y997663D01*
X-182170Y998068D01*
X-182622Y998520D01*
X-183027Y999013D01*
X-183382Y999544D01*
X-183683Y1000108D01*
X-183927Y1000698D01*
X-184113Y1001309D01*
X-184237Y1001935D01*
X-184300Y1002571D01*
X-184300Y1003209D01*
X-184237Y1003845D01*
X-184113Y1004471D01*
X-183927Y1005082D01*
X-183683Y1005672D01*
X-183382Y1006236D01*
X-183027Y1006767D01*
X-182622Y1007260D01*
X-182170Y1007712D01*
X-181677Y1008117D01*
X-181146Y1008472D01*
X-180582Y1008773D01*
X-179992Y1009017D01*
X-179381Y1009203D01*
X-178755Y1009327D01*
X-178119Y1009390D01*
X-177481Y1009390D01*
X-176845Y1009327D01*
X-176219Y1009203D01*
X-175608Y1009017D01*
X-175018Y1008773D01*
X-174454Y1008472D01*
X-173923Y1008117D01*
X-173430Y1007712D01*
X-172978Y1007260D01*
X-172573Y1006767D01*
X-172218Y1006236D01*
X-171917Y1005672D01*
X-171673Y1005082D01*
X-171487Y1004471D01*
X-171363Y1003845D01*
X-171300Y1003209D01*
X-171300Y1002571D01*
X-21440Y1047841D02*
X-21503Y1047205D01*
X-21627Y1046579D01*
X-21813Y1045968D01*
X-22057Y1045378D01*
X-22358Y1044814D01*
X-22713Y1044283D01*
X-23118Y1043790D01*
X-23570Y1043338D01*
X-24063Y1042933D01*
X-24594Y1042578D01*
X-25158Y1042277D01*
X-25748Y1042033D01*
X-26359Y1041847D01*
X-26985Y1041723D01*
X-27621Y1041660D01*
X-28259Y1041660D01*
X-28895Y1041723D01*
X-29521Y1041847D01*
X-30132Y1042033D01*
X-30722Y1042277D01*
X-31286Y1042578D01*
X-31817Y1042933D01*
X-32310Y1043338D01*
X-32762Y1043790D01*
X-33167Y1044283D01*
X-33522Y1044814D01*
X-33823Y1045378D01*
X-34067Y1045968D01*
X-34253Y1046579D01*
X-34377Y1047205D01*
X-34440Y1047841D01*
X-34440Y1048479D01*
X-34377Y1049115D01*
X-34253Y1049741D01*
X-34067Y1050352D01*
X-33823Y1050942D01*
X-33522Y1051506D01*
X-33167Y1052037D01*
X-32762Y1052530D01*
X-32310Y1052982D01*
X-31817Y1053387D01*
X-31286Y1053742D01*
X-30722Y1054043D01*
X-30132Y1054287D01*
X-29521Y1054473D01*
X-28895Y1054597D01*
X-28259Y1054660D01*
X-27621Y1054660D01*
X-26985Y1054597D01*
X-26359Y1054473D01*
X-25748Y1054287D01*
X-25158Y1054043D01*
X-24594Y1053742D01*
X-24063Y1053387D01*
X-23570Y1052982D01*
X-23118Y1052530D01*
X-22713Y1052037D01*
X-22358Y1051506D01*
X-22057Y1050942D01*
X-21813Y1050352D01*
X-21627Y1049741D01*
X-21503Y1049115D01*
X-21440Y1048479D01*
X-21440Y1047841D01*
X-21440Y1003841D02*
X-21503Y1003205D01*
X-21627Y1002579D01*
X-21813Y1001968D01*
X-22057Y1001378D01*
X-22358Y1000814D01*
X-22713Y1000283D01*
X-23118Y999790D01*
X-23570Y999338D01*
X-24063Y998933D01*
X-24594Y998578D01*
X-25158Y998277D01*
X-25748Y998033D01*
X-26359Y997847D01*
X-26985Y997723D01*
X-27621Y997660D01*
X-28259Y997660D01*
X-28895Y997723D01*
X-29521Y997847D01*
X-30132Y998033D01*
X-30722Y998277D01*
X-31286Y998578D01*
X-31817Y998933D01*
X-32310Y999338D01*
X-32762Y999790D01*
X-33167Y1000283D01*
X-33522Y1000814D01*
X-33823Y1001378D01*
X-34067Y1001968D01*
X-34253Y1002579D01*
X-34377Y1003205D01*
X-34440Y1003841D01*
X-34440Y1004479D01*
X-34377Y1005115D01*
X-34253Y1005741D01*
X-34067Y1006352D01*
X-33823Y1006942D01*
X-33522Y1007506D01*
X-33167Y1008037D01*
X-32762Y1008530D01*
X-32310Y1008982D01*
X-31817Y1009387D01*
X-31286Y1009742D01*
X-30722Y1010043D01*
X-30132Y1010287D01*
X-29521Y1010473D01*
X-28895Y1010597D01*
X-28259Y1010660D01*
X-27621Y1010660D01*
X-26985Y1010597D01*
X-26359Y1010473D01*
X-25748Y1010287D01*
X-25158Y1010043D01*
X-24594Y1009742D01*
X-24063Y1009387D01*
X-23570Y1008982D01*
X-23118Y1008530D01*
X-22713Y1008037D01*
X-22358Y1007506D01*
X-22057Y1006942D01*
X-21813Y1006352D01*
X-21627Y1005741D01*
X-21503Y1005115D01*
X-21440Y1004479D01*
X-21440Y1003841D01*
X127150Y1049111D02*
X127087Y1048475D01*
X126963Y1047849D01*
X126777Y1047238D01*
X126533Y1046648D01*
X126232Y1046084D01*
X125877Y1045553D01*
X125472Y1045060D01*
X125020Y1044608D01*
X124527Y1044203D01*
X123996Y1043848D01*
X123432Y1043547D01*
X122842Y1043303D01*
X122231Y1043117D01*
X121605Y1042993D01*
X120969Y1042930D01*
X120331Y1042930D01*
X119695Y1042993D01*
X119069Y1043117D01*
X118458Y1043303D01*
X117868Y1043547D01*
X117304Y1043848D01*
X116773Y1044203D01*
X116280Y1044608D01*
X115828Y1045060D01*
X115423Y1045553D01*
X115068Y1046084D01*
X114767Y1046648D01*
X114523Y1047238D01*
X114337Y1047849D01*
X114213Y1048475D01*
X114150Y1049111D01*
X114150Y1049749D01*
X114213Y1050385D01*
X114337Y1051011D01*
X114523Y1051622D01*
X114767Y1052212D01*
X115068Y1052776D01*
X115423Y1053307D01*
X115828Y1053800D01*
X116280Y1054252D01*
X116773Y1054657D01*
X117304Y1055012D01*
X117868Y1055313D01*
X118458Y1055557D01*
X119069Y1055743D01*
X119695Y1055867D01*
X120331Y1055930D01*
X120969Y1055930D01*
X121605Y1055867D01*
X122231Y1055743D01*
X122842Y1055557D01*
X123432Y1055313D01*
X123996Y1055012D01*
X124527Y1054657D01*
X125020Y1054252D01*
X125472Y1053800D01*
X125877Y1053307D01*
X126232Y1052776D01*
X126533Y1052212D01*
X126777Y1051622D01*
X126963Y1051011D01*
X127087Y1050385D01*
X127150Y1049749D01*
X127150Y1049111D01*
X127150Y1005111D02*
X127087Y1004475D01*
X126963Y1003849D01*
X126777Y1003238D01*
X126533Y1002648D01*
X126232Y1002084D01*
X125877Y1001553D01*
X125472Y1001060D01*
X125020Y1000608D01*
X124527Y1000203D01*
X123996Y999848D01*
X123432Y999547D01*
X122842Y999303D01*
X122231Y999117D01*
X121605Y998993D01*
X120969Y998930D01*
X120331Y998930D01*
X119695Y998993D01*
X119069Y999117D01*
X118458Y999303D01*
X117868Y999547D01*
X117304Y999848D01*
X116773Y1000203D01*
X116280Y1000608D01*
X115828Y1001060D01*
X115423Y1001553D01*
X115068Y1002084D01*
X114767Y1002648D01*
X114523Y1003238D01*
X114337Y1003849D01*
X114213Y1004475D01*
X114150Y1005111D01*
X114150Y1005749D01*
X114213Y1006385D01*
X114337Y1007011D01*
X114523Y1007622D01*
X114767Y1008212D01*
X115068Y1008776D01*
X115423Y1009307D01*
X115828Y1009800D01*
X116280Y1010252D01*
X116773Y1010657D01*
X117304Y1011012D01*
X117868Y1011313D01*
X118458Y1011557D01*
X119069Y1011743D01*
X119695Y1011867D01*
X120331Y1011930D01*
X120969Y1011930D01*
X121605Y1011867D01*
X122231Y1011743D01*
X122842Y1011557D01*
X123432Y1011313D01*
X123996Y1011012D01*
X124527Y1010657D01*
X125020Y1010252D01*
X125472Y1009800D01*
X125877Y1009307D01*
X126232Y1008776D01*
X126533Y1008212D01*
X126777Y1007622D01*
X126963Y1007011D01*
X127087Y1006385D01*
X127150Y1005749D01*
X127150Y1005111D01*
X294121Y913130D02*
X293485Y913193D01*
X292859Y913317D01*
X292248Y913503D01*
X291658Y913747D01*
X291094Y914048D01*
X290563Y914403D01*
X290070Y914808D01*
X289618Y915260D01*
X289213Y915753D01*
X288858Y916284D01*
X288557Y916848D01*
X288313Y917438D01*
X288127Y918049D01*
X288003Y918675D01*
X287940Y919311D01*
X287940Y919949D01*
X288003Y920585D01*
X288127Y921211D01*
X288313Y921822D01*
X288557Y922412D01*
X288858Y922976D01*
X289213Y923507D01*
X289618Y924000D01*
X290070Y924452D01*
X290563Y924857D01*
X291094Y925212D01*
X291658Y925513D01*
X292248Y925757D01*
X292859Y925943D01*
X293485Y926067D01*
X294121Y926130D01*
X294759Y926130D01*
X295395Y926067D01*
X296021Y925943D01*
X296632Y925757D01*
X297222Y925513D01*
X297786Y925212D01*
X298317Y924857D01*
X298810Y924452D01*
X299262Y924000D01*
X299667Y923507D01*
X300022Y922976D01*
X300323Y922412D01*
X300567Y921822D01*
X300753Y921211D01*
X300877Y920585D01*
X300940Y919949D01*
X300940Y919311D01*
X300877Y918675D01*
X300753Y918049D01*
X300567Y917438D01*
X300323Y916848D01*
X300022Y916284D01*
X299667Y915753D01*
X299262Y915260D01*
X298810Y914808D01*
X298317Y914403D01*
X297786Y914048D01*
X297222Y913747D01*
X296632Y913503D01*
X296021Y913317D01*
X295395Y913193D01*
X294759Y913130D01*
X294121Y913130D01*
X250121Y913130D02*
X249485Y913193D01*
X248859Y913317D01*
X248248Y913503D01*
X247658Y913747D01*
X247094Y914048D01*
X246563Y914403D01*
X246070Y914808D01*
X245618Y915260D01*
X245213Y915753D01*
X244858Y916284D01*
X244557Y916848D01*
X244313Y917438D01*
X244127Y918049D01*
X244003Y918675D01*
X243940Y919311D01*
X243940Y919949D01*
X244003Y920585D01*
X244127Y921211D01*
X244313Y921822D01*
X244557Y922412D01*
X244858Y922976D01*
X245213Y923507D01*
X245618Y924000D01*
X246070Y924452D01*
X246563Y924857D01*
X247094Y925212D01*
X247658Y925513D01*
X248248Y925757D01*
X248859Y925943D01*
X249485Y926067D01*
X250121Y926130D01*
X250759Y926130D01*
X251395Y926067D01*
X252021Y925943D01*
X252632Y925757D01*
X253222Y925513D01*
X253786Y925212D01*
X254317Y924857D01*
X254810Y924452D01*
X255262Y924000D01*
X255667Y923507D01*
X256022Y922976D01*
X256323Y922412D01*
X256567Y921822D01*
X256753Y921211D01*
X256877Y920585D01*
X256940Y919949D01*
X256940Y919311D01*
X256877Y918675D01*
X256753Y918049D01*
X256567Y917438D01*
X256323Y916848D01*
X256022Y916284D01*
X255667Y915753D01*
X255262Y915260D01*
X254810Y914808D01*
X254317Y914403D01*
X253786Y914048D01*
X253222Y913747D01*
X252632Y913503D01*
X252021Y913317D01*
X251395Y913193D01*
X250759Y913130D01*
X250121Y913130D01*
M02*
