G04 EAGLE Gerber RS-274X export*
G75*
%MOMM*%
%FSLAX34Y34*%
%LPD*%
%INSilkscreen Top*%
%IPPOS*%
%AMOC8*
5,1,8,0,0,1.08239X$1,22.5*%
G01*
%ADD10C,0.101600*%
%ADD11C,0.127000*%
%ADD12C,0.200000*%
%ADD13C,0.203200*%


D10*
X-50392Y64897D02*
X-42603Y61652D01*
X-50392Y58406D01*
X-37170Y57108D02*
X-37170Y68792D01*
X-30679Y57108D01*
X-30679Y68792D01*
X-22113Y68792D02*
X-26008Y57108D01*
X-18219Y57108D02*
X-22113Y68792D01*
X-19192Y60029D02*
X-25034Y60029D01*
X-13435Y57108D02*
X-13435Y68792D01*
X-9540Y62301D01*
X-5646Y68792D01*
X-5646Y57108D01*
X191Y57108D02*
X5384Y57108D01*
X191Y57108D02*
X191Y68792D01*
X5384Y68792D01*
X4085Y63599D02*
X191Y63599D01*
D11*
X-164620Y764520D02*
X-214620Y764520D01*
X-214620Y794520D01*
X-164620Y794520D01*
X-164620Y764520D01*
D12*
X-164620Y798520D02*
X-164618Y798583D01*
X-164612Y798645D01*
X-164602Y798707D01*
X-164589Y798769D01*
X-164571Y798829D01*
X-164550Y798888D01*
X-164525Y798946D01*
X-164496Y799002D01*
X-164464Y799056D01*
X-164429Y799108D01*
X-164391Y799157D01*
X-164349Y799205D01*
X-164305Y799249D01*
X-164257Y799291D01*
X-164208Y799329D01*
X-164156Y799364D01*
X-164102Y799396D01*
X-164046Y799425D01*
X-163988Y799450D01*
X-163929Y799471D01*
X-163869Y799489D01*
X-163807Y799502D01*
X-163745Y799512D01*
X-163683Y799518D01*
X-163620Y799520D01*
X-163557Y799518D01*
X-163495Y799512D01*
X-163433Y799502D01*
X-163371Y799489D01*
X-163311Y799471D01*
X-163252Y799450D01*
X-163194Y799425D01*
X-163138Y799396D01*
X-163084Y799364D01*
X-163032Y799329D01*
X-162983Y799291D01*
X-162935Y799249D01*
X-162891Y799205D01*
X-162849Y799157D01*
X-162811Y799108D01*
X-162776Y799056D01*
X-162744Y799002D01*
X-162715Y798946D01*
X-162690Y798888D01*
X-162669Y798829D01*
X-162651Y798769D01*
X-162638Y798707D01*
X-162628Y798645D01*
X-162622Y798583D01*
X-162620Y798520D01*
X-162622Y798457D01*
X-162628Y798395D01*
X-162638Y798333D01*
X-162651Y798271D01*
X-162669Y798211D01*
X-162690Y798152D01*
X-162715Y798094D01*
X-162744Y798038D01*
X-162776Y797984D01*
X-162811Y797932D01*
X-162849Y797883D01*
X-162891Y797835D01*
X-162935Y797791D01*
X-162983Y797749D01*
X-163032Y797711D01*
X-163084Y797676D01*
X-163138Y797644D01*
X-163194Y797615D01*
X-163252Y797590D01*
X-163311Y797569D01*
X-163371Y797551D01*
X-163433Y797538D01*
X-163495Y797528D01*
X-163557Y797522D01*
X-163620Y797520D01*
X-163683Y797522D01*
X-163745Y797528D01*
X-163807Y797538D01*
X-163869Y797551D01*
X-163929Y797569D01*
X-163988Y797590D01*
X-164046Y797615D01*
X-164102Y797644D01*
X-164156Y797676D01*
X-164208Y797711D01*
X-164257Y797749D01*
X-164305Y797791D01*
X-164349Y797835D01*
X-164391Y797883D01*
X-164429Y797932D01*
X-164464Y797984D01*
X-164496Y798038D01*
X-164525Y798094D01*
X-164550Y798152D01*
X-164571Y798211D01*
X-164589Y798271D01*
X-164602Y798333D01*
X-164612Y798395D01*
X-164618Y798457D01*
X-164620Y798520D01*
D10*
X-121438Y795251D02*
X-121438Y792654D01*
X-121440Y792555D01*
X-121446Y792455D01*
X-121455Y792356D01*
X-121468Y792258D01*
X-121485Y792160D01*
X-121506Y792062D01*
X-121531Y791966D01*
X-121559Y791871D01*
X-121591Y791777D01*
X-121626Y791684D01*
X-121665Y791592D01*
X-121708Y791502D01*
X-121753Y791414D01*
X-121803Y791327D01*
X-121855Y791243D01*
X-121911Y791160D01*
X-121969Y791080D01*
X-122031Y791002D01*
X-122096Y790927D01*
X-122164Y790854D01*
X-122234Y790784D01*
X-122307Y790716D01*
X-122382Y790651D01*
X-122460Y790589D01*
X-122540Y790531D01*
X-122623Y790475D01*
X-122707Y790423D01*
X-122794Y790373D01*
X-122882Y790328D01*
X-122972Y790285D01*
X-123064Y790246D01*
X-123157Y790211D01*
X-123251Y790179D01*
X-123346Y790151D01*
X-123442Y790126D01*
X-123540Y790105D01*
X-123638Y790088D01*
X-123736Y790075D01*
X-123835Y790066D01*
X-123935Y790060D01*
X-124034Y790058D01*
X-130526Y790058D01*
X-130625Y790060D01*
X-130725Y790066D01*
X-130824Y790075D01*
X-130922Y790088D01*
X-131020Y790105D01*
X-131118Y790126D01*
X-131214Y790151D01*
X-131309Y790179D01*
X-131403Y790211D01*
X-131496Y790246D01*
X-131588Y790285D01*
X-131678Y790328D01*
X-131766Y790373D01*
X-131853Y790423D01*
X-131937Y790475D01*
X-132020Y790531D01*
X-132100Y790589D01*
X-132178Y790651D01*
X-132253Y790716D01*
X-132326Y790784D01*
X-132396Y790854D01*
X-132464Y790927D01*
X-132529Y791002D01*
X-132591Y791080D01*
X-132649Y791160D01*
X-132705Y791243D01*
X-132757Y791327D01*
X-132807Y791414D01*
X-132852Y791502D01*
X-132895Y791592D01*
X-132934Y791684D01*
X-132969Y791776D01*
X-133001Y791871D01*
X-133029Y791966D01*
X-133054Y792062D01*
X-133075Y792160D01*
X-133092Y792258D01*
X-133105Y792356D01*
X-133114Y792455D01*
X-133120Y792555D01*
X-133122Y792654D01*
X-133122Y795251D01*
X-130526Y799616D02*
X-133122Y802862D01*
X-121438Y802862D01*
X-121438Y806107D02*
X-121438Y799616D01*
X-194634Y829558D02*
X-197231Y829558D01*
X-197330Y829560D01*
X-197430Y829566D01*
X-197529Y829575D01*
X-197627Y829588D01*
X-197725Y829605D01*
X-197823Y829626D01*
X-197919Y829651D01*
X-198014Y829679D01*
X-198108Y829711D01*
X-198201Y829746D01*
X-198293Y829785D01*
X-198383Y829828D01*
X-198471Y829873D01*
X-198558Y829923D01*
X-198642Y829975D01*
X-198725Y830031D01*
X-198805Y830089D01*
X-198883Y830151D01*
X-198958Y830216D01*
X-199031Y830284D01*
X-199101Y830354D01*
X-199169Y830427D01*
X-199234Y830502D01*
X-199296Y830580D01*
X-199354Y830660D01*
X-199410Y830743D01*
X-199462Y830827D01*
X-199512Y830914D01*
X-199557Y831002D01*
X-199600Y831092D01*
X-199639Y831184D01*
X-199674Y831277D01*
X-199706Y831371D01*
X-199734Y831466D01*
X-199759Y831562D01*
X-199780Y831660D01*
X-199797Y831758D01*
X-199810Y831856D01*
X-199819Y831955D01*
X-199825Y832055D01*
X-199827Y832154D01*
X-199827Y838646D01*
X-199825Y838745D01*
X-199819Y838845D01*
X-199810Y838944D01*
X-199797Y839042D01*
X-199780Y839140D01*
X-199759Y839238D01*
X-199734Y839334D01*
X-199706Y839429D01*
X-199674Y839523D01*
X-199639Y839616D01*
X-199600Y839708D01*
X-199557Y839798D01*
X-199512Y839886D01*
X-199462Y839973D01*
X-199410Y840057D01*
X-199354Y840140D01*
X-199296Y840220D01*
X-199234Y840298D01*
X-199169Y840373D01*
X-199101Y840446D01*
X-199031Y840516D01*
X-198958Y840584D01*
X-198883Y840649D01*
X-198805Y840711D01*
X-198725Y840769D01*
X-198642Y840825D01*
X-198558Y840877D01*
X-198471Y840927D01*
X-198383Y840972D01*
X-198293Y841015D01*
X-198201Y841054D01*
X-198108Y841089D01*
X-198014Y841121D01*
X-197919Y841149D01*
X-197823Y841174D01*
X-197725Y841195D01*
X-197627Y841212D01*
X-197529Y841225D01*
X-197430Y841234D01*
X-197330Y841240D01*
X-197231Y841242D01*
X-194634Y841242D01*
X-186699Y841242D02*
X-186592Y841240D01*
X-186486Y841234D01*
X-186380Y841224D01*
X-186274Y841211D01*
X-186168Y841193D01*
X-186064Y841172D01*
X-185960Y841147D01*
X-185857Y841118D01*
X-185756Y841086D01*
X-185656Y841049D01*
X-185557Y841009D01*
X-185459Y840966D01*
X-185363Y840919D01*
X-185269Y840868D01*
X-185177Y840814D01*
X-185087Y840757D01*
X-184999Y840697D01*
X-184914Y840633D01*
X-184831Y840566D01*
X-184750Y840496D01*
X-184672Y840424D01*
X-184596Y840348D01*
X-184524Y840270D01*
X-184454Y840189D01*
X-184387Y840106D01*
X-184323Y840021D01*
X-184263Y839933D01*
X-184206Y839843D01*
X-184152Y839751D01*
X-184101Y839657D01*
X-184054Y839561D01*
X-184011Y839463D01*
X-183971Y839364D01*
X-183934Y839264D01*
X-183902Y839163D01*
X-183873Y839060D01*
X-183848Y838956D01*
X-183827Y838852D01*
X-183809Y838746D01*
X-183796Y838640D01*
X-183786Y838534D01*
X-183780Y838428D01*
X-183778Y838321D01*
X-186699Y841242D02*
X-186820Y841240D01*
X-186941Y841234D01*
X-187061Y841224D01*
X-187182Y841211D01*
X-187301Y841193D01*
X-187421Y841172D01*
X-187539Y841147D01*
X-187656Y841118D01*
X-187773Y841085D01*
X-187888Y841049D01*
X-188002Y841008D01*
X-188115Y840965D01*
X-188227Y840917D01*
X-188336Y840866D01*
X-188444Y840811D01*
X-188551Y840753D01*
X-188655Y840692D01*
X-188757Y840627D01*
X-188857Y840559D01*
X-188955Y840488D01*
X-189051Y840414D01*
X-189144Y840337D01*
X-189234Y840256D01*
X-189322Y840173D01*
X-189407Y840087D01*
X-189490Y839998D01*
X-189569Y839907D01*
X-189646Y839813D01*
X-189719Y839717D01*
X-189789Y839619D01*
X-189856Y839518D01*
X-189920Y839415D01*
X-189981Y839310D01*
X-190038Y839203D01*
X-190091Y839095D01*
X-190141Y838985D01*
X-190187Y838873D01*
X-190230Y838760D01*
X-190269Y838645D01*
X-184752Y836049D02*
X-184673Y836127D01*
X-184597Y836207D01*
X-184524Y836290D01*
X-184454Y836376D01*
X-184387Y836463D01*
X-184323Y836554D01*
X-184263Y836646D01*
X-184205Y836740D01*
X-184151Y836837D01*
X-184101Y836935D01*
X-184054Y837035D01*
X-184010Y837136D01*
X-183970Y837239D01*
X-183934Y837344D01*
X-183902Y837449D01*
X-183873Y837556D01*
X-183848Y837663D01*
X-183826Y837772D01*
X-183809Y837881D01*
X-183795Y837990D01*
X-183786Y838100D01*
X-183780Y838211D01*
X-183778Y838321D01*
X-184752Y836049D02*
X-190269Y829558D01*
X-183778Y829558D01*
D13*
X-307390Y811360D02*
X-307390Y806280D01*
X-307390Y785960D02*
X-307390Y780880D01*
X-307390Y760560D02*
X-307390Y755480D01*
X-307390Y735160D02*
X-307390Y730080D01*
X-307390Y709760D02*
X-307390Y704680D01*
X-307390Y831680D02*
X-307390Y834220D01*
X-297484Y834220D01*
X-294690Y831426D01*
X-307390Y834220D02*
X-317296Y834220D01*
X-320090Y831426D01*
X-307390Y684360D02*
X-307390Y681820D01*
X-317296Y681820D01*
X-320090Y684614D01*
X-307390Y681820D02*
X-297484Y681820D01*
X-294690Y684614D01*
D11*
X-285165Y826686D02*
X-281411Y826686D01*
X-281346Y826684D01*
X-281282Y826678D01*
X-281218Y826668D01*
X-281154Y826655D01*
X-281092Y826637D01*
X-281031Y826616D01*
X-280971Y826592D01*
X-280913Y826563D01*
X-280856Y826531D01*
X-280802Y826496D01*
X-280750Y826458D01*
X-280700Y826416D01*
X-280653Y826372D01*
X-280609Y826325D01*
X-280567Y826275D01*
X-280529Y826223D01*
X-280494Y826169D01*
X-280462Y826112D01*
X-280433Y826054D01*
X-280409Y825994D01*
X-280388Y825933D01*
X-280370Y825871D01*
X-280357Y825807D01*
X-280347Y825743D01*
X-280341Y825679D01*
X-280339Y825614D01*
X-280339Y825077D01*
X-280339Y829634D02*
X-280339Y831243D01*
X-280341Y831308D01*
X-280347Y831372D01*
X-280357Y831436D01*
X-280370Y831500D01*
X-280388Y831562D01*
X-280409Y831623D01*
X-280433Y831683D01*
X-280462Y831741D01*
X-280494Y831798D01*
X-280529Y831852D01*
X-280567Y831904D01*
X-280609Y831954D01*
X-280653Y832001D01*
X-280700Y832045D01*
X-280750Y832087D01*
X-280802Y832125D01*
X-280856Y832160D01*
X-280913Y832192D01*
X-280971Y832221D01*
X-281031Y832245D01*
X-281092Y832266D01*
X-281154Y832284D01*
X-281218Y832297D01*
X-281282Y832307D01*
X-281346Y832313D01*
X-281411Y832315D01*
X-281948Y832315D01*
X-282013Y832313D01*
X-282077Y832307D01*
X-282141Y832297D01*
X-282205Y832284D01*
X-282267Y832266D01*
X-282328Y832245D01*
X-282388Y832221D01*
X-282446Y832192D01*
X-282503Y832160D01*
X-282557Y832125D01*
X-282609Y832087D01*
X-282659Y832045D01*
X-282706Y832001D01*
X-282750Y831954D01*
X-282792Y831904D01*
X-282830Y831852D01*
X-282865Y831798D01*
X-282897Y831741D01*
X-282926Y831683D01*
X-282950Y831623D01*
X-282971Y831562D01*
X-282989Y831500D01*
X-283002Y831436D01*
X-283012Y831372D01*
X-283018Y831308D01*
X-283020Y831243D01*
X-283020Y829634D01*
X-285165Y829634D01*
X-285165Y832315D01*
D13*
X266400Y413840D02*
X266400Y408760D01*
X266400Y434160D02*
X266400Y439240D01*
X266400Y459560D02*
X266400Y464640D01*
X266400Y484960D02*
X266400Y490040D01*
X266400Y510360D02*
X266400Y515440D01*
X266400Y388440D02*
X266400Y385900D01*
X256494Y385900D01*
X253700Y388694D01*
X266400Y385900D02*
X276306Y385900D01*
X279100Y388694D01*
X266400Y535760D02*
X266400Y538300D01*
X276306Y538300D01*
X279100Y535506D01*
X266400Y538300D02*
X256494Y538300D01*
X253700Y535506D01*
D11*
X238103Y385314D02*
X234349Y385314D01*
X238103Y385313D02*
X238168Y385311D01*
X238232Y385305D01*
X238296Y385295D01*
X238360Y385282D01*
X238422Y385264D01*
X238483Y385243D01*
X238543Y385219D01*
X238601Y385190D01*
X238658Y385158D01*
X238712Y385123D01*
X238764Y385085D01*
X238814Y385043D01*
X238861Y384999D01*
X238905Y384952D01*
X238947Y384902D01*
X238985Y384850D01*
X239020Y384796D01*
X239052Y384739D01*
X239081Y384681D01*
X239105Y384621D01*
X239126Y384560D01*
X239144Y384498D01*
X239157Y384434D01*
X239167Y384370D01*
X239173Y384306D01*
X239175Y384241D01*
X239175Y383705D01*
X236494Y388262D02*
X236494Y389870D01*
X236496Y389935D01*
X236502Y389999D01*
X236512Y390063D01*
X236525Y390127D01*
X236543Y390189D01*
X236564Y390250D01*
X236588Y390310D01*
X236617Y390368D01*
X236649Y390425D01*
X236684Y390479D01*
X236722Y390531D01*
X236764Y390581D01*
X236808Y390628D01*
X236855Y390672D01*
X236905Y390714D01*
X236957Y390752D01*
X237011Y390787D01*
X237068Y390819D01*
X237126Y390848D01*
X237186Y390872D01*
X237247Y390893D01*
X237309Y390911D01*
X237373Y390924D01*
X237437Y390934D01*
X237501Y390940D01*
X237566Y390942D01*
X237566Y390943D02*
X237834Y390943D01*
X237905Y390941D01*
X237977Y390935D01*
X238047Y390926D01*
X238117Y390913D01*
X238187Y390896D01*
X238255Y390875D01*
X238322Y390851D01*
X238388Y390823D01*
X238452Y390792D01*
X238515Y390757D01*
X238575Y390719D01*
X238634Y390678D01*
X238690Y390634D01*
X238744Y390587D01*
X238795Y390538D01*
X238843Y390485D01*
X238889Y390430D01*
X238931Y390373D01*
X238971Y390313D01*
X239007Y390252D01*
X239040Y390188D01*
X239069Y390123D01*
X239095Y390057D01*
X239118Y389989D01*
X239137Y389920D01*
X239152Y389850D01*
X239163Y389780D01*
X239171Y389709D01*
X239175Y389638D01*
X239175Y389566D01*
X239171Y389495D01*
X239163Y389424D01*
X239152Y389354D01*
X239137Y389284D01*
X239118Y389215D01*
X239095Y389147D01*
X239069Y389081D01*
X239040Y389016D01*
X239007Y388952D01*
X238971Y388891D01*
X238931Y388831D01*
X238889Y388774D01*
X238843Y388719D01*
X238795Y388666D01*
X238744Y388617D01*
X238690Y388570D01*
X238634Y388526D01*
X238575Y388485D01*
X238515Y388447D01*
X238452Y388412D01*
X238388Y388381D01*
X238322Y388353D01*
X238255Y388329D01*
X238187Y388308D01*
X238117Y388291D01*
X238047Y388278D01*
X237977Y388269D01*
X237905Y388263D01*
X237834Y388261D01*
X237834Y388262D02*
X236494Y388262D01*
X236403Y388264D01*
X236312Y388270D01*
X236222Y388279D01*
X236131Y388293D01*
X236042Y388310D01*
X235954Y388331D01*
X235866Y388356D01*
X235779Y388385D01*
X235694Y388417D01*
X235610Y388452D01*
X235528Y388492D01*
X235448Y388534D01*
X235369Y388580D01*
X235293Y388630D01*
X235219Y388682D01*
X235146Y388738D01*
X235077Y388797D01*
X235010Y388858D01*
X234945Y388923D01*
X234884Y388990D01*
X234825Y389059D01*
X234769Y389131D01*
X234717Y389206D01*
X234667Y389282D01*
X234621Y389361D01*
X234579Y389441D01*
X234539Y389523D01*
X234504Y389607D01*
X234472Y389692D01*
X234443Y389779D01*
X234418Y389866D01*
X234397Y389955D01*
X234380Y390044D01*
X234366Y390134D01*
X234357Y390225D01*
X234351Y390316D01*
X234349Y390407D01*
X-241300Y986790D02*
X-241300Y1055370D01*
X-139700Y1055370D02*
X-139700Y986790D01*
X-139700Y1055370D02*
X-241300Y1055370D01*
X-177800Y986790D02*
X-139700Y986790D01*
X-177800Y986790D02*
X-228600Y986790D01*
X-241300Y986790D01*
X-228600Y986790D02*
X-228600Y999490D01*
X-177800Y999490D01*
X-177800Y986790D01*
X-239056Y1043107D02*
X-239056Y1046861D01*
X-239057Y1043107D02*
X-239059Y1043042D01*
X-239065Y1042978D01*
X-239075Y1042914D01*
X-239088Y1042850D01*
X-239106Y1042788D01*
X-239127Y1042727D01*
X-239151Y1042667D01*
X-239180Y1042609D01*
X-239212Y1042552D01*
X-239247Y1042498D01*
X-239285Y1042446D01*
X-239327Y1042396D01*
X-239371Y1042349D01*
X-239418Y1042305D01*
X-239468Y1042263D01*
X-239520Y1042225D01*
X-239574Y1042190D01*
X-239631Y1042158D01*
X-239689Y1042129D01*
X-239749Y1042105D01*
X-239810Y1042084D01*
X-239872Y1042066D01*
X-239936Y1042053D01*
X-240000Y1042043D01*
X-240064Y1042037D01*
X-240129Y1042035D01*
X-240665Y1042035D01*
X-234634Y1046861D02*
X-234566Y1046859D01*
X-234499Y1046853D01*
X-234432Y1046844D01*
X-234365Y1046831D01*
X-234300Y1046814D01*
X-234235Y1046793D01*
X-234172Y1046769D01*
X-234110Y1046741D01*
X-234050Y1046710D01*
X-233992Y1046676D01*
X-233936Y1046638D01*
X-233881Y1046598D01*
X-233830Y1046554D01*
X-233781Y1046507D01*
X-233734Y1046458D01*
X-233690Y1046407D01*
X-233650Y1046352D01*
X-233612Y1046296D01*
X-233578Y1046238D01*
X-233547Y1046178D01*
X-233519Y1046116D01*
X-233495Y1046053D01*
X-233474Y1045988D01*
X-233457Y1045923D01*
X-233444Y1045856D01*
X-233435Y1045789D01*
X-233429Y1045722D01*
X-233427Y1045654D01*
X-234634Y1046861D02*
X-234712Y1046859D01*
X-234790Y1046853D01*
X-234867Y1046843D01*
X-234944Y1046830D01*
X-235020Y1046812D01*
X-235095Y1046791D01*
X-235169Y1046766D01*
X-235241Y1046737D01*
X-235312Y1046705D01*
X-235381Y1046669D01*
X-235449Y1046630D01*
X-235514Y1046587D01*
X-235577Y1046541D01*
X-235638Y1046492D01*
X-235696Y1046440D01*
X-235751Y1046385D01*
X-235804Y1046328D01*
X-235853Y1046268D01*
X-235900Y1046205D01*
X-235943Y1046140D01*
X-235983Y1046074D01*
X-236020Y1046005D01*
X-236053Y1045934D01*
X-236083Y1045862D01*
X-236109Y1045788D01*
X-233829Y1044716D02*
X-233780Y1044765D01*
X-233733Y1044817D01*
X-233690Y1044872D01*
X-233649Y1044929D01*
X-233611Y1044988D01*
X-233577Y1045049D01*
X-233546Y1045112D01*
X-233518Y1045176D01*
X-233494Y1045242D01*
X-233474Y1045308D01*
X-233457Y1045376D01*
X-233444Y1045445D01*
X-233435Y1045514D01*
X-233429Y1045584D01*
X-233427Y1045654D01*
X-233829Y1044716D02*
X-236108Y1042035D01*
X-233427Y1042035D01*
X-202960Y960750D02*
X-172960Y960750D01*
X-202960Y960750D02*
X-202960Y944250D01*
X-172960Y944250D01*
X-172960Y960750D01*
X-178290Y956440D02*
X-178288Y956520D01*
X-178282Y956600D01*
X-178272Y956680D01*
X-178258Y956759D01*
X-178241Y956837D01*
X-178219Y956914D01*
X-178194Y956990D01*
X-178165Y957065D01*
X-178132Y957138D01*
X-178096Y957209D01*
X-178056Y957279D01*
X-178013Y957346D01*
X-177966Y957412D01*
X-177917Y957474D01*
X-177864Y957535D01*
X-177808Y957593D01*
X-177750Y957647D01*
X-177689Y957699D01*
X-177625Y957748D01*
X-177560Y957794D01*
X-177492Y957836D01*
X-177421Y957875D01*
X-177350Y957911D01*
X-177276Y957942D01*
X-177201Y957971D01*
X-177125Y957995D01*
X-177047Y958015D01*
X-176969Y958032D01*
X-176890Y958045D01*
X-176810Y958054D01*
X-176730Y958059D01*
X-176650Y958060D01*
X-176570Y958057D01*
X-176490Y958050D01*
X-176411Y958039D01*
X-176332Y958024D01*
X-176254Y958006D01*
X-176177Y957983D01*
X-176101Y957957D01*
X-176027Y957927D01*
X-175954Y957893D01*
X-175883Y957856D01*
X-175814Y957815D01*
X-175747Y957771D01*
X-175682Y957724D01*
X-175620Y957674D01*
X-175560Y957620D01*
X-175503Y957564D01*
X-175449Y957505D01*
X-175398Y957443D01*
X-175350Y957379D01*
X-175305Y957313D01*
X-175264Y957244D01*
X-175226Y957174D01*
X-175191Y957101D01*
X-175160Y957027D01*
X-175133Y956952D01*
X-175110Y956875D01*
X-175090Y956798D01*
X-175074Y956719D01*
X-175062Y956640D01*
X-175054Y956560D01*
X-175050Y956480D01*
X-175050Y956400D01*
X-175054Y956320D01*
X-175062Y956240D01*
X-175074Y956161D01*
X-175090Y956082D01*
X-175110Y956005D01*
X-175133Y955928D01*
X-175160Y955853D01*
X-175191Y955779D01*
X-175226Y955706D01*
X-175264Y955636D01*
X-175305Y955567D01*
X-175350Y955501D01*
X-175398Y955437D01*
X-175449Y955375D01*
X-175503Y955316D01*
X-175560Y955260D01*
X-175620Y955206D01*
X-175682Y955156D01*
X-175747Y955109D01*
X-175814Y955065D01*
X-175883Y955024D01*
X-175954Y954987D01*
X-176027Y954953D01*
X-176101Y954923D01*
X-176177Y954897D01*
X-176254Y954874D01*
X-176332Y954856D01*
X-176411Y954841D01*
X-176490Y954830D01*
X-176570Y954823D01*
X-176650Y954820D01*
X-176730Y954821D01*
X-176810Y954826D01*
X-176890Y954835D01*
X-176969Y954848D01*
X-177047Y954865D01*
X-177125Y954885D01*
X-177201Y954909D01*
X-177276Y954938D01*
X-177350Y954969D01*
X-177421Y955005D01*
X-177492Y955044D01*
X-177560Y955086D01*
X-177625Y955132D01*
X-177689Y955181D01*
X-177750Y955233D01*
X-177808Y955287D01*
X-177864Y955345D01*
X-177917Y955406D01*
X-177966Y955468D01*
X-178013Y955534D01*
X-178056Y955601D01*
X-178096Y955671D01*
X-178132Y955742D01*
X-178165Y955815D01*
X-178194Y955890D01*
X-178219Y955966D01*
X-178241Y956043D01*
X-178258Y956121D01*
X-178272Y956200D01*
X-178282Y956280D01*
X-178288Y956360D01*
X-178290Y956440D01*
D10*
X-137922Y942848D02*
X-126238Y942848D01*
X-137922Y942848D02*
X-137922Y946094D01*
X-137920Y946207D01*
X-137914Y946320D01*
X-137904Y946433D01*
X-137890Y946546D01*
X-137873Y946658D01*
X-137851Y946769D01*
X-137826Y946879D01*
X-137796Y946989D01*
X-137763Y947097D01*
X-137726Y947204D01*
X-137686Y947310D01*
X-137641Y947414D01*
X-137593Y947517D01*
X-137542Y947618D01*
X-137487Y947717D01*
X-137429Y947814D01*
X-137367Y947909D01*
X-137302Y948002D01*
X-137234Y948092D01*
X-137163Y948180D01*
X-137088Y948266D01*
X-137011Y948349D01*
X-136931Y948429D01*
X-136848Y948506D01*
X-136762Y948581D01*
X-136674Y948652D01*
X-136584Y948720D01*
X-136491Y948785D01*
X-136396Y948847D01*
X-136299Y948905D01*
X-136200Y948960D01*
X-136099Y949011D01*
X-135996Y949059D01*
X-135892Y949104D01*
X-135786Y949144D01*
X-135679Y949181D01*
X-135571Y949214D01*
X-135461Y949244D01*
X-135351Y949269D01*
X-135240Y949291D01*
X-135128Y949308D01*
X-135015Y949322D01*
X-134902Y949332D01*
X-134789Y949338D01*
X-134676Y949340D01*
X-134563Y949338D01*
X-134450Y949332D01*
X-134337Y949322D01*
X-134224Y949308D01*
X-134112Y949291D01*
X-134001Y949269D01*
X-133891Y949244D01*
X-133781Y949214D01*
X-133673Y949181D01*
X-133566Y949144D01*
X-133460Y949104D01*
X-133356Y949059D01*
X-133253Y949011D01*
X-133152Y948960D01*
X-133053Y948905D01*
X-132956Y948847D01*
X-132861Y948785D01*
X-132768Y948720D01*
X-132678Y948652D01*
X-132590Y948581D01*
X-132504Y948506D01*
X-132421Y948429D01*
X-132341Y948349D01*
X-132264Y948266D01*
X-132189Y948180D01*
X-132118Y948092D01*
X-132050Y948002D01*
X-131985Y947909D01*
X-131923Y947814D01*
X-131865Y947717D01*
X-131810Y947618D01*
X-131759Y947517D01*
X-131711Y947414D01*
X-131666Y947310D01*
X-131626Y947204D01*
X-131589Y947097D01*
X-131556Y946989D01*
X-131526Y946879D01*
X-131501Y946769D01*
X-131479Y946658D01*
X-131462Y946546D01*
X-131448Y946433D01*
X-131438Y946320D01*
X-131432Y946207D01*
X-131430Y946094D01*
X-131431Y946094D02*
X-131431Y942848D01*
X-131431Y946743D02*
X-126238Y949339D01*
X-135326Y954204D02*
X-137922Y957450D01*
X-126238Y957450D01*
X-126238Y960695D02*
X-126238Y954204D01*
X-243078Y945501D02*
X-243078Y942904D01*
X-243080Y942805D01*
X-243086Y942705D01*
X-243095Y942606D01*
X-243108Y942508D01*
X-243125Y942410D01*
X-243146Y942312D01*
X-243171Y942216D01*
X-243199Y942121D01*
X-243231Y942027D01*
X-243266Y941934D01*
X-243305Y941842D01*
X-243348Y941752D01*
X-243393Y941664D01*
X-243443Y941577D01*
X-243495Y941493D01*
X-243551Y941410D01*
X-243609Y941330D01*
X-243671Y941252D01*
X-243736Y941177D01*
X-243804Y941104D01*
X-243874Y941034D01*
X-243947Y940966D01*
X-244022Y940901D01*
X-244100Y940839D01*
X-244180Y940781D01*
X-244263Y940725D01*
X-244347Y940673D01*
X-244434Y940623D01*
X-244522Y940578D01*
X-244612Y940535D01*
X-244704Y940496D01*
X-244797Y940461D01*
X-244891Y940429D01*
X-244986Y940401D01*
X-245082Y940376D01*
X-245180Y940355D01*
X-245278Y940338D01*
X-245376Y940325D01*
X-245475Y940316D01*
X-245575Y940310D01*
X-245674Y940308D01*
X-252166Y940308D01*
X-252265Y940310D01*
X-252365Y940316D01*
X-252464Y940325D01*
X-252562Y940338D01*
X-252660Y940355D01*
X-252758Y940376D01*
X-252854Y940401D01*
X-252949Y940429D01*
X-253043Y940461D01*
X-253136Y940496D01*
X-253228Y940535D01*
X-253318Y940578D01*
X-253406Y940623D01*
X-253493Y940673D01*
X-253577Y940725D01*
X-253660Y940781D01*
X-253740Y940839D01*
X-253818Y940901D01*
X-253893Y940966D01*
X-253966Y941034D01*
X-254036Y941104D01*
X-254104Y941177D01*
X-254169Y941252D01*
X-254231Y941330D01*
X-254289Y941410D01*
X-254345Y941493D01*
X-254397Y941577D01*
X-254447Y941664D01*
X-254492Y941752D01*
X-254535Y941842D01*
X-254574Y941934D01*
X-254609Y942026D01*
X-254641Y942121D01*
X-254669Y942216D01*
X-254694Y942312D01*
X-254715Y942410D01*
X-254732Y942508D01*
X-254745Y942606D01*
X-254754Y942705D01*
X-254760Y942805D01*
X-254762Y942904D01*
X-254762Y945501D01*
X-243078Y949866D02*
X-243078Y953112D01*
X-243080Y953225D01*
X-243086Y953338D01*
X-243096Y953451D01*
X-243110Y953564D01*
X-243127Y953676D01*
X-243149Y953787D01*
X-243174Y953897D01*
X-243204Y954007D01*
X-243237Y954115D01*
X-243274Y954222D01*
X-243314Y954328D01*
X-243359Y954432D01*
X-243407Y954535D01*
X-243458Y954636D01*
X-243513Y954735D01*
X-243571Y954832D01*
X-243633Y954927D01*
X-243698Y955020D01*
X-243766Y955110D01*
X-243837Y955198D01*
X-243912Y955284D01*
X-243989Y955367D01*
X-244069Y955447D01*
X-244152Y955524D01*
X-244238Y955599D01*
X-244326Y955670D01*
X-244416Y955738D01*
X-244509Y955803D01*
X-244604Y955865D01*
X-244701Y955923D01*
X-244800Y955978D01*
X-244901Y956029D01*
X-245004Y956077D01*
X-245108Y956122D01*
X-245214Y956162D01*
X-245321Y956199D01*
X-245429Y956232D01*
X-245539Y956262D01*
X-245649Y956287D01*
X-245760Y956309D01*
X-245872Y956326D01*
X-245985Y956340D01*
X-246098Y956350D01*
X-246211Y956356D01*
X-246324Y956358D01*
X-246437Y956356D01*
X-246550Y956350D01*
X-246663Y956340D01*
X-246776Y956326D01*
X-246888Y956309D01*
X-246999Y956287D01*
X-247109Y956262D01*
X-247219Y956232D01*
X-247327Y956199D01*
X-247434Y956162D01*
X-247540Y956122D01*
X-247644Y956077D01*
X-247747Y956029D01*
X-247848Y955978D01*
X-247947Y955923D01*
X-248044Y955865D01*
X-248139Y955803D01*
X-248232Y955738D01*
X-248322Y955670D01*
X-248410Y955599D01*
X-248496Y955524D01*
X-248579Y955447D01*
X-248659Y955367D01*
X-248736Y955284D01*
X-248811Y955198D01*
X-248882Y955110D01*
X-248950Y955020D01*
X-249015Y954927D01*
X-249077Y954832D01*
X-249135Y954735D01*
X-249190Y954636D01*
X-249241Y954535D01*
X-249289Y954432D01*
X-249334Y954328D01*
X-249374Y954222D01*
X-249411Y954115D01*
X-249444Y954007D01*
X-249474Y953897D01*
X-249499Y953787D01*
X-249521Y953676D01*
X-249538Y953564D01*
X-249552Y953451D01*
X-249562Y953338D01*
X-249568Y953225D01*
X-249570Y953112D01*
X-254762Y953761D02*
X-254762Y949866D01*
X-254762Y953761D02*
X-254760Y953862D01*
X-254754Y953962D01*
X-254744Y954062D01*
X-254731Y954162D01*
X-254713Y954261D01*
X-254692Y954360D01*
X-254667Y954457D01*
X-254638Y954554D01*
X-254605Y954649D01*
X-254569Y954743D01*
X-254529Y954835D01*
X-254486Y954926D01*
X-254439Y955015D01*
X-254389Y955102D01*
X-254335Y955188D01*
X-254278Y955271D01*
X-254218Y955351D01*
X-254155Y955430D01*
X-254088Y955506D01*
X-254019Y955579D01*
X-253947Y955649D01*
X-253873Y955717D01*
X-253796Y955782D01*
X-253716Y955843D01*
X-253634Y955902D01*
X-253550Y955957D01*
X-253464Y956009D01*
X-253376Y956058D01*
X-253286Y956103D01*
X-253194Y956145D01*
X-253101Y956183D01*
X-253006Y956217D01*
X-252911Y956248D01*
X-252814Y956275D01*
X-252716Y956298D01*
X-252617Y956318D01*
X-252517Y956333D01*
X-252417Y956345D01*
X-252317Y956353D01*
X-252216Y956357D01*
X-252116Y956357D01*
X-252015Y956353D01*
X-251915Y956345D01*
X-251815Y956333D01*
X-251715Y956318D01*
X-251616Y956298D01*
X-251518Y956275D01*
X-251421Y956248D01*
X-251326Y956217D01*
X-251231Y956183D01*
X-251138Y956145D01*
X-251046Y956103D01*
X-250956Y956058D01*
X-250868Y956009D01*
X-250782Y955957D01*
X-250698Y955902D01*
X-250616Y955843D01*
X-250536Y955782D01*
X-250459Y955717D01*
X-250385Y955649D01*
X-250313Y955579D01*
X-250244Y955506D01*
X-250177Y955430D01*
X-250114Y955351D01*
X-250054Y955271D01*
X-249997Y955188D01*
X-249943Y955102D01*
X-249893Y955015D01*
X-249846Y954926D01*
X-249803Y954835D01*
X-249763Y954743D01*
X-249727Y954649D01*
X-249694Y954554D01*
X-249665Y954457D01*
X-249640Y954360D01*
X-249619Y954261D01*
X-249601Y954162D01*
X-249588Y954062D01*
X-249578Y953962D01*
X-249572Y953862D01*
X-249570Y953761D01*
X-249569Y953761D02*
X-249569Y951164D01*
X-217932Y898652D02*
X-217932Y886968D01*
X-217932Y898652D02*
X-214686Y898652D01*
X-214573Y898650D01*
X-214460Y898644D01*
X-214347Y898634D01*
X-214234Y898620D01*
X-214122Y898603D01*
X-214011Y898581D01*
X-213901Y898556D01*
X-213791Y898526D01*
X-213683Y898493D01*
X-213576Y898456D01*
X-213470Y898416D01*
X-213366Y898371D01*
X-213263Y898323D01*
X-213162Y898272D01*
X-213063Y898217D01*
X-212966Y898159D01*
X-212871Y898097D01*
X-212778Y898032D01*
X-212688Y897964D01*
X-212600Y897893D01*
X-212514Y897818D01*
X-212431Y897741D01*
X-212351Y897661D01*
X-212274Y897578D01*
X-212199Y897492D01*
X-212128Y897404D01*
X-212060Y897314D01*
X-211995Y897221D01*
X-211933Y897126D01*
X-211875Y897029D01*
X-211820Y896930D01*
X-211769Y896829D01*
X-211721Y896726D01*
X-211676Y896622D01*
X-211636Y896516D01*
X-211599Y896409D01*
X-211566Y896301D01*
X-211536Y896191D01*
X-211511Y896081D01*
X-211489Y895970D01*
X-211472Y895858D01*
X-211458Y895745D01*
X-211448Y895632D01*
X-211442Y895519D01*
X-211440Y895406D01*
X-211442Y895293D01*
X-211448Y895180D01*
X-211458Y895067D01*
X-211472Y894954D01*
X-211489Y894842D01*
X-211511Y894731D01*
X-211536Y894621D01*
X-211566Y894511D01*
X-211599Y894403D01*
X-211636Y894296D01*
X-211676Y894190D01*
X-211721Y894086D01*
X-211769Y893983D01*
X-211820Y893882D01*
X-211875Y893783D01*
X-211933Y893686D01*
X-211995Y893591D01*
X-212060Y893498D01*
X-212128Y893408D01*
X-212199Y893320D01*
X-212274Y893234D01*
X-212351Y893151D01*
X-212431Y893071D01*
X-212514Y892994D01*
X-212600Y892919D01*
X-212688Y892848D01*
X-212778Y892780D01*
X-212871Y892715D01*
X-212966Y892653D01*
X-213063Y892595D01*
X-213162Y892540D01*
X-213263Y892489D01*
X-213366Y892441D01*
X-213470Y892396D01*
X-213576Y892356D01*
X-213683Y892319D01*
X-213791Y892286D01*
X-213901Y892256D01*
X-214011Y892231D01*
X-214122Y892209D01*
X-214234Y892192D01*
X-214347Y892178D01*
X-214460Y892168D01*
X-214573Y892162D01*
X-214686Y892160D01*
X-214686Y892161D02*
X-217932Y892161D01*
X-214037Y892161D02*
X-211441Y886968D01*
X-200085Y895731D02*
X-200087Y895838D01*
X-200093Y895944D01*
X-200103Y896050D01*
X-200116Y896156D01*
X-200134Y896262D01*
X-200155Y896366D01*
X-200180Y896470D01*
X-200209Y896573D01*
X-200241Y896674D01*
X-200278Y896774D01*
X-200318Y896873D01*
X-200361Y896971D01*
X-200408Y897067D01*
X-200459Y897161D01*
X-200513Y897253D01*
X-200570Y897343D01*
X-200630Y897431D01*
X-200694Y897516D01*
X-200761Y897599D01*
X-200831Y897680D01*
X-200903Y897758D01*
X-200979Y897834D01*
X-201057Y897906D01*
X-201138Y897976D01*
X-201221Y898043D01*
X-201306Y898107D01*
X-201394Y898167D01*
X-201484Y898224D01*
X-201576Y898278D01*
X-201670Y898329D01*
X-201766Y898376D01*
X-201864Y898419D01*
X-201963Y898459D01*
X-202063Y898496D01*
X-202164Y898528D01*
X-202267Y898557D01*
X-202371Y898582D01*
X-202475Y898603D01*
X-202581Y898621D01*
X-202687Y898634D01*
X-202793Y898644D01*
X-202899Y898650D01*
X-203006Y898652D01*
X-203127Y898650D01*
X-203248Y898644D01*
X-203368Y898634D01*
X-203489Y898621D01*
X-203608Y898603D01*
X-203728Y898582D01*
X-203846Y898557D01*
X-203963Y898528D01*
X-204080Y898495D01*
X-204195Y898459D01*
X-204309Y898418D01*
X-204422Y898375D01*
X-204534Y898327D01*
X-204643Y898276D01*
X-204751Y898221D01*
X-204858Y898163D01*
X-204962Y898102D01*
X-205064Y898037D01*
X-205164Y897969D01*
X-205262Y897898D01*
X-205358Y897824D01*
X-205451Y897747D01*
X-205541Y897666D01*
X-205629Y897583D01*
X-205714Y897497D01*
X-205797Y897408D01*
X-205876Y897317D01*
X-205953Y897223D01*
X-206026Y897127D01*
X-206096Y897029D01*
X-206163Y896928D01*
X-206227Y896825D01*
X-206288Y896720D01*
X-206345Y896613D01*
X-206398Y896505D01*
X-206448Y896395D01*
X-206494Y896283D01*
X-206537Y896170D01*
X-206576Y896055D01*
X-201059Y893459D02*
X-200980Y893537D01*
X-200904Y893617D01*
X-200831Y893700D01*
X-200761Y893786D01*
X-200694Y893873D01*
X-200630Y893964D01*
X-200570Y894056D01*
X-200512Y894150D01*
X-200458Y894247D01*
X-200408Y894345D01*
X-200361Y894445D01*
X-200317Y894546D01*
X-200277Y894649D01*
X-200241Y894754D01*
X-200209Y894859D01*
X-200180Y894966D01*
X-200155Y895073D01*
X-200133Y895182D01*
X-200116Y895291D01*
X-200102Y895400D01*
X-200093Y895510D01*
X-200087Y895621D01*
X-200085Y895731D01*
X-201058Y893459D02*
X-206576Y886968D01*
X-200085Y886968D01*
X-176022Y886968D02*
X-176022Y898652D01*
X-172776Y898652D01*
X-172663Y898650D01*
X-172550Y898644D01*
X-172437Y898634D01*
X-172324Y898620D01*
X-172212Y898603D01*
X-172101Y898581D01*
X-171991Y898556D01*
X-171881Y898526D01*
X-171773Y898493D01*
X-171666Y898456D01*
X-171560Y898416D01*
X-171456Y898371D01*
X-171353Y898323D01*
X-171252Y898272D01*
X-171153Y898217D01*
X-171056Y898159D01*
X-170961Y898097D01*
X-170868Y898032D01*
X-170778Y897964D01*
X-170690Y897893D01*
X-170604Y897818D01*
X-170521Y897741D01*
X-170441Y897661D01*
X-170364Y897578D01*
X-170289Y897492D01*
X-170218Y897404D01*
X-170150Y897314D01*
X-170085Y897221D01*
X-170023Y897126D01*
X-169965Y897029D01*
X-169910Y896930D01*
X-169859Y896829D01*
X-169811Y896726D01*
X-169766Y896622D01*
X-169726Y896516D01*
X-169689Y896409D01*
X-169656Y896301D01*
X-169626Y896191D01*
X-169601Y896081D01*
X-169579Y895970D01*
X-169562Y895858D01*
X-169548Y895745D01*
X-169538Y895632D01*
X-169532Y895519D01*
X-169530Y895406D01*
X-169532Y895293D01*
X-169538Y895180D01*
X-169548Y895067D01*
X-169562Y894954D01*
X-169579Y894842D01*
X-169601Y894731D01*
X-169626Y894621D01*
X-169656Y894511D01*
X-169689Y894403D01*
X-169726Y894296D01*
X-169766Y894190D01*
X-169811Y894086D01*
X-169859Y893983D01*
X-169910Y893882D01*
X-169965Y893783D01*
X-170023Y893686D01*
X-170085Y893591D01*
X-170150Y893498D01*
X-170218Y893408D01*
X-170289Y893320D01*
X-170364Y893234D01*
X-170441Y893151D01*
X-170521Y893071D01*
X-170604Y892994D01*
X-170690Y892919D01*
X-170778Y892848D01*
X-170868Y892780D01*
X-170961Y892715D01*
X-171056Y892653D01*
X-171153Y892595D01*
X-171252Y892540D01*
X-171353Y892489D01*
X-171456Y892441D01*
X-171560Y892396D01*
X-171666Y892356D01*
X-171773Y892319D01*
X-171881Y892286D01*
X-171991Y892256D01*
X-172101Y892231D01*
X-172212Y892209D01*
X-172324Y892192D01*
X-172437Y892178D01*
X-172550Y892168D01*
X-172663Y892162D01*
X-172776Y892160D01*
X-172776Y892161D02*
X-176022Y892161D01*
X-172127Y892161D02*
X-169531Y886968D01*
X-164666Y886968D02*
X-161420Y886968D01*
X-161307Y886970D01*
X-161194Y886976D01*
X-161081Y886986D01*
X-160968Y887000D01*
X-160856Y887017D01*
X-160745Y887039D01*
X-160635Y887064D01*
X-160525Y887094D01*
X-160417Y887127D01*
X-160310Y887164D01*
X-160204Y887204D01*
X-160100Y887249D01*
X-159997Y887297D01*
X-159896Y887348D01*
X-159797Y887403D01*
X-159700Y887461D01*
X-159605Y887523D01*
X-159512Y887588D01*
X-159422Y887656D01*
X-159334Y887727D01*
X-159248Y887802D01*
X-159165Y887879D01*
X-159085Y887959D01*
X-159008Y888042D01*
X-158933Y888128D01*
X-158862Y888216D01*
X-158794Y888306D01*
X-158729Y888399D01*
X-158667Y888494D01*
X-158609Y888591D01*
X-158554Y888690D01*
X-158503Y888791D01*
X-158455Y888894D01*
X-158410Y888998D01*
X-158370Y889104D01*
X-158333Y889211D01*
X-158300Y889319D01*
X-158270Y889429D01*
X-158245Y889539D01*
X-158223Y889650D01*
X-158206Y889762D01*
X-158192Y889875D01*
X-158182Y889988D01*
X-158176Y890101D01*
X-158174Y890214D01*
X-158176Y890327D01*
X-158182Y890440D01*
X-158192Y890553D01*
X-158206Y890666D01*
X-158223Y890778D01*
X-158245Y890889D01*
X-158270Y890999D01*
X-158300Y891109D01*
X-158333Y891217D01*
X-158370Y891324D01*
X-158410Y891430D01*
X-158455Y891534D01*
X-158503Y891637D01*
X-158554Y891738D01*
X-158609Y891837D01*
X-158667Y891934D01*
X-158729Y892029D01*
X-158794Y892122D01*
X-158862Y892212D01*
X-158933Y892300D01*
X-159008Y892386D01*
X-159085Y892469D01*
X-159165Y892549D01*
X-159248Y892626D01*
X-159334Y892701D01*
X-159422Y892772D01*
X-159512Y892840D01*
X-159605Y892905D01*
X-159700Y892967D01*
X-159797Y893025D01*
X-159896Y893080D01*
X-159997Y893131D01*
X-160100Y893179D01*
X-160204Y893224D01*
X-160310Y893264D01*
X-160417Y893301D01*
X-160525Y893334D01*
X-160635Y893364D01*
X-160745Y893389D01*
X-160856Y893411D01*
X-160968Y893428D01*
X-161081Y893442D01*
X-161194Y893452D01*
X-161307Y893458D01*
X-161420Y893460D01*
X-160771Y898652D02*
X-164666Y898652D01*
X-160771Y898652D02*
X-160670Y898650D01*
X-160570Y898644D01*
X-160470Y898634D01*
X-160370Y898621D01*
X-160271Y898603D01*
X-160172Y898582D01*
X-160075Y898557D01*
X-159978Y898528D01*
X-159883Y898495D01*
X-159789Y898459D01*
X-159697Y898419D01*
X-159606Y898376D01*
X-159517Y898329D01*
X-159430Y898279D01*
X-159344Y898225D01*
X-159261Y898168D01*
X-159181Y898108D01*
X-159102Y898045D01*
X-159026Y897978D01*
X-158953Y897909D01*
X-158883Y897837D01*
X-158815Y897763D01*
X-158750Y897686D01*
X-158689Y897606D01*
X-158630Y897524D01*
X-158575Y897440D01*
X-158523Y897354D01*
X-158474Y897266D01*
X-158429Y897176D01*
X-158387Y897084D01*
X-158349Y896991D01*
X-158315Y896896D01*
X-158284Y896801D01*
X-158257Y896704D01*
X-158234Y896606D01*
X-158214Y896507D01*
X-158199Y896407D01*
X-158187Y896307D01*
X-158179Y896207D01*
X-158175Y896106D01*
X-158175Y896006D01*
X-158179Y895905D01*
X-158187Y895805D01*
X-158199Y895705D01*
X-158214Y895605D01*
X-158234Y895506D01*
X-158257Y895408D01*
X-158284Y895311D01*
X-158315Y895216D01*
X-158349Y895121D01*
X-158387Y895028D01*
X-158429Y894936D01*
X-158474Y894846D01*
X-158523Y894758D01*
X-158575Y894672D01*
X-158630Y894588D01*
X-158689Y894506D01*
X-158750Y894426D01*
X-158815Y894349D01*
X-158883Y894275D01*
X-158953Y894203D01*
X-159026Y894134D01*
X-159102Y894067D01*
X-159181Y894004D01*
X-159261Y893944D01*
X-159344Y893887D01*
X-159430Y893833D01*
X-159517Y893783D01*
X-159606Y893736D01*
X-159697Y893693D01*
X-159789Y893653D01*
X-159883Y893617D01*
X-159978Y893584D01*
X-160075Y893555D01*
X-160172Y893530D01*
X-160271Y893509D01*
X-160370Y893491D01*
X-160470Y893478D01*
X-160570Y893468D01*
X-160670Y893462D01*
X-160771Y893460D01*
X-160771Y893459D02*
X-163367Y893459D01*
D11*
X-91440Y988060D02*
X-91440Y1056640D01*
X10160Y1056640D02*
X10160Y988060D01*
X10160Y1056640D02*
X-91440Y1056640D01*
X-27940Y988060D02*
X10160Y988060D01*
X-27940Y988060D02*
X-78740Y988060D01*
X-91440Y988060D01*
X-78740Y988060D02*
X-78740Y1000760D01*
X-27940Y1000760D01*
X-27940Y988060D01*
X-89196Y1044377D02*
X-89196Y1048131D01*
X-89197Y1044377D02*
X-89199Y1044312D01*
X-89205Y1044248D01*
X-89215Y1044184D01*
X-89228Y1044120D01*
X-89246Y1044058D01*
X-89267Y1043997D01*
X-89291Y1043937D01*
X-89320Y1043879D01*
X-89352Y1043822D01*
X-89387Y1043768D01*
X-89425Y1043716D01*
X-89467Y1043666D01*
X-89511Y1043619D01*
X-89558Y1043575D01*
X-89608Y1043533D01*
X-89660Y1043495D01*
X-89714Y1043460D01*
X-89771Y1043428D01*
X-89829Y1043399D01*
X-89889Y1043375D01*
X-89950Y1043354D01*
X-90012Y1043336D01*
X-90076Y1043323D01*
X-90140Y1043313D01*
X-90204Y1043307D01*
X-90269Y1043305D01*
X-90805Y1043305D01*
X-86248Y1044377D02*
X-85176Y1048131D01*
X-86248Y1044377D02*
X-83567Y1044377D01*
X-84372Y1043305D02*
X-84372Y1045450D01*
X-53100Y962020D02*
X-23100Y962020D01*
X-53100Y962020D02*
X-53100Y945520D01*
X-23100Y945520D01*
X-23100Y962020D01*
X-28430Y957710D02*
X-28428Y957790D01*
X-28422Y957870D01*
X-28412Y957950D01*
X-28398Y958029D01*
X-28381Y958107D01*
X-28359Y958184D01*
X-28334Y958260D01*
X-28305Y958335D01*
X-28272Y958408D01*
X-28236Y958479D01*
X-28196Y958549D01*
X-28153Y958616D01*
X-28106Y958682D01*
X-28057Y958744D01*
X-28004Y958805D01*
X-27948Y958863D01*
X-27890Y958917D01*
X-27829Y958969D01*
X-27765Y959018D01*
X-27700Y959064D01*
X-27632Y959106D01*
X-27561Y959145D01*
X-27490Y959181D01*
X-27416Y959212D01*
X-27341Y959241D01*
X-27265Y959265D01*
X-27187Y959285D01*
X-27109Y959302D01*
X-27030Y959315D01*
X-26950Y959324D01*
X-26870Y959329D01*
X-26790Y959330D01*
X-26710Y959327D01*
X-26630Y959320D01*
X-26551Y959309D01*
X-26472Y959294D01*
X-26394Y959276D01*
X-26317Y959253D01*
X-26241Y959227D01*
X-26167Y959197D01*
X-26094Y959163D01*
X-26023Y959126D01*
X-25954Y959085D01*
X-25887Y959041D01*
X-25822Y958994D01*
X-25760Y958944D01*
X-25700Y958890D01*
X-25643Y958834D01*
X-25589Y958775D01*
X-25538Y958713D01*
X-25490Y958649D01*
X-25445Y958583D01*
X-25404Y958514D01*
X-25366Y958444D01*
X-25331Y958371D01*
X-25300Y958297D01*
X-25273Y958222D01*
X-25250Y958145D01*
X-25230Y958068D01*
X-25214Y957989D01*
X-25202Y957910D01*
X-25194Y957830D01*
X-25190Y957750D01*
X-25190Y957670D01*
X-25194Y957590D01*
X-25202Y957510D01*
X-25214Y957431D01*
X-25230Y957352D01*
X-25250Y957275D01*
X-25273Y957198D01*
X-25300Y957123D01*
X-25331Y957049D01*
X-25366Y956976D01*
X-25404Y956906D01*
X-25445Y956837D01*
X-25490Y956771D01*
X-25538Y956707D01*
X-25589Y956645D01*
X-25643Y956586D01*
X-25700Y956530D01*
X-25760Y956476D01*
X-25822Y956426D01*
X-25887Y956379D01*
X-25954Y956335D01*
X-26023Y956294D01*
X-26094Y956257D01*
X-26167Y956223D01*
X-26241Y956193D01*
X-26317Y956167D01*
X-26394Y956144D01*
X-26472Y956126D01*
X-26551Y956111D01*
X-26630Y956100D01*
X-26710Y956093D01*
X-26790Y956090D01*
X-26870Y956091D01*
X-26950Y956096D01*
X-27030Y956105D01*
X-27109Y956118D01*
X-27187Y956135D01*
X-27265Y956155D01*
X-27341Y956179D01*
X-27416Y956208D01*
X-27490Y956239D01*
X-27561Y956275D01*
X-27632Y956314D01*
X-27700Y956356D01*
X-27765Y956402D01*
X-27829Y956451D01*
X-27890Y956503D01*
X-27948Y956557D01*
X-28004Y956615D01*
X-28057Y956676D01*
X-28106Y956738D01*
X-28153Y956804D01*
X-28196Y956871D01*
X-28236Y956941D01*
X-28272Y957012D01*
X-28305Y957085D01*
X-28334Y957160D01*
X-28359Y957236D01*
X-28381Y957313D01*
X-28398Y957391D01*
X-28412Y957470D01*
X-28422Y957550D01*
X-28428Y957630D01*
X-28430Y957710D01*
D10*
X13208Y945388D02*
X24892Y945388D01*
X13208Y945388D02*
X13208Y948634D01*
X13210Y948747D01*
X13216Y948860D01*
X13226Y948973D01*
X13240Y949086D01*
X13257Y949198D01*
X13279Y949309D01*
X13304Y949419D01*
X13334Y949529D01*
X13367Y949637D01*
X13404Y949744D01*
X13444Y949850D01*
X13489Y949954D01*
X13537Y950057D01*
X13588Y950158D01*
X13643Y950257D01*
X13701Y950354D01*
X13763Y950449D01*
X13828Y950542D01*
X13896Y950632D01*
X13967Y950720D01*
X14042Y950806D01*
X14119Y950889D01*
X14199Y950969D01*
X14282Y951046D01*
X14368Y951121D01*
X14456Y951192D01*
X14546Y951260D01*
X14639Y951325D01*
X14734Y951387D01*
X14831Y951445D01*
X14930Y951500D01*
X15031Y951551D01*
X15134Y951599D01*
X15238Y951644D01*
X15344Y951684D01*
X15451Y951721D01*
X15559Y951754D01*
X15669Y951784D01*
X15779Y951809D01*
X15890Y951831D01*
X16002Y951848D01*
X16115Y951862D01*
X16228Y951872D01*
X16341Y951878D01*
X16454Y951880D01*
X16567Y951878D01*
X16680Y951872D01*
X16793Y951862D01*
X16906Y951848D01*
X17018Y951831D01*
X17129Y951809D01*
X17239Y951784D01*
X17349Y951754D01*
X17457Y951721D01*
X17564Y951684D01*
X17670Y951644D01*
X17774Y951599D01*
X17877Y951551D01*
X17978Y951500D01*
X18077Y951445D01*
X18174Y951387D01*
X18269Y951325D01*
X18362Y951260D01*
X18452Y951192D01*
X18540Y951121D01*
X18626Y951046D01*
X18709Y950969D01*
X18789Y950889D01*
X18866Y950806D01*
X18941Y950720D01*
X19012Y950632D01*
X19080Y950542D01*
X19145Y950449D01*
X19207Y950354D01*
X19265Y950257D01*
X19320Y950158D01*
X19371Y950057D01*
X19419Y949954D01*
X19464Y949850D01*
X19504Y949744D01*
X19541Y949637D01*
X19574Y949529D01*
X19604Y949419D01*
X19629Y949309D01*
X19651Y949198D01*
X19668Y949086D01*
X19682Y948973D01*
X19692Y948860D01*
X19698Y948747D01*
X19700Y948634D01*
X19699Y948634D02*
X19699Y945388D01*
X19699Y949283D02*
X24892Y951879D01*
X14506Y956744D02*
X13208Y956744D01*
X13208Y963235D01*
X24892Y959990D01*
X-91948Y955106D02*
X-91948Y952509D01*
X-91950Y952410D01*
X-91956Y952310D01*
X-91965Y952211D01*
X-91978Y952113D01*
X-91995Y952015D01*
X-92016Y951917D01*
X-92041Y951821D01*
X-92069Y951726D01*
X-92101Y951632D01*
X-92136Y951539D01*
X-92175Y951447D01*
X-92218Y951357D01*
X-92263Y951269D01*
X-92313Y951182D01*
X-92365Y951098D01*
X-92421Y951015D01*
X-92479Y950935D01*
X-92541Y950857D01*
X-92606Y950782D01*
X-92674Y950709D01*
X-92744Y950639D01*
X-92817Y950571D01*
X-92892Y950506D01*
X-92970Y950444D01*
X-93050Y950386D01*
X-93133Y950330D01*
X-93217Y950278D01*
X-93304Y950228D01*
X-93392Y950183D01*
X-93482Y950140D01*
X-93574Y950101D01*
X-93667Y950066D01*
X-93761Y950034D01*
X-93856Y950006D01*
X-93952Y949981D01*
X-94050Y949960D01*
X-94148Y949943D01*
X-94246Y949930D01*
X-94345Y949921D01*
X-94445Y949915D01*
X-94544Y949913D01*
X-101036Y949913D01*
X-101135Y949915D01*
X-101235Y949921D01*
X-101334Y949930D01*
X-101432Y949943D01*
X-101530Y949960D01*
X-101628Y949981D01*
X-101724Y950006D01*
X-101819Y950034D01*
X-101913Y950066D01*
X-102006Y950101D01*
X-102098Y950140D01*
X-102188Y950183D01*
X-102276Y950228D01*
X-102363Y950278D01*
X-102447Y950330D01*
X-102530Y950386D01*
X-102610Y950444D01*
X-102688Y950506D01*
X-102763Y950571D01*
X-102836Y950639D01*
X-102906Y950709D01*
X-102974Y950782D01*
X-103039Y950857D01*
X-103101Y950935D01*
X-103159Y951015D01*
X-103215Y951098D01*
X-103267Y951182D01*
X-103317Y951269D01*
X-103362Y951357D01*
X-103405Y951447D01*
X-103444Y951539D01*
X-103479Y951631D01*
X-103511Y951726D01*
X-103539Y951821D01*
X-103564Y951917D01*
X-103585Y952015D01*
X-103602Y952113D01*
X-103615Y952211D01*
X-103624Y952310D01*
X-103630Y952410D01*
X-103632Y952509D01*
X-103632Y955106D01*
X-91948Y959471D02*
X-91948Y963366D01*
X-91950Y963465D01*
X-91956Y963565D01*
X-91965Y963664D01*
X-91978Y963762D01*
X-91995Y963860D01*
X-92016Y963958D01*
X-92041Y964054D01*
X-92069Y964149D01*
X-92101Y964243D01*
X-92136Y964336D01*
X-92175Y964428D01*
X-92218Y964518D01*
X-92263Y964606D01*
X-92313Y964693D01*
X-92365Y964777D01*
X-92421Y964860D01*
X-92479Y964940D01*
X-92541Y965018D01*
X-92606Y965093D01*
X-92674Y965166D01*
X-92744Y965236D01*
X-92817Y965304D01*
X-92892Y965369D01*
X-92970Y965431D01*
X-93050Y965489D01*
X-93133Y965545D01*
X-93217Y965597D01*
X-93304Y965647D01*
X-93392Y965692D01*
X-93482Y965735D01*
X-93574Y965774D01*
X-93667Y965809D01*
X-93761Y965841D01*
X-93856Y965869D01*
X-93952Y965894D01*
X-94050Y965915D01*
X-94148Y965932D01*
X-94246Y965945D01*
X-94345Y965954D01*
X-94445Y965960D01*
X-94544Y965962D01*
X-95843Y965962D01*
X-95942Y965960D01*
X-96042Y965954D01*
X-96141Y965945D01*
X-96239Y965932D01*
X-96337Y965915D01*
X-96435Y965894D01*
X-96531Y965869D01*
X-96626Y965841D01*
X-96720Y965809D01*
X-96813Y965774D01*
X-96905Y965735D01*
X-96995Y965692D01*
X-97083Y965647D01*
X-97170Y965597D01*
X-97254Y965545D01*
X-97337Y965489D01*
X-97417Y965431D01*
X-97495Y965369D01*
X-97570Y965304D01*
X-97643Y965236D01*
X-97713Y965166D01*
X-97781Y965093D01*
X-97846Y965018D01*
X-97908Y964940D01*
X-97966Y964860D01*
X-98022Y964777D01*
X-98074Y964693D01*
X-98124Y964606D01*
X-98169Y964518D01*
X-98212Y964428D01*
X-98251Y964336D01*
X-98286Y964243D01*
X-98318Y964149D01*
X-98346Y964054D01*
X-98371Y963958D01*
X-98392Y963860D01*
X-98409Y963762D01*
X-98422Y963664D01*
X-98431Y963565D01*
X-98437Y963465D01*
X-98439Y963366D01*
X-98439Y959471D01*
X-103632Y959471D01*
X-103632Y965962D01*
X-71882Y901192D02*
X-71882Y889508D01*
X-71882Y901192D02*
X-68636Y901192D01*
X-68523Y901190D01*
X-68410Y901184D01*
X-68297Y901174D01*
X-68184Y901160D01*
X-68072Y901143D01*
X-67961Y901121D01*
X-67851Y901096D01*
X-67741Y901066D01*
X-67633Y901033D01*
X-67526Y900996D01*
X-67420Y900956D01*
X-67316Y900911D01*
X-67213Y900863D01*
X-67112Y900812D01*
X-67013Y900757D01*
X-66916Y900699D01*
X-66821Y900637D01*
X-66728Y900572D01*
X-66638Y900504D01*
X-66550Y900433D01*
X-66464Y900358D01*
X-66381Y900281D01*
X-66301Y900201D01*
X-66224Y900118D01*
X-66149Y900032D01*
X-66078Y899944D01*
X-66010Y899854D01*
X-65945Y899761D01*
X-65883Y899666D01*
X-65825Y899569D01*
X-65770Y899470D01*
X-65719Y899369D01*
X-65671Y899266D01*
X-65626Y899162D01*
X-65586Y899056D01*
X-65549Y898949D01*
X-65516Y898841D01*
X-65486Y898731D01*
X-65461Y898621D01*
X-65439Y898510D01*
X-65422Y898398D01*
X-65408Y898285D01*
X-65398Y898172D01*
X-65392Y898059D01*
X-65390Y897946D01*
X-65392Y897833D01*
X-65398Y897720D01*
X-65408Y897607D01*
X-65422Y897494D01*
X-65439Y897382D01*
X-65461Y897271D01*
X-65486Y897161D01*
X-65516Y897051D01*
X-65549Y896943D01*
X-65586Y896836D01*
X-65626Y896730D01*
X-65671Y896626D01*
X-65719Y896523D01*
X-65770Y896422D01*
X-65825Y896323D01*
X-65883Y896226D01*
X-65945Y896131D01*
X-66010Y896038D01*
X-66078Y895948D01*
X-66149Y895860D01*
X-66224Y895774D01*
X-66301Y895691D01*
X-66381Y895611D01*
X-66464Y895534D01*
X-66550Y895459D01*
X-66638Y895388D01*
X-66728Y895320D01*
X-66821Y895255D01*
X-66916Y895193D01*
X-67013Y895135D01*
X-67112Y895080D01*
X-67213Y895029D01*
X-67316Y894981D01*
X-67420Y894936D01*
X-67526Y894896D01*
X-67633Y894859D01*
X-67741Y894826D01*
X-67851Y894796D01*
X-67961Y894771D01*
X-68072Y894749D01*
X-68184Y894732D01*
X-68297Y894718D01*
X-68410Y894708D01*
X-68523Y894702D01*
X-68636Y894700D01*
X-68636Y894701D02*
X-71882Y894701D01*
X-67987Y894701D02*
X-65391Y889508D01*
X-60526Y892754D02*
X-60524Y892867D01*
X-60518Y892980D01*
X-60508Y893093D01*
X-60494Y893206D01*
X-60477Y893318D01*
X-60455Y893429D01*
X-60430Y893539D01*
X-60400Y893649D01*
X-60367Y893757D01*
X-60330Y893864D01*
X-60290Y893970D01*
X-60245Y894074D01*
X-60197Y894177D01*
X-60146Y894278D01*
X-60091Y894377D01*
X-60033Y894474D01*
X-59971Y894569D01*
X-59906Y894662D01*
X-59838Y894752D01*
X-59767Y894840D01*
X-59692Y894926D01*
X-59615Y895009D01*
X-59535Y895089D01*
X-59452Y895166D01*
X-59366Y895241D01*
X-59278Y895312D01*
X-59188Y895380D01*
X-59095Y895445D01*
X-59000Y895507D01*
X-58903Y895565D01*
X-58804Y895620D01*
X-58703Y895671D01*
X-58600Y895719D01*
X-58496Y895764D01*
X-58390Y895804D01*
X-58283Y895841D01*
X-58175Y895874D01*
X-58065Y895904D01*
X-57955Y895929D01*
X-57844Y895951D01*
X-57732Y895968D01*
X-57619Y895982D01*
X-57506Y895992D01*
X-57393Y895998D01*
X-57280Y896000D01*
X-57167Y895998D01*
X-57054Y895992D01*
X-56941Y895982D01*
X-56828Y895968D01*
X-56716Y895951D01*
X-56605Y895929D01*
X-56495Y895904D01*
X-56385Y895874D01*
X-56277Y895841D01*
X-56170Y895804D01*
X-56064Y895764D01*
X-55960Y895719D01*
X-55857Y895671D01*
X-55756Y895620D01*
X-55657Y895565D01*
X-55560Y895507D01*
X-55465Y895445D01*
X-55372Y895380D01*
X-55282Y895312D01*
X-55194Y895241D01*
X-55108Y895166D01*
X-55025Y895089D01*
X-54945Y895009D01*
X-54868Y894926D01*
X-54793Y894840D01*
X-54722Y894752D01*
X-54654Y894662D01*
X-54589Y894569D01*
X-54527Y894474D01*
X-54469Y894377D01*
X-54414Y894278D01*
X-54363Y894177D01*
X-54315Y894074D01*
X-54270Y893970D01*
X-54230Y893864D01*
X-54193Y893757D01*
X-54160Y893649D01*
X-54130Y893539D01*
X-54105Y893429D01*
X-54083Y893318D01*
X-54066Y893206D01*
X-54052Y893093D01*
X-54042Y892980D01*
X-54036Y892867D01*
X-54034Y892754D01*
X-54036Y892641D01*
X-54042Y892528D01*
X-54052Y892415D01*
X-54066Y892302D01*
X-54083Y892190D01*
X-54105Y892079D01*
X-54130Y891969D01*
X-54160Y891859D01*
X-54193Y891751D01*
X-54230Y891644D01*
X-54270Y891538D01*
X-54315Y891434D01*
X-54363Y891331D01*
X-54414Y891230D01*
X-54469Y891131D01*
X-54527Y891034D01*
X-54589Y890939D01*
X-54654Y890846D01*
X-54722Y890756D01*
X-54793Y890668D01*
X-54868Y890582D01*
X-54945Y890499D01*
X-55025Y890419D01*
X-55108Y890342D01*
X-55194Y890267D01*
X-55282Y890196D01*
X-55372Y890128D01*
X-55465Y890063D01*
X-55560Y890001D01*
X-55657Y889943D01*
X-55756Y889888D01*
X-55857Y889837D01*
X-55960Y889789D01*
X-56064Y889744D01*
X-56170Y889704D01*
X-56277Y889667D01*
X-56385Y889634D01*
X-56495Y889604D01*
X-56605Y889579D01*
X-56716Y889557D01*
X-56828Y889540D01*
X-56941Y889526D01*
X-57054Y889516D01*
X-57167Y889510D01*
X-57280Y889508D01*
X-57393Y889510D01*
X-57506Y889516D01*
X-57619Y889526D01*
X-57732Y889540D01*
X-57844Y889557D01*
X-57955Y889579D01*
X-58065Y889604D01*
X-58175Y889634D01*
X-58283Y889667D01*
X-58390Y889704D01*
X-58496Y889744D01*
X-58600Y889789D01*
X-58703Y889837D01*
X-58804Y889888D01*
X-58903Y889943D01*
X-59000Y890001D01*
X-59095Y890063D01*
X-59188Y890128D01*
X-59278Y890196D01*
X-59366Y890267D01*
X-59452Y890342D01*
X-59535Y890419D01*
X-59615Y890499D01*
X-59692Y890582D01*
X-59767Y890668D01*
X-59838Y890756D01*
X-59906Y890846D01*
X-59971Y890939D01*
X-60033Y891034D01*
X-60091Y891131D01*
X-60146Y891230D01*
X-60197Y891331D01*
X-60245Y891434D01*
X-60290Y891538D01*
X-60330Y891644D01*
X-60367Y891751D01*
X-60400Y891859D01*
X-60430Y891969D01*
X-60455Y892079D01*
X-60477Y892190D01*
X-60494Y892302D01*
X-60508Y892415D01*
X-60518Y892528D01*
X-60524Y892641D01*
X-60526Y892754D01*
X-59876Y898596D02*
X-59874Y898697D01*
X-59868Y898797D01*
X-59858Y898897D01*
X-59845Y898997D01*
X-59827Y899096D01*
X-59806Y899195D01*
X-59781Y899292D01*
X-59752Y899389D01*
X-59719Y899484D01*
X-59683Y899578D01*
X-59643Y899670D01*
X-59600Y899761D01*
X-59553Y899850D01*
X-59503Y899937D01*
X-59449Y900023D01*
X-59392Y900106D01*
X-59332Y900186D01*
X-59269Y900265D01*
X-59202Y900341D01*
X-59133Y900414D01*
X-59061Y900484D01*
X-58987Y900552D01*
X-58910Y900617D01*
X-58830Y900678D01*
X-58748Y900737D01*
X-58664Y900792D01*
X-58578Y900844D01*
X-58490Y900893D01*
X-58400Y900938D01*
X-58308Y900980D01*
X-58215Y901018D01*
X-58120Y901052D01*
X-58025Y901083D01*
X-57928Y901110D01*
X-57830Y901133D01*
X-57731Y901153D01*
X-57631Y901168D01*
X-57531Y901180D01*
X-57431Y901188D01*
X-57330Y901192D01*
X-57230Y901192D01*
X-57129Y901188D01*
X-57029Y901180D01*
X-56929Y901168D01*
X-56829Y901153D01*
X-56730Y901133D01*
X-56632Y901110D01*
X-56535Y901083D01*
X-56440Y901052D01*
X-56345Y901018D01*
X-56252Y900980D01*
X-56160Y900938D01*
X-56070Y900893D01*
X-55982Y900844D01*
X-55896Y900792D01*
X-55812Y900737D01*
X-55730Y900678D01*
X-55650Y900617D01*
X-55573Y900552D01*
X-55499Y900484D01*
X-55427Y900414D01*
X-55358Y900341D01*
X-55291Y900265D01*
X-55228Y900186D01*
X-55168Y900106D01*
X-55111Y900023D01*
X-55057Y899937D01*
X-55007Y899850D01*
X-54960Y899761D01*
X-54917Y899670D01*
X-54877Y899578D01*
X-54841Y899484D01*
X-54808Y899389D01*
X-54779Y899292D01*
X-54754Y899195D01*
X-54733Y899096D01*
X-54715Y898997D01*
X-54702Y898897D01*
X-54692Y898797D01*
X-54686Y898697D01*
X-54684Y898596D01*
X-54686Y898495D01*
X-54692Y898395D01*
X-54702Y898295D01*
X-54715Y898195D01*
X-54733Y898096D01*
X-54754Y897997D01*
X-54779Y897900D01*
X-54808Y897803D01*
X-54841Y897708D01*
X-54877Y897614D01*
X-54917Y897522D01*
X-54960Y897431D01*
X-55007Y897342D01*
X-55057Y897255D01*
X-55111Y897169D01*
X-55168Y897086D01*
X-55228Y897006D01*
X-55291Y896927D01*
X-55358Y896851D01*
X-55427Y896778D01*
X-55499Y896708D01*
X-55573Y896640D01*
X-55650Y896575D01*
X-55730Y896514D01*
X-55812Y896455D01*
X-55896Y896400D01*
X-55982Y896348D01*
X-56070Y896299D01*
X-56160Y896254D01*
X-56252Y896212D01*
X-56345Y896174D01*
X-56440Y896140D01*
X-56535Y896109D01*
X-56632Y896082D01*
X-56730Y896059D01*
X-56829Y896039D01*
X-56929Y896024D01*
X-57029Y896012D01*
X-57129Y896004D01*
X-57230Y896000D01*
X-57330Y896000D01*
X-57431Y896004D01*
X-57531Y896012D01*
X-57631Y896024D01*
X-57731Y896039D01*
X-57830Y896059D01*
X-57928Y896082D01*
X-58025Y896109D01*
X-58120Y896140D01*
X-58215Y896174D01*
X-58308Y896212D01*
X-58400Y896254D01*
X-58490Y896299D01*
X-58578Y896348D01*
X-58664Y896400D01*
X-58748Y896455D01*
X-58830Y896514D01*
X-58910Y896575D01*
X-58987Y896640D01*
X-59061Y896708D01*
X-59133Y896778D01*
X-59202Y896851D01*
X-59269Y896927D01*
X-59332Y897006D01*
X-59392Y897086D01*
X-59449Y897169D01*
X-59503Y897255D01*
X-59553Y897342D01*
X-59600Y897431D01*
X-59643Y897522D01*
X-59683Y897614D01*
X-59719Y897708D01*
X-59752Y897803D01*
X-59781Y897900D01*
X-59806Y897997D01*
X-59827Y898096D01*
X-59845Y898195D01*
X-59858Y898295D01*
X-59868Y898395D01*
X-59874Y898495D01*
X-59876Y898596D01*
X-23435Y901192D02*
X-23435Y889508D01*
X-23435Y901192D02*
X-20190Y901192D01*
X-20077Y901190D01*
X-19964Y901184D01*
X-19851Y901174D01*
X-19738Y901160D01*
X-19626Y901143D01*
X-19515Y901121D01*
X-19405Y901096D01*
X-19295Y901066D01*
X-19187Y901033D01*
X-19080Y900996D01*
X-18974Y900956D01*
X-18870Y900911D01*
X-18767Y900863D01*
X-18666Y900812D01*
X-18567Y900757D01*
X-18470Y900699D01*
X-18375Y900637D01*
X-18282Y900572D01*
X-18192Y900504D01*
X-18104Y900433D01*
X-18018Y900358D01*
X-17935Y900281D01*
X-17855Y900201D01*
X-17778Y900118D01*
X-17703Y900032D01*
X-17632Y899944D01*
X-17564Y899854D01*
X-17499Y899761D01*
X-17437Y899666D01*
X-17379Y899569D01*
X-17324Y899470D01*
X-17273Y899369D01*
X-17225Y899266D01*
X-17180Y899162D01*
X-17140Y899056D01*
X-17103Y898949D01*
X-17070Y898841D01*
X-17040Y898731D01*
X-17015Y898621D01*
X-16993Y898510D01*
X-16976Y898398D01*
X-16962Y898285D01*
X-16952Y898172D01*
X-16946Y898059D01*
X-16944Y897946D01*
X-16946Y897833D01*
X-16952Y897720D01*
X-16962Y897607D01*
X-16976Y897494D01*
X-16993Y897382D01*
X-17015Y897271D01*
X-17040Y897161D01*
X-17070Y897051D01*
X-17103Y896943D01*
X-17140Y896836D01*
X-17180Y896730D01*
X-17225Y896626D01*
X-17273Y896523D01*
X-17324Y896422D01*
X-17379Y896323D01*
X-17437Y896226D01*
X-17499Y896131D01*
X-17564Y896038D01*
X-17632Y895948D01*
X-17703Y895860D01*
X-17778Y895774D01*
X-17855Y895691D01*
X-17935Y895611D01*
X-18018Y895534D01*
X-18104Y895459D01*
X-18192Y895388D01*
X-18282Y895320D01*
X-18375Y895255D01*
X-18470Y895193D01*
X-18567Y895135D01*
X-18666Y895080D01*
X-18767Y895029D01*
X-18870Y894981D01*
X-18974Y894936D01*
X-19080Y894896D01*
X-19187Y894859D01*
X-19295Y894826D01*
X-19405Y894796D01*
X-19515Y894771D01*
X-19626Y894749D01*
X-19738Y894732D01*
X-19851Y894718D01*
X-19964Y894708D01*
X-20077Y894702D01*
X-20190Y894700D01*
X-20190Y894701D02*
X-23435Y894701D01*
X-19541Y894701D02*
X-16944Y889508D01*
X-9483Y894701D02*
X-5588Y894701D01*
X-9483Y894701D02*
X-9582Y894703D01*
X-9682Y894709D01*
X-9781Y894718D01*
X-9879Y894731D01*
X-9977Y894748D01*
X-10075Y894769D01*
X-10171Y894794D01*
X-10266Y894822D01*
X-10360Y894854D01*
X-10453Y894889D01*
X-10545Y894928D01*
X-10635Y894971D01*
X-10723Y895016D01*
X-10810Y895066D01*
X-10894Y895118D01*
X-10977Y895174D01*
X-11057Y895232D01*
X-11135Y895294D01*
X-11210Y895359D01*
X-11283Y895427D01*
X-11353Y895497D01*
X-11421Y895570D01*
X-11486Y895645D01*
X-11548Y895723D01*
X-11606Y895803D01*
X-11662Y895886D01*
X-11714Y895970D01*
X-11764Y896057D01*
X-11809Y896145D01*
X-11852Y896235D01*
X-11891Y896327D01*
X-11926Y896420D01*
X-11958Y896514D01*
X-11986Y896609D01*
X-12011Y896705D01*
X-12032Y896803D01*
X-12049Y896901D01*
X-12062Y896999D01*
X-12071Y897098D01*
X-12077Y897198D01*
X-12079Y897297D01*
X-12079Y897946D01*
X-12080Y897946D02*
X-12078Y898059D01*
X-12072Y898172D01*
X-12062Y898285D01*
X-12048Y898398D01*
X-12031Y898510D01*
X-12009Y898621D01*
X-11984Y898731D01*
X-11954Y898841D01*
X-11921Y898949D01*
X-11884Y899056D01*
X-11844Y899162D01*
X-11799Y899266D01*
X-11751Y899369D01*
X-11700Y899470D01*
X-11645Y899569D01*
X-11587Y899666D01*
X-11525Y899761D01*
X-11460Y899854D01*
X-11392Y899944D01*
X-11321Y900032D01*
X-11246Y900118D01*
X-11169Y900201D01*
X-11089Y900281D01*
X-11006Y900358D01*
X-10920Y900433D01*
X-10832Y900504D01*
X-10742Y900572D01*
X-10649Y900637D01*
X-10554Y900699D01*
X-10457Y900757D01*
X-10358Y900812D01*
X-10257Y900863D01*
X-10154Y900911D01*
X-10050Y900956D01*
X-9944Y900996D01*
X-9837Y901033D01*
X-9729Y901066D01*
X-9619Y901096D01*
X-9509Y901121D01*
X-9398Y901143D01*
X-9286Y901160D01*
X-9173Y901174D01*
X-9060Y901184D01*
X-8947Y901190D01*
X-8834Y901192D01*
X-8721Y901190D01*
X-8608Y901184D01*
X-8495Y901174D01*
X-8382Y901160D01*
X-8270Y901143D01*
X-8159Y901121D01*
X-8049Y901096D01*
X-7939Y901066D01*
X-7831Y901033D01*
X-7724Y900996D01*
X-7618Y900956D01*
X-7514Y900911D01*
X-7411Y900863D01*
X-7310Y900812D01*
X-7211Y900757D01*
X-7114Y900699D01*
X-7019Y900637D01*
X-6926Y900572D01*
X-6836Y900504D01*
X-6748Y900433D01*
X-6662Y900358D01*
X-6579Y900281D01*
X-6499Y900201D01*
X-6422Y900118D01*
X-6347Y900032D01*
X-6276Y899944D01*
X-6208Y899854D01*
X-6143Y899761D01*
X-6081Y899666D01*
X-6023Y899569D01*
X-5968Y899470D01*
X-5917Y899369D01*
X-5869Y899266D01*
X-5824Y899162D01*
X-5784Y899056D01*
X-5747Y898949D01*
X-5714Y898841D01*
X-5684Y898731D01*
X-5659Y898621D01*
X-5637Y898510D01*
X-5620Y898398D01*
X-5606Y898285D01*
X-5596Y898172D01*
X-5590Y898059D01*
X-5588Y897946D01*
X-5588Y894701D01*
X-5590Y894558D01*
X-5596Y894415D01*
X-5606Y894272D01*
X-5620Y894130D01*
X-5637Y893988D01*
X-5659Y893846D01*
X-5684Y893705D01*
X-5714Y893565D01*
X-5747Y893426D01*
X-5784Y893288D01*
X-5825Y893151D01*
X-5869Y893015D01*
X-5918Y892880D01*
X-5970Y892747D01*
X-6025Y892615D01*
X-6085Y892485D01*
X-6148Y892356D01*
X-6214Y892229D01*
X-6284Y892105D01*
X-6357Y891982D01*
X-6434Y891861D01*
X-6514Y891742D01*
X-6597Y891626D01*
X-6683Y891511D01*
X-6772Y891400D01*
X-6865Y891290D01*
X-6960Y891184D01*
X-7059Y891080D01*
X-7160Y890979D01*
X-7264Y890880D01*
X-7370Y890785D01*
X-7480Y890692D01*
X-7591Y890603D01*
X-7706Y890517D01*
X-7822Y890434D01*
X-7941Y890354D01*
X-8062Y890277D01*
X-8185Y890204D01*
X-8309Y890134D01*
X-8436Y890068D01*
X-8565Y890005D01*
X-8695Y889945D01*
X-8827Y889890D01*
X-8960Y889838D01*
X-9095Y889789D01*
X-9231Y889745D01*
X-9368Y889704D01*
X-9506Y889667D01*
X-9645Y889634D01*
X-9785Y889604D01*
X-9926Y889579D01*
X-10068Y889557D01*
X-10210Y889540D01*
X-10352Y889526D01*
X-10495Y889516D01*
X-10638Y889510D01*
X-10781Y889508D01*
D11*
X57150Y989330D02*
X57150Y1057910D01*
X158750Y1057910D02*
X158750Y989330D01*
X158750Y1057910D02*
X57150Y1057910D01*
X120650Y989330D02*
X158750Y989330D01*
X120650Y989330D02*
X69850Y989330D01*
X57150Y989330D01*
X69850Y989330D02*
X69850Y1002030D01*
X120650Y1002030D01*
X120650Y989330D01*
X59394Y1045647D02*
X59394Y1049401D01*
X59393Y1045647D02*
X59391Y1045582D01*
X59385Y1045518D01*
X59375Y1045454D01*
X59362Y1045390D01*
X59344Y1045328D01*
X59323Y1045267D01*
X59299Y1045207D01*
X59270Y1045149D01*
X59238Y1045092D01*
X59203Y1045038D01*
X59165Y1044986D01*
X59123Y1044936D01*
X59079Y1044889D01*
X59032Y1044845D01*
X58982Y1044803D01*
X58930Y1044765D01*
X58876Y1044730D01*
X58819Y1044698D01*
X58761Y1044669D01*
X58701Y1044645D01*
X58640Y1044624D01*
X58578Y1044606D01*
X58514Y1044593D01*
X58450Y1044583D01*
X58386Y1044577D01*
X58321Y1044575D01*
X57785Y1044575D01*
X62341Y1045916D02*
X62343Y1045987D01*
X62349Y1046059D01*
X62358Y1046129D01*
X62371Y1046199D01*
X62388Y1046269D01*
X62409Y1046337D01*
X62433Y1046404D01*
X62461Y1046470D01*
X62492Y1046534D01*
X62527Y1046597D01*
X62565Y1046657D01*
X62606Y1046716D01*
X62650Y1046772D01*
X62697Y1046826D01*
X62746Y1046877D01*
X62799Y1046925D01*
X62854Y1046971D01*
X62911Y1047013D01*
X62971Y1047053D01*
X63032Y1047089D01*
X63096Y1047122D01*
X63161Y1047151D01*
X63227Y1047177D01*
X63295Y1047200D01*
X63364Y1047219D01*
X63434Y1047234D01*
X63504Y1047245D01*
X63575Y1047253D01*
X63646Y1047257D01*
X63718Y1047257D01*
X63789Y1047253D01*
X63860Y1047245D01*
X63930Y1047234D01*
X64000Y1047219D01*
X64069Y1047200D01*
X64137Y1047177D01*
X64203Y1047151D01*
X64268Y1047122D01*
X64332Y1047089D01*
X64393Y1047053D01*
X64453Y1047013D01*
X64510Y1046971D01*
X64565Y1046925D01*
X64618Y1046877D01*
X64667Y1046826D01*
X64714Y1046772D01*
X64758Y1046716D01*
X64799Y1046657D01*
X64837Y1046597D01*
X64872Y1046534D01*
X64903Y1046470D01*
X64931Y1046404D01*
X64955Y1046337D01*
X64976Y1046269D01*
X64993Y1046199D01*
X65006Y1046129D01*
X65015Y1046059D01*
X65021Y1045987D01*
X65023Y1045916D01*
X65021Y1045845D01*
X65015Y1045773D01*
X65006Y1045703D01*
X64993Y1045633D01*
X64976Y1045563D01*
X64955Y1045495D01*
X64931Y1045428D01*
X64903Y1045362D01*
X64872Y1045298D01*
X64837Y1045235D01*
X64799Y1045175D01*
X64758Y1045116D01*
X64714Y1045060D01*
X64667Y1045006D01*
X64618Y1044955D01*
X64565Y1044907D01*
X64510Y1044861D01*
X64453Y1044819D01*
X64393Y1044779D01*
X64332Y1044743D01*
X64268Y1044710D01*
X64203Y1044681D01*
X64137Y1044655D01*
X64069Y1044632D01*
X64000Y1044613D01*
X63930Y1044598D01*
X63860Y1044587D01*
X63789Y1044579D01*
X63718Y1044575D01*
X63646Y1044575D01*
X63575Y1044579D01*
X63504Y1044587D01*
X63434Y1044598D01*
X63364Y1044613D01*
X63295Y1044632D01*
X63227Y1044655D01*
X63161Y1044681D01*
X63096Y1044710D01*
X63032Y1044743D01*
X62971Y1044779D01*
X62911Y1044819D01*
X62854Y1044861D01*
X62799Y1044907D01*
X62746Y1044955D01*
X62697Y1045006D01*
X62650Y1045060D01*
X62606Y1045116D01*
X62565Y1045175D01*
X62527Y1045235D01*
X62492Y1045298D01*
X62461Y1045362D01*
X62433Y1045428D01*
X62409Y1045495D01*
X62388Y1045563D01*
X62371Y1045633D01*
X62358Y1045703D01*
X62349Y1045773D01*
X62343Y1045845D01*
X62341Y1045916D01*
X62610Y1048329D02*
X62612Y1048394D01*
X62618Y1048458D01*
X62628Y1048522D01*
X62641Y1048586D01*
X62659Y1048648D01*
X62680Y1048709D01*
X62704Y1048769D01*
X62733Y1048827D01*
X62765Y1048884D01*
X62800Y1048938D01*
X62838Y1048990D01*
X62880Y1049040D01*
X62924Y1049087D01*
X62971Y1049131D01*
X63021Y1049173D01*
X63073Y1049211D01*
X63127Y1049246D01*
X63184Y1049278D01*
X63242Y1049307D01*
X63302Y1049331D01*
X63363Y1049352D01*
X63425Y1049370D01*
X63489Y1049383D01*
X63553Y1049393D01*
X63617Y1049399D01*
X63682Y1049401D01*
X63747Y1049399D01*
X63811Y1049393D01*
X63875Y1049383D01*
X63939Y1049370D01*
X64001Y1049352D01*
X64062Y1049331D01*
X64122Y1049307D01*
X64180Y1049278D01*
X64237Y1049246D01*
X64291Y1049211D01*
X64343Y1049173D01*
X64393Y1049131D01*
X64440Y1049087D01*
X64484Y1049040D01*
X64526Y1048990D01*
X64564Y1048938D01*
X64599Y1048884D01*
X64631Y1048827D01*
X64660Y1048769D01*
X64684Y1048709D01*
X64705Y1048648D01*
X64723Y1048586D01*
X64736Y1048522D01*
X64746Y1048458D01*
X64752Y1048394D01*
X64754Y1048329D01*
X64752Y1048264D01*
X64746Y1048200D01*
X64736Y1048136D01*
X64723Y1048072D01*
X64705Y1048010D01*
X64684Y1047949D01*
X64660Y1047889D01*
X64631Y1047831D01*
X64599Y1047774D01*
X64564Y1047720D01*
X64526Y1047668D01*
X64484Y1047618D01*
X64440Y1047571D01*
X64393Y1047527D01*
X64343Y1047485D01*
X64291Y1047447D01*
X64237Y1047412D01*
X64180Y1047380D01*
X64122Y1047351D01*
X64062Y1047327D01*
X64001Y1047306D01*
X63939Y1047288D01*
X63875Y1047275D01*
X63811Y1047265D01*
X63747Y1047259D01*
X63682Y1047257D01*
X63617Y1047259D01*
X63553Y1047265D01*
X63489Y1047275D01*
X63425Y1047288D01*
X63363Y1047306D01*
X63302Y1047327D01*
X63242Y1047351D01*
X63184Y1047380D01*
X63127Y1047412D01*
X63073Y1047447D01*
X63021Y1047485D01*
X62971Y1047527D01*
X62924Y1047571D01*
X62880Y1047618D01*
X62838Y1047668D01*
X62800Y1047720D01*
X62765Y1047774D01*
X62733Y1047831D01*
X62704Y1047889D01*
X62680Y1047949D01*
X62659Y1048010D01*
X62641Y1048072D01*
X62628Y1048136D01*
X62618Y1048200D01*
X62612Y1048264D01*
X62610Y1048329D01*
X95490Y963290D02*
X125490Y963290D01*
X95490Y963290D02*
X95490Y946790D01*
X125490Y946790D01*
X125490Y963290D01*
X120160Y958980D02*
X120162Y959060D01*
X120168Y959140D01*
X120178Y959220D01*
X120192Y959299D01*
X120209Y959377D01*
X120231Y959454D01*
X120256Y959530D01*
X120285Y959605D01*
X120318Y959678D01*
X120354Y959749D01*
X120394Y959819D01*
X120437Y959886D01*
X120484Y959952D01*
X120533Y960014D01*
X120586Y960075D01*
X120642Y960133D01*
X120700Y960187D01*
X120761Y960239D01*
X120825Y960288D01*
X120890Y960334D01*
X120958Y960376D01*
X121029Y960415D01*
X121100Y960451D01*
X121174Y960482D01*
X121249Y960511D01*
X121325Y960535D01*
X121403Y960555D01*
X121481Y960572D01*
X121560Y960585D01*
X121640Y960594D01*
X121720Y960599D01*
X121800Y960600D01*
X121880Y960597D01*
X121960Y960590D01*
X122039Y960579D01*
X122118Y960564D01*
X122196Y960546D01*
X122273Y960523D01*
X122349Y960497D01*
X122423Y960467D01*
X122496Y960433D01*
X122567Y960396D01*
X122636Y960355D01*
X122703Y960311D01*
X122768Y960264D01*
X122830Y960214D01*
X122890Y960160D01*
X122947Y960104D01*
X123001Y960045D01*
X123052Y959983D01*
X123100Y959919D01*
X123145Y959853D01*
X123186Y959784D01*
X123224Y959714D01*
X123259Y959641D01*
X123290Y959567D01*
X123317Y959492D01*
X123340Y959415D01*
X123360Y959338D01*
X123376Y959259D01*
X123388Y959180D01*
X123396Y959100D01*
X123400Y959020D01*
X123400Y958940D01*
X123396Y958860D01*
X123388Y958780D01*
X123376Y958701D01*
X123360Y958622D01*
X123340Y958545D01*
X123317Y958468D01*
X123290Y958393D01*
X123259Y958319D01*
X123224Y958246D01*
X123186Y958176D01*
X123145Y958107D01*
X123100Y958041D01*
X123052Y957977D01*
X123001Y957915D01*
X122947Y957856D01*
X122890Y957800D01*
X122830Y957746D01*
X122768Y957696D01*
X122703Y957649D01*
X122636Y957605D01*
X122567Y957564D01*
X122496Y957527D01*
X122423Y957493D01*
X122349Y957463D01*
X122273Y957437D01*
X122196Y957414D01*
X122118Y957396D01*
X122039Y957381D01*
X121960Y957370D01*
X121880Y957363D01*
X121800Y957360D01*
X121720Y957361D01*
X121640Y957366D01*
X121560Y957375D01*
X121481Y957388D01*
X121403Y957405D01*
X121325Y957425D01*
X121249Y957449D01*
X121174Y957478D01*
X121100Y957509D01*
X121029Y957545D01*
X120958Y957584D01*
X120890Y957626D01*
X120825Y957672D01*
X120761Y957721D01*
X120700Y957773D01*
X120642Y957827D01*
X120586Y957885D01*
X120533Y957946D01*
X120484Y958008D01*
X120437Y958074D01*
X120394Y958141D01*
X120354Y958211D01*
X120318Y958282D01*
X120285Y958355D01*
X120256Y958430D01*
X120231Y958506D01*
X120209Y958583D01*
X120192Y958661D01*
X120178Y958740D01*
X120168Y958820D01*
X120162Y958900D01*
X120160Y958980D01*
D10*
X161798Y941578D02*
X173482Y941578D01*
X161798Y941578D02*
X161798Y944824D01*
X161800Y944937D01*
X161806Y945050D01*
X161816Y945163D01*
X161830Y945276D01*
X161847Y945388D01*
X161869Y945499D01*
X161894Y945609D01*
X161924Y945719D01*
X161957Y945827D01*
X161994Y945934D01*
X162034Y946040D01*
X162079Y946144D01*
X162127Y946247D01*
X162178Y946348D01*
X162233Y946447D01*
X162291Y946544D01*
X162353Y946639D01*
X162418Y946732D01*
X162486Y946822D01*
X162557Y946910D01*
X162632Y946996D01*
X162709Y947079D01*
X162789Y947159D01*
X162872Y947236D01*
X162958Y947311D01*
X163046Y947382D01*
X163136Y947450D01*
X163229Y947515D01*
X163324Y947577D01*
X163421Y947635D01*
X163520Y947690D01*
X163621Y947741D01*
X163724Y947789D01*
X163828Y947834D01*
X163934Y947874D01*
X164041Y947911D01*
X164149Y947944D01*
X164259Y947974D01*
X164369Y947999D01*
X164480Y948021D01*
X164592Y948038D01*
X164705Y948052D01*
X164818Y948062D01*
X164931Y948068D01*
X165044Y948070D01*
X165157Y948068D01*
X165270Y948062D01*
X165383Y948052D01*
X165496Y948038D01*
X165608Y948021D01*
X165719Y947999D01*
X165829Y947974D01*
X165939Y947944D01*
X166047Y947911D01*
X166154Y947874D01*
X166260Y947834D01*
X166364Y947789D01*
X166467Y947741D01*
X166568Y947690D01*
X166667Y947635D01*
X166764Y947577D01*
X166859Y947515D01*
X166952Y947450D01*
X167042Y947382D01*
X167130Y947311D01*
X167216Y947236D01*
X167299Y947159D01*
X167379Y947079D01*
X167456Y946996D01*
X167531Y946910D01*
X167602Y946822D01*
X167670Y946732D01*
X167735Y946639D01*
X167797Y946544D01*
X167855Y946447D01*
X167910Y946348D01*
X167961Y946247D01*
X168009Y946144D01*
X168054Y946040D01*
X168094Y945934D01*
X168131Y945827D01*
X168164Y945719D01*
X168194Y945609D01*
X168219Y945499D01*
X168241Y945388D01*
X168258Y945276D01*
X168272Y945163D01*
X168282Y945050D01*
X168288Y944937D01*
X168290Y944824D01*
X168289Y944824D02*
X168289Y941578D01*
X168289Y945473D02*
X173482Y948069D01*
X164394Y952934D02*
X161798Y956180D01*
X173482Y956180D01*
X173482Y959425D02*
X173482Y952934D01*
X173482Y964364D02*
X173482Y967610D01*
X173480Y967723D01*
X173474Y967836D01*
X173464Y967949D01*
X173450Y968062D01*
X173433Y968174D01*
X173411Y968285D01*
X173386Y968395D01*
X173356Y968505D01*
X173323Y968613D01*
X173286Y968720D01*
X173246Y968826D01*
X173201Y968930D01*
X173153Y969033D01*
X173102Y969134D01*
X173047Y969233D01*
X172989Y969330D01*
X172927Y969425D01*
X172862Y969518D01*
X172794Y969608D01*
X172723Y969696D01*
X172648Y969782D01*
X172571Y969865D01*
X172491Y969945D01*
X172408Y970022D01*
X172322Y970097D01*
X172234Y970168D01*
X172144Y970236D01*
X172051Y970301D01*
X171956Y970363D01*
X171859Y970421D01*
X171760Y970476D01*
X171659Y970527D01*
X171556Y970575D01*
X171452Y970620D01*
X171346Y970660D01*
X171239Y970697D01*
X171131Y970730D01*
X171021Y970760D01*
X170911Y970785D01*
X170800Y970807D01*
X170688Y970824D01*
X170575Y970838D01*
X170462Y970848D01*
X170349Y970854D01*
X170236Y970856D01*
X170123Y970854D01*
X170010Y970848D01*
X169897Y970838D01*
X169784Y970824D01*
X169672Y970807D01*
X169561Y970785D01*
X169451Y970760D01*
X169341Y970730D01*
X169233Y970697D01*
X169126Y970660D01*
X169020Y970620D01*
X168916Y970575D01*
X168813Y970527D01*
X168712Y970476D01*
X168613Y970421D01*
X168516Y970363D01*
X168421Y970301D01*
X168328Y970236D01*
X168238Y970168D01*
X168150Y970097D01*
X168064Y970022D01*
X167981Y969945D01*
X167901Y969865D01*
X167824Y969782D01*
X167749Y969696D01*
X167678Y969608D01*
X167610Y969518D01*
X167545Y969425D01*
X167483Y969330D01*
X167425Y969233D01*
X167370Y969134D01*
X167319Y969033D01*
X167271Y968930D01*
X167226Y968826D01*
X167186Y968720D01*
X167149Y968613D01*
X167116Y968505D01*
X167086Y968395D01*
X167061Y968285D01*
X167039Y968174D01*
X167022Y968062D01*
X167008Y967949D01*
X166998Y967836D01*
X166992Y967723D01*
X166990Y967610D01*
X161798Y968259D02*
X161798Y964364D01*
X161798Y968259D02*
X161800Y968360D01*
X161806Y968460D01*
X161816Y968560D01*
X161829Y968660D01*
X161847Y968759D01*
X161868Y968858D01*
X161893Y968955D01*
X161922Y969052D01*
X161955Y969147D01*
X161991Y969241D01*
X162031Y969333D01*
X162074Y969424D01*
X162121Y969513D01*
X162171Y969600D01*
X162225Y969686D01*
X162282Y969769D01*
X162342Y969849D01*
X162405Y969928D01*
X162472Y970004D01*
X162541Y970077D01*
X162613Y970147D01*
X162687Y970215D01*
X162764Y970280D01*
X162844Y970341D01*
X162926Y970400D01*
X163010Y970455D01*
X163096Y970507D01*
X163184Y970556D01*
X163274Y970601D01*
X163366Y970643D01*
X163459Y970681D01*
X163554Y970715D01*
X163649Y970746D01*
X163746Y970773D01*
X163844Y970796D01*
X163943Y970816D01*
X164043Y970831D01*
X164143Y970843D01*
X164243Y970851D01*
X164344Y970855D01*
X164444Y970855D01*
X164545Y970851D01*
X164645Y970843D01*
X164745Y970831D01*
X164845Y970816D01*
X164944Y970796D01*
X165042Y970773D01*
X165139Y970746D01*
X165234Y970715D01*
X165329Y970681D01*
X165422Y970643D01*
X165514Y970601D01*
X165604Y970556D01*
X165692Y970507D01*
X165778Y970455D01*
X165862Y970400D01*
X165944Y970341D01*
X166024Y970280D01*
X166101Y970215D01*
X166175Y970147D01*
X166247Y970077D01*
X166316Y970004D01*
X166383Y969928D01*
X166446Y969849D01*
X166506Y969769D01*
X166563Y969686D01*
X166617Y969600D01*
X166667Y969513D01*
X166714Y969424D01*
X166757Y969333D01*
X166797Y969241D01*
X166833Y969147D01*
X166866Y969052D01*
X166895Y968955D01*
X166920Y968858D01*
X166941Y968759D01*
X166959Y968660D01*
X166972Y968560D01*
X166982Y968460D01*
X166988Y968360D01*
X166990Y968259D01*
X166991Y968259D02*
X166991Y965663D01*
X56642Y956376D02*
X56642Y953779D01*
X56640Y953680D01*
X56634Y953580D01*
X56625Y953481D01*
X56612Y953383D01*
X56595Y953285D01*
X56574Y953187D01*
X56549Y953091D01*
X56521Y952996D01*
X56489Y952902D01*
X56454Y952809D01*
X56415Y952717D01*
X56372Y952627D01*
X56327Y952539D01*
X56277Y952452D01*
X56225Y952368D01*
X56169Y952285D01*
X56111Y952205D01*
X56049Y952127D01*
X55984Y952052D01*
X55916Y951979D01*
X55846Y951909D01*
X55773Y951841D01*
X55698Y951776D01*
X55620Y951714D01*
X55540Y951656D01*
X55457Y951600D01*
X55373Y951548D01*
X55286Y951498D01*
X55198Y951453D01*
X55108Y951410D01*
X55016Y951371D01*
X54923Y951336D01*
X54829Y951304D01*
X54734Y951276D01*
X54638Y951251D01*
X54540Y951230D01*
X54442Y951213D01*
X54344Y951200D01*
X54245Y951191D01*
X54145Y951185D01*
X54046Y951183D01*
X47554Y951183D01*
X47554Y951182D02*
X47455Y951184D01*
X47355Y951190D01*
X47256Y951199D01*
X47158Y951212D01*
X47060Y951230D01*
X46962Y951250D01*
X46866Y951275D01*
X46770Y951303D01*
X46676Y951335D01*
X46583Y951370D01*
X46492Y951409D01*
X46402Y951452D01*
X46313Y951497D01*
X46227Y951547D01*
X46142Y951599D01*
X46060Y951655D01*
X45980Y951714D01*
X45902Y951775D01*
X45826Y951840D01*
X45753Y951908D01*
X45683Y951978D01*
X45615Y952051D01*
X45550Y952127D01*
X45489Y952205D01*
X45430Y952285D01*
X45374Y952367D01*
X45322Y952452D01*
X45273Y952538D01*
X45227Y952627D01*
X45184Y952717D01*
X45145Y952808D01*
X45110Y952901D01*
X45078Y952995D01*
X45050Y953091D01*
X45025Y953187D01*
X45005Y953285D01*
X44987Y953383D01*
X44974Y953481D01*
X44965Y953580D01*
X44959Y953679D01*
X44957Y953779D01*
X44958Y953779D02*
X44958Y956376D01*
X44958Y960741D02*
X46256Y960741D01*
X44958Y960741D02*
X44958Y967232D01*
X56642Y963986D01*
X69088Y902462D02*
X69088Y890778D01*
X69088Y902462D02*
X72334Y902462D01*
X72447Y902460D01*
X72560Y902454D01*
X72673Y902444D01*
X72786Y902430D01*
X72898Y902413D01*
X73009Y902391D01*
X73119Y902366D01*
X73229Y902336D01*
X73337Y902303D01*
X73444Y902266D01*
X73550Y902226D01*
X73654Y902181D01*
X73757Y902133D01*
X73858Y902082D01*
X73957Y902027D01*
X74054Y901969D01*
X74149Y901907D01*
X74242Y901842D01*
X74332Y901774D01*
X74420Y901703D01*
X74506Y901628D01*
X74589Y901551D01*
X74669Y901471D01*
X74746Y901388D01*
X74821Y901302D01*
X74892Y901214D01*
X74960Y901124D01*
X75025Y901031D01*
X75087Y900936D01*
X75145Y900839D01*
X75200Y900740D01*
X75251Y900639D01*
X75299Y900536D01*
X75344Y900432D01*
X75384Y900326D01*
X75421Y900219D01*
X75454Y900111D01*
X75484Y900001D01*
X75509Y899891D01*
X75531Y899780D01*
X75548Y899668D01*
X75562Y899555D01*
X75572Y899442D01*
X75578Y899329D01*
X75580Y899216D01*
X75578Y899103D01*
X75572Y898990D01*
X75562Y898877D01*
X75548Y898764D01*
X75531Y898652D01*
X75509Y898541D01*
X75484Y898431D01*
X75454Y898321D01*
X75421Y898213D01*
X75384Y898106D01*
X75344Y898000D01*
X75299Y897896D01*
X75251Y897793D01*
X75200Y897692D01*
X75145Y897593D01*
X75087Y897496D01*
X75025Y897401D01*
X74960Y897308D01*
X74892Y897218D01*
X74821Y897130D01*
X74746Y897044D01*
X74669Y896961D01*
X74589Y896881D01*
X74506Y896804D01*
X74420Y896729D01*
X74332Y896658D01*
X74242Y896590D01*
X74149Y896525D01*
X74054Y896463D01*
X73957Y896405D01*
X73858Y896350D01*
X73757Y896299D01*
X73654Y896251D01*
X73550Y896206D01*
X73444Y896166D01*
X73337Y896129D01*
X73229Y896096D01*
X73119Y896066D01*
X73009Y896041D01*
X72898Y896019D01*
X72786Y896002D01*
X72673Y895988D01*
X72560Y895978D01*
X72447Y895972D01*
X72334Y895970D01*
X72334Y895971D02*
X69088Y895971D01*
X72983Y895971D02*
X75579Y890778D01*
X80444Y899866D02*
X83690Y902462D01*
X83690Y890778D01*
X86935Y890778D02*
X80444Y890778D01*
X91874Y893374D02*
X94471Y902462D01*
X91874Y893374D02*
X98365Y893374D01*
X96418Y895971D02*
X96418Y890778D01*
X118805Y889508D02*
X118805Y901192D01*
X122050Y901192D01*
X122163Y901190D01*
X122276Y901184D01*
X122389Y901174D01*
X122502Y901160D01*
X122614Y901143D01*
X122725Y901121D01*
X122835Y901096D01*
X122945Y901066D01*
X123053Y901033D01*
X123160Y900996D01*
X123266Y900956D01*
X123370Y900911D01*
X123473Y900863D01*
X123574Y900812D01*
X123673Y900757D01*
X123770Y900699D01*
X123865Y900637D01*
X123958Y900572D01*
X124048Y900504D01*
X124136Y900433D01*
X124222Y900358D01*
X124305Y900281D01*
X124385Y900201D01*
X124462Y900118D01*
X124537Y900032D01*
X124608Y899944D01*
X124676Y899854D01*
X124741Y899761D01*
X124803Y899666D01*
X124861Y899569D01*
X124916Y899470D01*
X124967Y899369D01*
X125015Y899266D01*
X125060Y899162D01*
X125100Y899056D01*
X125137Y898949D01*
X125170Y898841D01*
X125200Y898731D01*
X125225Y898621D01*
X125247Y898510D01*
X125264Y898398D01*
X125278Y898285D01*
X125288Y898172D01*
X125294Y898059D01*
X125296Y897946D01*
X125294Y897833D01*
X125288Y897720D01*
X125278Y897607D01*
X125264Y897494D01*
X125247Y897382D01*
X125225Y897271D01*
X125200Y897161D01*
X125170Y897051D01*
X125137Y896943D01*
X125100Y896836D01*
X125060Y896730D01*
X125015Y896626D01*
X124967Y896523D01*
X124916Y896422D01*
X124861Y896323D01*
X124803Y896226D01*
X124741Y896131D01*
X124676Y896038D01*
X124608Y895948D01*
X124537Y895860D01*
X124462Y895774D01*
X124385Y895691D01*
X124305Y895611D01*
X124222Y895534D01*
X124136Y895459D01*
X124048Y895388D01*
X123958Y895320D01*
X123865Y895255D01*
X123770Y895193D01*
X123673Y895135D01*
X123574Y895080D01*
X123473Y895029D01*
X123370Y894981D01*
X123266Y894936D01*
X123160Y894896D01*
X123053Y894859D01*
X122945Y894826D01*
X122835Y894796D01*
X122725Y894771D01*
X122614Y894749D01*
X122502Y894732D01*
X122389Y894718D01*
X122276Y894708D01*
X122163Y894702D01*
X122050Y894700D01*
X122050Y894701D02*
X118805Y894701D01*
X122699Y894701D02*
X125296Y889508D01*
X130161Y898596D02*
X133406Y901192D01*
X133406Y889508D01*
X130161Y889508D02*
X136652Y889508D01*
X141591Y889508D02*
X145486Y889508D01*
X145585Y889510D01*
X145685Y889516D01*
X145784Y889525D01*
X145882Y889538D01*
X145980Y889555D01*
X146078Y889576D01*
X146174Y889601D01*
X146269Y889629D01*
X146363Y889661D01*
X146456Y889696D01*
X146548Y889735D01*
X146638Y889778D01*
X146726Y889823D01*
X146813Y889873D01*
X146897Y889925D01*
X146980Y889981D01*
X147060Y890039D01*
X147138Y890101D01*
X147213Y890166D01*
X147286Y890234D01*
X147356Y890304D01*
X147424Y890377D01*
X147489Y890452D01*
X147551Y890530D01*
X147609Y890610D01*
X147665Y890693D01*
X147717Y890777D01*
X147767Y890864D01*
X147812Y890952D01*
X147855Y891042D01*
X147894Y891134D01*
X147929Y891227D01*
X147961Y891321D01*
X147989Y891416D01*
X148014Y891512D01*
X148035Y891610D01*
X148052Y891708D01*
X148065Y891806D01*
X148074Y891905D01*
X148080Y892005D01*
X148082Y892104D01*
X148082Y893403D01*
X148080Y893502D01*
X148074Y893602D01*
X148065Y893701D01*
X148052Y893799D01*
X148035Y893897D01*
X148014Y893995D01*
X147989Y894091D01*
X147961Y894186D01*
X147929Y894280D01*
X147894Y894373D01*
X147855Y894465D01*
X147812Y894555D01*
X147767Y894643D01*
X147717Y894730D01*
X147665Y894814D01*
X147609Y894897D01*
X147551Y894977D01*
X147489Y895055D01*
X147424Y895130D01*
X147356Y895203D01*
X147286Y895273D01*
X147213Y895341D01*
X147138Y895406D01*
X147060Y895468D01*
X146980Y895526D01*
X146897Y895582D01*
X146813Y895634D01*
X146726Y895684D01*
X146638Y895729D01*
X146548Y895772D01*
X146456Y895811D01*
X146363Y895846D01*
X146269Y895878D01*
X146174Y895906D01*
X146078Y895931D01*
X145980Y895952D01*
X145882Y895969D01*
X145784Y895982D01*
X145685Y895991D01*
X145585Y895997D01*
X145486Y895999D01*
X141591Y895999D01*
X141591Y901192D01*
X148082Y901192D01*
D11*
X234340Y983130D02*
X302920Y983130D01*
X302920Y881530D02*
X234340Y881530D01*
X302920Y881530D02*
X302920Y983130D01*
X234340Y919630D02*
X234340Y881530D01*
X234340Y919630D02*
X234340Y970430D01*
X234340Y983130D01*
X234340Y970430D02*
X247040Y970430D01*
X247040Y919630D01*
X234340Y919630D01*
X306095Y937496D02*
X309849Y937496D01*
X309914Y937494D01*
X309978Y937488D01*
X310042Y937478D01*
X310106Y937465D01*
X310168Y937447D01*
X310229Y937426D01*
X310289Y937402D01*
X310347Y937373D01*
X310404Y937341D01*
X310458Y937306D01*
X310510Y937268D01*
X310560Y937226D01*
X310607Y937182D01*
X310651Y937135D01*
X310693Y937085D01*
X310731Y937033D01*
X310766Y936979D01*
X310798Y936922D01*
X310827Y936864D01*
X310851Y936804D01*
X310872Y936743D01*
X310890Y936681D01*
X310903Y936617D01*
X310913Y936553D01*
X310919Y936489D01*
X310921Y936424D01*
X310921Y935887D01*
X307167Y940444D02*
X306095Y941784D01*
X310921Y941784D01*
X310921Y940444D02*
X310921Y943125D01*
X-232256Y683731D02*
X-232256Y679977D01*
X-232257Y679977D02*
X-232259Y679912D01*
X-232265Y679848D01*
X-232275Y679784D01*
X-232288Y679720D01*
X-232306Y679658D01*
X-232327Y679597D01*
X-232351Y679537D01*
X-232380Y679479D01*
X-232412Y679422D01*
X-232447Y679368D01*
X-232485Y679316D01*
X-232527Y679266D01*
X-232571Y679219D01*
X-232618Y679175D01*
X-232668Y679133D01*
X-232720Y679095D01*
X-232774Y679060D01*
X-232831Y679028D01*
X-232889Y678999D01*
X-232949Y678975D01*
X-233010Y678954D01*
X-233072Y678936D01*
X-233136Y678923D01*
X-233200Y678913D01*
X-233264Y678907D01*
X-233329Y678905D01*
X-233865Y678905D01*
X-229308Y678905D02*
X-227968Y678905D01*
X-227897Y678907D01*
X-227825Y678913D01*
X-227755Y678922D01*
X-227685Y678935D01*
X-227615Y678952D01*
X-227547Y678973D01*
X-227480Y678997D01*
X-227414Y679025D01*
X-227350Y679056D01*
X-227287Y679091D01*
X-227227Y679129D01*
X-227168Y679170D01*
X-227112Y679214D01*
X-227058Y679261D01*
X-227007Y679310D01*
X-226959Y679363D01*
X-226913Y679418D01*
X-226871Y679475D01*
X-226831Y679535D01*
X-226795Y679596D01*
X-226762Y679660D01*
X-226733Y679725D01*
X-226707Y679791D01*
X-226684Y679859D01*
X-226665Y679928D01*
X-226650Y679998D01*
X-226639Y680068D01*
X-226631Y680139D01*
X-226627Y680210D01*
X-226627Y680282D01*
X-226631Y680353D01*
X-226639Y680424D01*
X-226650Y680494D01*
X-226665Y680564D01*
X-226684Y680633D01*
X-226707Y680701D01*
X-226733Y680767D01*
X-226762Y680832D01*
X-226795Y680896D01*
X-226831Y680957D01*
X-226871Y681017D01*
X-226913Y681074D01*
X-226959Y681129D01*
X-227007Y681182D01*
X-227058Y681231D01*
X-227112Y681278D01*
X-227168Y681322D01*
X-227227Y681363D01*
X-227287Y681401D01*
X-227350Y681436D01*
X-227414Y681467D01*
X-227480Y681495D01*
X-227547Y681519D01*
X-227615Y681540D01*
X-227685Y681557D01*
X-227755Y681570D01*
X-227825Y681579D01*
X-227897Y681585D01*
X-227968Y681587D01*
X-227700Y683731D02*
X-229308Y683731D01*
X-227700Y683731D02*
X-227635Y683729D01*
X-227571Y683723D01*
X-227507Y683713D01*
X-227443Y683700D01*
X-227381Y683682D01*
X-227320Y683661D01*
X-227260Y683637D01*
X-227202Y683608D01*
X-227145Y683576D01*
X-227091Y683541D01*
X-227039Y683503D01*
X-226989Y683461D01*
X-226942Y683417D01*
X-226898Y683370D01*
X-226856Y683320D01*
X-226818Y683268D01*
X-226783Y683214D01*
X-226751Y683157D01*
X-226722Y683099D01*
X-226698Y683039D01*
X-226677Y682978D01*
X-226659Y682916D01*
X-226646Y682852D01*
X-226636Y682788D01*
X-226630Y682724D01*
X-226628Y682659D01*
X-226630Y682594D01*
X-226636Y682530D01*
X-226646Y682466D01*
X-226659Y682402D01*
X-226677Y682340D01*
X-226698Y682279D01*
X-226722Y682219D01*
X-226751Y682161D01*
X-226783Y682104D01*
X-226818Y682050D01*
X-226856Y681998D01*
X-226898Y681948D01*
X-226942Y681901D01*
X-226989Y681857D01*
X-227039Y681815D01*
X-227091Y681777D01*
X-227145Y681742D01*
X-227202Y681710D01*
X-227260Y681681D01*
X-227320Y681657D01*
X-227381Y681636D01*
X-227443Y681618D01*
X-227507Y681605D01*
X-227571Y681595D01*
X-227635Y681589D01*
X-227700Y681587D01*
X-227700Y681586D02*
X-228772Y681586D01*
D10*
X190808Y905658D02*
X202492Y905658D01*
X190808Y905658D02*
X190808Y908904D01*
X190810Y909017D01*
X190816Y909130D01*
X190826Y909243D01*
X190840Y909356D01*
X190857Y909468D01*
X190879Y909579D01*
X190904Y909689D01*
X190934Y909799D01*
X190967Y909907D01*
X191004Y910014D01*
X191044Y910120D01*
X191089Y910224D01*
X191137Y910327D01*
X191188Y910428D01*
X191243Y910527D01*
X191301Y910624D01*
X191363Y910719D01*
X191428Y910812D01*
X191496Y910902D01*
X191567Y910990D01*
X191642Y911076D01*
X191719Y911159D01*
X191799Y911239D01*
X191882Y911316D01*
X191968Y911391D01*
X192056Y911462D01*
X192146Y911530D01*
X192239Y911595D01*
X192334Y911657D01*
X192431Y911715D01*
X192530Y911770D01*
X192631Y911821D01*
X192734Y911869D01*
X192838Y911914D01*
X192944Y911954D01*
X193051Y911991D01*
X193159Y912024D01*
X193269Y912054D01*
X193379Y912079D01*
X193490Y912101D01*
X193602Y912118D01*
X193715Y912132D01*
X193828Y912142D01*
X193941Y912148D01*
X194054Y912150D01*
X194167Y912148D01*
X194280Y912142D01*
X194393Y912132D01*
X194506Y912118D01*
X194618Y912101D01*
X194729Y912079D01*
X194839Y912054D01*
X194949Y912024D01*
X195057Y911991D01*
X195164Y911954D01*
X195270Y911914D01*
X195374Y911869D01*
X195477Y911821D01*
X195578Y911770D01*
X195677Y911715D01*
X195774Y911657D01*
X195869Y911595D01*
X195962Y911530D01*
X196052Y911462D01*
X196140Y911391D01*
X196226Y911316D01*
X196309Y911239D01*
X196389Y911159D01*
X196466Y911076D01*
X196541Y910990D01*
X196612Y910902D01*
X196680Y910812D01*
X196745Y910719D01*
X196807Y910624D01*
X196865Y910527D01*
X196920Y910428D01*
X196971Y910327D01*
X197019Y910224D01*
X197064Y910120D01*
X197104Y910014D01*
X197141Y909907D01*
X197174Y909799D01*
X197204Y909689D01*
X197229Y909579D01*
X197251Y909468D01*
X197268Y909356D01*
X197282Y909243D01*
X197292Y909130D01*
X197298Y909017D01*
X197300Y908904D01*
X197299Y908904D02*
X197299Y905658D01*
X197299Y909553D02*
X202492Y912149D01*
X199896Y917014D02*
X190808Y919611D01*
X199896Y917014D02*
X199896Y923505D01*
X197299Y921558D02*
X202492Y921558D01*
X202292Y865158D02*
X190608Y865158D01*
X190608Y868404D01*
X190610Y868517D01*
X190616Y868630D01*
X190626Y868743D01*
X190640Y868856D01*
X190657Y868968D01*
X190679Y869079D01*
X190704Y869189D01*
X190734Y869299D01*
X190767Y869407D01*
X190804Y869514D01*
X190844Y869620D01*
X190889Y869724D01*
X190937Y869827D01*
X190988Y869928D01*
X191043Y870027D01*
X191101Y870124D01*
X191163Y870219D01*
X191228Y870312D01*
X191296Y870402D01*
X191367Y870490D01*
X191442Y870576D01*
X191519Y870659D01*
X191599Y870739D01*
X191682Y870816D01*
X191768Y870891D01*
X191856Y870962D01*
X191946Y871030D01*
X192039Y871095D01*
X192134Y871157D01*
X192231Y871215D01*
X192330Y871270D01*
X192431Y871321D01*
X192534Y871369D01*
X192638Y871414D01*
X192744Y871454D01*
X192851Y871491D01*
X192959Y871524D01*
X193069Y871554D01*
X193179Y871579D01*
X193290Y871601D01*
X193402Y871618D01*
X193515Y871632D01*
X193628Y871642D01*
X193741Y871648D01*
X193854Y871650D01*
X193967Y871648D01*
X194080Y871642D01*
X194193Y871632D01*
X194306Y871618D01*
X194418Y871601D01*
X194529Y871579D01*
X194639Y871554D01*
X194749Y871524D01*
X194857Y871491D01*
X194964Y871454D01*
X195070Y871414D01*
X195174Y871369D01*
X195277Y871321D01*
X195378Y871270D01*
X195477Y871215D01*
X195574Y871157D01*
X195669Y871095D01*
X195762Y871030D01*
X195852Y870962D01*
X195940Y870891D01*
X196026Y870816D01*
X196109Y870739D01*
X196189Y870659D01*
X196266Y870576D01*
X196341Y870490D01*
X196412Y870402D01*
X196480Y870312D01*
X196545Y870219D01*
X196607Y870124D01*
X196665Y870027D01*
X196720Y869928D01*
X196771Y869827D01*
X196819Y869724D01*
X196864Y869620D01*
X196904Y869514D01*
X196941Y869407D01*
X196974Y869299D01*
X197004Y869189D01*
X197029Y869079D01*
X197051Y868968D01*
X197068Y868856D01*
X197082Y868743D01*
X197092Y868630D01*
X197098Y868517D01*
X197100Y868404D01*
X197099Y868404D02*
X197099Y865158D01*
X197099Y869053D02*
X202292Y871649D01*
X202292Y876514D02*
X202292Y880409D01*
X202290Y880508D01*
X202284Y880608D01*
X202275Y880707D01*
X202262Y880805D01*
X202245Y880903D01*
X202224Y881001D01*
X202199Y881097D01*
X202171Y881192D01*
X202139Y881286D01*
X202104Y881379D01*
X202065Y881471D01*
X202022Y881561D01*
X201977Y881649D01*
X201927Y881736D01*
X201875Y881820D01*
X201819Y881903D01*
X201761Y881983D01*
X201699Y882061D01*
X201634Y882136D01*
X201566Y882209D01*
X201496Y882279D01*
X201423Y882347D01*
X201348Y882412D01*
X201270Y882474D01*
X201190Y882532D01*
X201107Y882588D01*
X201023Y882640D01*
X200936Y882690D01*
X200848Y882735D01*
X200758Y882778D01*
X200666Y882817D01*
X200573Y882852D01*
X200479Y882884D01*
X200384Y882912D01*
X200288Y882937D01*
X200190Y882958D01*
X200092Y882975D01*
X199994Y882988D01*
X199895Y882997D01*
X199795Y883003D01*
X199696Y883005D01*
X198397Y883005D01*
X198298Y883003D01*
X198198Y882997D01*
X198099Y882988D01*
X198001Y882975D01*
X197903Y882958D01*
X197805Y882937D01*
X197709Y882912D01*
X197614Y882884D01*
X197520Y882852D01*
X197427Y882817D01*
X197335Y882778D01*
X197245Y882735D01*
X197157Y882690D01*
X197070Y882640D01*
X196986Y882588D01*
X196903Y882532D01*
X196823Y882474D01*
X196745Y882412D01*
X196670Y882347D01*
X196597Y882279D01*
X196527Y882209D01*
X196459Y882136D01*
X196394Y882061D01*
X196332Y881983D01*
X196274Y881903D01*
X196218Y881820D01*
X196166Y881736D01*
X196116Y881649D01*
X196071Y881561D01*
X196028Y881471D01*
X195989Y881379D01*
X195954Y881286D01*
X195922Y881192D01*
X195894Y881097D01*
X195869Y881001D01*
X195848Y880903D01*
X195831Y880805D01*
X195818Y880707D01*
X195809Y880608D01*
X195803Y880508D01*
X195801Y880409D01*
X195801Y876514D01*
X190608Y876514D01*
X190608Y883005D01*
X479492Y916054D02*
X479492Y918651D01*
X479492Y916054D02*
X479490Y915955D01*
X479484Y915855D01*
X479475Y915756D01*
X479462Y915658D01*
X479445Y915560D01*
X479424Y915462D01*
X479399Y915366D01*
X479371Y915271D01*
X479339Y915177D01*
X479304Y915084D01*
X479265Y914992D01*
X479222Y914902D01*
X479177Y914814D01*
X479127Y914727D01*
X479075Y914643D01*
X479019Y914560D01*
X478961Y914480D01*
X478899Y914402D01*
X478834Y914327D01*
X478766Y914254D01*
X478696Y914184D01*
X478623Y914116D01*
X478548Y914051D01*
X478470Y913989D01*
X478390Y913931D01*
X478307Y913875D01*
X478223Y913823D01*
X478136Y913773D01*
X478048Y913728D01*
X477958Y913685D01*
X477866Y913646D01*
X477773Y913611D01*
X477679Y913579D01*
X477584Y913551D01*
X477488Y913526D01*
X477390Y913505D01*
X477292Y913488D01*
X477194Y913475D01*
X477095Y913466D01*
X476995Y913460D01*
X476896Y913458D01*
X470404Y913458D01*
X470305Y913460D01*
X470205Y913466D01*
X470106Y913475D01*
X470008Y913488D01*
X469910Y913506D01*
X469812Y913526D01*
X469716Y913551D01*
X469620Y913579D01*
X469526Y913611D01*
X469433Y913646D01*
X469342Y913685D01*
X469252Y913728D01*
X469163Y913773D01*
X469077Y913823D01*
X468992Y913875D01*
X468910Y913931D01*
X468830Y913990D01*
X468752Y914051D01*
X468676Y914116D01*
X468603Y914184D01*
X468533Y914254D01*
X468465Y914327D01*
X468400Y914403D01*
X468339Y914481D01*
X468280Y914561D01*
X468224Y914643D01*
X468172Y914728D01*
X468123Y914814D01*
X468077Y914903D01*
X468034Y914993D01*
X467995Y915084D01*
X467960Y915177D01*
X467928Y915271D01*
X467900Y915367D01*
X467875Y915463D01*
X467855Y915561D01*
X467837Y915659D01*
X467824Y915757D01*
X467815Y915856D01*
X467809Y915955D01*
X467807Y916055D01*
X467808Y916054D02*
X467808Y918651D01*
X476246Y923016D02*
X476133Y923018D01*
X476020Y923024D01*
X475907Y923034D01*
X475794Y923048D01*
X475682Y923065D01*
X475571Y923087D01*
X475461Y923112D01*
X475351Y923142D01*
X475243Y923175D01*
X475136Y923212D01*
X475030Y923252D01*
X474926Y923297D01*
X474823Y923345D01*
X474722Y923396D01*
X474623Y923451D01*
X474526Y923509D01*
X474431Y923571D01*
X474338Y923636D01*
X474248Y923704D01*
X474160Y923775D01*
X474074Y923850D01*
X473991Y923927D01*
X473911Y924007D01*
X473834Y924090D01*
X473759Y924176D01*
X473688Y924264D01*
X473620Y924354D01*
X473555Y924447D01*
X473493Y924542D01*
X473435Y924639D01*
X473380Y924738D01*
X473329Y924839D01*
X473281Y924942D01*
X473236Y925046D01*
X473196Y925152D01*
X473159Y925259D01*
X473126Y925367D01*
X473096Y925477D01*
X473071Y925587D01*
X473049Y925698D01*
X473032Y925810D01*
X473018Y925923D01*
X473008Y926036D01*
X473002Y926149D01*
X473000Y926262D01*
X473002Y926375D01*
X473008Y926488D01*
X473018Y926601D01*
X473032Y926714D01*
X473049Y926826D01*
X473071Y926937D01*
X473096Y927047D01*
X473126Y927157D01*
X473159Y927265D01*
X473196Y927372D01*
X473236Y927478D01*
X473281Y927582D01*
X473329Y927685D01*
X473380Y927786D01*
X473435Y927885D01*
X473493Y927982D01*
X473555Y928077D01*
X473620Y928170D01*
X473688Y928260D01*
X473759Y928348D01*
X473834Y928434D01*
X473911Y928517D01*
X473991Y928597D01*
X474074Y928674D01*
X474160Y928749D01*
X474248Y928820D01*
X474338Y928888D01*
X474431Y928953D01*
X474526Y929015D01*
X474623Y929073D01*
X474722Y929128D01*
X474823Y929179D01*
X474926Y929227D01*
X475030Y929272D01*
X475136Y929312D01*
X475243Y929349D01*
X475351Y929382D01*
X475461Y929412D01*
X475571Y929437D01*
X475682Y929459D01*
X475794Y929476D01*
X475907Y929490D01*
X476020Y929500D01*
X476133Y929506D01*
X476246Y929508D01*
X476359Y929506D01*
X476472Y929500D01*
X476585Y929490D01*
X476698Y929476D01*
X476810Y929459D01*
X476921Y929437D01*
X477031Y929412D01*
X477141Y929382D01*
X477249Y929349D01*
X477356Y929312D01*
X477462Y929272D01*
X477566Y929227D01*
X477669Y929179D01*
X477770Y929128D01*
X477869Y929073D01*
X477966Y929015D01*
X478061Y928953D01*
X478154Y928888D01*
X478244Y928820D01*
X478332Y928749D01*
X478418Y928674D01*
X478501Y928597D01*
X478581Y928517D01*
X478658Y928434D01*
X478733Y928348D01*
X478804Y928260D01*
X478872Y928170D01*
X478937Y928077D01*
X478999Y927982D01*
X479057Y927885D01*
X479112Y927786D01*
X479163Y927685D01*
X479211Y927582D01*
X479256Y927478D01*
X479296Y927372D01*
X479333Y927265D01*
X479366Y927157D01*
X479396Y927047D01*
X479421Y926937D01*
X479443Y926826D01*
X479460Y926714D01*
X479474Y926601D01*
X479484Y926488D01*
X479490Y926375D01*
X479492Y926262D01*
X479490Y926149D01*
X479484Y926036D01*
X479474Y925923D01*
X479460Y925810D01*
X479443Y925698D01*
X479421Y925587D01*
X479396Y925477D01*
X479366Y925367D01*
X479333Y925259D01*
X479296Y925152D01*
X479256Y925046D01*
X479211Y924942D01*
X479163Y924839D01*
X479112Y924738D01*
X479057Y924639D01*
X478999Y924542D01*
X478937Y924447D01*
X478872Y924354D01*
X478804Y924264D01*
X478733Y924176D01*
X478658Y924090D01*
X478581Y924007D01*
X478501Y923927D01*
X478418Y923850D01*
X478332Y923775D01*
X478244Y923704D01*
X478154Y923636D01*
X478061Y923571D01*
X477966Y923509D01*
X477869Y923451D01*
X477770Y923396D01*
X477669Y923345D01*
X477566Y923297D01*
X477462Y923252D01*
X477356Y923212D01*
X477249Y923175D01*
X477141Y923142D01*
X477031Y923112D01*
X476921Y923087D01*
X476810Y923065D01*
X476698Y923048D01*
X476585Y923034D01*
X476472Y923024D01*
X476359Y923018D01*
X476246Y923016D01*
X470404Y923666D02*
X470303Y923668D01*
X470203Y923674D01*
X470103Y923684D01*
X470003Y923697D01*
X469904Y923715D01*
X469805Y923736D01*
X469708Y923761D01*
X469611Y923790D01*
X469516Y923823D01*
X469422Y923859D01*
X469330Y923899D01*
X469239Y923942D01*
X469150Y923989D01*
X469063Y924039D01*
X468977Y924093D01*
X468894Y924150D01*
X468814Y924210D01*
X468735Y924273D01*
X468659Y924340D01*
X468586Y924409D01*
X468516Y924481D01*
X468448Y924555D01*
X468383Y924632D01*
X468322Y924712D01*
X468263Y924794D01*
X468208Y924878D01*
X468156Y924964D01*
X468107Y925052D01*
X468062Y925142D01*
X468020Y925234D01*
X467982Y925327D01*
X467948Y925422D01*
X467917Y925517D01*
X467890Y925614D01*
X467867Y925712D01*
X467847Y925811D01*
X467832Y925911D01*
X467820Y926011D01*
X467812Y926111D01*
X467808Y926212D01*
X467808Y926312D01*
X467812Y926413D01*
X467820Y926513D01*
X467832Y926613D01*
X467847Y926713D01*
X467867Y926812D01*
X467890Y926910D01*
X467917Y927007D01*
X467948Y927102D01*
X467982Y927197D01*
X468020Y927290D01*
X468062Y927382D01*
X468107Y927472D01*
X468156Y927560D01*
X468208Y927646D01*
X468263Y927730D01*
X468322Y927812D01*
X468383Y927892D01*
X468448Y927969D01*
X468516Y928043D01*
X468586Y928115D01*
X468659Y928184D01*
X468735Y928251D01*
X468814Y928314D01*
X468894Y928374D01*
X468977Y928431D01*
X469063Y928485D01*
X469150Y928535D01*
X469239Y928582D01*
X469330Y928625D01*
X469422Y928665D01*
X469516Y928701D01*
X469611Y928734D01*
X469708Y928763D01*
X469805Y928788D01*
X469904Y928809D01*
X470003Y928827D01*
X470103Y928840D01*
X470203Y928850D01*
X470303Y928856D01*
X470404Y928858D01*
X470505Y928856D01*
X470605Y928850D01*
X470705Y928840D01*
X470805Y928827D01*
X470904Y928809D01*
X471003Y928788D01*
X471100Y928763D01*
X471197Y928734D01*
X471292Y928701D01*
X471386Y928665D01*
X471478Y928625D01*
X471569Y928582D01*
X471658Y928535D01*
X471745Y928485D01*
X471831Y928431D01*
X471914Y928374D01*
X471994Y928314D01*
X472073Y928251D01*
X472149Y928184D01*
X472222Y928115D01*
X472292Y928043D01*
X472360Y927969D01*
X472425Y927892D01*
X472486Y927812D01*
X472545Y927730D01*
X472600Y927646D01*
X472652Y927560D01*
X472701Y927472D01*
X472746Y927382D01*
X472788Y927290D01*
X472826Y927197D01*
X472860Y927102D01*
X472891Y927007D01*
X472918Y926910D01*
X472941Y926812D01*
X472961Y926713D01*
X472976Y926613D01*
X472988Y926513D01*
X472996Y926413D01*
X473000Y926312D01*
X473000Y926212D01*
X472996Y926111D01*
X472988Y926011D01*
X472976Y925911D01*
X472961Y925811D01*
X472941Y925712D01*
X472918Y925614D01*
X472891Y925517D01*
X472860Y925422D01*
X472826Y925327D01*
X472788Y925234D01*
X472746Y925142D01*
X472701Y925052D01*
X472652Y924964D01*
X472600Y924878D01*
X472545Y924794D01*
X472486Y924712D01*
X472425Y924632D01*
X472360Y924555D01*
X472292Y924481D01*
X472222Y924409D01*
X472149Y924340D01*
X472073Y924273D01*
X471994Y924210D01*
X471914Y924150D01*
X471831Y924093D01*
X471745Y924039D01*
X471658Y923989D01*
X471569Y923942D01*
X471478Y923899D01*
X471386Y923859D01*
X471292Y923823D01*
X471197Y923790D01*
X471100Y923761D01*
X471003Y923736D01*
X470904Y923715D01*
X470805Y923697D01*
X470705Y923684D01*
X470605Y923674D01*
X470505Y923668D01*
X470404Y923666D01*
X428536Y936158D02*
X425939Y936158D01*
X425840Y936160D01*
X425740Y936166D01*
X425641Y936175D01*
X425543Y936188D01*
X425445Y936205D01*
X425347Y936226D01*
X425251Y936251D01*
X425156Y936279D01*
X425062Y936311D01*
X424969Y936346D01*
X424877Y936385D01*
X424787Y936428D01*
X424699Y936473D01*
X424612Y936523D01*
X424528Y936575D01*
X424445Y936631D01*
X424365Y936689D01*
X424287Y936751D01*
X424212Y936816D01*
X424139Y936884D01*
X424069Y936954D01*
X424001Y937027D01*
X423936Y937102D01*
X423874Y937180D01*
X423816Y937260D01*
X423760Y937343D01*
X423708Y937427D01*
X423658Y937514D01*
X423613Y937602D01*
X423570Y937692D01*
X423531Y937784D01*
X423496Y937877D01*
X423464Y937971D01*
X423436Y938066D01*
X423411Y938162D01*
X423390Y938260D01*
X423373Y938358D01*
X423360Y938456D01*
X423351Y938555D01*
X423345Y938655D01*
X423343Y938754D01*
X423343Y945246D01*
X423345Y945345D01*
X423351Y945445D01*
X423360Y945544D01*
X423373Y945642D01*
X423390Y945740D01*
X423411Y945838D01*
X423436Y945934D01*
X423464Y946029D01*
X423496Y946123D01*
X423531Y946216D01*
X423570Y946308D01*
X423613Y946398D01*
X423658Y946486D01*
X423708Y946573D01*
X423760Y946657D01*
X423816Y946740D01*
X423874Y946820D01*
X423936Y946898D01*
X424001Y946973D01*
X424069Y947046D01*
X424139Y947116D01*
X424212Y947184D01*
X424287Y947249D01*
X424365Y947311D01*
X424445Y947369D01*
X424528Y947425D01*
X424612Y947477D01*
X424699Y947527D01*
X424787Y947572D01*
X424877Y947615D01*
X424969Y947654D01*
X425061Y947689D01*
X425156Y947721D01*
X425251Y947749D01*
X425347Y947774D01*
X425445Y947795D01*
X425543Y947812D01*
X425641Y947825D01*
X425740Y947834D01*
X425840Y947840D01*
X425939Y947842D01*
X428536Y947842D01*
X435497Y941351D02*
X439392Y941351D01*
X435497Y941351D02*
X435398Y941353D01*
X435298Y941359D01*
X435199Y941368D01*
X435101Y941381D01*
X435003Y941398D01*
X434905Y941419D01*
X434809Y941444D01*
X434714Y941472D01*
X434620Y941504D01*
X434527Y941539D01*
X434435Y941578D01*
X434345Y941621D01*
X434257Y941666D01*
X434170Y941716D01*
X434086Y941768D01*
X434003Y941824D01*
X433923Y941882D01*
X433845Y941944D01*
X433770Y942009D01*
X433697Y942077D01*
X433627Y942147D01*
X433559Y942220D01*
X433494Y942295D01*
X433432Y942373D01*
X433374Y942453D01*
X433318Y942536D01*
X433266Y942620D01*
X433216Y942707D01*
X433171Y942795D01*
X433128Y942885D01*
X433089Y942977D01*
X433054Y943070D01*
X433022Y943164D01*
X432994Y943259D01*
X432969Y943355D01*
X432948Y943453D01*
X432931Y943551D01*
X432918Y943649D01*
X432909Y943748D01*
X432903Y943848D01*
X432901Y943947D01*
X432901Y944596D01*
X432900Y944596D02*
X432902Y944709D01*
X432908Y944822D01*
X432918Y944935D01*
X432932Y945048D01*
X432949Y945160D01*
X432971Y945271D01*
X432996Y945381D01*
X433026Y945491D01*
X433059Y945599D01*
X433096Y945706D01*
X433136Y945812D01*
X433181Y945916D01*
X433229Y946019D01*
X433280Y946120D01*
X433335Y946219D01*
X433393Y946316D01*
X433455Y946411D01*
X433520Y946504D01*
X433588Y946594D01*
X433659Y946682D01*
X433734Y946768D01*
X433811Y946851D01*
X433891Y946931D01*
X433974Y947008D01*
X434060Y947083D01*
X434148Y947154D01*
X434238Y947222D01*
X434331Y947287D01*
X434426Y947349D01*
X434523Y947407D01*
X434622Y947462D01*
X434723Y947513D01*
X434826Y947561D01*
X434930Y947606D01*
X435036Y947646D01*
X435143Y947683D01*
X435251Y947716D01*
X435361Y947746D01*
X435471Y947771D01*
X435582Y947793D01*
X435694Y947810D01*
X435807Y947824D01*
X435920Y947834D01*
X436033Y947840D01*
X436146Y947842D01*
X436259Y947840D01*
X436372Y947834D01*
X436485Y947824D01*
X436598Y947810D01*
X436710Y947793D01*
X436821Y947771D01*
X436931Y947746D01*
X437041Y947716D01*
X437149Y947683D01*
X437256Y947646D01*
X437362Y947606D01*
X437466Y947561D01*
X437569Y947513D01*
X437670Y947462D01*
X437769Y947407D01*
X437866Y947349D01*
X437961Y947287D01*
X438054Y947222D01*
X438144Y947154D01*
X438232Y947083D01*
X438318Y947008D01*
X438401Y946931D01*
X438481Y946851D01*
X438558Y946768D01*
X438633Y946682D01*
X438704Y946594D01*
X438772Y946504D01*
X438837Y946411D01*
X438899Y946316D01*
X438957Y946219D01*
X439012Y946120D01*
X439063Y946019D01*
X439111Y945916D01*
X439156Y945812D01*
X439196Y945706D01*
X439233Y945599D01*
X439266Y945491D01*
X439296Y945381D01*
X439321Y945271D01*
X439343Y945160D01*
X439360Y945048D01*
X439374Y944935D01*
X439384Y944822D01*
X439390Y944709D01*
X439392Y944596D01*
X439392Y941351D01*
X439390Y941208D01*
X439384Y941065D01*
X439374Y940922D01*
X439360Y940780D01*
X439343Y940638D01*
X439321Y940496D01*
X439296Y940355D01*
X439266Y940215D01*
X439233Y940076D01*
X439196Y939938D01*
X439155Y939801D01*
X439111Y939665D01*
X439062Y939530D01*
X439010Y939397D01*
X438955Y939265D01*
X438895Y939135D01*
X438832Y939006D01*
X438766Y938879D01*
X438696Y938755D01*
X438623Y938632D01*
X438546Y938511D01*
X438466Y938392D01*
X438383Y938276D01*
X438297Y938161D01*
X438208Y938050D01*
X438115Y937940D01*
X438020Y937834D01*
X437921Y937730D01*
X437820Y937629D01*
X437716Y937530D01*
X437610Y937435D01*
X437500Y937342D01*
X437389Y937253D01*
X437274Y937167D01*
X437158Y937084D01*
X437039Y937004D01*
X436918Y936927D01*
X436796Y936854D01*
X436671Y936784D01*
X436544Y936718D01*
X436415Y936655D01*
X436285Y936595D01*
X436153Y936540D01*
X436020Y936488D01*
X435885Y936439D01*
X435749Y936395D01*
X435612Y936354D01*
X435474Y936317D01*
X435335Y936284D01*
X435195Y936254D01*
X435054Y936229D01*
X434912Y936207D01*
X434770Y936190D01*
X434628Y936176D01*
X434485Y936166D01*
X434342Y936160D01*
X434199Y936158D01*
D11*
X453900Y890950D02*
X403900Y890950D01*
X403900Y920950D01*
X453900Y920950D01*
X453900Y890950D01*
D12*
X453900Y924950D02*
X453902Y925013D01*
X453908Y925075D01*
X453918Y925137D01*
X453931Y925199D01*
X453949Y925259D01*
X453970Y925318D01*
X453995Y925376D01*
X454024Y925432D01*
X454056Y925486D01*
X454091Y925538D01*
X454129Y925587D01*
X454171Y925635D01*
X454215Y925679D01*
X454263Y925721D01*
X454312Y925759D01*
X454364Y925794D01*
X454418Y925826D01*
X454474Y925855D01*
X454532Y925880D01*
X454591Y925901D01*
X454651Y925919D01*
X454713Y925932D01*
X454775Y925942D01*
X454837Y925948D01*
X454900Y925950D01*
X454963Y925948D01*
X455025Y925942D01*
X455087Y925932D01*
X455149Y925919D01*
X455209Y925901D01*
X455268Y925880D01*
X455326Y925855D01*
X455382Y925826D01*
X455436Y925794D01*
X455488Y925759D01*
X455537Y925721D01*
X455585Y925679D01*
X455629Y925635D01*
X455671Y925587D01*
X455709Y925538D01*
X455744Y925486D01*
X455776Y925432D01*
X455805Y925376D01*
X455830Y925318D01*
X455851Y925259D01*
X455869Y925199D01*
X455882Y925137D01*
X455892Y925075D01*
X455898Y925013D01*
X455900Y924950D01*
X455898Y924887D01*
X455892Y924825D01*
X455882Y924763D01*
X455869Y924701D01*
X455851Y924641D01*
X455830Y924582D01*
X455805Y924524D01*
X455776Y924468D01*
X455744Y924414D01*
X455709Y924362D01*
X455671Y924313D01*
X455629Y924265D01*
X455585Y924221D01*
X455537Y924179D01*
X455488Y924141D01*
X455436Y924106D01*
X455382Y924074D01*
X455326Y924045D01*
X455268Y924020D01*
X455209Y923999D01*
X455149Y923981D01*
X455087Y923968D01*
X455025Y923958D01*
X454963Y923952D01*
X454900Y923950D01*
X454837Y923952D01*
X454775Y923958D01*
X454713Y923968D01*
X454651Y923981D01*
X454591Y923999D01*
X454532Y924020D01*
X454474Y924045D01*
X454418Y924074D01*
X454364Y924106D01*
X454312Y924141D01*
X454263Y924179D01*
X454215Y924221D01*
X454171Y924265D01*
X454129Y924313D01*
X454091Y924362D01*
X454056Y924414D01*
X454024Y924468D01*
X453995Y924524D01*
X453970Y924582D01*
X453949Y924641D01*
X453931Y924701D01*
X453918Y924763D01*
X453908Y924825D01*
X453902Y924887D01*
X453900Y924950D01*
D13*
X393340Y813080D02*
X388260Y813080D01*
X413660Y813080D02*
X418740Y813080D01*
X439060Y813080D02*
X444140Y813080D01*
X464460Y813080D02*
X469540Y813080D01*
X489860Y813080D02*
X494940Y813080D01*
X367940Y813080D02*
X365400Y813080D01*
X365400Y822986D01*
X368194Y825780D01*
X365400Y813080D02*
X365400Y803174D01*
X368194Y800380D01*
X515260Y813080D02*
X517800Y813080D01*
X517800Y803174D01*
X515006Y800380D01*
X517800Y813080D02*
X517800Y822986D01*
X515006Y825780D01*
D11*
X368914Y836377D02*
X368914Y840131D01*
X368913Y836377D02*
X368911Y836312D01*
X368905Y836248D01*
X368895Y836184D01*
X368882Y836120D01*
X368864Y836058D01*
X368843Y835997D01*
X368819Y835937D01*
X368790Y835879D01*
X368758Y835822D01*
X368723Y835768D01*
X368685Y835716D01*
X368643Y835666D01*
X368599Y835619D01*
X368552Y835575D01*
X368502Y835533D01*
X368450Y835495D01*
X368396Y835460D01*
X368339Y835428D01*
X368281Y835399D01*
X368221Y835375D01*
X368160Y835354D01*
X368098Y835336D01*
X368034Y835323D01*
X367970Y835313D01*
X367906Y835307D01*
X367841Y835305D01*
X367305Y835305D01*
X372934Y837450D02*
X374543Y837450D01*
X372934Y837450D02*
X372869Y837452D01*
X372805Y837458D01*
X372741Y837468D01*
X372677Y837481D01*
X372615Y837499D01*
X372554Y837520D01*
X372494Y837544D01*
X372436Y837573D01*
X372379Y837605D01*
X372325Y837640D01*
X372273Y837678D01*
X372223Y837720D01*
X372176Y837764D01*
X372132Y837811D01*
X372090Y837861D01*
X372052Y837913D01*
X372017Y837967D01*
X371985Y838024D01*
X371956Y838082D01*
X371932Y838142D01*
X371911Y838203D01*
X371893Y838265D01*
X371880Y838329D01*
X371870Y838393D01*
X371864Y838457D01*
X371862Y838522D01*
X371862Y838790D01*
X371861Y838790D02*
X371863Y838861D01*
X371869Y838933D01*
X371878Y839003D01*
X371891Y839073D01*
X371908Y839143D01*
X371929Y839211D01*
X371953Y839278D01*
X371981Y839344D01*
X372012Y839408D01*
X372047Y839471D01*
X372085Y839531D01*
X372126Y839590D01*
X372170Y839646D01*
X372217Y839700D01*
X372266Y839751D01*
X372319Y839799D01*
X372374Y839845D01*
X372431Y839887D01*
X372491Y839927D01*
X372552Y839963D01*
X372616Y839996D01*
X372681Y840025D01*
X372747Y840051D01*
X372815Y840074D01*
X372884Y840093D01*
X372954Y840108D01*
X373024Y840119D01*
X373095Y840127D01*
X373166Y840131D01*
X373238Y840131D01*
X373309Y840127D01*
X373380Y840119D01*
X373450Y840108D01*
X373520Y840093D01*
X373589Y840074D01*
X373657Y840051D01*
X373723Y840025D01*
X373788Y839996D01*
X373852Y839963D01*
X373913Y839927D01*
X373973Y839887D01*
X374030Y839845D01*
X374085Y839799D01*
X374138Y839751D01*
X374187Y839700D01*
X374234Y839646D01*
X374278Y839590D01*
X374319Y839531D01*
X374357Y839471D01*
X374392Y839408D01*
X374423Y839344D01*
X374451Y839278D01*
X374475Y839211D01*
X374496Y839143D01*
X374513Y839073D01*
X374526Y839003D01*
X374535Y838933D01*
X374541Y838861D01*
X374543Y838790D01*
X374543Y837450D01*
X374541Y837359D01*
X374535Y837268D01*
X374526Y837178D01*
X374512Y837087D01*
X374495Y836998D01*
X374474Y836910D01*
X374449Y836822D01*
X374420Y836735D01*
X374388Y836650D01*
X374353Y836566D01*
X374313Y836484D01*
X374271Y836404D01*
X374225Y836325D01*
X374175Y836249D01*
X374123Y836175D01*
X374067Y836102D01*
X374008Y836033D01*
X373947Y835966D01*
X373882Y835901D01*
X373815Y835840D01*
X373746Y835781D01*
X373673Y835725D01*
X373599Y835673D01*
X373523Y835623D01*
X373444Y835577D01*
X373364Y835535D01*
X373282Y835495D01*
X373198Y835460D01*
X373113Y835428D01*
X373026Y835399D01*
X372938Y835374D01*
X372850Y835353D01*
X372761Y835336D01*
X372670Y835322D01*
X372580Y835313D01*
X372489Y835307D01*
X372398Y835305D01*
D10*
X479492Y445701D02*
X479492Y443104D01*
X479490Y443005D01*
X479484Y442905D01*
X479475Y442806D01*
X479462Y442708D01*
X479445Y442610D01*
X479424Y442512D01*
X479399Y442416D01*
X479371Y442321D01*
X479339Y442227D01*
X479304Y442134D01*
X479265Y442042D01*
X479222Y441952D01*
X479177Y441864D01*
X479127Y441777D01*
X479075Y441693D01*
X479019Y441610D01*
X478961Y441530D01*
X478899Y441452D01*
X478834Y441377D01*
X478766Y441304D01*
X478696Y441234D01*
X478623Y441166D01*
X478548Y441101D01*
X478470Y441039D01*
X478390Y440981D01*
X478307Y440925D01*
X478223Y440873D01*
X478136Y440823D01*
X478048Y440778D01*
X477958Y440735D01*
X477866Y440696D01*
X477773Y440661D01*
X477679Y440629D01*
X477584Y440601D01*
X477488Y440576D01*
X477390Y440555D01*
X477292Y440538D01*
X477194Y440525D01*
X477095Y440516D01*
X476995Y440510D01*
X476896Y440508D01*
X470404Y440508D01*
X470305Y440510D01*
X470205Y440516D01*
X470106Y440525D01*
X470008Y440538D01*
X469910Y440556D01*
X469812Y440576D01*
X469716Y440601D01*
X469620Y440629D01*
X469526Y440661D01*
X469433Y440696D01*
X469342Y440735D01*
X469252Y440778D01*
X469163Y440823D01*
X469077Y440873D01*
X468992Y440925D01*
X468910Y440981D01*
X468830Y441040D01*
X468752Y441101D01*
X468676Y441166D01*
X468603Y441234D01*
X468533Y441304D01*
X468465Y441377D01*
X468400Y441453D01*
X468339Y441531D01*
X468280Y441611D01*
X468224Y441693D01*
X468172Y441778D01*
X468123Y441864D01*
X468077Y441953D01*
X468034Y442043D01*
X467995Y442134D01*
X467960Y442227D01*
X467928Y442321D01*
X467900Y442417D01*
X467875Y442513D01*
X467855Y442611D01*
X467837Y442709D01*
X467824Y442807D01*
X467815Y442906D01*
X467809Y443005D01*
X467807Y443105D01*
X467808Y443104D02*
X467808Y445701D01*
X470404Y450066D02*
X467808Y453312D01*
X479492Y453312D01*
X479492Y456557D02*
X479492Y450066D01*
X473650Y461496D02*
X473420Y461499D01*
X473190Y461507D01*
X472961Y461521D01*
X472732Y461540D01*
X472503Y461565D01*
X472275Y461595D01*
X472048Y461630D01*
X471822Y461671D01*
X471597Y461717D01*
X471373Y461769D01*
X471150Y461826D01*
X470929Y461888D01*
X470709Y461956D01*
X470491Y462029D01*
X470275Y462107D01*
X470061Y462190D01*
X469849Y462278D01*
X469638Y462371D01*
X469431Y462470D01*
X469341Y462503D01*
X469252Y462539D01*
X469164Y462579D01*
X469079Y462623D01*
X468995Y462670D01*
X468913Y462720D01*
X468833Y462774D01*
X468756Y462830D01*
X468680Y462890D01*
X468607Y462953D01*
X468537Y463018D01*
X468469Y463087D01*
X468405Y463158D01*
X468343Y463231D01*
X468284Y463307D01*
X468228Y463385D01*
X468175Y463466D01*
X468126Y463548D01*
X468080Y463632D01*
X468037Y463719D01*
X467998Y463806D01*
X467962Y463896D01*
X467930Y463986D01*
X467902Y464078D01*
X467877Y464171D01*
X467856Y464265D01*
X467839Y464359D01*
X467825Y464454D01*
X467816Y464550D01*
X467810Y464646D01*
X467808Y464742D01*
X467810Y464838D01*
X467816Y464934D01*
X467825Y465030D01*
X467839Y465125D01*
X467856Y465219D01*
X467877Y465313D01*
X467902Y465406D01*
X467930Y465498D01*
X467962Y465588D01*
X467998Y465678D01*
X468037Y465766D01*
X468080Y465852D01*
X468126Y465936D01*
X468175Y466018D01*
X468228Y466099D01*
X468284Y466177D01*
X468343Y466253D01*
X468405Y466326D01*
X468469Y466397D01*
X468537Y466466D01*
X468607Y466531D01*
X468680Y466594D01*
X468756Y466654D01*
X468833Y466710D01*
X468913Y466764D01*
X468995Y466814D01*
X469079Y466861D01*
X469164Y466905D01*
X469252Y466945D01*
X469341Y466981D01*
X469431Y467014D01*
X469638Y467113D01*
X469849Y467206D01*
X470061Y467294D01*
X470275Y467377D01*
X470491Y467455D01*
X470709Y467528D01*
X470929Y467596D01*
X471150Y467658D01*
X471373Y467715D01*
X471597Y467767D01*
X471822Y467813D01*
X472048Y467854D01*
X472275Y467889D01*
X472503Y467919D01*
X472732Y467944D01*
X472961Y467963D01*
X473190Y467977D01*
X473420Y467985D01*
X473650Y467988D01*
X473650Y461496D02*
X473880Y461499D01*
X474110Y461507D01*
X474339Y461521D01*
X474568Y461540D01*
X474797Y461565D01*
X475025Y461595D01*
X475252Y461630D01*
X475478Y461671D01*
X475703Y461717D01*
X475927Y461769D01*
X476150Y461826D01*
X476371Y461888D01*
X476591Y461956D01*
X476809Y462029D01*
X477025Y462107D01*
X477239Y462190D01*
X477451Y462278D01*
X477662Y462371D01*
X477869Y462470D01*
X477959Y462503D01*
X478048Y462539D01*
X478136Y462580D01*
X478221Y462623D01*
X478305Y462670D01*
X478387Y462720D01*
X478467Y462774D01*
X478544Y462830D01*
X478620Y462890D01*
X478693Y462953D01*
X478763Y463018D01*
X478831Y463087D01*
X478895Y463158D01*
X478957Y463231D01*
X479016Y463307D01*
X479072Y463385D01*
X479125Y463466D01*
X479174Y463548D01*
X479220Y463632D01*
X479263Y463719D01*
X479302Y463806D01*
X479338Y463896D01*
X479370Y463986D01*
X479398Y464078D01*
X479423Y464171D01*
X479444Y464265D01*
X479461Y464359D01*
X479475Y464454D01*
X479484Y464550D01*
X479490Y464646D01*
X479492Y464742D01*
X477869Y467014D02*
X477662Y467113D01*
X477451Y467206D01*
X477239Y467294D01*
X477025Y467377D01*
X476809Y467455D01*
X476591Y467528D01*
X476371Y467596D01*
X476150Y467658D01*
X475927Y467715D01*
X475703Y467767D01*
X475478Y467813D01*
X475252Y467854D01*
X475025Y467889D01*
X474797Y467919D01*
X474568Y467944D01*
X474339Y467963D01*
X474110Y467977D01*
X473880Y467985D01*
X473650Y467988D01*
X477869Y467014D02*
X477959Y466981D01*
X478048Y466945D01*
X478136Y466905D01*
X478221Y466861D01*
X478305Y466814D01*
X478387Y466764D01*
X478467Y466710D01*
X478544Y466654D01*
X478620Y466594D01*
X478693Y466531D01*
X478763Y466466D01*
X478831Y466397D01*
X478895Y466326D01*
X478957Y466253D01*
X479016Y466177D01*
X479072Y466099D01*
X479125Y466018D01*
X479174Y465936D01*
X479220Y465852D01*
X479263Y465765D01*
X479302Y465678D01*
X479338Y465588D01*
X479370Y465498D01*
X479398Y465406D01*
X479423Y465313D01*
X479444Y465219D01*
X479461Y465125D01*
X479475Y465030D01*
X479484Y464934D01*
X479490Y464838D01*
X479492Y464742D01*
X476896Y462145D02*
X470404Y467338D01*
X417106Y463208D02*
X414509Y463208D01*
X414410Y463210D01*
X414310Y463216D01*
X414211Y463225D01*
X414113Y463238D01*
X414015Y463255D01*
X413917Y463276D01*
X413821Y463301D01*
X413726Y463329D01*
X413632Y463361D01*
X413539Y463396D01*
X413447Y463435D01*
X413357Y463478D01*
X413269Y463523D01*
X413182Y463573D01*
X413098Y463625D01*
X413015Y463681D01*
X412935Y463739D01*
X412857Y463801D01*
X412782Y463866D01*
X412709Y463934D01*
X412639Y464004D01*
X412571Y464077D01*
X412506Y464152D01*
X412444Y464230D01*
X412386Y464310D01*
X412330Y464393D01*
X412278Y464477D01*
X412228Y464564D01*
X412183Y464652D01*
X412140Y464742D01*
X412101Y464834D01*
X412066Y464927D01*
X412034Y465021D01*
X412006Y465116D01*
X411981Y465212D01*
X411960Y465310D01*
X411943Y465408D01*
X411930Y465506D01*
X411921Y465605D01*
X411915Y465705D01*
X411913Y465804D01*
X411913Y472296D01*
X411915Y472395D01*
X411921Y472495D01*
X411930Y472594D01*
X411943Y472692D01*
X411960Y472790D01*
X411981Y472888D01*
X412006Y472984D01*
X412034Y473079D01*
X412066Y473173D01*
X412101Y473266D01*
X412140Y473358D01*
X412183Y473448D01*
X412228Y473536D01*
X412278Y473623D01*
X412330Y473707D01*
X412386Y473790D01*
X412444Y473870D01*
X412506Y473948D01*
X412571Y474023D01*
X412639Y474096D01*
X412709Y474166D01*
X412782Y474234D01*
X412857Y474299D01*
X412935Y474361D01*
X413015Y474419D01*
X413098Y474475D01*
X413182Y474527D01*
X413269Y474577D01*
X413357Y474622D01*
X413447Y474665D01*
X413539Y474704D01*
X413631Y474739D01*
X413726Y474771D01*
X413821Y474799D01*
X413917Y474824D01*
X414015Y474845D01*
X414113Y474862D01*
X414211Y474875D01*
X414310Y474884D01*
X414410Y474890D01*
X414509Y474892D01*
X417106Y474892D01*
X421471Y472296D02*
X424716Y474892D01*
X424716Y463208D01*
X421471Y463208D02*
X427962Y463208D01*
X432901Y472296D02*
X436146Y474892D01*
X436146Y463208D01*
X432901Y463208D02*
X439392Y463208D01*
D11*
X453900Y418000D02*
X403900Y418000D01*
X403900Y448000D01*
X453900Y448000D01*
X453900Y418000D01*
D12*
X453900Y452000D02*
X453902Y452063D01*
X453908Y452125D01*
X453918Y452187D01*
X453931Y452249D01*
X453949Y452309D01*
X453970Y452368D01*
X453995Y452426D01*
X454024Y452482D01*
X454056Y452536D01*
X454091Y452588D01*
X454129Y452637D01*
X454171Y452685D01*
X454215Y452729D01*
X454263Y452771D01*
X454312Y452809D01*
X454364Y452844D01*
X454418Y452876D01*
X454474Y452905D01*
X454532Y452930D01*
X454591Y452951D01*
X454651Y452969D01*
X454713Y452982D01*
X454775Y452992D01*
X454837Y452998D01*
X454900Y453000D01*
X454963Y452998D01*
X455025Y452992D01*
X455087Y452982D01*
X455149Y452969D01*
X455209Y452951D01*
X455268Y452930D01*
X455326Y452905D01*
X455382Y452876D01*
X455436Y452844D01*
X455488Y452809D01*
X455537Y452771D01*
X455585Y452729D01*
X455629Y452685D01*
X455671Y452637D01*
X455709Y452588D01*
X455744Y452536D01*
X455776Y452482D01*
X455805Y452426D01*
X455830Y452368D01*
X455851Y452309D01*
X455869Y452249D01*
X455882Y452187D01*
X455892Y452125D01*
X455898Y452063D01*
X455900Y452000D01*
X455898Y451937D01*
X455892Y451875D01*
X455882Y451813D01*
X455869Y451751D01*
X455851Y451691D01*
X455830Y451632D01*
X455805Y451574D01*
X455776Y451518D01*
X455744Y451464D01*
X455709Y451412D01*
X455671Y451363D01*
X455629Y451315D01*
X455585Y451271D01*
X455537Y451229D01*
X455488Y451191D01*
X455436Y451156D01*
X455382Y451124D01*
X455326Y451095D01*
X455268Y451070D01*
X455209Y451049D01*
X455149Y451031D01*
X455087Y451018D01*
X455025Y451008D01*
X454963Y451002D01*
X454900Y451000D01*
X454837Y451002D01*
X454775Y451008D01*
X454713Y451018D01*
X454651Y451031D01*
X454591Y451049D01*
X454532Y451070D01*
X454474Y451095D01*
X454418Y451124D01*
X454364Y451156D01*
X454312Y451191D01*
X454263Y451229D01*
X454215Y451271D01*
X454171Y451315D01*
X454129Y451363D01*
X454091Y451412D01*
X454056Y451464D01*
X454024Y451518D01*
X453995Y451574D01*
X453970Y451632D01*
X453949Y451691D01*
X453931Y451751D01*
X453918Y451813D01*
X453908Y451875D01*
X453902Y451937D01*
X453900Y452000D01*
D13*
X393340Y340130D02*
X388260Y340130D01*
X413660Y340130D02*
X418740Y340130D01*
X439060Y340130D02*
X444140Y340130D01*
X464460Y340130D02*
X469540Y340130D01*
X489860Y340130D02*
X494940Y340130D01*
X367940Y340130D02*
X365400Y340130D01*
X365400Y350036D01*
X368194Y352830D01*
X365400Y340130D02*
X365400Y330224D01*
X368194Y327430D01*
X515260Y340130D02*
X517800Y340130D01*
X517800Y330224D01*
X515006Y327430D01*
X517800Y340130D02*
X517800Y350036D01*
X515006Y352830D01*
D11*
X368914Y363427D02*
X368914Y367181D01*
X368913Y363427D02*
X368911Y363362D01*
X368905Y363298D01*
X368895Y363234D01*
X368882Y363170D01*
X368864Y363108D01*
X368843Y363047D01*
X368819Y362987D01*
X368790Y362929D01*
X368758Y362872D01*
X368723Y362818D01*
X368685Y362766D01*
X368643Y362716D01*
X368599Y362669D01*
X368552Y362625D01*
X368502Y362583D01*
X368450Y362545D01*
X368396Y362510D01*
X368339Y362478D01*
X368281Y362449D01*
X368221Y362425D01*
X368160Y362404D01*
X368098Y362386D01*
X368034Y362373D01*
X367970Y362363D01*
X367906Y362357D01*
X367841Y362355D01*
X367305Y362355D01*
X371862Y366109D02*
X373202Y367181D01*
X373202Y362355D01*
X371862Y362355D02*
X374543Y362355D01*
X377348Y364768D02*
X377350Y364888D01*
X377355Y365008D01*
X377364Y365128D01*
X377377Y365248D01*
X377393Y365367D01*
X377413Y365486D01*
X377437Y365604D01*
X377464Y365721D01*
X377494Y365837D01*
X377528Y365952D01*
X377566Y366067D01*
X377607Y366180D01*
X377651Y366291D01*
X377699Y366402D01*
X377750Y366511D01*
X377771Y366568D01*
X377797Y366624D01*
X377825Y366679D01*
X377857Y366731D01*
X377893Y366782D01*
X377931Y366830D01*
X377972Y366876D01*
X378016Y366919D01*
X378062Y366959D01*
X378111Y366996D01*
X378163Y367030D01*
X378216Y367061D01*
X378271Y367089D01*
X378327Y367113D01*
X378385Y367134D01*
X378444Y367151D01*
X378504Y367164D01*
X378565Y367173D01*
X378627Y367179D01*
X378688Y367181D01*
X378749Y367179D01*
X378811Y367173D01*
X378872Y367164D01*
X378932Y367151D01*
X378991Y367134D01*
X379049Y367113D01*
X379105Y367089D01*
X379160Y367061D01*
X379213Y367030D01*
X379265Y366996D01*
X379314Y366959D01*
X379360Y366919D01*
X379404Y366876D01*
X379445Y366830D01*
X379483Y366782D01*
X379519Y366731D01*
X379551Y366679D01*
X379579Y366624D01*
X379605Y366568D01*
X379626Y366511D01*
X379627Y366511D02*
X379678Y366402D01*
X379726Y366291D01*
X379770Y366180D01*
X379811Y366067D01*
X379849Y365952D01*
X379883Y365837D01*
X379913Y365721D01*
X379940Y365604D01*
X379964Y365486D01*
X379984Y365367D01*
X380000Y365248D01*
X380013Y365128D01*
X380022Y365008D01*
X380027Y364888D01*
X380029Y364768D01*
X377348Y364768D02*
X377350Y364648D01*
X377355Y364528D01*
X377364Y364408D01*
X377377Y364288D01*
X377393Y364169D01*
X377413Y364050D01*
X377437Y363932D01*
X377464Y363815D01*
X377494Y363699D01*
X377528Y363584D01*
X377566Y363469D01*
X377607Y363356D01*
X377651Y363245D01*
X377699Y363134D01*
X377750Y363025D01*
X377771Y362968D01*
X377797Y362912D01*
X377825Y362857D01*
X377857Y362805D01*
X377893Y362754D01*
X377931Y362706D01*
X377972Y362660D01*
X378016Y362617D01*
X378062Y362577D01*
X378111Y362540D01*
X378163Y362506D01*
X378216Y362475D01*
X378271Y362447D01*
X378327Y362423D01*
X378385Y362402D01*
X378444Y362385D01*
X378504Y362372D01*
X378565Y362363D01*
X378627Y362357D01*
X378688Y362355D01*
X379627Y363025D02*
X379678Y363134D01*
X379726Y363245D01*
X379770Y363356D01*
X379811Y363469D01*
X379849Y363584D01*
X379883Y363699D01*
X379913Y363815D01*
X379940Y363932D01*
X379964Y364050D01*
X379984Y364169D01*
X380000Y364288D01*
X380013Y364408D01*
X380022Y364528D01*
X380027Y364648D01*
X380029Y364768D01*
X379626Y363025D02*
X379605Y362968D01*
X379579Y362912D01*
X379551Y362857D01*
X379519Y362805D01*
X379483Y362754D01*
X379445Y362706D01*
X379404Y362660D01*
X379360Y362617D01*
X379313Y362577D01*
X379265Y362540D01*
X379213Y362506D01*
X379160Y362475D01*
X379105Y362447D01*
X379049Y362423D01*
X378991Y362402D01*
X378932Y362385D01*
X378872Y362372D01*
X378811Y362363D01*
X378749Y362357D01*
X378688Y362355D01*
X377616Y363427D02*
X379761Y366109D01*
M02*
