G04 EAGLE Gerber RS-274X export*
G75*
%MOMM*%
%FSLAX34Y34*%
%LPD*%
%INSoldermask Bottom*%
%IPNEG*%
%AMOC8*
5,1,8,0,0,1.08239X$1,22.5*%
G01*
%ADD10C,3.403200*%
%ADD11C,1.511200*%
%ADD12C,1.511200*%
%ADD13C,1.727200*%
%ADD14R,2.082800X2.082800*%
%ADD15C,2.082800*%
%ADD16C,1.503200*%
%ADD17C,5.203200*%
%ADD18C,0.959600*%


D10*
X-301900Y87150D03*
X-301900Y941050D03*
D11*
X-57020Y666140D02*
X-57020Y653060D01*
X-31620Y653060D02*
X-31620Y666140D01*
X-6220Y666140D02*
X-6220Y653060D01*
X19180Y653060D02*
X19180Y666140D01*
X44580Y666140D02*
X44580Y653060D01*
X69980Y653060D02*
X69980Y666140D01*
X95380Y666140D02*
X95380Y653060D01*
X120780Y653060D02*
X120780Y666140D01*
X146180Y666140D02*
X146180Y653060D01*
X171580Y653060D02*
X171580Y666140D01*
X196980Y666140D02*
X196980Y653060D01*
X222380Y653060D02*
X222380Y666140D01*
X-57020Y805460D02*
X-57020Y818540D01*
X-31620Y818540D02*
X-31620Y805460D01*
X-6220Y805460D02*
X-6220Y818540D01*
X146180Y818540D02*
X146180Y805460D01*
X171580Y805460D02*
X171580Y818540D01*
X196980Y818540D02*
X196980Y805460D01*
X222380Y805460D02*
X222380Y818540D01*
X298580Y818540D02*
X298580Y805460D01*
X298580Y666140D02*
X298580Y653060D01*
X273180Y653060D02*
X273180Y666140D01*
X247780Y666140D02*
X247780Y653060D01*
X273180Y805460D02*
X273180Y818540D01*
X247780Y818540D02*
X247780Y805460D01*
X19180Y805460D02*
X19180Y818540D01*
D12*
X-44320Y761200D03*
X-44320Y735800D03*
X-44320Y710400D03*
D11*
X120780Y805460D02*
X120780Y818540D01*
X95380Y818540D02*
X95380Y805460D01*
X69980Y805460D02*
X69980Y818540D01*
X44580Y818540D02*
X44580Y805460D01*
D12*
X-69720Y761200D03*
X-69720Y735800D03*
X-69720Y710400D03*
D13*
X-298500Y821520D02*
X-313740Y821520D01*
X-316280Y796120D02*
X-301040Y796120D01*
X-298500Y770720D02*
X-313740Y770720D01*
X-316280Y745320D02*
X-301040Y745320D01*
X-298500Y719920D02*
X-313740Y719920D01*
X-316280Y694520D02*
X-301040Y694520D01*
X257510Y398600D02*
X272750Y398600D01*
X275290Y424000D02*
X260050Y424000D01*
X257510Y449400D02*
X272750Y449400D01*
X275290Y474800D02*
X260050Y474800D01*
X257510Y500200D02*
X272750Y500200D01*
X275290Y525600D02*
X260050Y525600D01*
D14*
X-228600Y1026160D03*
D15*
X-203200Y1023620D03*
X-177800Y1026160D03*
X-152400Y1023620D03*
D16*
X-177800Y1046890D03*
X-177800Y1002890D03*
D14*
X-78740Y1027430D03*
D15*
X-53340Y1024890D03*
X-27940Y1027430D03*
X-2540Y1024890D03*
D16*
X-27940Y1048160D03*
X-27940Y1004160D03*
D14*
X69850Y1028700D03*
D15*
X95250Y1026160D03*
X120650Y1028700D03*
X146050Y1026160D03*
D16*
X120650Y1049430D03*
X120650Y1005430D03*
D14*
X273710Y970430D03*
D15*
X271170Y945030D03*
X273710Y919630D03*
X271170Y894230D03*
D16*
X294440Y919630D03*
X250440Y919630D03*
D17*
X172800Y487500D03*
X-287200Y487500D03*
D15*
X-221800Y664300D03*
X-196400Y664300D03*
X-171000Y664300D03*
X-145600Y664300D03*
X-120200Y664300D03*
D13*
X378100Y806730D02*
X378100Y821970D01*
X403500Y819430D02*
X403500Y804190D01*
X428900Y806730D02*
X428900Y821970D01*
X454300Y819430D02*
X454300Y804190D01*
X479700Y806730D02*
X479700Y821970D01*
X505100Y819430D02*
X505100Y804190D01*
X378100Y349020D02*
X378100Y333780D01*
X403500Y331240D02*
X403500Y346480D01*
X428900Y349020D02*
X428900Y333780D01*
X454300Y331240D02*
X454300Y346480D01*
X479700Y349020D02*
X479700Y333780D01*
X505100Y331240D02*
X505100Y346480D01*
D18*
X-218500Y809500D03*
X-144200Y912400D03*
X6400Y913000D03*
X155000Y913700D03*
X229400Y861300D03*
X-145200Y820600D03*
X493000Y950950D03*
X409000Y944950D03*
X423000Y929950D03*
X493000Y478000D03*
X409000Y472000D03*
X423000Y457000D03*
X-175600Y719900D03*
X-171300Y759500D03*
X311900Y500200D03*
X-133000Y775700D03*
X-116700Y766700D03*
X120300Y768500D03*
X-183400Y759100D03*
X-183200Y741020D03*
X2900Y834400D03*
X31000Y588900D03*
X32300Y634000D03*
X32400Y713400D03*
X-176530Y902970D03*
X-176530Y873760D03*
X121920Y905510D03*
X121920Y853440D03*
X-26670Y905510D03*
X-26670Y863600D03*
X183500Y682400D03*
X183600Y921200D03*
X41910Y901700D03*
X41910Y852170D03*
X133800Y787000D03*
X133900Y683000D03*
X-110490Y894080D03*
X-110490Y858520D03*
X82700Y793600D03*
X84900Y693800D03*
X208700Y682800D03*
X208400Y939200D03*
X26670Y901700D03*
X26670Y852170D03*
X107900Y787400D03*
X108100Y682600D03*
X-125730Y894080D03*
X-125730Y858520D03*
X58300Y793800D03*
X58500Y705200D03*
X6200Y714800D03*
X11500Y787700D03*
X197200Y612000D03*
M02*
