G04 EAGLE Gerber RS-274X export*
G75*
%MOMM*%
%FSLAX34Y34*%
%LPD*%
%INBottom layer*%
%IPPOS*%
%AMOC8*
5,1,8,0,0,1.08239X$1,22.5*%
G01*
%ADD10C,0.000000*%
%ADD11C,0.000003*%
%ADD12C,1.308000*%
%ADD13C,1.308000*%
%ADD14C,1.524000*%
%ADD15R,1.879600X1.879600*%
%ADD16C,1.879600*%
%ADD17C,5.000000*%
%ADD18C,0.756400*%
%ADD19C,0.200000*%
%ADD20C,0.304800*%

G36*
X315118Y166386D02*
X315118Y166386D01*
X315237Y166393D01*
X315275Y166406D01*
X315316Y166411D01*
X315426Y166454D01*
X315539Y166491D01*
X315574Y166513D01*
X315611Y166528D01*
X315707Y166598D01*
X315808Y166661D01*
X315836Y166691D01*
X315869Y166714D01*
X315945Y166806D01*
X316026Y166893D01*
X316046Y166928D01*
X316071Y166959D01*
X316122Y167067D01*
X316180Y167171D01*
X316190Y167211D01*
X316207Y167247D01*
X316229Y167364D01*
X316259Y167479D01*
X316263Y167540D01*
X316267Y167560D01*
X316265Y167580D01*
X316269Y167640D01*
X316269Y431416D01*
X316263Y431466D01*
X316265Y431515D01*
X316243Y431623D01*
X316229Y431732D01*
X316211Y431778D01*
X316201Y431827D01*
X316153Y431926D01*
X316112Y432027D01*
X316083Y432068D01*
X316061Y432112D01*
X315990Y432196D01*
X315926Y432285D01*
X315887Y432317D01*
X315855Y432354D01*
X315765Y432418D01*
X315681Y432488D01*
X315636Y432509D01*
X315595Y432537D01*
X315492Y432576D01*
X315393Y432623D01*
X315344Y432632D01*
X315298Y432650D01*
X315188Y432662D01*
X315080Y432683D01*
X315031Y432680D01*
X314982Y432685D01*
X314873Y432670D01*
X314763Y432663D01*
X314716Y432648D01*
X314667Y432641D01*
X314514Y432589D01*
X312956Y431943D01*
X310844Y431943D01*
X308894Y432751D01*
X307800Y433846D01*
X307721Y433906D01*
X307649Y433974D01*
X307596Y434003D01*
X307548Y434040D01*
X307457Y434080D01*
X307371Y434128D01*
X307312Y434143D01*
X307256Y434167D01*
X307159Y434182D01*
X307063Y434207D01*
X306963Y434213D01*
X306942Y434217D01*
X306930Y434215D01*
X306902Y434217D01*
X282790Y434217D01*
X282761Y434214D01*
X282731Y434216D01*
X282603Y434194D01*
X282474Y434177D01*
X282447Y434167D01*
X282418Y434162D01*
X282299Y434108D01*
X282179Y434060D01*
X282155Y434043D01*
X282128Y434031D01*
X282026Y433950D01*
X281921Y433874D01*
X281903Y433851D01*
X281879Y433832D01*
X281801Y433729D01*
X281719Y433629D01*
X281706Y433602D01*
X281688Y433578D01*
X281617Y433434D01*
X280933Y431782D01*
X278218Y429067D01*
X274670Y427597D01*
X255590Y427597D01*
X252042Y429067D01*
X249327Y431782D01*
X247857Y435330D01*
X247857Y439170D01*
X249327Y442718D01*
X252042Y445433D01*
X255590Y446903D01*
X274670Y446903D01*
X278218Y445433D01*
X280933Y442718D01*
X281617Y441066D01*
X281632Y441041D01*
X281641Y441013D01*
X281710Y440903D01*
X281775Y440790D01*
X281795Y440769D01*
X281811Y440744D01*
X281906Y440655D01*
X281996Y440562D01*
X282021Y440546D01*
X282043Y440526D01*
X282157Y440463D01*
X282267Y440395D01*
X282295Y440387D01*
X282321Y440372D01*
X282447Y440340D01*
X282571Y440302D01*
X282601Y440300D01*
X282629Y440293D01*
X282790Y440283D01*
X306902Y440283D01*
X307000Y440295D01*
X307099Y440298D01*
X307158Y440315D01*
X307218Y440323D01*
X307310Y440359D01*
X307405Y440387D01*
X307457Y440417D01*
X307513Y440440D01*
X307593Y440498D01*
X307679Y440548D01*
X307754Y440614D01*
X307771Y440626D01*
X307778Y440636D01*
X307800Y440654D01*
X308894Y441749D01*
X310844Y442557D01*
X312956Y442557D01*
X314514Y441911D01*
X314562Y441898D01*
X314607Y441877D01*
X314715Y441856D01*
X314821Y441827D01*
X314871Y441826D01*
X314919Y441817D01*
X315029Y441824D01*
X315139Y441822D01*
X315187Y441834D01*
X315237Y441837D01*
X315341Y441871D01*
X315448Y441896D01*
X315492Y441920D01*
X315539Y441935D01*
X315632Y441994D01*
X315729Y442045D01*
X315766Y442078D01*
X315808Y442105D01*
X315883Y442185D01*
X315965Y442259D01*
X315992Y442300D01*
X316026Y442337D01*
X316079Y442433D01*
X316139Y442525D01*
X316156Y442572D01*
X316180Y442615D01*
X316207Y442721D01*
X316243Y442825D01*
X316247Y442875D01*
X316259Y442923D01*
X316269Y443084D01*
X316269Y988600D01*
X316254Y988718D01*
X316247Y988837D01*
X316234Y988875D01*
X316229Y988916D01*
X316186Y989026D01*
X316149Y989139D01*
X316127Y989174D01*
X316112Y989211D01*
X316042Y989307D01*
X315979Y989408D01*
X315949Y989436D01*
X315926Y989469D01*
X315834Y989544D01*
X315747Y989626D01*
X315712Y989646D01*
X315681Y989671D01*
X315573Y989722D01*
X315469Y989780D01*
X315429Y989790D01*
X315393Y989807D01*
X315276Y989829D01*
X315161Y989859D01*
X315100Y989863D01*
X315080Y989867D01*
X315060Y989865D01*
X315000Y989869D01*
X138580Y989869D01*
X138462Y989854D01*
X138343Y989847D01*
X138305Y989834D01*
X138264Y989829D01*
X138154Y989786D01*
X138041Y989749D01*
X138006Y989727D01*
X137969Y989712D01*
X137873Y989642D01*
X137772Y989579D01*
X137744Y989549D01*
X137711Y989526D01*
X137635Y989434D01*
X137554Y989347D01*
X137534Y989312D01*
X137509Y989281D01*
X137458Y989173D01*
X137400Y989069D01*
X137390Y989029D01*
X137373Y988993D01*
X137351Y988876D01*
X137321Y988761D01*
X137317Y988700D01*
X137313Y988680D01*
X137315Y988660D01*
X137311Y988600D01*
X137311Y983166D01*
X134774Y977042D01*
X130828Y973096D01*
X130810Y973073D01*
X130787Y973053D01*
X130713Y972948D01*
X130633Y972845D01*
X130621Y972818D01*
X130604Y972793D01*
X130558Y972672D01*
X130507Y972553D01*
X130502Y972524D01*
X130491Y972496D01*
X130477Y972367D01*
X130457Y972239D01*
X130459Y972209D01*
X130456Y972180D01*
X130474Y972052D01*
X130486Y971922D01*
X130496Y971894D01*
X130501Y971865D01*
X130553Y971713D01*
X132081Y968024D01*
X132081Y963476D01*
X130341Y959275D01*
X129721Y958656D01*
X129691Y958616D01*
X129654Y958583D01*
X129594Y958491D01*
X129526Y958404D01*
X129506Y958359D01*
X129479Y958317D01*
X129443Y958213D01*
X129400Y958112D01*
X129392Y958063D01*
X129376Y958016D01*
X129367Y957907D01*
X129350Y957798D01*
X129355Y957749D01*
X129351Y957699D01*
X129369Y957591D01*
X129380Y957482D01*
X129397Y957435D01*
X129405Y957386D01*
X129450Y957286D01*
X129487Y957182D01*
X129515Y957141D01*
X129536Y957096D01*
X129604Y957010D01*
X129666Y956919D01*
X129703Y956886D01*
X129734Y956848D01*
X129822Y956782D01*
X129904Y956709D01*
X129949Y956686D01*
X129988Y956656D01*
X130081Y956611D01*
X134774Y951918D01*
X137311Y945794D01*
X137311Y939166D01*
X134774Y933042D01*
X130088Y928356D01*
X123964Y925819D01*
X117336Y925819D01*
X111212Y928356D01*
X106526Y933042D01*
X103989Y939166D01*
X103989Y945794D01*
X106526Y951918D01*
X111223Y956615D01*
X111257Y956627D01*
X111348Y956689D01*
X111443Y956743D01*
X111479Y956778D01*
X111520Y956805D01*
X111593Y956888D01*
X111672Y956964D01*
X111698Y957007D01*
X111731Y957044D01*
X111781Y957142D01*
X111838Y957235D01*
X111853Y957283D01*
X111875Y957327D01*
X111899Y957434D01*
X111932Y957539D01*
X111934Y957589D01*
X111945Y957637D01*
X111942Y957747D01*
X111947Y957857D01*
X111937Y957906D01*
X111935Y957955D01*
X111905Y958061D01*
X111883Y958168D01*
X111861Y958213D01*
X111847Y958261D01*
X111791Y958355D01*
X111743Y958454D01*
X111711Y958492D01*
X111685Y958535D01*
X111579Y958656D01*
X110959Y959275D01*
X109219Y963476D01*
X109219Y968024D01*
X110747Y971713D01*
X110755Y971741D01*
X110769Y971768D01*
X110797Y971894D01*
X110831Y972020D01*
X110832Y972049D01*
X110838Y972078D01*
X110834Y972208D01*
X110836Y972337D01*
X110829Y972366D01*
X110829Y972396D01*
X110792Y972520D01*
X110762Y972647D01*
X110748Y972673D01*
X110740Y972701D01*
X110674Y972813D01*
X110613Y972928D01*
X110594Y972950D01*
X110579Y972975D01*
X110472Y973096D01*
X106526Y977042D01*
X103989Y983166D01*
X103989Y988600D01*
X103974Y988718D01*
X103967Y988837D01*
X103954Y988875D01*
X103949Y988916D01*
X103906Y989026D01*
X103869Y989139D01*
X103847Y989174D01*
X103832Y989211D01*
X103763Y989307D01*
X103699Y989408D01*
X103669Y989436D01*
X103646Y989469D01*
X103554Y989544D01*
X103467Y989626D01*
X103432Y989646D01*
X103401Y989671D01*
X103293Y989722D01*
X103189Y989780D01*
X103149Y989790D01*
X103113Y989807D01*
X102996Y989829D01*
X102881Y989859D01*
X102821Y989863D01*
X102801Y989867D01*
X102780Y989865D01*
X102720Y989869D01*
X-10010Y989869D01*
X-10128Y989854D01*
X-10247Y989847D01*
X-10285Y989834D01*
X-10326Y989829D01*
X-10436Y989786D01*
X-10549Y989749D01*
X-10584Y989727D01*
X-10621Y989712D01*
X-10717Y989642D01*
X-10818Y989579D01*
X-10846Y989549D01*
X-10879Y989526D01*
X-10955Y989434D01*
X-11036Y989347D01*
X-11056Y989312D01*
X-11081Y989281D01*
X-11132Y989173D01*
X-11190Y989069D01*
X-11200Y989029D01*
X-11217Y988993D01*
X-11239Y988876D01*
X-11269Y988761D01*
X-11273Y988700D01*
X-11277Y988680D01*
X-11275Y988660D01*
X-11279Y988600D01*
X-11279Y981896D01*
X-13816Y975772D01*
X-17762Y971826D01*
X-17780Y971803D01*
X-17803Y971784D01*
X-17877Y971677D01*
X-17957Y971575D01*
X-17969Y971548D01*
X-17986Y971524D01*
X-18032Y971402D01*
X-18083Y971283D01*
X-18088Y971254D01*
X-18099Y971226D01*
X-18113Y971097D01*
X-18133Y970969D01*
X-18131Y970939D01*
X-18134Y970910D01*
X-18116Y970782D01*
X-18104Y970652D01*
X-18094Y970624D01*
X-18089Y970595D01*
X-18037Y970443D01*
X-16509Y966754D01*
X-16509Y962206D01*
X-18249Y958005D01*
X-18869Y957386D01*
X-18899Y957346D01*
X-18936Y957313D01*
X-18996Y957221D01*
X-19064Y957134D01*
X-19084Y957089D01*
X-19111Y957047D01*
X-19147Y956943D01*
X-19190Y956842D01*
X-19198Y956793D01*
X-19214Y956746D01*
X-19223Y956637D01*
X-19240Y956528D01*
X-19235Y956479D01*
X-19239Y956429D01*
X-19221Y956321D01*
X-19210Y956212D01*
X-19193Y956165D01*
X-19185Y956116D01*
X-19140Y956016D01*
X-19103Y955912D01*
X-19075Y955871D01*
X-19054Y955826D01*
X-18986Y955740D01*
X-18924Y955649D01*
X-18887Y955616D01*
X-18856Y955578D01*
X-18768Y955512D01*
X-18686Y955439D01*
X-18641Y955416D01*
X-18602Y955386D01*
X-18509Y955341D01*
X-13816Y950648D01*
X-11279Y944524D01*
X-11279Y937896D01*
X-13816Y931772D01*
X-18502Y927086D01*
X-24626Y924549D01*
X-31254Y924549D01*
X-37378Y927086D01*
X-42064Y931772D01*
X-44601Y937896D01*
X-44601Y944524D01*
X-42064Y950648D01*
X-37367Y955345D01*
X-37333Y955357D01*
X-37242Y955419D01*
X-37147Y955473D01*
X-37111Y955508D01*
X-37070Y955535D01*
X-36997Y955618D01*
X-36918Y955694D01*
X-36892Y955737D01*
X-36859Y955774D01*
X-36809Y955872D01*
X-36752Y955965D01*
X-36737Y956013D01*
X-36715Y956057D01*
X-36691Y956164D01*
X-36658Y956269D01*
X-36656Y956319D01*
X-36645Y956367D01*
X-36648Y956477D01*
X-36643Y956587D01*
X-36653Y956636D01*
X-36655Y956685D01*
X-36685Y956791D01*
X-36707Y956898D01*
X-36729Y956943D01*
X-36743Y956991D01*
X-36799Y957085D01*
X-36847Y957184D01*
X-36879Y957222D01*
X-36905Y957265D01*
X-37011Y957386D01*
X-37631Y958005D01*
X-39371Y962206D01*
X-39371Y966754D01*
X-37843Y970443D01*
X-37835Y970471D01*
X-37821Y970498D01*
X-37793Y970624D01*
X-37759Y970750D01*
X-37758Y970779D01*
X-37752Y970808D01*
X-37756Y970938D01*
X-37754Y971068D01*
X-37761Y971096D01*
X-37761Y971126D01*
X-37797Y971250D01*
X-37828Y971377D01*
X-37842Y971403D01*
X-37850Y971431D01*
X-37916Y971543D01*
X-37977Y971658D01*
X-37996Y971680D01*
X-38011Y971705D01*
X-38118Y971826D01*
X-42064Y975772D01*
X-44601Y981896D01*
X-44601Y988600D01*
X-44616Y988718D01*
X-44623Y988837D01*
X-44636Y988875D01*
X-44641Y988916D01*
X-44684Y989026D01*
X-44721Y989139D01*
X-44743Y989174D01*
X-44758Y989211D01*
X-44827Y989307D01*
X-44891Y989408D01*
X-44921Y989436D01*
X-44944Y989469D01*
X-45036Y989544D01*
X-45123Y989626D01*
X-45158Y989646D01*
X-45189Y989671D01*
X-45297Y989722D01*
X-45401Y989780D01*
X-45441Y989790D01*
X-45477Y989807D01*
X-45594Y989829D01*
X-45709Y989859D01*
X-45769Y989863D01*
X-45789Y989867D01*
X-45810Y989865D01*
X-45870Y989869D01*
X-160323Y989869D01*
X-160372Y989863D01*
X-160422Y989865D01*
X-160529Y989843D01*
X-160639Y989829D01*
X-160685Y989811D01*
X-160733Y989801D01*
X-160832Y989753D01*
X-160934Y989712D01*
X-160974Y989683D01*
X-161019Y989661D01*
X-161103Y989590D01*
X-161192Y989526D01*
X-161223Y989487D01*
X-161261Y989455D01*
X-161324Y989365D01*
X-161394Y989281D01*
X-161416Y989236D01*
X-161444Y989195D01*
X-161483Y989092D01*
X-161530Y988993D01*
X-161539Y988944D01*
X-161557Y988898D01*
X-161569Y988788D01*
X-161590Y988680D01*
X-161587Y988631D01*
X-161592Y988581D01*
X-161577Y988473D01*
X-161570Y988363D01*
X-161555Y988316D01*
X-161548Y988267D01*
X-161496Y988114D01*
X-161139Y987254D01*
X-161139Y980626D01*
X-163676Y974502D01*
X-167622Y970556D01*
X-167640Y970533D01*
X-167663Y970514D01*
X-167737Y970407D01*
X-167817Y970305D01*
X-167829Y970278D01*
X-167846Y970254D01*
X-167892Y970132D01*
X-167943Y970013D01*
X-167948Y969984D01*
X-167959Y969956D01*
X-167973Y969827D01*
X-167993Y969699D01*
X-167991Y969669D01*
X-167994Y969640D01*
X-167976Y969512D01*
X-167964Y969382D01*
X-167954Y969354D01*
X-167949Y969325D01*
X-167897Y969173D01*
X-166369Y965484D01*
X-166369Y960936D01*
X-168109Y956735D01*
X-168729Y956116D01*
X-168759Y956076D01*
X-168796Y956043D01*
X-168857Y955951D01*
X-168924Y955864D01*
X-168944Y955819D01*
X-168971Y955777D01*
X-169007Y955673D01*
X-169050Y955573D01*
X-169058Y955523D01*
X-169074Y955476D01*
X-169083Y955367D01*
X-169100Y955258D01*
X-169095Y955209D01*
X-169099Y955159D01*
X-169081Y955051D01*
X-169070Y954942D01*
X-169053Y954895D01*
X-169045Y954846D01*
X-169000Y954746D01*
X-168963Y954643D01*
X-168935Y954601D01*
X-168914Y954556D01*
X-168846Y954470D01*
X-168784Y954379D01*
X-168747Y954346D01*
X-168716Y954308D01*
X-168628Y954241D01*
X-168546Y954169D01*
X-168501Y954146D01*
X-168462Y954116D01*
X-168369Y954071D01*
X-163676Y949378D01*
X-161139Y943254D01*
X-161139Y936626D01*
X-163676Y930502D01*
X-168362Y925816D01*
X-174486Y923279D01*
X-181114Y923279D01*
X-187238Y925816D01*
X-191924Y930502D01*
X-194461Y936626D01*
X-194461Y943254D01*
X-191924Y949378D01*
X-187227Y954075D01*
X-187193Y954087D01*
X-187102Y954149D01*
X-187007Y954203D01*
X-186971Y954238D01*
X-186930Y954266D01*
X-186857Y954348D01*
X-186778Y954424D01*
X-186752Y954467D01*
X-186719Y954504D01*
X-186669Y954602D01*
X-186612Y954695D01*
X-186597Y954743D01*
X-186575Y954787D01*
X-186551Y954894D01*
X-186518Y954999D01*
X-186516Y955049D01*
X-186505Y955097D01*
X-186508Y955207D01*
X-186503Y955317D01*
X-186513Y955366D01*
X-186515Y955415D01*
X-186545Y955521D01*
X-186567Y955628D01*
X-186589Y955673D01*
X-186603Y955721D01*
X-186659Y955815D01*
X-186707Y955914D01*
X-186739Y955952D01*
X-186765Y955995D01*
X-186871Y956116D01*
X-187491Y956735D01*
X-189231Y960936D01*
X-189231Y965484D01*
X-187703Y969173D01*
X-187695Y969201D01*
X-187681Y969228D01*
X-187653Y969354D01*
X-187619Y969480D01*
X-187618Y969509D01*
X-187612Y969538D01*
X-187616Y969668D01*
X-187614Y969798D01*
X-187621Y969826D01*
X-187621Y969856D01*
X-187657Y969980D01*
X-187688Y970107D01*
X-187702Y970133D01*
X-187710Y970161D01*
X-187776Y970273D01*
X-187837Y970388D01*
X-187856Y970410D01*
X-187871Y970435D01*
X-187978Y970556D01*
X-191924Y974502D01*
X-194461Y980626D01*
X-194461Y987254D01*
X-194104Y988114D01*
X-194091Y988162D01*
X-194070Y988207D01*
X-194049Y988315D01*
X-194020Y988421D01*
X-194020Y988471D01*
X-194010Y988519D01*
X-194017Y988629D01*
X-194015Y988739D01*
X-194027Y988787D01*
X-194030Y988837D01*
X-194064Y988941D01*
X-194090Y989048D01*
X-194113Y989092D01*
X-194128Y989139D01*
X-194187Y989232D01*
X-194238Y989329D01*
X-194272Y989366D01*
X-194298Y989408D01*
X-194378Y989483D01*
X-194452Y989565D01*
X-194494Y989592D01*
X-194530Y989626D01*
X-194626Y989679D01*
X-194718Y989739D01*
X-194765Y989756D01*
X-194808Y989780D01*
X-194915Y989807D01*
X-195019Y989843D01*
X-195068Y989847D01*
X-195116Y989859D01*
X-195277Y989869D01*
X-377660Y989869D01*
X-377778Y989854D01*
X-377897Y989847D01*
X-377935Y989834D01*
X-377976Y989829D01*
X-378086Y989786D01*
X-378199Y989749D01*
X-378234Y989727D01*
X-378271Y989712D01*
X-378367Y989642D01*
X-378468Y989579D01*
X-378496Y989549D01*
X-378529Y989526D01*
X-378604Y989434D01*
X-378686Y989347D01*
X-378706Y989312D01*
X-378731Y989281D01*
X-378782Y989173D01*
X-378840Y989069D01*
X-378850Y989029D01*
X-378867Y988993D01*
X-378889Y988876D01*
X-378919Y988761D01*
X-378923Y988700D01*
X-378927Y988680D01*
X-378925Y988660D01*
X-378929Y988600D01*
X-378929Y167640D01*
X-378914Y167522D01*
X-378907Y167403D01*
X-378894Y167365D01*
X-378889Y167324D01*
X-378846Y167214D01*
X-378809Y167101D01*
X-378787Y167066D01*
X-378772Y167029D01*
X-378702Y166933D01*
X-378639Y166832D01*
X-378609Y166804D01*
X-378586Y166771D01*
X-378494Y166696D01*
X-378407Y166614D01*
X-378372Y166594D01*
X-378341Y166569D01*
X-378233Y166518D01*
X-378129Y166460D01*
X-378089Y166450D01*
X-378053Y166433D01*
X-377936Y166411D01*
X-377821Y166381D01*
X-377760Y166377D01*
X-377740Y166373D01*
X-377720Y166375D01*
X-377660Y166371D01*
X315000Y166371D01*
X315118Y166386D01*
G37*
G36*
X530118Y718746D02*
X530118Y718746D01*
X530237Y718753D01*
X530275Y718766D01*
X530316Y718771D01*
X530426Y718814D01*
X530539Y718851D01*
X530574Y718873D01*
X530611Y718888D01*
X530707Y718958D01*
X530808Y719021D01*
X530836Y719051D01*
X530869Y719074D01*
X530945Y719166D01*
X531026Y719253D01*
X531046Y719288D01*
X531071Y719319D01*
X531122Y719427D01*
X531180Y719531D01*
X531190Y719571D01*
X531207Y719607D01*
X531229Y719724D01*
X531259Y719839D01*
X531263Y719900D01*
X531267Y719920D01*
X531265Y719940D01*
X531269Y720000D01*
X531269Y980000D01*
X531254Y980118D01*
X531247Y980237D01*
X531234Y980275D01*
X531229Y980316D01*
X531186Y980426D01*
X531149Y980539D01*
X531127Y980574D01*
X531112Y980611D01*
X531043Y980707D01*
X530979Y980808D01*
X530949Y980836D01*
X530926Y980869D01*
X530834Y980945D01*
X530747Y981026D01*
X530712Y981046D01*
X530681Y981071D01*
X530573Y981122D01*
X530469Y981180D01*
X530429Y981190D01*
X530393Y981207D01*
X530276Y981229D01*
X530161Y981259D01*
X530101Y981263D01*
X530081Y981267D01*
X530060Y981265D01*
X530000Y981269D01*
X350000Y981269D01*
X349882Y981254D01*
X349763Y981247D01*
X349725Y981234D01*
X349684Y981229D01*
X349574Y981186D01*
X349461Y981149D01*
X349426Y981127D01*
X349389Y981112D01*
X349293Y981043D01*
X349192Y980979D01*
X349164Y980949D01*
X349131Y980926D01*
X349056Y980834D01*
X348974Y980747D01*
X348954Y980712D01*
X348929Y980681D01*
X348878Y980573D01*
X348820Y980469D01*
X348810Y980429D01*
X348793Y980393D01*
X348771Y980276D01*
X348741Y980161D01*
X348737Y980101D01*
X348733Y980081D01*
X348735Y980060D01*
X348731Y980000D01*
X348731Y720000D01*
X348746Y719882D01*
X348753Y719763D01*
X348766Y719725D01*
X348771Y719684D01*
X348814Y719574D01*
X348851Y719461D01*
X348873Y719426D01*
X348888Y719389D01*
X348958Y719293D01*
X349021Y719192D01*
X349051Y719164D01*
X349074Y719131D01*
X349166Y719056D01*
X349253Y718974D01*
X349288Y718954D01*
X349319Y718929D01*
X349427Y718878D01*
X349531Y718820D01*
X349571Y718810D01*
X349607Y718793D01*
X349724Y718771D01*
X349839Y718741D01*
X349900Y718737D01*
X349920Y718733D01*
X349940Y718735D01*
X350000Y718731D01*
X530000Y718731D01*
X530118Y718746D01*
G37*
G36*
X530118Y245796D02*
X530118Y245796D01*
X530237Y245803D01*
X530275Y245816D01*
X530316Y245821D01*
X530426Y245864D01*
X530539Y245901D01*
X530574Y245923D01*
X530611Y245938D01*
X530707Y246008D01*
X530808Y246071D01*
X530836Y246101D01*
X530869Y246124D01*
X530945Y246216D01*
X531026Y246303D01*
X531046Y246338D01*
X531071Y246369D01*
X531122Y246477D01*
X531180Y246581D01*
X531190Y246621D01*
X531207Y246657D01*
X531229Y246774D01*
X531259Y246889D01*
X531263Y246950D01*
X531267Y246970D01*
X531265Y246990D01*
X531269Y247050D01*
X531269Y507050D01*
X531254Y507168D01*
X531247Y507287D01*
X531234Y507325D01*
X531229Y507366D01*
X531186Y507476D01*
X531149Y507589D01*
X531127Y507624D01*
X531112Y507661D01*
X531043Y507757D01*
X530979Y507858D01*
X530949Y507886D01*
X530926Y507919D01*
X530834Y507995D01*
X530747Y508076D01*
X530712Y508096D01*
X530681Y508121D01*
X530573Y508172D01*
X530469Y508230D01*
X530429Y508240D01*
X530393Y508257D01*
X530276Y508279D01*
X530161Y508309D01*
X530101Y508313D01*
X530081Y508317D01*
X530060Y508315D01*
X530000Y508319D01*
X350000Y508319D01*
X349882Y508304D01*
X349763Y508297D01*
X349725Y508284D01*
X349684Y508279D01*
X349574Y508236D01*
X349461Y508199D01*
X349426Y508177D01*
X349389Y508162D01*
X349293Y508093D01*
X349192Y508029D01*
X349164Y507999D01*
X349131Y507976D01*
X349056Y507884D01*
X348974Y507797D01*
X348954Y507762D01*
X348929Y507731D01*
X348878Y507623D01*
X348820Y507519D01*
X348810Y507479D01*
X348793Y507443D01*
X348771Y507326D01*
X348741Y507211D01*
X348737Y507151D01*
X348733Y507131D01*
X348735Y507110D01*
X348731Y507050D01*
X348731Y247050D01*
X348746Y246932D01*
X348753Y246813D01*
X348766Y246775D01*
X348771Y246734D01*
X348814Y246624D01*
X348851Y246511D01*
X348873Y246476D01*
X348888Y246439D01*
X348958Y246343D01*
X349021Y246242D01*
X349051Y246214D01*
X349074Y246181D01*
X349166Y246106D01*
X349253Y246024D01*
X349288Y246004D01*
X349319Y245979D01*
X349427Y245928D01*
X349531Y245870D01*
X349571Y245860D01*
X349607Y245843D01*
X349724Y245821D01*
X349839Y245791D01*
X349900Y245787D01*
X349920Y245783D01*
X349940Y245785D01*
X350000Y245781D01*
X530000Y245781D01*
X530118Y245796D01*
G37*
%LPC*%
G36*
X182444Y614143D02*
X182444Y614143D01*
X180494Y614951D01*
X179001Y616444D01*
X178193Y618394D01*
X178193Y620506D01*
X179001Y622456D01*
X179572Y623026D01*
X179632Y623105D01*
X179700Y623177D01*
X179729Y623230D01*
X179766Y623278D01*
X179806Y623369D01*
X179854Y623455D01*
X179869Y623514D01*
X179893Y623570D01*
X179908Y623667D01*
X179933Y623763D01*
X179939Y623863D01*
X179943Y623884D01*
X179941Y623896D01*
X179943Y623924D01*
X179943Y735685D01*
X179926Y735823D01*
X179913Y735962D01*
X179906Y735981D01*
X179903Y736001D01*
X179852Y736130D01*
X179805Y736261D01*
X179794Y736278D01*
X179786Y736297D01*
X179705Y736409D01*
X179627Y736524D01*
X179611Y736538D01*
X179600Y736554D01*
X179492Y736643D01*
X179388Y736735D01*
X179370Y736744D01*
X179355Y736757D01*
X179229Y736816D01*
X179105Y736879D01*
X179085Y736884D01*
X179067Y736892D01*
X178930Y736918D01*
X178795Y736949D01*
X178774Y736948D01*
X178755Y736952D01*
X178616Y736943D01*
X178477Y736939D01*
X178457Y736934D01*
X178437Y736932D01*
X178305Y736890D01*
X178171Y736851D01*
X178154Y736840D01*
X178135Y736834D01*
X178017Y736760D01*
X177897Y736689D01*
X177876Y736671D01*
X177866Y736664D01*
X177852Y736649D01*
X177777Y736583D01*
X176436Y735242D01*
X173285Y733937D01*
X169875Y733937D01*
X166724Y735242D01*
X164312Y737654D01*
X163007Y740805D01*
X163007Y757295D01*
X164312Y760446D01*
X166724Y762858D01*
X169875Y764163D01*
X173285Y764163D01*
X176436Y762858D01*
X177777Y761517D01*
X177886Y761432D01*
X177993Y761343D01*
X178012Y761335D01*
X178028Y761322D01*
X178155Y761267D01*
X178281Y761208D01*
X178301Y761204D01*
X178320Y761196D01*
X178458Y761174D01*
X178594Y761148D01*
X178614Y761149D01*
X178634Y761146D01*
X178773Y761159D01*
X178911Y761168D01*
X178930Y761174D01*
X178950Y761176D01*
X179082Y761223D01*
X179213Y761266D01*
X179231Y761277D01*
X179250Y761283D01*
X179365Y761362D01*
X179482Y761436D01*
X179496Y761451D01*
X179513Y761462D01*
X179605Y761566D01*
X179700Y761668D01*
X179710Y761685D01*
X179723Y761700D01*
X179786Y761824D01*
X179854Y761946D01*
X179859Y761966D01*
X179868Y761984D01*
X179898Y762120D01*
X179933Y762254D01*
X179935Y762282D01*
X179938Y762294D01*
X179937Y762314D01*
X179943Y762415D01*
X179943Y853876D01*
X179931Y853974D01*
X179928Y854073D01*
X179911Y854132D01*
X179903Y854192D01*
X179867Y854284D01*
X179839Y854379D01*
X179809Y854431D01*
X179786Y854487D01*
X179728Y854567D01*
X179678Y854653D01*
X179612Y854728D01*
X179600Y854745D01*
X179590Y854752D01*
X179572Y854774D01*
X179101Y855244D01*
X178293Y857194D01*
X178293Y859306D01*
X179101Y861256D01*
X180594Y862749D01*
X182544Y863557D01*
X184656Y863557D01*
X186606Y862749D01*
X188099Y861256D01*
X188907Y859306D01*
X188907Y857194D01*
X188099Y855244D01*
X187428Y854574D01*
X187368Y854495D01*
X187300Y854423D01*
X187271Y854370D01*
X187234Y854322D01*
X187194Y854231D01*
X187146Y854145D01*
X187131Y854086D01*
X187107Y854030D01*
X187092Y853933D01*
X187067Y853837D01*
X187061Y853737D01*
X187057Y853716D01*
X187059Y853704D01*
X187057Y853676D01*
X187057Y760416D01*
X187065Y760346D01*
X187064Y760277D01*
X187085Y760189D01*
X187097Y760100D01*
X187122Y760035D01*
X187139Y759967D01*
X187181Y759888D01*
X187214Y759804D01*
X187255Y759748D01*
X187287Y759686D01*
X187348Y759620D01*
X187400Y759547D01*
X187454Y759503D01*
X187501Y759451D01*
X187576Y759402D01*
X187645Y759344D01*
X187709Y759315D01*
X187767Y759276D01*
X187852Y759247D01*
X187933Y759209D01*
X188002Y759196D01*
X188068Y759173D01*
X188157Y759166D01*
X188245Y759149D01*
X188315Y759153D01*
X188385Y759148D01*
X188473Y759163D01*
X188563Y759169D01*
X188629Y759190D01*
X188698Y759202D01*
X188780Y759239D01*
X188865Y759267D01*
X188924Y759304D01*
X188988Y759333D01*
X189058Y759389D01*
X189134Y759437D01*
X189182Y759488D01*
X189236Y759531D01*
X189290Y759603D01*
X189352Y759669D01*
X189386Y759730D01*
X189428Y759785D01*
X189499Y759930D01*
X189712Y760446D01*
X192124Y762858D01*
X195275Y764163D01*
X198685Y764163D01*
X201836Y762858D01*
X202977Y761717D01*
X203086Y761632D01*
X203193Y761543D01*
X203212Y761535D01*
X203228Y761522D01*
X203355Y761467D01*
X203481Y761408D01*
X203501Y761404D01*
X203520Y761396D01*
X203658Y761374D01*
X203794Y761348D01*
X203814Y761349D01*
X203834Y761346D01*
X203973Y761359D01*
X204111Y761368D01*
X204130Y761374D01*
X204150Y761376D01*
X204282Y761423D01*
X204413Y761466D01*
X204431Y761477D01*
X204450Y761483D01*
X204565Y761562D01*
X204682Y761636D01*
X204696Y761651D01*
X204713Y761662D01*
X204805Y761766D01*
X204900Y761868D01*
X204910Y761885D01*
X204923Y761900D01*
X204986Y762024D01*
X205054Y762146D01*
X205059Y762166D01*
X205068Y762184D01*
X205098Y762320D01*
X205133Y762454D01*
X205135Y762482D01*
X205138Y762494D01*
X205137Y762514D01*
X205143Y762615D01*
X205143Y871476D01*
X205131Y871574D01*
X205128Y871673D01*
X205111Y871732D01*
X205103Y871792D01*
X205067Y871884D01*
X205039Y871979D01*
X205009Y872031D01*
X204986Y872087D01*
X204928Y872167D01*
X204878Y872253D01*
X204812Y872328D01*
X204800Y872345D01*
X204790Y872352D01*
X204772Y872374D01*
X203901Y873244D01*
X203093Y875194D01*
X203093Y877306D01*
X203901Y879256D01*
X205394Y880749D01*
X207344Y881557D01*
X209456Y881557D01*
X211406Y880749D01*
X212899Y879256D01*
X213707Y877306D01*
X213707Y875194D01*
X212899Y873244D01*
X212628Y872974D01*
X212568Y872895D01*
X212500Y872823D01*
X212477Y872781D01*
X212455Y872754D01*
X212449Y872742D01*
X212434Y872722D01*
X212394Y872631D01*
X212346Y872545D01*
X212335Y872500D01*
X212319Y872467D01*
X212316Y872451D01*
X212307Y872430D01*
X212292Y872333D01*
X212267Y872237D01*
X212263Y872173D01*
X212259Y872154D01*
X212260Y872136D01*
X212257Y872116D01*
X212259Y872104D01*
X212257Y872076D01*
X212257Y759933D01*
X212265Y759864D01*
X212264Y759794D01*
X212285Y759706D01*
X212297Y759617D01*
X212322Y759552D01*
X212339Y759485D01*
X212381Y759405D01*
X212414Y759322D01*
X212455Y759265D01*
X212487Y759203D01*
X212548Y759137D01*
X212600Y759064D01*
X212654Y759020D01*
X212701Y758968D01*
X212776Y758919D01*
X212845Y758861D01*
X212909Y758832D01*
X212967Y758793D01*
X213052Y758764D01*
X213133Y758726D01*
X213202Y758713D01*
X213268Y758690D01*
X213357Y758683D01*
X213445Y758666D01*
X213515Y758670D01*
X213585Y758665D01*
X213673Y758680D01*
X213763Y758686D01*
X213829Y758707D01*
X213898Y758719D01*
X213980Y758756D01*
X214065Y758784D01*
X214124Y758821D01*
X214188Y758850D01*
X214258Y758906D01*
X214334Y758954D01*
X214382Y759005D01*
X214436Y759048D01*
X214491Y759120D01*
X214552Y759186D01*
X214586Y759247D01*
X214628Y759303D01*
X214699Y759447D01*
X215112Y760446D01*
X217524Y762858D01*
X220675Y764163D01*
X224085Y764163D01*
X227236Y762858D01*
X229648Y760446D01*
X230953Y757295D01*
X230953Y740805D01*
X229648Y737654D01*
X227236Y735242D01*
X224085Y733937D01*
X220675Y733937D01*
X217524Y735242D01*
X215112Y737654D01*
X214699Y738653D01*
X214664Y738714D01*
X214638Y738778D01*
X214586Y738851D01*
X214541Y738929D01*
X214493Y738979D01*
X214452Y739036D01*
X214382Y739093D01*
X214320Y739158D01*
X214260Y739194D01*
X214207Y739239D01*
X214125Y739277D01*
X214049Y739324D01*
X213982Y739344D01*
X213919Y739374D01*
X213831Y739391D01*
X213745Y739417D01*
X213675Y739421D01*
X213606Y739434D01*
X213517Y739428D01*
X213427Y739433D01*
X213359Y739418D01*
X213289Y739414D01*
X213204Y739386D01*
X213116Y739368D01*
X213053Y739338D01*
X212987Y739316D01*
X212911Y739268D01*
X212830Y739229D01*
X212777Y739183D01*
X212718Y739146D01*
X212656Y739080D01*
X212588Y739022D01*
X212548Y738965D01*
X212500Y738914D01*
X212457Y738836D01*
X212405Y738762D01*
X212380Y738697D01*
X212346Y738636D01*
X212324Y738549D01*
X212292Y738465D01*
X212284Y738395D01*
X212267Y738328D01*
X212257Y738167D01*
X212257Y624324D01*
X212269Y624226D01*
X212272Y624127D01*
X212289Y624068D01*
X212297Y624008D01*
X212333Y623916D01*
X212361Y623821D01*
X212391Y623769D01*
X212414Y623713D01*
X212472Y623633D01*
X212522Y623547D01*
X212588Y623472D01*
X212600Y623455D01*
X212610Y623448D01*
X212628Y623426D01*
X213199Y622856D01*
X214007Y620906D01*
X214007Y618794D01*
X213199Y616844D01*
X211706Y615351D01*
X209756Y614543D01*
X207644Y614543D01*
X205694Y615351D01*
X204201Y616844D01*
X203393Y618794D01*
X203393Y620906D01*
X204201Y622856D01*
X204772Y623426D01*
X204832Y623505D01*
X204900Y623577D01*
X204929Y623630D01*
X204966Y623678D01*
X205006Y623769D01*
X205054Y623855D01*
X205069Y623914D01*
X205093Y623970D01*
X205108Y624067D01*
X205133Y624163D01*
X205139Y624263D01*
X205143Y624284D01*
X205141Y624296D01*
X205143Y624324D01*
X205143Y735485D01*
X205126Y735623D01*
X205113Y735762D01*
X205106Y735781D01*
X205103Y735801D01*
X205052Y735930D01*
X205005Y736061D01*
X204994Y736078D01*
X204986Y736097D01*
X204905Y736209D01*
X204827Y736324D01*
X204811Y736338D01*
X204800Y736354D01*
X204692Y736443D01*
X204588Y736535D01*
X204570Y736544D01*
X204555Y736557D01*
X204429Y736616D01*
X204305Y736679D01*
X204285Y736684D01*
X204267Y736692D01*
X204130Y736718D01*
X203995Y736749D01*
X203974Y736748D01*
X203955Y736752D01*
X203816Y736743D01*
X203677Y736739D01*
X203657Y736734D01*
X203637Y736732D01*
X203505Y736690D01*
X203371Y736651D01*
X203354Y736640D01*
X203335Y736634D01*
X203217Y736560D01*
X203097Y736489D01*
X203076Y736471D01*
X203066Y736464D01*
X203052Y736449D01*
X202977Y736383D01*
X201836Y735242D01*
X198685Y733937D01*
X195275Y733937D01*
X192124Y735242D01*
X189712Y737654D01*
X189499Y738170D01*
X189464Y738231D01*
X189438Y738296D01*
X189386Y738368D01*
X189341Y738446D01*
X189293Y738496D01*
X189252Y738553D01*
X189182Y738610D01*
X189120Y738675D01*
X189060Y738711D01*
X189007Y738756D01*
X188925Y738794D01*
X188849Y738841D01*
X188782Y738862D01*
X188719Y738891D01*
X188631Y738908D01*
X188545Y738935D01*
X188475Y738938D01*
X188406Y738951D01*
X188317Y738945D01*
X188227Y738950D01*
X188159Y738936D01*
X188089Y738931D01*
X188004Y738904D01*
X187916Y738885D01*
X187853Y738855D01*
X187787Y738833D01*
X187711Y738785D01*
X187630Y738746D01*
X187577Y738700D01*
X187518Y738663D01*
X187456Y738598D01*
X187388Y738539D01*
X187348Y738482D01*
X187300Y738431D01*
X187257Y738353D01*
X187205Y738279D01*
X187180Y738214D01*
X187146Y738153D01*
X187124Y738066D01*
X187092Y737982D01*
X187084Y737913D01*
X187067Y737845D01*
X187057Y737684D01*
X187057Y623924D01*
X187069Y623826D01*
X187072Y623727D01*
X187089Y623668D01*
X187097Y623608D01*
X187133Y623516D01*
X187161Y623421D01*
X187191Y623369D01*
X187214Y623313D01*
X187272Y623233D01*
X187322Y623147D01*
X187388Y623072D01*
X187400Y623055D01*
X187410Y623048D01*
X187428Y623026D01*
X187999Y622456D01*
X188807Y620506D01*
X188807Y618394D01*
X187999Y616444D01*
X186506Y614951D01*
X184556Y614143D01*
X182444Y614143D01*
G37*
%LPD*%
%LPC*%
G36*
X247126Y840019D02*
X247126Y840019D01*
X241002Y842556D01*
X236316Y847242D01*
X233779Y853366D01*
X233779Y859994D01*
X236316Y866118D01*
X241002Y870804D01*
X247126Y873341D01*
X253754Y873341D01*
X259878Y870804D01*
X264565Y866116D01*
X264581Y866104D01*
X264593Y866089D01*
X264706Y866007D01*
X264817Y865922D01*
X264835Y865914D01*
X264850Y865902D01*
X264980Y865851D01*
X265108Y865795D01*
X265128Y865792D01*
X265146Y865785D01*
X265284Y865767D01*
X265423Y865745D01*
X265442Y865747D01*
X265461Y865745D01*
X265599Y865762D01*
X265739Y865775D01*
X265758Y865782D01*
X265777Y865784D01*
X265907Y865835D01*
X266038Y865883D01*
X266055Y865894D01*
X266073Y865901D01*
X266209Y865987D01*
X267453Y866891D01*
X269127Y867744D01*
X269421Y867839D01*
X269439Y867848D01*
X269458Y867852D01*
X269582Y867915D01*
X269708Y867975D01*
X269724Y867988D01*
X269742Y867997D01*
X269846Y868089D01*
X269954Y868177D01*
X269965Y868194D01*
X269980Y868207D01*
X270059Y868322D01*
X270141Y868435D01*
X270148Y868453D01*
X270159Y868470D01*
X270206Y868601D01*
X270258Y868730D01*
X270260Y868750D01*
X270267Y868769D01*
X270280Y868908D01*
X270298Y869046D01*
X270295Y869066D01*
X270297Y869086D01*
X270275Y869223D01*
X270258Y869361D01*
X270251Y869380D01*
X270248Y869400D01*
X270192Y869528D01*
X270141Y869657D01*
X270129Y869673D01*
X270122Y869692D01*
X270036Y869802D01*
X269954Y869915D01*
X269939Y869927D01*
X269927Y869943D01*
X269817Y870028D01*
X269710Y870118D01*
X269692Y870126D01*
X269676Y870138D01*
X269548Y870194D01*
X269422Y870253D01*
X269402Y870257D01*
X269384Y870265D01*
X269227Y870300D01*
X268374Y870435D01*
X266587Y871016D01*
X264913Y871869D01*
X263392Y872974D01*
X262064Y874302D01*
X260959Y875823D01*
X260106Y877497D01*
X259525Y879284D01*
X259485Y879541D01*
X269900Y879541D01*
X270018Y879556D01*
X270137Y879563D01*
X270175Y879576D01*
X270215Y879581D01*
X270326Y879624D01*
X270439Y879661D01*
X270473Y879683D01*
X270511Y879698D01*
X270607Y879768D01*
X270708Y879831D01*
X270736Y879861D01*
X270768Y879884D01*
X270844Y879976D01*
X270926Y880063D01*
X270945Y880098D01*
X270971Y880129D01*
X271022Y880237D01*
X271079Y880341D01*
X271090Y880381D01*
X271107Y880417D01*
X271129Y880534D01*
X271159Y880649D01*
X271163Y880710D01*
X271167Y880730D01*
X271165Y880750D01*
X271169Y880810D01*
X271169Y883350D01*
X271154Y883468D01*
X271147Y883587D01*
X271134Y883625D01*
X271129Y883665D01*
X271085Y883776D01*
X271049Y883889D01*
X271027Y883924D01*
X271012Y883961D01*
X270942Y884057D01*
X270879Y884158D01*
X270849Y884186D01*
X270825Y884219D01*
X270734Y884294D01*
X270647Y884376D01*
X270612Y884396D01*
X270580Y884421D01*
X270473Y884472D01*
X270368Y884530D01*
X270329Y884540D01*
X270293Y884557D01*
X270176Y884579D01*
X270061Y884609D01*
X270000Y884613D01*
X269980Y884617D01*
X269960Y884615D01*
X269900Y884619D01*
X259485Y884619D01*
X259525Y884876D01*
X260106Y886663D01*
X260959Y888337D01*
X262064Y889858D01*
X263392Y891186D01*
X264913Y892291D01*
X266587Y893144D01*
X267907Y893573D01*
X268015Y893624D01*
X268126Y893668D01*
X268158Y893691D01*
X268195Y893708D01*
X268287Y893784D01*
X268383Y893854D01*
X268409Y893885D01*
X268440Y893911D01*
X268510Y894008D01*
X268586Y894099D01*
X268603Y894136D01*
X268627Y894168D01*
X268671Y894280D01*
X268722Y894387D01*
X268729Y894426D01*
X268744Y894464D01*
X268759Y894583D01*
X268781Y894700D01*
X268779Y894739D01*
X268784Y894779D01*
X268769Y894898D01*
X268762Y895017D01*
X268749Y895055D01*
X268744Y895095D01*
X268700Y895206D01*
X268664Y895319D01*
X268642Y895353D01*
X268627Y895391D01*
X268557Y895487D01*
X268493Y895588D01*
X268464Y895616D01*
X268441Y895648D01*
X268349Y895724D01*
X268262Y895806D01*
X268227Y895825D01*
X268196Y895851D01*
X268088Y895902D01*
X267983Y895960D01*
X267945Y895970D01*
X267908Y895987D01*
X267791Y896009D01*
X267675Y896039D01*
X267616Y896043D01*
X267596Y896047D01*
X267575Y896045D01*
X267515Y896049D01*
X263470Y896049D01*
X262279Y897240D01*
X262279Y917720D01*
X263470Y918911D01*
X283950Y918911D01*
X285141Y917720D01*
X285141Y897240D01*
X283950Y896049D01*
X274825Y896049D01*
X274707Y896034D01*
X274588Y896027D01*
X274550Y896014D01*
X274510Y896009D01*
X274399Y895966D01*
X274285Y895929D01*
X274251Y895907D01*
X274214Y895892D01*
X274118Y895822D01*
X274017Y895758D01*
X273989Y895729D01*
X273957Y895706D01*
X273881Y895614D01*
X273799Y895527D01*
X273779Y895491D01*
X273754Y895461D01*
X273703Y895353D01*
X273645Y895248D01*
X273635Y895209D01*
X273618Y895173D01*
X273596Y895056D01*
X273566Y894940D01*
X273566Y894900D01*
X273559Y894861D01*
X273566Y894741D01*
X273566Y894622D01*
X273576Y894583D01*
X273578Y894543D01*
X273615Y894430D01*
X273645Y894314D01*
X273664Y894279D01*
X273676Y894241D01*
X273740Y894140D01*
X273798Y894035D01*
X273825Y894006D01*
X273847Y893972D01*
X273934Y893890D01*
X274015Y893803D01*
X274049Y893781D01*
X274078Y893754D01*
X274183Y893696D01*
X274283Y893632D01*
X274339Y893610D01*
X274357Y893600D01*
X274376Y893595D01*
X274433Y893573D01*
X275753Y893144D01*
X277427Y892291D01*
X278948Y891186D01*
X280276Y889858D01*
X281381Y888337D01*
X282234Y886663D01*
X282815Y884876D01*
X282855Y884619D01*
X272440Y884619D01*
X272322Y884604D01*
X272203Y884597D01*
X272165Y884584D01*
X272125Y884579D01*
X272014Y884536D01*
X271901Y884499D01*
X271867Y884477D01*
X271829Y884462D01*
X271733Y884392D01*
X271632Y884329D01*
X271604Y884299D01*
X271572Y884275D01*
X271496Y884184D01*
X271414Y884097D01*
X271395Y884062D01*
X271369Y884031D01*
X271318Y883923D01*
X271261Y883819D01*
X271250Y883779D01*
X271233Y883743D01*
X271211Y883626D01*
X271181Y883511D01*
X271177Y883450D01*
X271173Y883430D01*
X271175Y883410D01*
X271171Y883350D01*
X271171Y880810D01*
X271186Y880692D01*
X271193Y880573D01*
X271206Y880535D01*
X271211Y880494D01*
X271255Y880384D01*
X271291Y880271D01*
X271313Y880236D01*
X271328Y880199D01*
X271398Y880103D01*
X271461Y880002D01*
X271491Y879974D01*
X271515Y879941D01*
X271606Y879866D01*
X271693Y879784D01*
X271728Y879764D01*
X271760Y879739D01*
X271867Y879688D01*
X271972Y879630D01*
X272011Y879620D01*
X272047Y879603D01*
X272164Y879581D01*
X272279Y879551D01*
X272340Y879547D01*
X272360Y879543D01*
X272380Y879545D01*
X272440Y879541D01*
X282855Y879541D01*
X282815Y879284D01*
X282234Y877497D01*
X281381Y875823D01*
X280276Y874302D01*
X278948Y872974D01*
X277427Y871869D01*
X275753Y871016D01*
X275459Y870921D01*
X275441Y870912D01*
X275422Y870908D01*
X275298Y870845D01*
X275172Y870785D01*
X275156Y870772D01*
X275138Y870763D01*
X275034Y870671D01*
X274926Y870583D01*
X274915Y870566D01*
X274900Y870553D01*
X274821Y870438D01*
X274739Y870325D01*
X274732Y870307D01*
X274721Y870290D01*
X274674Y870159D01*
X274622Y870030D01*
X274620Y870010D01*
X274613Y869991D01*
X274600Y869853D01*
X274582Y869714D01*
X274585Y869694D01*
X274583Y869674D01*
X274605Y869537D01*
X274622Y869399D01*
X274629Y869380D01*
X274632Y869360D01*
X274688Y869232D01*
X274739Y869103D01*
X274750Y869087D01*
X274758Y869068D01*
X274843Y868959D01*
X274925Y868845D01*
X274941Y868833D01*
X274953Y868817D01*
X275063Y868732D01*
X275170Y868642D01*
X275188Y868634D01*
X275204Y868622D01*
X275332Y868566D01*
X275458Y868507D01*
X275478Y868503D01*
X275496Y868495D01*
X275653Y868460D01*
X276506Y868325D01*
X278293Y867744D01*
X279889Y866931D01*
X279964Y866904D01*
X280034Y866868D01*
X280112Y866850D01*
X280188Y866823D01*
X280267Y866816D01*
X280344Y866798D01*
X280425Y866801D01*
X280505Y866793D01*
X280583Y866806D01*
X280662Y866808D01*
X280739Y866830D01*
X280819Y866843D01*
X280892Y866874D01*
X280968Y866896D01*
X281037Y866937D01*
X281111Y866969D01*
X281173Y867018D01*
X281242Y867058D01*
X281362Y867164D01*
X281363Y867164D01*
X285002Y870804D01*
X291126Y873341D01*
X297754Y873341D01*
X303878Y870804D01*
X308564Y866118D01*
X311101Y859994D01*
X311101Y853366D01*
X308564Y847242D01*
X303878Y842556D01*
X297754Y840019D01*
X291126Y840019D01*
X285002Y842556D01*
X281363Y846196D01*
X281300Y846244D01*
X281244Y846300D01*
X281175Y846341D01*
X281111Y846391D01*
X281038Y846422D01*
X280970Y846463D01*
X280893Y846485D01*
X280819Y846517D01*
X280741Y846529D01*
X280665Y846552D01*
X280585Y846554D01*
X280505Y846567D01*
X280426Y846559D01*
X280347Y846562D01*
X280269Y846545D01*
X280189Y846537D01*
X280114Y846510D01*
X280037Y846493D01*
X279890Y846430D01*
X279889Y846429D01*
X278293Y845616D01*
X276506Y845035D01*
X276249Y844995D01*
X276249Y855410D01*
X276234Y855528D01*
X276227Y855647D01*
X276214Y855685D01*
X276209Y855725D01*
X276166Y855836D01*
X276129Y855949D01*
X276107Y855983D01*
X276092Y856021D01*
X276022Y856117D01*
X275959Y856218D01*
X275929Y856246D01*
X275905Y856278D01*
X275814Y856354D01*
X275727Y856436D01*
X275692Y856455D01*
X275661Y856481D01*
X275553Y856532D01*
X275449Y856589D01*
X275409Y856600D01*
X275373Y856617D01*
X275256Y856639D01*
X275141Y856669D01*
X275080Y856673D01*
X275060Y856677D01*
X275040Y856675D01*
X274980Y856679D01*
X272440Y856679D01*
X272322Y856664D01*
X272203Y856657D01*
X272165Y856644D01*
X272124Y856639D01*
X272014Y856595D01*
X271901Y856559D01*
X271866Y856537D01*
X271829Y856522D01*
X271733Y856452D01*
X271632Y856389D01*
X271604Y856359D01*
X271571Y856335D01*
X271496Y856244D01*
X271414Y856157D01*
X271394Y856122D01*
X271369Y856090D01*
X271318Y855983D01*
X271260Y855878D01*
X271250Y855839D01*
X271233Y855803D01*
X271211Y855686D01*
X271181Y855571D01*
X271177Y855510D01*
X271173Y855490D01*
X271175Y855470D01*
X271171Y855410D01*
X271171Y844571D01*
X271140Y844620D01*
X271082Y844725D01*
X271055Y844754D01*
X271034Y844788D01*
X270946Y844870D01*
X270865Y844957D01*
X270831Y844979D01*
X270802Y845006D01*
X270697Y845064D01*
X270597Y845128D01*
X270541Y845150D01*
X270523Y845160D01*
X270504Y845165D01*
X270447Y845187D01*
X269127Y845616D01*
X267453Y846469D01*
X266209Y847373D01*
X266192Y847382D01*
X266177Y847395D01*
X266053Y847459D01*
X265930Y847526D01*
X265911Y847531D01*
X265894Y847540D01*
X265758Y847570D01*
X265622Y847605D01*
X265603Y847605D01*
X265583Y847610D01*
X265444Y847605D01*
X265304Y847605D01*
X265285Y847600D01*
X265266Y847600D01*
X265132Y847561D01*
X264996Y847526D01*
X264979Y847517D01*
X264960Y847511D01*
X264840Y847441D01*
X264717Y847373D01*
X264703Y847360D01*
X264686Y847350D01*
X264565Y847244D01*
X259878Y842556D01*
X253754Y840019D01*
X247126Y840019D01*
G37*
%LPD*%
%LPC*%
G36*
X169241Y397517D02*
X169241Y397517D01*
X162366Y399359D01*
X156202Y402918D01*
X151168Y407952D01*
X147609Y414116D01*
X145767Y420991D01*
X145767Y428109D01*
X147609Y434984D01*
X151168Y441148D01*
X156202Y446182D01*
X162366Y449741D01*
X169241Y451583D01*
X176359Y451583D01*
X183234Y449741D01*
X189398Y446182D01*
X194432Y441148D01*
X197991Y434984D01*
X199833Y428109D01*
X199833Y420991D01*
X197991Y414116D01*
X194432Y407952D01*
X189398Y402918D01*
X183234Y399359D01*
X176359Y397517D01*
X169241Y397517D01*
G37*
%LPD*%
%LPC*%
G36*
X-290759Y397517D02*
X-290759Y397517D01*
X-297634Y399359D01*
X-303798Y402918D01*
X-308832Y407952D01*
X-312391Y414116D01*
X-314233Y420991D01*
X-314233Y428109D01*
X-312391Y434984D01*
X-308832Y441148D01*
X-303798Y446182D01*
X-297634Y449741D01*
X-290759Y451583D01*
X-283641Y451583D01*
X-276766Y449741D01*
X-270602Y446182D01*
X-265568Y441148D01*
X-262009Y434984D01*
X-260167Y428109D01*
X-260167Y420991D01*
X-262009Y414116D01*
X-265568Y407952D01*
X-270602Y402918D01*
X-276766Y399359D01*
X-283641Y397517D01*
X-290759Y397517D01*
G37*
%LPD*%
%LPC*%
G36*
X-305344Y914889D02*
X-305344Y914889D01*
X-311998Y916672D01*
X-317963Y920116D01*
X-322834Y924987D01*
X-326278Y930952D01*
X-328061Y937606D01*
X-328061Y944494D01*
X-326278Y951148D01*
X-322834Y957113D01*
X-317963Y961984D01*
X-311998Y965428D01*
X-305344Y967211D01*
X-298456Y967211D01*
X-291802Y965428D01*
X-285837Y961984D01*
X-280966Y957113D01*
X-277522Y951148D01*
X-275739Y944494D01*
X-275739Y937606D01*
X-277522Y930952D01*
X-280966Y924987D01*
X-285837Y920116D01*
X-291802Y916672D01*
X-298456Y914889D01*
X-305344Y914889D01*
G37*
%LPD*%
%LPC*%
G36*
X31344Y645143D02*
X31344Y645143D01*
X29394Y645951D01*
X27901Y647444D01*
X27093Y649394D01*
X27093Y651506D01*
X27901Y653456D01*
X29394Y654949D01*
X31344Y655757D01*
X32151Y655757D01*
X32249Y655769D01*
X32348Y655772D01*
X32406Y655789D01*
X32467Y655797D01*
X32559Y655833D01*
X32654Y655861D01*
X32706Y655891D01*
X32762Y655914D01*
X32842Y655972D01*
X32928Y656022D01*
X33003Y656088D01*
X33020Y656100D01*
X33027Y656110D01*
X33049Y656128D01*
X40652Y663731D01*
X40712Y663810D01*
X40780Y663882D01*
X40809Y663935D01*
X40846Y663983D01*
X40886Y664074D01*
X40934Y664160D01*
X40949Y664219D01*
X40973Y664275D01*
X40988Y664373D01*
X41013Y664468D01*
X41019Y664568D01*
X41023Y664589D01*
X41021Y664601D01*
X41023Y664629D01*
X41023Y733856D01*
X41020Y733885D01*
X41022Y733915D01*
X41000Y734043D01*
X40983Y734172D01*
X40973Y734199D01*
X40968Y734228D01*
X40914Y734347D01*
X40866Y734467D01*
X40849Y734491D01*
X40837Y734518D01*
X40756Y734619D01*
X40680Y734725D01*
X40657Y734744D01*
X40638Y734767D01*
X40535Y734844D01*
X40435Y734927D01*
X40408Y734940D01*
X40384Y734958D01*
X40240Y735029D01*
X39724Y735242D01*
X37312Y737654D01*
X36007Y740805D01*
X36007Y757295D01*
X37312Y760446D01*
X39724Y762858D01*
X42875Y764163D01*
X46285Y764163D01*
X48161Y763386D01*
X48228Y763367D01*
X48292Y763340D01*
X48381Y763326D01*
X48468Y763302D01*
X48537Y763301D01*
X48606Y763290D01*
X48696Y763298D01*
X48786Y763297D01*
X48853Y763313D01*
X48923Y763320D01*
X49008Y763350D01*
X49095Y763371D01*
X49157Y763404D01*
X49222Y763427D01*
X49297Y763478D01*
X49376Y763520D01*
X49428Y763567D01*
X49485Y763606D01*
X49545Y763673D01*
X49611Y763734D01*
X49650Y763792D01*
X49696Y763844D01*
X49737Y763924D01*
X49786Y763999D01*
X49809Y764065D01*
X49840Y764127D01*
X49860Y764215D01*
X49889Y764300D01*
X49895Y764370D01*
X49910Y764438D01*
X49907Y764527D01*
X49915Y764617D01*
X49903Y764686D01*
X49900Y764756D01*
X49875Y764842D01*
X49860Y764930D01*
X49831Y764994D01*
X49812Y765061D01*
X49766Y765139D01*
X49730Y765220D01*
X49686Y765275D01*
X49651Y765335D01*
X49544Y765456D01*
X47479Y767522D01*
X47400Y767582D01*
X47328Y767650D01*
X47275Y767679D01*
X47227Y767716D01*
X47136Y767756D01*
X47050Y767804D01*
X46991Y767819D01*
X46935Y767843D01*
X46837Y767858D01*
X46742Y767883D01*
X46642Y767889D01*
X46621Y767893D01*
X46609Y767891D01*
X46581Y767893D01*
X7374Y767893D01*
X7276Y767881D01*
X7177Y767878D01*
X7118Y767861D01*
X7058Y767853D01*
X6966Y767817D01*
X6871Y767789D01*
X6819Y767759D01*
X6763Y767736D01*
X6683Y767678D01*
X6597Y767628D01*
X6522Y767562D01*
X6505Y767550D01*
X6498Y767540D01*
X6476Y767522D01*
X5906Y766951D01*
X3956Y766143D01*
X1844Y766143D01*
X-106Y766951D01*
X-1599Y768444D01*
X-2407Y770394D01*
X-2407Y772506D01*
X-1599Y774456D01*
X-106Y775949D01*
X1844Y776757D01*
X3956Y776757D01*
X5906Y775949D01*
X6476Y775378D01*
X6555Y775318D01*
X6627Y775250D01*
X6680Y775221D01*
X6728Y775184D01*
X6819Y775144D01*
X6905Y775096D01*
X6964Y775081D01*
X7020Y775057D01*
X7117Y775042D01*
X7213Y775017D01*
X7313Y775011D01*
X7334Y775007D01*
X7346Y775009D01*
X7374Y775007D01*
X50053Y775007D01*
X62766Y762294D01*
X62860Y762221D01*
X62949Y762143D01*
X62985Y762124D01*
X63017Y762099D01*
X63126Y762052D01*
X63232Y761998D01*
X63272Y761989D01*
X63309Y761973D01*
X63427Y761954D01*
X63543Y761928D01*
X63583Y761930D01*
X63623Y761923D01*
X63741Y761934D01*
X63860Y761938D01*
X63899Y761949D01*
X63939Y761953D01*
X64052Y761993D01*
X64166Y762026D01*
X64201Y762047D01*
X64239Y762061D01*
X64337Y762127D01*
X64440Y762188D01*
X64485Y762228D01*
X64502Y762239D01*
X64515Y762255D01*
X64561Y762294D01*
X65124Y762858D01*
X68275Y764163D01*
X71685Y764163D01*
X74836Y762858D01*
X77248Y760446D01*
X78553Y757295D01*
X78553Y740805D01*
X77248Y737654D01*
X74836Y735242D01*
X71685Y733937D01*
X68275Y733937D01*
X65124Y735242D01*
X62712Y737654D01*
X61407Y740805D01*
X61407Y753067D01*
X61395Y753165D01*
X61392Y753264D01*
X61375Y753322D01*
X61367Y753383D01*
X61331Y753475D01*
X61303Y753570D01*
X61273Y753622D01*
X61250Y753678D01*
X61192Y753758D01*
X61142Y753844D01*
X61076Y753919D01*
X61064Y753936D01*
X61054Y753943D01*
X61036Y753965D01*
X54446Y760554D01*
X54391Y760597D01*
X54342Y760647D01*
X54266Y760694D01*
X54195Y760749D01*
X54130Y760777D01*
X54071Y760813D01*
X53985Y760840D01*
X53903Y760875D01*
X53834Y760886D01*
X53767Y760907D01*
X53678Y760911D01*
X53589Y760925D01*
X53519Y760919D01*
X53449Y760922D01*
X53362Y760904D01*
X53272Y760895D01*
X53206Y760872D01*
X53138Y760858D01*
X53058Y760818D01*
X52973Y760788D01*
X52915Y760749D01*
X52852Y760718D01*
X52784Y760660D01*
X52710Y760609D01*
X52663Y760557D01*
X52610Y760512D01*
X52559Y760438D01*
X52499Y760371D01*
X52467Y760309D01*
X52427Y760252D01*
X52395Y760168D01*
X52355Y760088D01*
X52339Y760019D01*
X52315Y759954D01*
X52305Y759865D01*
X52285Y759777D01*
X52287Y759708D01*
X52279Y759638D01*
X52292Y759549D01*
X52295Y759459D01*
X52314Y759392D01*
X52324Y759323D01*
X52376Y759171D01*
X53153Y757295D01*
X53153Y740805D01*
X51848Y737654D01*
X49436Y735242D01*
X48920Y735029D01*
X48895Y735014D01*
X48867Y735005D01*
X48757Y734936D01*
X48644Y734871D01*
X48623Y734851D01*
X48598Y734835D01*
X48509Y734740D01*
X48416Y734650D01*
X48400Y734625D01*
X48380Y734603D01*
X48317Y734490D01*
X48249Y734379D01*
X48241Y734351D01*
X48226Y734325D01*
X48194Y734199D01*
X48156Y734075D01*
X48154Y734045D01*
X48147Y734017D01*
X48137Y733856D01*
X48137Y661157D01*
X38078Y651099D01*
X38018Y651020D01*
X37950Y650948D01*
X37921Y650895D01*
X37884Y650847D01*
X37844Y650756D01*
X37796Y650670D01*
X37781Y650611D01*
X37757Y650555D01*
X37742Y650457D01*
X37717Y650362D01*
X37711Y650262D01*
X37707Y650241D01*
X37709Y650229D01*
X37707Y650201D01*
X37707Y649394D01*
X36899Y647444D01*
X35406Y645951D01*
X33456Y645143D01*
X31344Y645143D01*
G37*
%LPD*%
%LPC*%
G36*
X-168461Y600080D02*
X-168461Y600080D01*
X-168476Y600198D01*
X-168483Y600317D01*
X-168496Y600355D01*
X-168501Y600395D01*
X-168544Y600506D01*
X-168581Y600619D01*
X-168603Y600653D01*
X-168618Y600691D01*
X-168688Y600787D01*
X-168751Y600888D01*
X-168781Y600916D01*
X-168804Y600948D01*
X-168896Y601024D01*
X-168983Y601106D01*
X-169018Y601125D01*
X-169049Y601151D01*
X-169157Y601202D01*
X-169261Y601259D01*
X-169301Y601270D01*
X-169337Y601287D01*
X-169454Y601309D01*
X-169569Y601339D01*
X-169630Y601343D01*
X-169650Y601347D01*
X-169670Y601345D01*
X-169730Y601349D01*
X-172270Y601349D01*
X-172388Y601334D01*
X-172507Y601327D01*
X-172545Y601314D01*
X-172585Y601309D01*
X-172696Y601265D01*
X-172809Y601229D01*
X-172844Y601207D01*
X-172881Y601192D01*
X-172977Y601122D01*
X-173078Y601059D01*
X-173106Y601029D01*
X-173139Y601005D01*
X-173214Y600914D01*
X-173296Y600827D01*
X-173316Y600792D01*
X-173341Y600760D01*
X-173392Y600653D01*
X-173450Y600548D01*
X-173460Y600509D01*
X-173477Y600473D01*
X-173499Y600356D01*
X-173529Y600241D01*
X-173533Y600180D01*
X-173537Y600160D01*
X-173535Y600140D01*
X-173539Y600080D01*
X-173539Y589665D01*
X-173796Y589705D01*
X-175583Y590286D01*
X-177257Y591139D01*
X-178778Y592244D01*
X-180106Y593572D01*
X-181211Y595093D01*
X-182064Y596767D01*
X-182654Y598584D01*
X-182679Y598670D01*
X-182710Y598796D01*
X-182724Y598823D01*
X-182732Y598852D01*
X-182798Y598963D01*
X-182858Y599077D01*
X-182879Y599100D01*
X-182894Y599126D01*
X-182985Y599217D01*
X-183072Y599313D01*
X-183097Y599329D01*
X-183119Y599350D01*
X-183230Y599416D01*
X-183338Y599487D01*
X-183367Y599497D01*
X-183392Y599513D01*
X-183516Y599549D01*
X-183639Y599591D01*
X-183669Y599593D01*
X-183698Y599601D01*
X-183827Y599606D01*
X-183956Y599616D01*
X-183986Y599611D01*
X-184016Y599612D01*
X-184142Y599584D01*
X-184269Y599561D01*
X-184297Y599549D01*
X-184326Y599543D01*
X-184441Y599484D01*
X-184559Y599431D01*
X-184583Y599412D01*
X-184610Y599398D01*
X-184706Y599313D01*
X-184808Y599232D01*
X-184826Y599208D01*
X-184848Y599188D01*
X-184921Y599082D01*
X-184999Y598978D01*
X-185018Y598940D01*
X-185027Y598926D01*
X-185035Y598905D01*
X-185070Y598834D01*
X-186709Y594875D01*
X-189925Y591659D01*
X-194126Y589919D01*
X-198674Y589919D01*
X-202875Y591659D01*
X-206091Y594875D01*
X-207831Y599076D01*
X-207831Y603624D01*
X-206091Y607825D01*
X-202875Y611041D01*
X-198674Y612781D01*
X-194126Y612781D01*
X-189925Y611041D01*
X-186709Y607825D01*
X-185070Y603866D01*
X-185006Y603754D01*
X-184947Y603639D01*
X-184927Y603616D01*
X-184912Y603590D01*
X-184822Y603497D01*
X-184737Y603400D01*
X-184712Y603383D01*
X-184691Y603362D01*
X-184580Y603294D01*
X-184474Y603221D01*
X-184445Y603211D01*
X-184420Y603195D01*
X-184296Y603157D01*
X-184175Y603114D01*
X-184145Y603111D01*
X-184116Y603102D01*
X-183987Y603096D01*
X-183858Y603083D01*
X-183828Y603088D01*
X-183798Y603087D01*
X-183672Y603113D01*
X-183544Y603133D01*
X-183516Y603145D01*
X-183487Y603151D01*
X-183370Y603208D01*
X-183252Y603259D01*
X-183228Y603277D01*
X-183201Y603291D01*
X-183103Y603375D01*
X-183000Y603454D01*
X-182982Y603477D01*
X-182959Y603497D01*
X-182885Y603603D01*
X-182805Y603705D01*
X-182793Y603732D01*
X-182776Y603757D01*
X-182730Y603878D01*
X-182679Y603997D01*
X-182669Y604038D01*
X-182663Y604054D01*
X-182661Y604076D01*
X-182646Y604141D01*
X-182064Y605933D01*
X-181211Y607607D01*
X-180106Y609128D01*
X-178778Y610456D01*
X-177257Y611561D01*
X-175583Y612414D01*
X-173796Y612995D01*
X-173539Y613035D01*
X-173539Y602620D01*
X-173524Y602502D01*
X-173517Y602383D01*
X-173504Y602345D01*
X-173499Y602305D01*
X-173456Y602194D01*
X-173419Y602081D01*
X-173397Y602047D01*
X-173382Y602009D01*
X-173312Y601913D01*
X-173249Y601812D01*
X-173219Y601784D01*
X-173195Y601752D01*
X-173104Y601676D01*
X-173017Y601594D01*
X-172982Y601575D01*
X-172951Y601549D01*
X-172843Y601498D01*
X-172739Y601441D01*
X-172699Y601430D01*
X-172663Y601413D01*
X-172546Y601391D01*
X-172431Y601361D01*
X-172370Y601357D01*
X-172350Y601353D01*
X-172330Y601355D01*
X-172270Y601351D01*
X-169730Y601351D01*
X-169612Y601366D01*
X-169493Y601373D01*
X-169455Y601386D01*
X-169414Y601391D01*
X-169304Y601435D01*
X-169191Y601471D01*
X-169156Y601493D01*
X-169119Y601508D01*
X-169023Y601578D01*
X-168922Y601641D01*
X-168894Y601671D01*
X-168861Y601695D01*
X-168786Y601786D01*
X-168704Y601873D01*
X-168684Y601908D01*
X-168659Y601940D01*
X-168608Y602047D01*
X-168550Y602152D01*
X-168540Y602191D01*
X-168523Y602227D01*
X-168501Y602344D01*
X-168471Y602459D01*
X-168467Y602520D01*
X-168463Y602540D01*
X-168465Y602560D01*
X-168461Y602620D01*
X-168461Y613035D01*
X-168204Y612995D01*
X-166417Y612414D01*
X-164743Y611561D01*
X-163222Y610456D01*
X-161894Y609128D01*
X-160789Y607607D01*
X-159936Y605933D01*
X-159346Y604116D01*
X-159320Y604030D01*
X-159290Y603904D01*
X-159276Y603877D01*
X-159268Y603848D01*
X-159202Y603737D01*
X-159142Y603623D01*
X-159121Y603600D01*
X-159106Y603574D01*
X-159015Y603483D01*
X-158928Y603387D01*
X-158903Y603371D01*
X-158881Y603349D01*
X-158770Y603284D01*
X-158662Y603213D01*
X-158633Y603203D01*
X-158608Y603187D01*
X-158484Y603151D01*
X-158361Y603109D01*
X-158331Y603107D01*
X-158302Y603099D01*
X-158173Y603094D01*
X-158044Y603084D01*
X-158014Y603089D01*
X-157984Y603088D01*
X-157858Y603116D01*
X-157731Y603139D01*
X-157703Y603151D01*
X-157674Y603158D01*
X-157559Y603216D01*
X-157441Y603269D01*
X-157417Y603288D01*
X-157390Y603302D01*
X-157293Y603387D01*
X-157192Y603468D01*
X-157174Y603492D01*
X-157152Y603512D01*
X-157079Y603619D01*
X-157001Y603722D01*
X-156982Y603761D01*
X-156973Y603775D01*
X-156965Y603795D01*
X-156930Y603866D01*
X-155291Y607825D01*
X-152075Y611041D01*
X-147874Y612781D01*
X-143326Y612781D01*
X-139125Y611041D01*
X-135909Y607825D01*
X-134169Y603624D01*
X-134169Y599076D01*
X-135909Y594875D01*
X-139125Y591659D01*
X-143326Y589919D01*
X-147874Y589919D01*
X-152075Y591659D01*
X-155291Y594875D01*
X-156930Y598834D01*
X-156994Y598946D01*
X-157053Y599061D01*
X-157073Y599084D01*
X-157088Y599110D01*
X-157178Y599203D01*
X-157263Y599300D01*
X-157288Y599317D01*
X-157309Y599338D01*
X-157419Y599406D01*
X-157526Y599479D01*
X-157554Y599489D01*
X-157580Y599505D01*
X-157704Y599543D01*
X-157825Y599586D01*
X-157855Y599589D01*
X-157884Y599598D01*
X-158013Y599604D01*
X-158142Y599617D01*
X-158172Y599612D01*
X-158202Y599613D01*
X-158328Y599587D01*
X-158456Y599567D01*
X-158484Y599555D01*
X-158513Y599549D01*
X-158629Y599492D01*
X-158748Y599441D01*
X-158772Y599423D01*
X-158799Y599409D01*
X-158897Y599325D01*
X-158999Y599246D01*
X-159018Y599223D01*
X-159041Y599203D01*
X-159115Y599097D01*
X-159195Y598995D01*
X-159207Y598968D01*
X-159224Y598943D01*
X-159270Y598822D01*
X-159321Y598703D01*
X-159331Y598661D01*
X-159337Y598646D01*
X-159339Y598624D01*
X-159354Y598559D01*
X-159936Y596767D01*
X-160789Y595093D01*
X-161894Y593572D01*
X-163222Y592244D01*
X-164743Y591139D01*
X-166417Y590286D01*
X-168204Y589705D01*
X-168461Y589665D01*
X-168461Y600080D01*
G37*
%LPD*%
%LPC*%
G36*
X107044Y614343D02*
X107044Y614343D01*
X105094Y615151D01*
X103601Y616644D01*
X102793Y618594D01*
X102793Y620706D01*
X103601Y622656D01*
X103972Y623026D01*
X104032Y623105D01*
X104100Y623177D01*
X104129Y623230D01*
X104166Y623278D01*
X104206Y623369D01*
X104254Y623455D01*
X104269Y623514D01*
X104293Y623570D01*
X104308Y623667D01*
X104333Y623763D01*
X104339Y623863D01*
X104343Y623884D01*
X104341Y623896D01*
X104343Y623924D01*
X104343Y719976D01*
X104331Y720074D01*
X104328Y720173D01*
X104311Y720232D01*
X104303Y720292D01*
X104267Y720384D01*
X104239Y720479D01*
X104209Y720531D01*
X104186Y720587D01*
X104128Y720667D01*
X104078Y720753D01*
X104012Y720828D01*
X104000Y720845D01*
X103990Y720852D01*
X103972Y720874D01*
X103401Y721444D01*
X102593Y723394D01*
X102593Y725506D01*
X103401Y727456D01*
X104894Y728949D01*
X106844Y729757D01*
X108956Y729757D01*
X110906Y728949D01*
X112399Y727456D01*
X113207Y725506D01*
X113207Y723394D01*
X112399Y721444D01*
X111828Y720874D01*
X111768Y720795D01*
X111700Y720723D01*
X111671Y720670D01*
X111634Y720622D01*
X111594Y720531D01*
X111546Y720445D01*
X111531Y720386D01*
X111507Y720330D01*
X111492Y720233D01*
X111467Y720137D01*
X111461Y720037D01*
X111457Y720016D01*
X111459Y720004D01*
X111457Y719976D01*
X111457Y624324D01*
X111469Y624226D01*
X111472Y624127D01*
X111489Y624068D01*
X111497Y624008D01*
X111533Y623916D01*
X111561Y623821D01*
X111591Y623769D01*
X111614Y623713D01*
X111672Y623633D01*
X111722Y623547D01*
X111788Y623472D01*
X111800Y623455D01*
X111810Y623448D01*
X111828Y623426D01*
X112599Y622656D01*
X113407Y620706D01*
X113407Y618594D01*
X112599Y616644D01*
X111106Y615151D01*
X109156Y614343D01*
X107044Y614343D01*
G37*
%LPD*%
%LPC*%
G36*
X132844Y614743D02*
X132844Y614743D01*
X130894Y615551D01*
X129401Y617044D01*
X128593Y618994D01*
X128593Y621106D01*
X129401Y623056D01*
X129872Y623526D01*
X129932Y623605D01*
X130000Y623677D01*
X130029Y623730D01*
X130066Y623778D01*
X130106Y623869D01*
X130154Y623955D01*
X130169Y624014D01*
X130193Y624070D01*
X130208Y624167D01*
X130233Y624263D01*
X130239Y624363D01*
X130243Y624384D01*
X130241Y624396D01*
X130243Y624424D01*
X130243Y719576D01*
X130231Y719674D01*
X130228Y719773D01*
X130211Y719832D01*
X130203Y719892D01*
X130167Y719984D01*
X130139Y720079D01*
X130109Y720131D01*
X130086Y720187D01*
X130028Y720267D01*
X129978Y720353D01*
X129912Y720428D01*
X129900Y720445D01*
X129890Y720452D01*
X129872Y720474D01*
X129301Y721044D01*
X128493Y722994D01*
X128493Y725106D01*
X129301Y727056D01*
X130794Y728549D01*
X132744Y729357D01*
X134856Y729357D01*
X136806Y728549D01*
X138299Y727056D01*
X139107Y725106D01*
X139107Y722994D01*
X138299Y721044D01*
X137728Y720474D01*
X137668Y720395D01*
X137600Y720323D01*
X137571Y720270D01*
X137534Y720222D01*
X137494Y720131D01*
X137446Y720045D01*
X137431Y719986D01*
X137407Y719930D01*
X137392Y719833D01*
X137367Y719737D01*
X137361Y719637D01*
X137357Y719616D01*
X137359Y719604D01*
X137357Y719576D01*
X137357Y624624D01*
X137369Y624526D01*
X137372Y624427D01*
X137389Y624368D01*
X137397Y624308D01*
X137433Y624216D01*
X137461Y624121D01*
X137491Y624069D01*
X137514Y624013D01*
X137572Y623933D01*
X137622Y623847D01*
X137688Y623772D01*
X137700Y623755D01*
X137710Y623748D01*
X137728Y623726D01*
X138399Y623056D01*
X139207Y621106D01*
X139207Y618994D01*
X138399Y617044D01*
X136906Y615551D01*
X134956Y614743D01*
X132844Y614743D01*
G37*
%LPD*%
%LPC*%
G36*
X83844Y625543D02*
X83844Y625543D01*
X81894Y626351D01*
X80401Y627844D01*
X79593Y629794D01*
X79593Y631906D01*
X80401Y633856D01*
X80972Y634426D01*
X81032Y634505D01*
X81100Y634577D01*
X81129Y634630D01*
X81166Y634678D01*
X81206Y634769D01*
X81254Y634855D01*
X81269Y634914D01*
X81293Y634970D01*
X81308Y635067D01*
X81333Y635163D01*
X81339Y635263D01*
X81343Y635284D01*
X81341Y635296D01*
X81343Y635324D01*
X81343Y724620D01*
X81340Y724649D01*
X81342Y724679D01*
X81320Y724806D01*
X81303Y724935D01*
X81293Y724963D01*
X81288Y724992D01*
X81234Y725111D01*
X81186Y725231D01*
X81169Y725255D01*
X81157Y725282D01*
X81076Y725384D01*
X81000Y725488D01*
X80977Y725507D01*
X80958Y725530D01*
X80855Y725608D01*
X80755Y725691D01*
X80728Y725704D01*
X80704Y725722D01*
X80560Y725793D01*
X79694Y726151D01*
X78201Y727644D01*
X77393Y729594D01*
X77393Y731706D01*
X78201Y733656D01*
X79694Y735149D01*
X81644Y735957D01*
X83756Y735957D01*
X85706Y735149D01*
X87199Y733656D01*
X88007Y731706D01*
X88007Y730899D01*
X88019Y730801D01*
X88022Y730702D01*
X88039Y730644D01*
X88047Y730583D01*
X88083Y730491D01*
X88111Y730396D01*
X88141Y730344D01*
X88164Y730288D01*
X88222Y730208D01*
X88272Y730122D01*
X88338Y730047D01*
X88350Y730030D01*
X88360Y730023D01*
X88378Y730001D01*
X88457Y729923D01*
X88457Y635324D01*
X88469Y635226D01*
X88472Y635127D01*
X88489Y635068D01*
X88497Y635008D01*
X88533Y634916D01*
X88561Y634821D01*
X88591Y634769D01*
X88614Y634713D01*
X88672Y634633D01*
X88722Y634547D01*
X88788Y634472D01*
X88800Y634455D01*
X88810Y634448D01*
X88828Y634426D01*
X89399Y633856D01*
X90207Y631906D01*
X90207Y629794D01*
X89399Y627844D01*
X87906Y626351D01*
X85956Y625543D01*
X83844Y625543D01*
G37*
%LPD*%
%LPC*%
G36*
X196144Y543743D02*
X196144Y543743D01*
X194194Y544551D01*
X192701Y546044D01*
X191893Y547994D01*
X191893Y550106D01*
X192701Y552056D01*
X193272Y552626D01*
X193332Y552705D01*
X193400Y552777D01*
X193429Y552830D01*
X193466Y552878D01*
X193506Y552969D01*
X193554Y553055D01*
X193569Y553114D01*
X193593Y553170D01*
X193608Y553267D01*
X193633Y553363D01*
X193639Y553463D01*
X193643Y553484D01*
X193641Y553496D01*
X193643Y553524D01*
X193643Y581365D01*
X193640Y581394D01*
X193642Y581424D01*
X193620Y581552D01*
X193603Y581681D01*
X193593Y581708D01*
X193588Y581737D01*
X193534Y581856D01*
X193486Y581976D01*
X193469Y582000D01*
X193457Y582027D01*
X193376Y582129D01*
X193300Y582234D01*
X193277Y582252D01*
X193258Y582275D01*
X193155Y582354D01*
X193055Y582436D01*
X193028Y582449D01*
X193004Y582467D01*
X192860Y582538D01*
X192124Y582842D01*
X189712Y585254D01*
X188407Y588405D01*
X188407Y604895D01*
X189712Y608046D01*
X192124Y610458D01*
X195275Y611763D01*
X198685Y611763D01*
X201836Y610458D01*
X204248Y608046D01*
X205553Y604895D01*
X205553Y588405D01*
X204248Y585254D01*
X201836Y582842D01*
X201540Y582720D01*
X201515Y582705D01*
X201487Y582696D01*
X201377Y582627D01*
X201264Y582562D01*
X201243Y582542D01*
X201218Y582526D01*
X201129Y582431D01*
X201036Y582341D01*
X201020Y582316D01*
X201000Y582294D01*
X200937Y582181D01*
X200869Y582070D01*
X200861Y582042D01*
X200846Y582016D01*
X200814Y581890D01*
X200776Y581766D01*
X200774Y581736D01*
X200767Y581708D01*
X200757Y581547D01*
X200757Y553524D01*
X200769Y553426D01*
X200772Y553327D01*
X200789Y553268D01*
X200797Y553208D01*
X200833Y553116D01*
X200861Y553021D01*
X200891Y552969D01*
X200914Y552913D01*
X200972Y552833D01*
X201022Y552747D01*
X201088Y552672D01*
X201100Y552655D01*
X201110Y552648D01*
X201128Y552626D01*
X201699Y552056D01*
X202507Y550106D01*
X202507Y547994D01*
X201699Y546044D01*
X200206Y544551D01*
X198256Y543743D01*
X196144Y543743D01*
G37*
%LPD*%
%LPC*%
G36*
X57444Y636943D02*
X57444Y636943D01*
X55494Y637751D01*
X54001Y639244D01*
X53193Y641194D01*
X53193Y643306D01*
X54001Y645256D01*
X54372Y645626D01*
X54432Y645705D01*
X54500Y645777D01*
X54529Y645830D01*
X54566Y645878D01*
X54606Y645969D01*
X54654Y646055D01*
X54669Y646114D01*
X54693Y646170D01*
X54708Y646267D01*
X54733Y646363D01*
X54739Y646463D01*
X54743Y646484D01*
X54741Y646496D01*
X54743Y646524D01*
X54743Y726376D01*
X54731Y726474D01*
X54728Y726573D01*
X54711Y726632D01*
X54703Y726692D01*
X54667Y726784D01*
X54639Y726879D01*
X54609Y726931D01*
X54586Y726987D01*
X54528Y727067D01*
X54478Y727153D01*
X54412Y727228D01*
X54400Y727245D01*
X54390Y727252D01*
X54372Y727274D01*
X53801Y727844D01*
X52993Y729794D01*
X52993Y731906D01*
X53801Y733856D01*
X55294Y735349D01*
X57244Y736157D01*
X59356Y736157D01*
X61306Y735349D01*
X62799Y733856D01*
X63607Y731906D01*
X63607Y729794D01*
X62799Y727844D01*
X62228Y727274D01*
X62168Y727195D01*
X62100Y727123D01*
X62071Y727070D01*
X62034Y727022D01*
X61994Y726931D01*
X61946Y726845D01*
X61931Y726786D01*
X61907Y726730D01*
X61892Y726633D01*
X61867Y726537D01*
X61861Y726437D01*
X61857Y726416D01*
X61859Y726404D01*
X61857Y726376D01*
X61857Y646924D01*
X61869Y646826D01*
X61872Y646727D01*
X61889Y646668D01*
X61897Y646608D01*
X61933Y646516D01*
X61961Y646421D01*
X61991Y646369D01*
X62014Y646313D01*
X62072Y646233D01*
X62122Y646147D01*
X62188Y646072D01*
X62200Y646055D01*
X62210Y646048D01*
X62228Y646026D01*
X62999Y645256D01*
X63807Y643306D01*
X63807Y641194D01*
X62999Y639244D01*
X61506Y637751D01*
X59556Y636943D01*
X57444Y636943D01*
G37*
%LPD*%
%LPC*%
G36*
X119244Y700243D02*
X119244Y700243D01*
X117294Y701051D01*
X115801Y702544D01*
X114993Y704494D01*
X114993Y706606D01*
X115801Y708556D01*
X116372Y709126D01*
X116432Y709205D01*
X116500Y709277D01*
X116529Y709330D01*
X116566Y709378D01*
X116606Y709469D01*
X116654Y709555D01*
X116669Y709614D01*
X116693Y709670D01*
X116708Y709767D01*
X116733Y709863D01*
X116739Y709963D01*
X116743Y709984D01*
X116741Y709996D01*
X116743Y710024D01*
X116743Y734055D01*
X116740Y734084D01*
X116742Y734114D01*
X116720Y734241D01*
X116703Y734370D01*
X116693Y734398D01*
X116687Y734427D01*
X116634Y734545D01*
X116586Y734666D01*
X116569Y734690D01*
X116557Y734717D01*
X116476Y734818D01*
X116400Y734923D01*
X116377Y734942D01*
X116358Y734965D01*
X116254Y735044D01*
X116155Y735126D01*
X116128Y735139D01*
X116104Y735157D01*
X115960Y735228D01*
X115924Y735242D01*
X113512Y737654D01*
X112207Y740805D01*
X112207Y757295D01*
X113512Y760446D01*
X115924Y762858D01*
X119075Y764163D01*
X122485Y764163D01*
X125636Y762858D01*
X128048Y760446D01*
X129353Y757295D01*
X129353Y740805D01*
X128048Y737654D01*
X125636Y735242D01*
X124640Y734830D01*
X124615Y734815D01*
X124587Y734806D01*
X124477Y734737D01*
X124364Y734672D01*
X124343Y734652D01*
X124318Y734636D01*
X124229Y734541D01*
X124136Y734451D01*
X124120Y734426D01*
X124100Y734404D01*
X124037Y734291D01*
X123969Y734180D01*
X123961Y734152D01*
X123946Y734126D01*
X123914Y734000D01*
X123876Y733876D01*
X123874Y733847D01*
X123867Y733818D01*
X123857Y733657D01*
X123857Y710024D01*
X123869Y709926D01*
X123872Y709827D01*
X123889Y709768D01*
X123897Y709708D01*
X123933Y709616D01*
X123961Y709521D01*
X123991Y709469D01*
X124014Y709413D01*
X124072Y709333D01*
X124122Y709247D01*
X124188Y709172D01*
X124200Y709155D01*
X124210Y709148D01*
X124228Y709126D01*
X124799Y708556D01*
X125607Y706606D01*
X125607Y704494D01*
X124799Y702544D01*
X123306Y701051D01*
X121356Y700243D01*
X119244Y700243D01*
G37*
%LPD*%
%LPC*%
G36*
X5144Y646543D02*
X5144Y646543D01*
X3194Y647351D01*
X1701Y648844D01*
X893Y650794D01*
X893Y652906D01*
X1701Y654856D01*
X2272Y655426D01*
X2332Y655505D01*
X2400Y655577D01*
X2429Y655630D01*
X2466Y655678D01*
X2506Y655769D01*
X2554Y655855D01*
X2569Y655914D01*
X2593Y655970D01*
X2608Y656067D01*
X2633Y656163D01*
X2639Y656263D01*
X2643Y656284D01*
X2641Y656296D01*
X2643Y656324D01*
X2643Y720923D01*
X5822Y724101D01*
X5882Y724180D01*
X5950Y724252D01*
X5979Y724305D01*
X6016Y724353D01*
X6056Y724444D01*
X6104Y724530D01*
X6119Y724589D01*
X6143Y724645D01*
X6158Y724743D01*
X6183Y724838D01*
X6189Y724938D01*
X6193Y724959D01*
X6191Y724971D01*
X6193Y724999D01*
X6193Y725806D01*
X7001Y727756D01*
X8494Y729249D01*
X10444Y730057D01*
X12556Y730057D01*
X14506Y729249D01*
X15999Y727756D01*
X16807Y725806D01*
X16807Y723694D01*
X15999Y721744D01*
X14506Y720251D01*
X12556Y719443D01*
X11749Y719443D01*
X11651Y719431D01*
X11552Y719428D01*
X11494Y719411D01*
X11433Y719403D01*
X11341Y719367D01*
X11246Y719339D01*
X11194Y719309D01*
X11138Y719286D01*
X11058Y719228D01*
X10972Y719178D01*
X10897Y719112D01*
X10880Y719100D01*
X10873Y719090D01*
X10851Y719072D01*
X10128Y718349D01*
X10068Y718270D01*
X10000Y718198D01*
X9971Y718145D01*
X9934Y718097D01*
X9894Y718006D01*
X9846Y717920D01*
X9831Y717861D01*
X9807Y717805D01*
X9792Y717707D01*
X9767Y717612D01*
X9761Y717512D01*
X9757Y717491D01*
X9759Y717479D01*
X9757Y717451D01*
X9757Y656324D01*
X9769Y656226D01*
X9772Y656127D01*
X9789Y656068D01*
X9797Y656008D01*
X9833Y655916D01*
X9861Y655821D01*
X9891Y655769D01*
X9914Y655713D01*
X9972Y655633D01*
X10022Y655547D01*
X10088Y655472D01*
X10100Y655455D01*
X10110Y655448D01*
X10128Y655426D01*
X10699Y654856D01*
X11507Y652906D01*
X11507Y650794D01*
X10699Y648844D01*
X9206Y647351D01*
X7256Y646543D01*
X5144Y646543D01*
G37*
%LPD*%
%LPC*%
G36*
X-176656Y651643D02*
X-176656Y651643D01*
X-178606Y652451D01*
X-180099Y653944D01*
X-180907Y655894D01*
X-180907Y658006D01*
X-180099Y659956D01*
X-178606Y661449D01*
X-176656Y662257D01*
X-175602Y662257D01*
X-175484Y662272D01*
X-175365Y662279D01*
X-175327Y662292D01*
X-175286Y662297D01*
X-175176Y662340D01*
X-175063Y662377D01*
X-175028Y662399D01*
X-174991Y662414D01*
X-174895Y662483D01*
X-174794Y662547D01*
X-174766Y662577D01*
X-174733Y662600D01*
X-174657Y662692D01*
X-174576Y662779D01*
X-174556Y662814D01*
X-174531Y662845D01*
X-174480Y662953D01*
X-174422Y663057D01*
X-174412Y663097D01*
X-174395Y663133D01*
X-174373Y663250D01*
X-174343Y663365D01*
X-174339Y663425D01*
X-174335Y663445D01*
X-174337Y663466D01*
X-174333Y663526D01*
X-174333Y691552D01*
X-174345Y691650D01*
X-174348Y691749D01*
X-174365Y691808D01*
X-174373Y691868D01*
X-174409Y691960D01*
X-174437Y692055D01*
X-174467Y692107D01*
X-174490Y692163D01*
X-174548Y692243D01*
X-174598Y692329D01*
X-174664Y692404D01*
X-174676Y692421D01*
X-174686Y692428D01*
X-174704Y692450D01*
X-175799Y693544D01*
X-176095Y694258D01*
X-176163Y694379D01*
X-176228Y694502D01*
X-176242Y694516D01*
X-176252Y694534D01*
X-176349Y694634D01*
X-176442Y694737D01*
X-176459Y694748D01*
X-176473Y694763D01*
X-176592Y694835D01*
X-176708Y694912D01*
X-176727Y694918D01*
X-176744Y694929D01*
X-176877Y694970D01*
X-177009Y695015D01*
X-177029Y695016D01*
X-177048Y695022D01*
X-177188Y695029D01*
X-177326Y695040D01*
X-177346Y695037D01*
X-177366Y695038D01*
X-177503Y695009D01*
X-177639Y694986D01*
X-177658Y694977D01*
X-177678Y694973D01*
X-177802Y694912D01*
X-177929Y694855D01*
X-177945Y694842D01*
X-177963Y694834D01*
X-178069Y694743D01*
X-178178Y694656D01*
X-178190Y694640D01*
X-178205Y694627D01*
X-178286Y694513D01*
X-178369Y694402D01*
X-178381Y694377D01*
X-178388Y694367D01*
X-178396Y694348D01*
X-178440Y694258D01*
X-178901Y693144D01*
X-179996Y692050D01*
X-180056Y691971D01*
X-180124Y691899D01*
X-180153Y691846D01*
X-180190Y691798D01*
X-180230Y691707D01*
X-180278Y691621D01*
X-180293Y691562D01*
X-180317Y691506D01*
X-180332Y691409D01*
X-180357Y691313D01*
X-180363Y691213D01*
X-180367Y691192D01*
X-180365Y691180D01*
X-180367Y691152D01*
X-180367Y683268D01*
X-180355Y683170D01*
X-180352Y683071D01*
X-180335Y683012D01*
X-180327Y682952D01*
X-180291Y682860D01*
X-180263Y682765D01*
X-180233Y682713D01*
X-180210Y682657D01*
X-180152Y682577D01*
X-180102Y682491D01*
X-180036Y682416D01*
X-180024Y682399D01*
X-180014Y682392D01*
X-179996Y682370D01*
X-178701Y681076D01*
X-177893Y679126D01*
X-177893Y677014D01*
X-178701Y675064D01*
X-180194Y673571D01*
X-182144Y672763D01*
X-184256Y672763D01*
X-186206Y673571D01*
X-187699Y675064D01*
X-188507Y677014D01*
X-188507Y679126D01*
X-187699Y681076D01*
X-186804Y681970D01*
X-186744Y682049D01*
X-186676Y682121D01*
X-186647Y682174D01*
X-186610Y682222D01*
X-186570Y682313D01*
X-186522Y682399D01*
X-186507Y682458D01*
X-186483Y682514D01*
X-186468Y682611D01*
X-186443Y682707D01*
X-186437Y682807D01*
X-186433Y682828D01*
X-186435Y682840D01*
X-186433Y682868D01*
X-186433Y691152D01*
X-186445Y691250D01*
X-186448Y691349D01*
X-186465Y691408D01*
X-186473Y691468D01*
X-186509Y691560D01*
X-186537Y691655D01*
X-186567Y691707D01*
X-186590Y691763D01*
X-186648Y691843D01*
X-186698Y691929D01*
X-186764Y692004D01*
X-186776Y692021D01*
X-186786Y692028D01*
X-186804Y692050D01*
X-187899Y693144D01*
X-188707Y695094D01*
X-188707Y697206D01*
X-187899Y699156D01*
X-186406Y700649D01*
X-184456Y701457D01*
X-182344Y701457D01*
X-180394Y700649D01*
X-178901Y699156D01*
X-178605Y698442D01*
X-178537Y698321D01*
X-178472Y698198D01*
X-178458Y698184D01*
X-178448Y698166D01*
X-178351Y698066D01*
X-178258Y697963D01*
X-178241Y697952D01*
X-178227Y697937D01*
X-178108Y697865D01*
X-177992Y697788D01*
X-177973Y697782D01*
X-177956Y697771D01*
X-177823Y697730D01*
X-177691Y697685D01*
X-177671Y697684D01*
X-177652Y697678D01*
X-177512Y697671D01*
X-177374Y697660D01*
X-177354Y697663D01*
X-177334Y697662D01*
X-177197Y697691D01*
X-177061Y697714D01*
X-177042Y697723D01*
X-177022Y697727D01*
X-176898Y697788D01*
X-176771Y697845D01*
X-176755Y697858D01*
X-176737Y697866D01*
X-176631Y697957D01*
X-176522Y698044D01*
X-176510Y698060D01*
X-176495Y698073D01*
X-176414Y698187D01*
X-176331Y698298D01*
X-176319Y698323D01*
X-176312Y698333D01*
X-176304Y698352D01*
X-176260Y698442D01*
X-175799Y699556D01*
X-174306Y701049D01*
X-172356Y701857D01*
X-170244Y701857D01*
X-168294Y701049D01*
X-166801Y699556D01*
X-165993Y697606D01*
X-165993Y695494D01*
X-166801Y693544D01*
X-167896Y692450D01*
X-167956Y692371D01*
X-168024Y692299D01*
X-168053Y692246D01*
X-168090Y692198D01*
X-168130Y692107D01*
X-168178Y692021D01*
X-168193Y691962D01*
X-168217Y691906D01*
X-168232Y691809D01*
X-168257Y691713D01*
X-168263Y691613D01*
X-168267Y691592D01*
X-168265Y691580D01*
X-168267Y691552D01*
X-168267Y659994D01*
X-169922Y658340D01*
X-169982Y658261D01*
X-170050Y658189D01*
X-170079Y658136D01*
X-170116Y658088D01*
X-170156Y657997D01*
X-170204Y657911D01*
X-170219Y657852D01*
X-170243Y657796D01*
X-170258Y657698D01*
X-170283Y657603D01*
X-170289Y657503D01*
X-170293Y657482D01*
X-170291Y657470D01*
X-170293Y657442D01*
X-170293Y655894D01*
X-171101Y653944D01*
X-172594Y652451D01*
X-174544Y651643D01*
X-176656Y651643D01*
G37*
%LPD*%
%LPC*%
G36*
X-315660Y698117D02*
X-315660Y698117D01*
X-319208Y699587D01*
X-321923Y702302D01*
X-323393Y705850D01*
X-323393Y709690D01*
X-321923Y713238D01*
X-319208Y715953D01*
X-315660Y717423D01*
X-296580Y717423D01*
X-293032Y715953D01*
X-290317Y713238D01*
X-288847Y709690D01*
X-288847Y705850D01*
X-290317Y702302D01*
X-293032Y699587D01*
X-296580Y698117D01*
X-315660Y698117D01*
G37*
%LPD*%
%LPC*%
G36*
X-318200Y621917D02*
X-318200Y621917D01*
X-321748Y623387D01*
X-324463Y626102D01*
X-325933Y629650D01*
X-325933Y633490D01*
X-324463Y637038D01*
X-321748Y639753D01*
X-318200Y641223D01*
X-299120Y641223D01*
X-295572Y639753D01*
X-292857Y637038D01*
X-291387Y633490D01*
X-291387Y629650D01*
X-292857Y626102D01*
X-295572Y623387D01*
X-299120Y621917D01*
X-318200Y621917D01*
G37*
%LPD*%
%LPC*%
G36*
X-318200Y723517D02*
X-318200Y723517D01*
X-321748Y724987D01*
X-324463Y727702D01*
X-325933Y731250D01*
X-325933Y735090D01*
X-324463Y738638D01*
X-321748Y741353D01*
X-318200Y742823D01*
X-299120Y742823D01*
X-295572Y741353D01*
X-292857Y738638D01*
X-291387Y735090D01*
X-291387Y731250D01*
X-292857Y727702D01*
X-295572Y724987D01*
X-299120Y723517D01*
X-318200Y723517D01*
G37*
%LPD*%
%LPC*%
G36*
X503180Y258637D02*
X503180Y258637D01*
X499632Y260107D01*
X496917Y262822D01*
X495447Y266370D01*
X495447Y285450D01*
X496917Y288998D01*
X499632Y291713D01*
X503180Y293183D01*
X507020Y293183D01*
X510568Y291713D01*
X513283Y288998D01*
X514753Y285450D01*
X514753Y266370D01*
X513283Y262822D01*
X510568Y260107D01*
X507020Y258637D01*
X503180Y258637D01*
G37*
%LPD*%
%LPC*%
G36*
X452380Y258637D02*
X452380Y258637D01*
X448832Y260107D01*
X446117Y262822D01*
X444647Y266370D01*
X444647Y285450D01*
X446117Y288998D01*
X448832Y291713D01*
X452380Y293183D01*
X456220Y293183D01*
X459768Y291713D01*
X462483Y288998D01*
X463953Y285450D01*
X463953Y266370D01*
X462483Y262822D01*
X459768Y260107D01*
X456220Y258637D01*
X452380Y258637D01*
G37*
%LPD*%
%LPC*%
G36*
X477780Y261177D02*
X477780Y261177D01*
X474232Y262647D01*
X471517Y265362D01*
X470047Y268910D01*
X470047Y287990D01*
X471517Y291538D01*
X474232Y294253D01*
X477780Y295723D01*
X481620Y295723D01*
X485168Y294253D01*
X487883Y291538D01*
X489353Y287990D01*
X489353Y268910D01*
X487883Y265362D01*
X485168Y262647D01*
X481620Y261177D01*
X477780Y261177D01*
G37*
%LPD*%
%LPC*%
G36*
X426980Y261177D02*
X426980Y261177D01*
X423432Y262647D01*
X420717Y265362D01*
X419247Y268910D01*
X419247Y287990D01*
X420717Y291538D01*
X423432Y294253D01*
X426980Y295723D01*
X430820Y295723D01*
X434368Y294253D01*
X437083Y291538D01*
X438553Y287990D01*
X438553Y268910D01*
X437083Y265362D01*
X434368Y262647D01*
X430820Y261177D01*
X426980Y261177D01*
G37*
%LPD*%
%LPC*%
G36*
X255590Y376797D02*
X255590Y376797D01*
X252042Y378267D01*
X249327Y380982D01*
X247857Y384530D01*
X247857Y388370D01*
X249327Y391918D01*
X252042Y394633D01*
X255590Y396103D01*
X274670Y396103D01*
X278218Y394633D01*
X280933Y391918D01*
X282403Y388370D01*
X282403Y384530D01*
X280933Y380982D01*
X278218Y378267D01*
X274670Y376797D01*
X255590Y376797D01*
G37*
%LPD*%
%LPC*%
G36*
X258130Y402197D02*
X258130Y402197D01*
X254582Y403667D01*
X251867Y406382D01*
X250397Y409930D01*
X250397Y413770D01*
X251867Y417318D01*
X254582Y420033D01*
X258130Y421503D01*
X277210Y421503D01*
X280758Y420033D01*
X283473Y417318D01*
X284943Y413770D01*
X284943Y409930D01*
X283473Y406382D01*
X280758Y403667D01*
X277210Y402197D01*
X258130Y402197D01*
G37*
%LPD*%
%LPC*%
G36*
X401580Y258637D02*
X401580Y258637D01*
X398032Y260107D01*
X395317Y262822D01*
X393847Y266370D01*
X393847Y285450D01*
X395317Y288998D01*
X398032Y291713D01*
X401580Y293183D01*
X405420Y293183D01*
X408968Y291713D01*
X411683Y288998D01*
X413153Y285450D01*
X413153Y266370D01*
X411683Y262822D01*
X408968Y260107D01*
X405420Y258637D01*
X401580Y258637D01*
G37*
%LPD*%
%LPC*%
G36*
X-318200Y672717D02*
X-318200Y672717D01*
X-321748Y674187D01*
X-324463Y676902D01*
X-325933Y680450D01*
X-325933Y684290D01*
X-324463Y687838D01*
X-321748Y690553D01*
X-318200Y692023D01*
X-299120Y692023D01*
X-295572Y690553D01*
X-292857Y687838D01*
X-291387Y684290D01*
X-291387Y680450D01*
X-292857Y676902D01*
X-295572Y674187D01*
X-299120Y672717D01*
X-318200Y672717D01*
G37*
%LPD*%
%LPC*%
G36*
X258130Y452997D02*
X258130Y452997D01*
X254582Y454467D01*
X251867Y457182D01*
X250397Y460730D01*
X250397Y464570D01*
X251867Y468118D01*
X254582Y470833D01*
X258130Y472303D01*
X277210Y472303D01*
X280758Y470833D01*
X283473Y468118D01*
X284943Y464570D01*
X284943Y460730D01*
X283473Y457182D01*
X280758Y454467D01*
X277210Y452997D01*
X258130Y452997D01*
G37*
%LPD*%
%LPC*%
G36*
X258130Y351397D02*
X258130Y351397D01*
X254582Y352867D01*
X251867Y355582D01*
X250397Y359130D01*
X250397Y362970D01*
X251867Y366518D01*
X254582Y369233D01*
X258130Y370703D01*
X277210Y370703D01*
X280758Y369233D01*
X283473Y366518D01*
X284943Y362970D01*
X284943Y359130D01*
X283473Y355582D01*
X280758Y352867D01*
X277210Y351397D01*
X258130Y351397D01*
G37*
%LPD*%
%LPC*%
G36*
X477780Y734127D02*
X477780Y734127D01*
X474232Y735597D01*
X471517Y738312D01*
X470047Y741860D01*
X470047Y760940D01*
X471517Y764488D01*
X474232Y767203D01*
X477780Y768673D01*
X481620Y768673D01*
X485168Y767203D01*
X487883Y764488D01*
X489353Y760940D01*
X489353Y741860D01*
X487883Y738312D01*
X485168Y735597D01*
X481620Y734127D01*
X477780Y734127D01*
G37*
%LPD*%
%LPC*%
G36*
X-315660Y647317D02*
X-315660Y647317D01*
X-319208Y648787D01*
X-321923Y651502D01*
X-323393Y655050D01*
X-323393Y658890D01*
X-321923Y662438D01*
X-319208Y665153D01*
X-315660Y666623D01*
X-296580Y666623D01*
X-293032Y665153D01*
X-290317Y662438D01*
X-288847Y658890D01*
X-288847Y655050D01*
X-290317Y651502D01*
X-293032Y648787D01*
X-296580Y647317D01*
X-315660Y647317D01*
G37*
%LPD*%
%LPC*%
G36*
X401580Y731587D02*
X401580Y731587D01*
X398032Y733057D01*
X395317Y735772D01*
X393847Y739320D01*
X393847Y758400D01*
X395317Y761948D01*
X398032Y764663D01*
X401580Y766133D01*
X405420Y766133D01*
X408968Y764663D01*
X411683Y761948D01*
X413153Y758400D01*
X413153Y739320D01*
X411683Y735772D01*
X408968Y733057D01*
X405420Y731587D01*
X401580Y731587D01*
G37*
%LPD*%
%LPC*%
G36*
X503180Y731587D02*
X503180Y731587D01*
X499632Y733057D01*
X496917Y735772D01*
X495447Y739320D01*
X495447Y758400D01*
X496917Y761948D01*
X499632Y764663D01*
X503180Y766133D01*
X507020Y766133D01*
X510568Y764663D01*
X513283Y761948D01*
X514753Y758400D01*
X514753Y739320D01*
X513283Y735772D01*
X510568Y733057D01*
X507020Y731587D01*
X503180Y731587D01*
G37*
%LPD*%
%LPC*%
G36*
X452380Y731587D02*
X452380Y731587D01*
X448832Y733057D01*
X446117Y735772D01*
X444647Y739320D01*
X444647Y758400D01*
X446117Y761948D01*
X448832Y764663D01*
X452380Y766133D01*
X456220Y766133D01*
X459768Y764663D01*
X462483Y761948D01*
X463953Y758400D01*
X463953Y739320D01*
X462483Y735772D01*
X459768Y733057D01*
X456220Y731587D01*
X452380Y731587D01*
G37*
%LPD*%
%LPC*%
G36*
X426980Y734127D02*
X426980Y734127D01*
X423432Y735597D01*
X420717Y738312D01*
X419247Y741860D01*
X419247Y760940D01*
X420717Y764488D01*
X423432Y767203D01*
X426980Y768673D01*
X430820Y768673D01*
X434368Y767203D01*
X437083Y764488D01*
X438553Y760940D01*
X438553Y741860D01*
X437083Y738312D01*
X434368Y735597D01*
X430820Y734127D01*
X426980Y734127D01*
G37*
%LPD*%
%LPC*%
G36*
X92976Y951779D02*
X92976Y951779D01*
X88775Y953519D01*
X85559Y956735D01*
X84231Y959943D01*
X84196Y960004D01*
X84170Y960069D01*
X84118Y960141D01*
X84073Y960220D01*
X84024Y960270D01*
X83983Y960326D01*
X83914Y960383D01*
X83852Y960448D01*
X83792Y960485D01*
X83738Y960529D01*
X83657Y960567D01*
X83581Y960614D01*
X83514Y960635D01*
X83451Y960664D01*
X83362Y960681D01*
X83277Y960708D01*
X83207Y960711D01*
X83138Y960724D01*
X83049Y960719D01*
X82959Y960723D01*
X82891Y960709D01*
X82821Y960704D01*
X82736Y960677D01*
X82648Y960659D01*
X82585Y960628D01*
X82518Y960606D01*
X82443Y960558D01*
X82362Y960519D01*
X82309Y960474D01*
X82250Y960436D01*
X82188Y960371D01*
X82120Y960313D01*
X82080Y960256D01*
X82032Y960205D01*
X81989Y960126D01*
X81937Y960053D01*
X81912Y959987D01*
X81878Y959926D01*
X81856Y959839D01*
X81824Y959755D01*
X81816Y959686D01*
X81799Y959618D01*
X81789Y959458D01*
X81789Y956018D01*
X81616Y955371D01*
X81281Y954792D01*
X80808Y954319D01*
X80229Y953984D01*
X79582Y953811D01*
X72389Y953811D01*
X72389Y963211D01*
X82550Y963211D01*
X82668Y963226D01*
X82787Y963233D01*
X82825Y963246D01*
X82866Y963251D01*
X82976Y963294D01*
X83089Y963331D01*
X83124Y963353D01*
X83161Y963368D01*
X83257Y963438D01*
X83358Y963501D01*
X83386Y963531D01*
X83419Y963554D01*
X83495Y963646D01*
X83576Y963733D01*
X83596Y963768D01*
X83621Y963799D01*
X83672Y963907D01*
X83730Y964011D01*
X83740Y964051D01*
X83757Y964087D01*
X83779Y964204D01*
X83809Y964319D01*
X83813Y964380D01*
X83817Y964400D01*
X83815Y964420D01*
X83819Y964480D01*
X83819Y965484D01*
X85559Y969685D01*
X88775Y972901D01*
X92976Y974641D01*
X97524Y974641D01*
X101725Y972901D01*
X104941Y969685D01*
X106681Y965484D01*
X106681Y960936D01*
X104941Y956735D01*
X101725Y953519D01*
X97524Y951779D01*
X92976Y951779D01*
G37*
%LPD*%
%LPC*%
G36*
X-55614Y950509D02*
X-55614Y950509D01*
X-59815Y952249D01*
X-63031Y955465D01*
X-64359Y958673D01*
X-64394Y958734D01*
X-64420Y958799D01*
X-64472Y958871D01*
X-64517Y958949D01*
X-64565Y959000D01*
X-64606Y959056D01*
X-64676Y959113D01*
X-64738Y959178D01*
X-64798Y959214D01*
X-64851Y959259D01*
X-64933Y959297D01*
X-65009Y959344D01*
X-65076Y959365D01*
X-65139Y959394D01*
X-65227Y959411D01*
X-65313Y959438D01*
X-65383Y959441D01*
X-65452Y959454D01*
X-65541Y959449D01*
X-65631Y959453D01*
X-65699Y959439D01*
X-65769Y959434D01*
X-65854Y959407D01*
X-65942Y959389D01*
X-66005Y959358D01*
X-66071Y959336D01*
X-66147Y959288D01*
X-66228Y959249D01*
X-66281Y959204D01*
X-66340Y959166D01*
X-66402Y959101D01*
X-66470Y959043D01*
X-66510Y958985D01*
X-66558Y958935D01*
X-66601Y958856D01*
X-66653Y958783D01*
X-66678Y958717D01*
X-66712Y958656D01*
X-66734Y958569D01*
X-66766Y958485D01*
X-66774Y958416D01*
X-66791Y958348D01*
X-66801Y958188D01*
X-66801Y954748D01*
X-66974Y954101D01*
X-67309Y953522D01*
X-67782Y953049D01*
X-68361Y952714D01*
X-69008Y952541D01*
X-76201Y952541D01*
X-76201Y961941D01*
X-66040Y961941D01*
X-65922Y961956D01*
X-65803Y961963D01*
X-65765Y961976D01*
X-65724Y961981D01*
X-65614Y962024D01*
X-65501Y962061D01*
X-65466Y962083D01*
X-65429Y962098D01*
X-65333Y962168D01*
X-65232Y962231D01*
X-65204Y962261D01*
X-65171Y962284D01*
X-65095Y962376D01*
X-65014Y962463D01*
X-64994Y962498D01*
X-64969Y962529D01*
X-64918Y962637D01*
X-64860Y962741D01*
X-64850Y962781D01*
X-64833Y962817D01*
X-64811Y962934D01*
X-64781Y963049D01*
X-64777Y963110D01*
X-64773Y963130D01*
X-64775Y963150D01*
X-64771Y963210D01*
X-64771Y964214D01*
X-63031Y968415D01*
X-59815Y971631D01*
X-55614Y973371D01*
X-51066Y973371D01*
X-46865Y971631D01*
X-43649Y968415D01*
X-41909Y964214D01*
X-41909Y959666D01*
X-43649Y955465D01*
X-46865Y952249D01*
X-51066Y950509D01*
X-55614Y950509D01*
G37*
%LPD*%
%LPC*%
G36*
X-205474Y949239D02*
X-205474Y949239D01*
X-209675Y950979D01*
X-212891Y954195D01*
X-214219Y957403D01*
X-214254Y957464D01*
X-214280Y957529D01*
X-214332Y957601D01*
X-214377Y957680D01*
X-214425Y957730D01*
X-214466Y957786D01*
X-214536Y957843D01*
X-214598Y957908D01*
X-214658Y957944D01*
X-214711Y957989D01*
X-214793Y958027D01*
X-214869Y958074D01*
X-214936Y958095D01*
X-214999Y958124D01*
X-215087Y958141D01*
X-215173Y958168D01*
X-215243Y958171D01*
X-215312Y958184D01*
X-215401Y958179D01*
X-215491Y958183D01*
X-215559Y958169D01*
X-215629Y958164D01*
X-215714Y958137D01*
X-215802Y958119D01*
X-215865Y958088D01*
X-215931Y958066D01*
X-216007Y958018D01*
X-216088Y957979D01*
X-216141Y957934D01*
X-216200Y957896D01*
X-216262Y957831D01*
X-216330Y957773D01*
X-216370Y957715D01*
X-216418Y957665D01*
X-216461Y957586D01*
X-216513Y957513D01*
X-216538Y957447D01*
X-216572Y957386D01*
X-216594Y957299D01*
X-216626Y957215D01*
X-216634Y957146D01*
X-216651Y957078D01*
X-216661Y956918D01*
X-216661Y953478D01*
X-216834Y952831D01*
X-217169Y952252D01*
X-217642Y951779D01*
X-218221Y951444D01*
X-218868Y951271D01*
X-226061Y951271D01*
X-226061Y960671D01*
X-215900Y960671D01*
X-215782Y960686D01*
X-215663Y960693D01*
X-215625Y960706D01*
X-215584Y960711D01*
X-215474Y960754D01*
X-215361Y960791D01*
X-215326Y960813D01*
X-215289Y960828D01*
X-215193Y960898D01*
X-215092Y960961D01*
X-215064Y960991D01*
X-215031Y961014D01*
X-214955Y961106D01*
X-214874Y961193D01*
X-214854Y961228D01*
X-214829Y961259D01*
X-214778Y961367D01*
X-214720Y961471D01*
X-214710Y961511D01*
X-214693Y961547D01*
X-214671Y961664D01*
X-214641Y961779D01*
X-214637Y961840D01*
X-214633Y961860D01*
X-214635Y961880D01*
X-214631Y961940D01*
X-214631Y962944D01*
X-212891Y967145D01*
X-209675Y970361D01*
X-205474Y972101D01*
X-200926Y972101D01*
X-196725Y970361D01*
X-193509Y967145D01*
X-191769Y962944D01*
X-191769Y958396D01*
X-193509Y954195D01*
X-196725Y950979D01*
X-200926Y949239D01*
X-205474Y949239D01*
G37*
%LPD*%
%LPC*%
G36*
X120864Y785183D02*
X120864Y785183D01*
X118914Y785991D01*
X117421Y787484D01*
X116613Y789434D01*
X116613Y791546D01*
X117421Y793496D01*
X117992Y794066D01*
X118052Y794145D01*
X118120Y794217D01*
X118149Y794270D01*
X118186Y794318D01*
X118226Y794409D01*
X118274Y794495D01*
X118289Y794554D01*
X118313Y794610D01*
X118328Y794707D01*
X118353Y794803D01*
X118359Y794903D01*
X118363Y794924D01*
X118361Y794936D01*
X118363Y794964D01*
X118363Y838086D01*
X118351Y838184D01*
X118348Y838283D01*
X118331Y838342D01*
X118323Y838402D01*
X118287Y838494D01*
X118259Y838589D01*
X118229Y838641D01*
X118206Y838697D01*
X118148Y838777D01*
X118098Y838863D01*
X118032Y838938D01*
X118020Y838955D01*
X118010Y838963D01*
X117991Y838984D01*
X117421Y839554D01*
X116613Y841504D01*
X116613Y843616D01*
X117421Y845566D01*
X118914Y847059D01*
X120864Y847867D01*
X122976Y847867D01*
X124926Y847059D01*
X126419Y845566D01*
X127227Y843616D01*
X127227Y841504D01*
X126419Y839554D01*
X125849Y838984D01*
X125788Y838906D01*
X125720Y838833D01*
X125691Y838780D01*
X125654Y838732D01*
X125614Y838641D01*
X125566Y838555D01*
X125551Y838496D01*
X125527Y838441D01*
X125512Y838343D01*
X125487Y838247D01*
X125481Y838147D01*
X125477Y838126D01*
X125479Y838114D01*
X125477Y838086D01*
X125477Y794964D01*
X125489Y794866D01*
X125492Y794767D01*
X125509Y794708D01*
X125517Y794648D01*
X125553Y794556D01*
X125581Y794461D01*
X125611Y794409D01*
X125634Y794353D01*
X125692Y794273D01*
X125742Y794187D01*
X125808Y794112D01*
X125820Y794095D01*
X125830Y794088D01*
X125848Y794066D01*
X126419Y793496D01*
X127227Y791546D01*
X127227Y789434D01*
X126419Y787484D01*
X124926Y785991D01*
X122976Y785183D01*
X120864Y785183D01*
G37*
%LPD*%
%LPC*%
G36*
X40854Y783913D02*
X40854Y783913D01*
X38904Y784721D01*
X37411Y786214D01*
X36603Y788164D01*
X36603Y790276D01*
X37411Y792226D01*
X37982Y792796D01*
X38042Y792875D01*
X38110Y792947D01*
X38139Y793000D01*
X38176Y793048D01*
X38216Y793139D01*
X38264Y793225D01*
X38279Y793284D01*
X38303Y793340D01*
X38318Y793437D01*
X38343Y793533D01*
X38349Y793633D01*
X38353Y793654D01*
X38351Y793666D01*
X38353Y793694D01*
X38353Y834276D01*
X38341Y834374D01*
X38338Y834473D01*
X38321Y834532D01*
X38313Y834592D01*
X38277Y834684D01*
X38249Y834779D01*
X38219Y834831D01*
X38196Y834887D01*
X38138Y834967D01*
X38088Y835053D01*
X38022Y835128D01*
X38010Y835145D01*
X38000Y835152D01*
X37982Y835174D01*
X37411Y835744D01*
X36603Y837694D01*
X36603Y839806D01*
X37411Y841756D01*
X38904Y843249D01*
X40854Y844057D01*
X42966Y844057D01*
X44916Y843249D01*
X46409Y841756D01*
X47217Y839806D01*
X47217Y837694D01*
X46409Y835744D01*
X45838Y835174D01*
X45778Y835095D01*
X45710Y835023D01*
X45681Y834970D01*
X45644Y834922D01*
X45604Y834831D01*
X45556Y834745D01*
X45541Y834686D01*
X45517Y834630D01*
X45502Y834533D01*
X45477Y834437D01*
X45471Y834337D01*
X45467Y834316D01*
X45469Y834304D01*
X45467Y834276D01*
X45467Y793694D01*
X45479Y793596D01*
X45482Y793497D01*
X45499Y793438D01*
X45507Y793378D01*
X45543Y793286D01*
X45571Y793191D01*
X45601Y793139D01*
X45624Y793083D01*
X45682Y793003D01*
X45732Y792917D01*
X45798Y792842D01*
X45810Y792825D01*
X45820Y792817D01*
X45838Y792796D01*
X46409Y792226D01*
X47217Y790276D01*
X47217Y788164D01*
X46409Y786214D01*
X44916Y784721D01*
X42966Y783913D01*
X40854Y783913D01*
G37*
%LPD*%
%LPC*%
G36*
X25614Y783913D02*
X25614Y783913D01*
X23664Y784721D01*
X22171Y786214D01*
X21363Y788164D01*
X21363Y790276D01*
X22171Y792226D01*
X22742Y792796D01*
X22802Y792875D01*
X22870Y792947D01*
X22899Y793000D01*
X22936Y793048D01*
X22976Y793139D01*
X23024Y793225D01*
X23039Y793284D01*
X23063Y793340D01*
X23078Y793437D01*
X23103Y793533D01*
X23109Y793633D01*
X23113Y793654D01*
X23111Y793666D01*
X23113Y793694D01*
X23113Y834276D01*
X23101Y834374D01*
X23098Y834473D01*
X23081Y834532D01*
X23073Y834592D01*
X23037Y834684D01*
X23009Y834779D01*
X22979Y834831D01*
X22956Y834887D01*
X22898Y834967D01*
X22848Y835053D01*
X22782Y835128D01*
X22770Y835145D01*
X22760Y835152D01*
X22742Y835174D01*
X22171Y835744D01*
X21363Y837694D01*
X21363Y839806D01*
X22171Y841756D01*
X23664Y843249D01*
X25614Y844057D01*
X27726Y844057D01*
X29676Y843249D01*
X31169Y841756D01*
X31977Y839806D01*
X31977Y837694D01*
X31169Y835744D01*
X30598Y835174D01*
X30538Y835095D01*
X30470Y835023D01*
X30441Y834970D01*
X30404Y834922D01*
X30364Y834831D01*
X30316Y834745D01*
X30301Y834686D01*
X30277Y834630D01*
X30262Y834533D01*
X30237Y834437D01*
X30231Y834337D01*
X30227Y834316D01*
X30229Y834304D01*
X30227Y834276D01*
X30227Y793694D01*
X30239Y793596D01*
X30242Y793497D01*
X30259Y793438D01*
X30267Y793378D01*
X30303Y793286D01*
X30331Y793191D01*
X30361Y793139D01*
X30384Y793083D01*
X30442Y793003D01*
X30492Y792917D01*
X30558Y792842D01*
X30570Y792825D01*
X30580Y792817D01*
X30598Y792796D01*
X31169Y792226D01*
X31977Y790276D01*
X31977Y788164D01*
X31169Y786214D01*
X29676Y784721D01*
X27726Y783913D01*
X25614Y783913D01*
G37*
%LPD*%
%LPC*%
G36*
X119075Y581537D02*
X119075Y581537D01*
X115924Y582842D01*
X113512Y585254D01*
X112207Y588405D01*
X112207Y604895D01*
X113512Y608046D01*
X115924Y610458D01*
X119075Y611763D01*
X122485Y611763D01*
X125636Y610458D01*
X128048Y608046D01*
X129353Y604895D01*
X129353Y588405D01*
X128048Y585254D01*
X125636Y582842D01*
X122485Y581537D01*
X119075Y581537D01*
G37*
%LPD*%
%LPC*%
G36*
X296875Y581537D02*
X296875Y581537D01*
X293724Y582842D01*
X291312Y585254D01*
X290007Y588405D01*
X290007Y604895D01*
X291312Y608046D01*
X293724Y610458D01*
X296875Y611763D01*
X300285Y611763D01*
X303436Y610458D01*
X305848Y608046D01*
X307153Y604895D01*
X307153Y588405D01*
X305848Y585254D01*
X303436Y582842D01*
X300285Y581537D01*
X296875Y581537D01*
G37*
%LPD*%
%LPC*%
G36*
X-58725Y581537D02*
X-58725Y581537D01*
X-61876Y582842D01*
X-64288Y585254D01*
X-65593Y588405D01*
X-65593Y604895D01*
X-64288Y608046D01*
X-61876Y610458D01*
X-58725Y611763D01*
X-55315Y611763D01*
X-52164Y610458D01*
X-49752Y608046D01*
X-48447Y604895D01*
X-48447Y588405D01*
X-49752Y585254D01*
X-52164Y582842D01*
X-55315Y581537D01*
X-58725Y581537D01*
G37*
%LPD*%
%LPC*%
G36*
X169875Y581537D02*
X169875Y581537D01*
X166724Y582842D01*
X164312Y585254D01*
X163007Y588405D01*
X163007Y604895D01*
X164312Y608046D01*
X166724Y610458D01*
X169875Y611763D01*
X173285Y611763D01*
X176436Y610458D01*
X178848Y608046D01*
X180153Y604895D01*
X180153Y588405D01*
X178848Y585254D01*
X176436Y582842D01*
X173285Y581537D01*
X169875Y581537D01*
G37*
%LPD*%
%LPC*%
G36*
X-33325Y581537D02*
X-33325Y581537D01*
X-36476Y582842D01*
X-38888Y585254D01*
X-40193Y588405D01*
X-40193Y604895D01*
X-38888Y608046D01*
X-36476Y610458D01*
X-33325Y611763D01*
X-29915Y611763D01*
X-26764Y610458D01*
X-24352Y608046D01*
X-23047Y604895D01*
X-23047Y588405D01*
X-24352Y585254D01*
X-26764Y582842D01*
X-29915Y581537D01*
X-33325Y581537D01*
G37*
%LPD*%
%LPC*%
G36*
X271475Y581537D02*
X271475Y581537D01*
X268324Y582842D01*
X265912Y585254D01*
X264607Y588405D01*
X264607Y604895D01*
X265912Y608046D01*
X268324Y610458D01*
X271475Y611763D01*
X274885Y611763D01*
X278036Y610458D01*
X280448Y608046D01*
X281753Y604895D01*
X281753Y588405D01*
X280448Y585254D01*
X278036Y582842D01*
X274885Y581537D01*
X271475Y581537D01*
G37*
%LPD*%
%LPC*%
G36*
X246075Y581537D02*
X246075Y581537D01*
X242924Y582842D01*
X240512Y585254D01*
X239207Y588405D01*
X239207Y604895D01*
X240512Y608046D01*
X242924Y610458D01*
X246075Y611763D01*
X249485Y611763D01*
X252636Y610458D01*
X255048Y608046D01*
X256353Y604895D01*
X256353Y588405D01*
X255048Y585254D01*
X252636Y582842D01*
X249485Y581537D01*
X246075Y581537D01*
G37*
%LPD*%
%LPC*%
G36*
X220675Y581537D02*
X220675Y581537D01*
X217524Y582842D01*
X215112Y585254D01*
X213807Y588405D01*
X213807Y604895D01*
X215112Y608046D01*
X217524Y610458D01*
X220675Y611763D01*
X224085Y611763D01*
X227236Y610458D01*
X229648Y608046D01*
X230953Y604895D01*
X230953Y588405D01*
X229648Y585254D01*
X227236Y582842D01*
X224085Y581537D01*
X220675Y581537D01*
G37*
%LPD*%
%LPC*%
G36*
X144475Y581537D02*
X144475Y581537D01*
X141324Y582842D01*
X138912Y585254D01*
X137607Y588405D01*
X137607Y604895D01*
X138912Y608046D01*
X141324Y610458D01*
X144475Y611763D01*
X147885Y611763D01*
X151036Y610458D01*
X153448Y608046D01*
X154753Y604895D01*
X154753Y588405D01*
X153448Y585254D01*
X151036Y582842D01*
X147885Y581537D01*
X144475Y581537D01*
G37*
%LPD*%
%LPC*%
G36*
X93675Y581537D02*
X93675Y581537D01*
X90524Y582842D01*
X88112Y585254D01*
X86807Y588405D01*
X86807Y604895D01*
X88112Y608046D01*
X90524Y610458D01*
X93675Y611763D01*
X97085Y611763D01*
X100236Y610458D01*
X102648Y608046D01*
X103953Y604895D01*
X103953Y588405D01*
X102648Y585254D01*
X100236Y582842D01*
X97085Y581537D01*
X93675Y581537D01*
G37*
%LPD*%
%LPC*%
G36*
X68275Y581537D02*
X68275Y581537D01*
X65124Y582842D01*
X62712Y585254D01*
X61407Y588405D01*
X61407Y604895D01*
X62712Y608046D01*
X65124Y610458D01*
X68275Y611763D01*
X71685Y611763D01*
X74836Y610458D01*
X77248Y608046D01*
X78553Y604895D01*
X78553Y588405D01*
X77248Y585254D01*
X74836Y582842D01*
X71685Y581537D01*
X68275Y581537D01*
G37*
%LPD*%
%LPC*%
G36*
X42875Y581537D02*
X42875Y581537D01*
X39724Y582842D01*
X37312Y585254D01*
X36007Y588405D01*
X36007Y604895D01*
X37312Y608046D01*
X39724Y610458D01*
X42875Y611763D01*
X46285Y611763D01*
X49436Y610458D01*
X51848Y608046D01*
X53153Y604895D01*
X53153Y588405D01*
X51848Y585254D01*
X49436Y582842D01*
X46285Y581537D01*
X42875Y581537D01*
G37*
%LPD*%
%LPC*%
G36*
X-58725Y733937D02*
X-58725Y733937D01*
X-61876Y735242D01*
X-64288Y737654D01*
X-65593Y740805D01*
X-65593Y757295D01*
X-64288Y760446D01*
X-61876Y762858D01*
X-58725Y764163D01*
X-55315Y764163D01*
X-52164Y762858D01*
X-49752Y760446D01*
X-48447Y757295D01*
X-48447Y740805D01*
X-49752Y737654D01*
X-52164Y735242D01*
X-55315Y733937D01*
X-58725Y733937D01*
G37*
%LPD*%
%LPC*%
G36*
X17475Y733937D02*
X17475Y733937D01*
X14324Y735242D01*
X11912Y737654D01*
X10607Y740805D01*
X10607Y757295D01*
X11912Y760446D01*
X14324Y762858D01*
X17475Y764163D01*
X20885Y764163D01*
X24036Y762858D01*
X26448Y760446D01*
X27753Y757295D01*
X27753Y740805D01*
X26448Y737654D01*
X24036Y735242D01*
X20885Y733937D01*
X17475Y733937D01*
G37*
%LPD*%
%LPC*%
G36*
X144475Y733937D02*
X144475Y733937D01*
X141324Y735242D01*
X138912Y737654D01*
X137607Y740805D01*
X137607Y757295D01*
X138912Y760446D01*
X141324Y762858D01*
X144475Y764163D01*
X147885Y764163D01*
X151036Y762858D01*
X153448Y760446D01*
X154753Y757295D01*
X154753Y740805D01*
X153448Y737654D01*
X151036Y735242D01*
X147885Y733937D01*
X144475Y733937D01*
G37*
%LPD*%
%LPC*%
G36*
X296875Y733937D02*
X296875Y733937D01*
X293724Y735242D01*
X291312Y737654D01*
X290007Y740805D01*
X290007Y757295D01*
X291312Y760446D01*
X293724Y762858D01*
X296875Y764163D01*
X300285Y764163D01*
X303436Y762858D01*
X305848Y760446D01*
X307153Y757295D01*
X307153Y740805D01*
X305848Y737654D01*
X303436Y735242D01*
X300285Y733937D01*
X296875Y733937D01*
G37*
%LPD*%
%LPC*%
G36*
X271475Y733937D02*
X271475Y733937D01*
X268324Y735242D01*
X265912Y737654D01*
X264607Y740805D01*
X264607Y757295D01*
X265912Y760446D01*
X268324Y762858D01*
X271475Y764163D01*
X274885Y764163D01*
X278036Y762858D01*
X280448Y760446D01*
X281753Y757295D01*
X281753Y740805D01*
X280448Y737654D01*
X278036Y735242D01*
X274885Y733937D01*
X271475Y733937D01*
G37*
%LPD*%
%LPC*%
G36*
X246075Y733937D02*
X246075Y733937D01*
X242924Y735242D01*
X240512Y737654D01*
X239207Y740805D01*
X239207Y757295D01*
X240512Y760446D01*
X242924Y762858D01*
X246075Y764163D01*
X249485Y764163D01*
X252636Y762858D01*
X255048Y760446D01*
X256353Y757295D01*
X256353Y740805D01*
X255048Y737654D01*
X252636Y735242D01*
X249485Y733937D01*
X246075Y733937D01*
G37*
%LPD*%
%LPC*%
G36*
X93675Y733937D02*
X93675Y733937D01*
X90524Y735242D01*
X88112Y737654D01*
X86807Y740805D01*
X86807Y757295D01*
X88112Y760446D01*
X90524Y762858D01*
X93675Y764163D01*
X97085Y764163D01*
X100236Y762858D01*
X102648Y760446D01*
X103953Y757295D01*
X103953Y740805D01*
X102648Y737654D01*
X100236Y735242D01*
X97085Y733937D01*
X93675Y733937D01*
G37*
%LPD*%
%LPC*%
G36*
X-7925Y581537D02*
X-7925Y581537D01*
X-11076Y582842D01*
X-13488Y585254D01*
X-14793Y588405D01*
X-14793Y604895D01*
X-13488Y608046D01*
X-11076Y610458D01*
X-7925Y611763D01*
X-4515Y611763D01*
X-1364Y610458D01*
X1048Y608046D01*
X2353Y604895D01*
X2353Y588405D01*
X1048Y585254D01*
X-1364Y582842D01*
X-4515Y581537D01*
X-7925Y581537D01*
G37*
%LPD*%
%LPC*%
G36*
X-7925Y733937D02*
X-7925Y733937D01*
X-11076Y735242D01*
X-13488Y737654D01*
X-14793Y740805D01*
X-14793Y757295D01*
X-13488Y760446D01*
X-11076Y762858D01*
X-7925Y764163D01*
X-4515Y764163D01*
X-1364Y762858D01*
X1048Y760446D01*
X2353Y757295D01*
X2353Y740805D01*
X1048Y737654D01*
X-1364Y735242D01*
X-4515Y733937D01*
X-7925Y733937D01*
G37*
%LPD*%
%LPC*%
G36*
X29944Y520643D02*
X29944Y520643D01*
X27994Y521451D01*
X26501Y522944D01*
X25693Y524894D01*
X25693Y527006D01*
X26501Y528956D01*
X27072Y529526D01*
X27132Y529605D01*
X27200Y529677D01*
X27229Y529730D01*
X27266Y529778D01*
X27306Y529869D01*
X27354Y529955D01*
X27369Y530014D01*
X27393Y530070D01*
X27408Y530167D01*
X27433Y530263D01*
X27439Y530363D01*
X27443Y530384D01*
X27441Y530396D01*
X27443Y530424D01*
X27443Y568656D01*
X27442Y568665D01*
X27443Y568674D01*
X27422Y568823D01*
X27403Y568971D01*
X27400Y568980D01*
X27399Y568989D01*
X27347Y569141D01*
X26993Y569994D01*
X26993Y572106D01*
X27801Y574056D01*
X29294Y575549D01*
X31244Y576357D01*
X33356Y576357D01*
X35306Y575549D01*
X36799Y574056D01*
X37607Y572106D01*
X37607Y569994D01*
X36799Y568044D01*
X35301Y566546D01*
X35287Y566542D01*
X35177Y566472D01*
X35064Y566408D01*
X35043Y566387D01*
X35018Y566371D01*
X34929Y566277D01*
X34836Y566187D01*
X34820Y566161D01*
X34800Y566140D01*
X34737Y566026D01*
X34669Y565915D01*
X34661Y565887D01*
X34646Y565861D01*
X34614Y565736D01*
X34576Y565611D01*
X34574Y565582D01*
X34567Y565553D01*
X34557Y565393D01*
X34557Y530424D01*
X34569Y530326D01*
X34572Y530227D01*
X34589Y530168D01*
X34597Y530108D01*
X34633Y530016D01*
X34661Y529921D01*
X34691Y529869D01*
X34714Y529813D01*
X34772Y529733D01*
X34822Y529647D01*
X34888Y529572D01*
X34900Y529555D01*
X34910Y529548D01*
X34928Y529526D01*
X35499Y528956D01*
X36307Y527006D01*
X36307Y524894D01*
X35499Y522944D01*
X34006Y521451D01*
X32056Y520643D01*
X29944Y520643D01*
G37*
%LPD*%
%LPC*%
G36*
X268896Y819849D02*
X268896Y819849D01*
X264695Y821589D01*
X261479Y824805D01*
X259739Y829006D01*
X259739Y833554D01*
X261479Y837755D01*
X264695Y840971D01*
X268896Y842711D01*
X270055Y842711D01*
X270173Y842726D01*
X270292Y842733D01*
X270331Y842746D01*
X270370Y842751D01*
X270481Y842794D01*
X270595Y842831D01*
X270629Y842853D01*
X270666Y842868D01*
X270762Y842938D01*
X270863Y843002D01*
X270891Y843031D01*
X270923Y843054D01*
X270999Y843146D01*
X271081Y843233D01*
X271101Y843269D01*
X271126Y843299D01*
X271177Y843407D01*
X271235Y843512D01*
X271245Y843551D01*
X271251Y843564D01*
X271254Y843554D01*
X271291Y843441D01*
X271313Y843406D01*
X271328Y843369D01*
X271398Y843273D01*
X271461Y843172D01*
X271491Y843144D01*
X271514Y843111D01*
X271606Y843035D01*
X271693Y842954D01*
X271728Y842934D01*
X271759Y842909D01*
X271867Y842858D01*
X271971Y842800D01*
X272011Y842790D01*
X272047Y842773D01*
X272164Y842751D01*
X272279Y842721D01*
X272340Y842717D01*
X272360Y842713D01*
X272380Y842715D01*
X272440Y842711D01*
X273444Y842711D01*
X277645Y840971D01*
X280861Y837755D01*
X282601Y833554D01*
X282601Y829006D01*
X280861Y824805D01*
X277645Y821589D01*
X273444Y819849D01*
X268896Y819849D01*
G37*
%LPD*%
%LPC*%
G36*
X143776Y951779D02*
X143776Y951779D01*
X139575Y953519D01*
X136359Y956735D01*
X134619Y960936D01*
X134619Y965484D01*
X136359Y969685D01*
X139575Y972901D01*
X143776Y974641D01*
X148324Y974641D01*
X152525Y972901D01*
X155741Y969685D01*
X157481Y965484D01*
X157481Y960936D01*
X155741Y956735D01*
X152525Y953519D01*
X148324Y951779D01*
X143776Y951779D01*
G37*
%LPD*%
%LPC*%
G36*
X-154674Y949239D02*
X-154674Y949239D01*
X-158875Y950979D01*
X-162091Y954195D01*
X-163831Y958396D01*
X-163831Y962944D01*
X-162091Y967145D01*
X-158875Y970361D01*
X-154674Y972101D01*
X-150126Y972101D01*
X-145925Y970361D01*
X-142709Y967145D01*
X-140969Y962944D01*
X-140969Y958396D01*
X-142709Y954195D01*
X-145925Y950979D01*
X-150126Y949239D01*
X-154674Y949239D01*
G37*
%LPD*%
%LPC*%
G36*
X-224074Y589919D02*
X-224074Y589919D01*
X-228275Y591659D01*
X-231491Y594875D01*
X-233231Y599076D01*
X-233231Y603624D01*
X-231491Y607825D01*
X-228275Y611041D01*
X-224074Y612781D01*
X-219526Y612781D01*
X-215325Y611041D01*
X-212109Y607825D01*
X-210369Y603624D01*
X-210369Y599076D01*
X-212109Y594875D01*
X-215325Y591659D01*
X-219526Y589919D01*
X-224074Y589919D01*
G37*
%LPD*%
%LPC*%
G36*
X-122474Y589919D02*
X-122474Y589919D01*
X-126675Y591659D01*
X-129891Y594875D01*
X-131631Y599076D01*
X-131631Y603624D01*
X-129891Y607825D01*
X-126675Y611041D01*
X-122474Y612781D01*
X-117926Y612781D01*
X-113725Y611041D01*
X-110509Y607825D01*
X-108769Y603624D01*
X-108769Y599076D01*
X-110509Y594875D01*
X-113725Y591659D01*
X-117926Y589919D01*
X-122474Y589919D01*
G37*
%LPD*%
%LPC*%
G36*
X-4814Y950509D02*
X-4814Y950509D01*
X-9015Y952249D01*
X-12231Y955465D01*
X-13971Y959666D01*
X-13971Y964214D01*
X-12231Y968415D01*
X-9015Y971631D01*
X-4814Y973371D01*
X-266Y973371D01*
X3935Y971631D01*
X7151Y968415D01*
X8891Y964214D01*
X8891Y959666D01*
X7151Y955465D01*
X3935Y952249D01*
X-266Y950509D01*
X-4814Y950509D01*
G37*
%LPD*%
%LPC*%
G36*
X-27726Y795343D02*
X-27726Y795343D01*
X-29676Y796151D01*
X-31169Y797644D01*
X-31977Y799594D01*
X-31977Y801706D01*
X-31169Y803656D01*
X-30598Y804226D01*
X-30538Y804305D01*
X-30470Y804377D01*
X-30441Y804430D01*
X-30404Y804478D01*
X-30364Y804569D01*
X-30316Y804655D01*
X-30301Y804714D01*
X-30277Y804770D01*
X-30262Y804867D01*
X-30237Y804963D01*
X-30231Y805063D01*
X-30227Y805084D01*
X-30229Y805096D01*
X-30227Y805124D01*
X-30227Y838086D01*
X-30239Y838184D01*
X-30242Y838283D01*
X-30259Y838342D01*
X-30267Y838402D01*
X-30303Y838494D01*
X-30331Y838589D01*
X-30361Y838641D01*
X-30384Y838697D01*
X-30442Y838777D01*
X-30492Y838863D01*
X-30558Y838938D01*
X-30570Y838955D01*
X-30580Y838962D01*
X-30598Y838984D01*
X-31169Y839554D01*
X-31977Y841504D01*
X-31977Y843616D01*
X-31169Y845566D01*
X-29676Y847059D01*
X-27726Y847867D01*
X-25614Y847867D01*
X-23664Y847059D01*
X-22171Y845566D01*
X-21363Y843616D01*
X-21363Y841504D01*
X-22171Y839554D01*
X-22742Y838984D01*
X-22802Y838905D01*
X-22870Y838833D01*
X-22899Y838780D01*
X-22936Y838732D01*
X-22976Y838641D01*
X-23024Y838555D01*
X-23039Y838496D01*
X-23063Y838440D01*
X-23078Y838343D01*
X-23103Y838247D01*
X-23109Y838147D01*
X-23113Y838126D01*
X-23111Y838114D01*
X-23113Y838086D01*
X-23113Y805124D01*
X-23101Y805026D01*
X-23098Y804927D01*
X-23081Y804868D01*
X-23073Y804808D01*
X-23037Y804716D01*
X-23009Y804621D01*
X-22979Y804569D01*
X-22956Y804513D01*
X-22898Y804433D01*
X-22848Y804347D01*
X-22782Y804272D01*
X-22770Y804255D01*
X-22760Y804248D01*
X-22742Y804226D01*
X-22171Y803656D01*
X-21363Y801706D01*
X-21363Y799594D01*
X-22171Y797644D01*
X-23664Y796151D01*
X-25614Y795343D01*
X-27726Y795343D01*
G37*
%LPD*%
%LPC*%
G36*
X-126786Y790263D02*
X-126786Y790263D01*
X-128736Y791071D01*
X-130229Y792564D01*
X-131037Y794514D01*
X-131037Y796626D01*
X-130229Y798576D01*
X-129658Y799146D01*
X-129598Y799225D01*
X-129530Y799297D01*
X-129501Y799350D01*
X-129464Y799398D01*
X-129424Y799489D01*
X-129376Y799575D01*
X-129361Y799634D01*
X-129337Y799690D01*
X-129322Y799787D01*
X-129297Y799883D01*
X-129291Y799983D01*
X-129287Y800004D01*
X-129289Y800016D01*
X-129287Y800044D01*
X-129287Y826656D01*
X-129299Y826754D01*
X-129302Y826853D01*
X-129319Y826912D01*
X-129327Y826972D01*
X-129363Y827064D01*
X-129391Y827159D01*
X-129421Y827211D01*
X-129444Y827267D01*
X-129502Y827347D01*
X-129552Y827433D01*
X-129618Y827508D01*
X-129630Y827525D01*
X-129640Y827533D01*
X-129659Y827554D01*
X-130229Y828124D01*
X-131037Y830074D01*
X-131037Y832186D01*
X-130229Y834136D01*
X-128736Y835629D01*
X-126786Y836437D01*
X-124674Y836437D01*
X-122724Y835629D01*
X-121231Y834136D01*
X-120423Y832186D01*
X-120423Y830074D01*
X-121231Y828124D01*
X-121801Y827554D01*
X-121862Y827476D01*
X-121930Y827403D01*
X-121959Y827350D01*
X-121996Y827302D01*
X-122036Y827211D01*
X-122084Y827125D01*
X-122099Y827066D01*
X-122123Y827011D01*
X-122138Y826913D01*
X-122163Y826817D01*
X-122169Y826717D01*
X-122173Y826696D01*
X-122171Y826684D01*
X-122173Y826656D01*
X-122173Y800044D01*
X-122161Y799946D01*
X-122158Y799847D01*
X-122141Y799788D01*
X-122133Y799728D01*
X-122097Y799636D01*
X-122069Y799541D01*
X-122039Y799489D01*
X-122016Y799433D01*
X-121958Y799353D01*
X-121908Y799267D01*
X-121842Y799192D01*
X-121830Y799175D01*
X-121820Y799168D01*
X-121802Y799146D01*
X-121231Y798576D01*
X-120423Y796626D01*
X-120423Y794514D01*
X-121231Y792564D01*
X-122724Y791071D01*
X-124674Y790263D01*
X-126786Y790263D01*
G37*
%LPD*%
%LPC*%
G36*
X-111546Y790263D02*
X-111546Y790263D01*
X-113496Y791071D01*
X-114989Y792564D01*
X-115797Y794514D01*
X-115797Y796626D01*
X-114989Y798576D01*
X-114418Y799146D01*
X-114358Y799225D01*
X-114290Y799297D01*
X-114261Y799350D01*
X-114224Y799398D01*
X-114184Y799489D01*
X-114136Y799575D01*
X-114121Y799634D01*
X-114097Y799690D01*
X-114082Y799787D01*
X-114057Y799883D01*
X-114051Y799983D01*
X-114047Y800004D01*
X-114049Y800016D01*
X-114047Y800044D01*
X-114047Y826656D01*
X-114059Y826754D01*
X-114062Y826853D01*
X-114079Y826912D01*
X-114087Y826972D01*
X-114123Y827064D01*
X-114151Y827159D01*
X-114181Y827211D01*
X-114204Y827267D01*
X-114262Y827347D01*
X-114312Y827433D01*
X-114378Y827508D01*
X-114390Y827525D01*
X-114400Y827532D01*
X-114418Y827554D01*
X-114989Y828124D01*
X-115797Y830074D01*
X-115797Y832186D01*
X-114989Y834136D01*
X-113496Y835629D01*
X-111546Y836437D01*
X-109434Y836437D01*
X-107484Y835629D01*
X-105991Y834136D01*
X-105183Y832186D01*
X-105183Y830074D01*
X-105991Y828124D01*
X-106562Y827554D01*
X-106622Y827475D01*
X-106690Y827403D01*
X-106719Y827350D01*
X-106756Y827302D01*
X-106796Y827211D01*
X-106844Y827125D01*
X-106859Y827066D01*
X-106883Y827010D01*
X-106898Y826913D01*
X-106923Y826817D01*
X-106929Y826717D01*
X-106933Y826696D01*
X-106931Y826684D01*
X-106933Y826656D01*
X-106933Y800044D01*
X-106921Y799946D01*
X-106918Y799847D01*
X-106901Y799788D01*
X-106893Y799728D01*
X-106857Y799636D01*
X-106829Y799541D01*
X-106799Y799489D01*
X-106776Y799433D01*
X-106718Y799353D01*
X-106668Y799267D01*
X-106602Y799192D01*
X-106590Y799175D01*
X-106580Y799168D01*
X-106562Y799146D01*
X-105991Y798576D01*
X-105183Y796626D01*
X-105183Y794514D01*
X-105991Y792564D01*
X-107484Y791071D01*
X-109434Y790263D01*
X-111546Y790263D01*
G37*
%LPD*%
%LPC*%
G36*
X-177586Y805503D02*
X-177586Y805503D01*
X-179536Y806311D01*
X-181029Y807804D01*
X-181837Y809754D01*
X-181837Y811866D01*
X-181029Y813816D01*
X-180459Y814386D01*
X-180398Y814464D01*
X-180330Y814537D01*
X-180301Y814590D01*
X-180264Y814638D01*
X-180224Y814729D01*
X-180176Y814815D01*
X-180161Y814874D01*
X-180137Y814929D01*
X-180122Y815027D01*
X-180097Y815123D01*
X-180091Y815223D01*
X-180087Y815244D01*
X-180089Y815256D01*
X-180087Y815284D01*
X-180087Y835546D01*
X-180099Y835644D01*
X-180102Y835743D01*
X-180119Y835802D01*
X-180127Y835862D01*
X-180163Y835954D01*
X-180191Y836049D01*
X-180221Y836101D01*
X-180244Y836157D01*
X-180302Y836237D01*
X-180352Y836323D01*
X-180418Y836398D01*
X-180430Y836415D01*
X-180440Y836422D01*
X-180458Y836444D01*
X-181029Y837014D01*
X-181837Y838964D01*
X-181837Y841076D01*
X-181029Y843026D01*
X-179536Y844519D01*
X-177586Y845327D01*
X-175474Y845327D01*
X-173524Y844519D01*
X-172031Y843026D01*
X-171223Y841076D01*
X-171223Y838964D01*
X-172031Y837014D01*
X-172602Y836444D01*
X-172662Y836365D01*
X-172730Y836293D01*
X-172759Y836240D01*
X-172796Y836192D01*
X-172836Y836101D01*
X-172884Y836015D01*
X-172899Y835956D01*
X-172923Y835900D01*
X-172938Y835803D01*
X-172963Y835707D01*
X-172969Y835607D01*
X-172973Y835586D01*
X-172971Y835574D01*
X-172973Y835546D01*
X-172973Y815284D01*
X-172961Y815186D01*
X-172958Y815087D01*
X-172941Y815028D01*
X-172933Y814968D01*
X-172897Y814876D01*
X-172869Y814781D01*
X-172839Y814729D01*
X-172816Y814673D01*
X-172758Y814593D01*
X-172708Y814507D01*
X-172642Y814432D01*
X-172630Y814415D01*
X-172620Y814407D01*
X-172601Y814386D01*
X-172031Y813816D01*
X-171223Y811866D01*
X-171223Y809754D01*
X-172031Y807804D01*
X-173524Y806311D01*
X-175474Y805503D01*
X-177586Y805503D01*
G37*
%LPD*%
%LPC*%
G36*
X-117756Y698443D02*
X-117756Y698443D01*
X-119706Y699251D01*
X-121199Y700744D01*
X-122007Y702694D01*
X-122007Y703501D01*
X-122019Y703599D01*
X-122022Y703698D01*
X-122039Y703756D01*
X-122047Y703817D01*
X-122083Y703909D01*
X-122111Y704004D01*
X-122141Y704056D01*
X-122164Y704112D01*
X-122222Y704192D01*
X-122272Y704278D01*
X-122338Y704353D01*
X-122350Y704370D01*
X-122360Y704377D01*
X-122378Y704399D01*
X-126801Y708822D01*
X-126880Y708882D01*
X-126952Y708950D01*
X-127005Y708979D01*
X-127053Y709016D01*
X-127144Y709056D01*
X-127230Y709104D01*
X-127289Y709119D01*
X-127345Y709143D01*
X-127443Y709158D01*
X-127538Y709183D01*
X-127638Y709189D01*
X-127659Y709193D01*
X-127671Y709191D01*
X-127699Y709193D01*
X-128526Y709193D01*
X-128624Y709181D01*
X-128723Y709178D01*
X-128782Y709161D01*
X-128842Y709153D01*
X-128934Y709117D01*
X-129029Y709089D01*
X-129081Y709059D01*
X-129137Y709036D01*
X-129217Y708978D01*
X-129303Y708928D01*
X-129378Y708862D01*
X-129395Y708850D01*
X-129402Y708840D01*
X-129424Y708822D01*
X-129994Y708251D01*
X-131944Y707443D01*
X-134056Y707443D01*
X-136006Y708251D01*
X-137499Y709744D01*
X-138307Y711694D01*
X-138307Y713806D01*
X-137499Y715756D01*
X-136006Y717249D01*
X-134056Y718057D01*
X-131944Y718057D01*
X-129994Y717249D01*
X-129424Y716678D01*
X-129345Y716618D01*
X-129273Y716550D01*
X-129220Y716521D01*
X-129172Y716484D01*
X-129081Y716444D01*
X-128995Y716396D01*
X-128936Y716381D01*
X-128880Y716357D01*
X-128783Y716342D01*
X-128687Y716317D01*
X-128587Y716311D01*
X-128566Y716307D01*
X-128554Y716309D01*
X-128526Y716307D01*
X-124227Y716307D01*
X-117349Y709428D01*
X-117270Y709368D01*
X-117198Y709300D01*
X-117145Y709271D01*
X-117097Y709234D01*
X-117006Y709194D01*
X-116920Y709146D01*
X-116861Y709131D01*
X-116805Y709107D01*
X-116707Y709092D01*
X-116612Y709067D01*
X-116512Y709061D01*
X-116491Y709057D01*
X-116479Y709059D01*
X-116451Y709057D01*
X-115644Y709057D01*
X-113694Y708249D01*
X-112201Y706756D01*
X-111393Y704806D01*
X-111393Y702694D01*
X-112201Y700744D01*
X-113694Y699251D01*
X-115644Y698443D01*
X-117756Y698443D01*
G37*
%LPD*%
%LPC*%
G36*
X-71425Y638877D02*
X-71425Y638877D01*
X-74576Y640182D01*
X-76988Y642594D01*
X-78293Y645745D01*
X-78293Y649155D01*
X-76988Y652306D01*
X-74576Y654718D01*
X-71425Y656023D01*
X-68015Y656023D01*
X-64864Y654718D01*
X-62452Y652306D01*
X-61147Y649155D01*
X-61147Y645745D01*
X-62452Y642594D01*
X-64864Y640182D01*
X-68015Y638877D01*
X-71425Y638877D01*
G37*
%LPD*%
%LPC*%
G36*
X-46025Y664277D02*
X-46025Y664277D01*
X-49176Y665582D01*
X-51588Y667994D01*
X-52893Y671145D01*
X-52893Y674555D01*
X-51588Y677706D01*
X-49176Y680118D01*
X-46025Y681423D01*
X-42615Y681423D01*
X-39464Y680118D01*
X-37052Y677706D01*
X-35747Y674555D01*
X-35747Y671145D01*
X-37052Y667994D01*
X-39464Y665582D01*
X-42615Y664277D01*
X-46025Y664277D01*
G37*
%LPD*%
%LPC*%
G36*
X-71425Y689677D02*
X-71425Y689677D01*
X-74576Y690982D01*
X-76988Y693394D01*
X-78293Y696545D01*
X-78293Y699955D01*
X-76988Y703106D01*
X-74576Y705518D01*
X-71425Y706823D01*
X-68015Y706823D01*
X-64864Y705518D01*
X-62452Y703106D01*
X-61147Y699955D01*
X-61147Y696545D01*
X-62452Y693394D01*
X-64864Y690982D01*
X-68015Y689677D01*
X-71425Y689677D01*
G37*
%LPD*%
%LPC*%
G36*
X-46025Y689677D02*
X-46025Y689677D01*
X-49176Y690982D01*
X-51588Y693394D01*
X-52893Y696545D01*
X-52893Y699955D01*
X-51588Y703106D01*
X-49176Y705518D01*
X-46025Y706823D01*
X-42615Y706823D01*
X-39464Y705518D01*
X-37052Y703106D01*
X-35747Y699955D01*
X-35747Y696545D01*
X-37052Y693394D01*
X-39464Y690982D01*
X-42615Y689677D01*
X-46025Y689677D01*
G37*
%LPD*%
%LPC*%
G36*
X-46025Y638877D02*
X-46025Y638877D01*
X-49176Y640182D01*
X-51588Y642594D01*
X-52893Y645745D01*
X-52893Y649155D01*
X-51588Y652306D01*
X-49176Y654718D01*
X-46025Y656023D01*
X-42615Y656023D01*
X-39464Y654718D01*
X-37052Y652306D01*
X-35747Y649155D01*
X-35747Y645745D01*
X-37052Y642594D01*
X-39464Y640182D01*
X-42615Y638877D01*
X-46025Y638877D01*
G37*
%LPD*%
%LPC*%
G36*
X-71425Y664277D02*
X-71425Y664277D01*
X-74576Y665582D01*
X-76988Y667994D01*
X-78293Y671145D01*
X-78293Y674555D01*
X-76988Y677706D01*
X-74576Y680118D01*
X-71425Y681423D01*
X-68015Y681423D01*
X-64864Y680118D01*
X-62452Y677706D01*
X-61147Y674555D01*
X-61147Y671145D01*
X-62452Y667994D01*
X-64864Y665582D01*
X-68015Y664277D01*
X-71425Y664277D01*
G37*
%LPD*%
%LPC*%
G36*
X380639Y753939D02*
X380639Y753939D01*
X380639Y768879D01*
X382000Y768436D01*
X383425Y767710D01*
X384719Y766770D01*
X385850Y765639D01*
X386790Y764345D01*
X387516Y762920D01*
X388011Y761399D01*
X388261Y759820D01*
X388261Y753939D01*
X380639Y753939D01*
G37*
%LPD*%
%LPC*%
G36*
X380639Y280989D02*
X380639Y280989D01*
X380639Y295929D01*
X382000Y295486D01*
X383425Y294760D01*
X384719Y293820D01*
X385850Y292689D01*
X386790Y291395D01*
X387516Y289970D01*
X388011Y288449D01*
X388261Y286870D01*
X388261Y280989D01*
X380639Y280989D01*
G37*
%LPD*%
%LPC*%
G36*
X267669Y338189D02*
X267669Y338189D01*
X267669Y345811D01*
X273550Y345811D01*
X275129Y345561D01*
X276650Y345066D01*
X278075Y344340D01*
X279369Y343400D01*
X280500Y342269D01*
X281440Y340975D01*
X282166Y339550D01*
X282609Y338189D01*
X267669Y338189D01*
G37*
%LPD*%
%LPC*%
G36*
X-323599Y761109D02*
X-323599Y761109D01*
X-323156Y762470D01*
X-322430Y763895D01*
X-321490Y765189D01*
X-320359Y766320D01*
X-319065Y767260D01*
X-317640Y767986D01*
X-316119Y768481D01*
X-314540Y768731D01*
X-308659Y768731D01*
X-308659Y761109D01*
X-323599Y761109D01*
G37*
%LPD*%
%LPC*%
G36*
X-303581Y761109D02*
X-303581Y761109D01*
X-303581Y768731D01*
X-297700Y768731D01*
X-296121Y768481D01*
X-294600Y767986D01*
X-293175Y767260D01*
X-292774Y766969D01*
X-291881Y766320D01*
X-290750Y765189D01*
X-289810Y763895D01*
X-289084Y762470D01*
X-288641Y761109D01*
X-303581Y761109D01*
G37*
%LPD*%
%LPC*%
G36*
X380639Y275911D02*
X380639Y275911D01*
X388261Y275911D01*
X388261Y270030D01*
X388011Y268451D01*
X387516Y266930D01*
X386790Y265505D01*
X385850Y264211D01*
X384719Y263080D01*
X383425Y262140D01*
X382000Y261414D01*
X380639Y260971D01*
X380639Y275911D01*
G37*
%LPD*%
%LPC*%
G36*
X380639Y748861D02*
X380639Y748861D01*
X388261Y748861D01*
X388261Y742980D01*
X388011Y741401D01*
X387516Y739880D01*
X386790Y738455D01*
X385850Y737161D01*
X384719Y736030D01*
X383425Y735090D01*
X382000Y734364D01*
X380639Y733921D01*
X380639Y748861D01*
G37*
%LPD*%
%LPC*%
G36*
X247651Y338189D02*
X247651Y338189D01*
X248094Y339550D01*
X248820Y340975D01*
X249760Y342269D01*
X250891Y343400D01*
X252185Y344340D01*
X253610Y345066D01*
X255131Y345561D01*
X256710Y345811D01*
X262591Y345811D01*
X262591Y338189D01*
X247651Y338189D01*
G37*
%LPD*%
%LPC*%
G36*
X-314540Y748409D02*
X-314540Y748409D01*
X-316119Y748659D01*
X-317640Y749154D01*
X-319065Y749880D01*
X-319207Y749983D01*
X-320359Y750820D01*
X-321490Y751951D01*
X-322430Y753245D01*
X-323156Y754670D01*
X-323599Y756031D01*
X-308659Y756031D01*
X-308659Y748409D01*
X-314540Y748409D01*
G37*
%LPD*%
%LPC*%
G36*
X367939Y753939D02*
X367939Y753939D01*
X367939Y759820D01*
X368189Y761399D01*
X368684Y762920D01*
X369410Y764345D01*
X370350Y765639D01*
X371481Y766770D01*
X372775Y767710D01*
X374200Y768436D01*
X375561Y768879D01*
X375561Y753939D01*
X367939Y753939D01*
G37*
%LPD*%
%LPC*%
G36*
X367939Y280989D02*
X367939Y280989D01*
X367939Y286870D01*
X368189Y288449D01*
X368684Y289970D01*
X369410Y291395D01*
X370350Y292689D01*
X371481Y293820D01*
X372775Y294760D01*
X374200Y295486D01*
X375561Y295929D01*
X375561Y280989D01*
X367939Y280989D01*
G37*
%LPD*%
%LPC*%
G36*
X267669Y325489D02*
X267669Y325489D01*
X267669Y333111D01*
X282609Y333111D01*
X282166Y331750D01*
X281440Y330325D01*
X280500Y329031D01*
X279369Y327900D01*
X278075Y326960D01*
X276650Y326234D01*
X275129Y325739D01*
X273550Y325489D01*
X267669Y325489D01*
G37*
%LPD*%
%LPC*%
G36*
X374200Y261414D02*
X374200Y261414D01*
X372775Y262140D01*
X371481Y263080D01*
X370350Y264211D01*
X369410Y265505D01*
X368684Y266930D01*
X368189Y268451D01*
X367939Y270030D01*
X367939Y275911D01*
X375561Y275911D01*
X375561Y260971D01*
X374200Y261414D01*
G37*
%LPD*%
%LPC*%
G36*
X256710Y325489D02*
X256710Y325489D01*
X255131Y325739D01*
X253610Y326234D01*
X252185Y326960D01*
X250891Y327900D01*
X249760Y329031D01*
X248820Y330325D01*
X248094Y331750D01*
X247651Y333111D01*
X262591Y333111D01*
X262591Y325489D01*
X256710Y325489D01*
G37*
%LPD*%
%LPC*%
G36*
X374200Y734364D02*
X374200Y734364D01*
X372775Y735090D01*
X371481Y736030D01*
X370350Y737161D01*
X369410Y738455D01*
X368684Y739880D01*
X368189Y741401D01*
X367939Y742980D01*
X367939Y748861D01*
X375561Y748861D01*
X375561Y733921D01*
X374200Y734364D01*
G37*
%LPD*%
%LPC*%
G36*
X-303581Y748409D02*
X-303581Y748409D01*
X-303581Y756031D01*
X-288641Y756031D01*
X-289084Y754670D01*
X-289810Y753245D01*
X-290750Y751951D01*
X-291881Y750820D01*
X-293175Y749880D01*
X-294600Y749154D01*
X-296121Y748659D01*
X-297700Y748409D01*
X-303581Y748409D01*
G37*
%LPD*%
%LPC*%
G36*
X72389Y968289D02*
X72389Y968289D01*
X72389Y977689D01*
X79582Y977689D01*
X80229Y977516D01*
X80808Y977181D01*
X81281Y976708D01*
X81616Y976129D01*
X81789Y975482D01*
X81789Y968289D01*
X72389Y968289D01*
G37*
%LPD*%
%LPC*%
G36*
X-90679Y967019D02*
X-90679Y967019D01*
X-90679Y974212D01*
X-90506Y974859D01*
X-90171Y975438D01*
X-89698Y975911D01*
X-89119Y976246D01*
X-88472Y976419D01*
X-81279Y976419D01*
X-81279Y967019D01*
X-90679Y967019D01*
G37*
%LPD*%
%LPC*%
G36*
X-240539Y965749D02*
X-240539Y965749D01*
X-240539Y972942D01*
X-240366Y973589D01*
X-240031Y974168D01*
X-239558Y974641D01*
X-238979Y974976D01*
X-238332Y975149D01*
X-231139Y975149D01*
X-231139Y965749D01*
X-240539Y965749D01*
G37*
%LPD*%
%LPC*%
G36*
X-76201Y967019D02*
X-76201Y967019D01*
X-76201Y976419D01*
X-69008Y976419D01*
X-68361Y976246D01*
X-67782Y975911D01*
X-67309Y975438D01*
X-66974Y974859D01*
X-66801Y974212D01*
X-66801Y967019D01*
X-76201Y967019D01*
G37*
%LPD*%
%LPC*%
G36*
X-226061Y965749D02*
X-226061Y965749D01*
X-226061Y975149D01*
X-218868Y975149D01*
X-218221Y974976D01*
X-217642Y974641D01*
X-217169Y974168D01*
X-216834Y973589D01*
X-216661Y972942D01*
X-216661Y965749D01*
X-226061Y965749D01*
G37*
%LPD*%
%LPC*%
G36*
X-88472Y952541D02*
X-88472Y952541D01*
X-89119Y952714D01*
X-89698Y953049D01*
X-90171Y953522D01*
X-90506Y954101D01*
X-90679Y954748D01*
X-90679Y961941D01*
X-81279Y961941D01*
X-81279Y952541D01*
X-88472Y952541D01*
G37*
%LPD*%
%LPC*%
G36*
X57911Y968289D02*
X57911Y968289D01*
X57911Y975482D01*
X58084Y976129D01*
X58419Y976708D01*
X58892Y977181D01*
X59471Y977516D01*
X60118Y977689D01*
X67311Y977689D01*
X67311Y968289D01*
X57911Y968289D01*
G37*
%LPD*%
%LPC*%
G36*
X-238332Y951271D02*
X-238332Y951271D01*
X-238979Y951444D01*
X-239558Y951779D01*
X-240031Y952252D01*
X-240366Y952831D01*
X-240539Y953478D01*
X-240539Y960671D01*
X-231139Y960671D01*
X-231139Y951271D01*
X-238332Y951271D01*
G37*
%LPD*%
%LPC*%
G36*
X60118Y953811D02*
X60118Y953811D01*
X59471Y953984D01*
X58892Y954319D01*
X58419Y954792D01*
X58084Y955371D01*
X57911Y956018D01*
X57911Y963211D01*
X67311Y963211D01*
X67311Y953811D01*
X60118Y953811D01*
G37*
%LPD*%
%LPC*%
G36*
X-40701Y751049D02*
X-40701Y751049D01*
X-40701Y756305D01*
X-40477Y757716D01*
X-40035Y759076D01*
X-39387Y760349D01*
X-38546Y761506D01*
X-37536Y762516D01*
X-36379Y763357D01*
X-35106Y764005D01*
X-33746Y764447D01*
X-33619Y764467D01*
X-33619Y751049D01*
X-40701Y751049D01*
G37*
%LPD*%
%LPC*%
G36*
X21179Y598649D02*
X21179Y598649D01*
X21179Y612067D01*
X21306Y612047D01*
X22666Y611605D01*
X23939Y610957D01*
X25096Y610116D01*
X26106Y609106D01*
X26947Y607949D01*
X27595Y606676D01*
X28037Y605316D01*
X28261Y603905D01*
X28261Y598649D01*
X21179Y598649D01*
G37*
%LPD*%
%LPC*%
G36*
X21179Y594651D02*
X21179Y594651D01*
X28261Y594651D01*
X28261Y589395D01*
X28037Y587984D01*
X27595Y586624D01*
X26947Y585351D01*
X26106Y584194D01*
X25096Y583184D01*
X23939Y582343D01*
X22666Y581695D01*
X21306Y581253D01*
X21179Y581233D01*
X21179Y594651D01*
G37*
%LPD*%
%LPC*%
G36*
X-33746Y733653D02*
X-33746Y733653D01*
X-35106Y734095D01*
X-36379Y734743D01*
X-37536Y735584D01*
X-38546Y736594D01*
X-39387Y737751D01*
X-40035Y739024D01*
X-40477Y740384D01*
X-40701Y741795D01*
X-40701Y747051D01*
X-33619Y747051D01*
X-33619Y733633D01*
X-33746Y733653D01*
G37*
%LPD*%
%LPC*%
G36*
X10099Y598649D02*
X10099Y598649D01*
X10099Y603905D01*
X10323Y605316D01*
X10765Y606676D01*
X11413Y607949D01*
X12254Y609106D01*
X13264Y610116D01*
X14421Y610957D01*
X15694Y611605D01*
X17054Y612047D01*
X17181Y612067D01*
X17181Y598649D01*
X10099Y598649D01*
G37*
%LPD*%
%LPC*%
G36*
X-29621Y751049D02*
X-29621Y751049D01*
X-29621Y764467D01*
X-29494Y764447D01*
X-28134Y764005D01*
X-26861Y763357D01*
X-25704Y762516D01*
X-24694Y761506D01*
X-23853Y760349D01*
X-23205Y759076D01*
X-22763Y757716D01*
X-22539Y756305D01*
X-22539Y751049D01*
X-29621Y751049D01*
G37*
%LPD*%
%LPC*%
G36*
X17054Y581253D02*
X17054Y581253D01*
X15694Y581695D01*
X14421Y582343D01*
X13264Y583184D01*
X12254Y584194D01*
X11413Y585351D01*
X10765Y586624D01*
X10323Y587984D01*
X10099Y589395D01*
X10099Y594651D01*
X17181Y594651D01*
X17181Y581233D01*
X17054Y581253D01*
G37*
%LPD*%
%LPC*%
G36*
X-29621Y747051D02*
X-29621Y747051D01*
X-22539Y747051D01*
X-22539Y741795D01*
X-22763Y740384D01*
X-23205Y739024D01*
X-23853Y737751D01*
X-24694Y736594D01*
X-25704Y735584D01*
X-26861Y734743D01*
X-28134Y734095D01*
X-29494Y733653D01*
X-29621Y733633D01*
X-29621Y747051D01*
G37*
%LPD*%
%LPC*%
G36*
X-78741Y964479D02*
X-78741Y964479D01*
X-78741Y964481D01*
X-78739Y964481D01*
X-78739Y964479D01*
X-78741Y964479D01*
G37*
%LPD*%
%LPC*%
G36*
X265129Y335649D02*
X265129Y335649D01*
X265129Y335651D01*
X265131Y335651D01*
X265131Y335649D01*
X265129Y335649D01*
G37*
%LPD*%
%LPC*%
G36*
X378099Y751399D02*
X378099Y751399D01*
X378099Y751401D01*
X378101Y751401D01*
X378101Y751399D01*
X378099Y751399D01*
G37*
%LPD*%
%LPC*%
G36*
X-306121Y758569D02*
X-306121Y758569D01*
X-306121Y758571D01*
X-306119Y758571D01*
X-306119Y758569D01*
X-306121Y758569D01*
G37*
%LPD*%
%LPC*%
G36*
X378099Y278449D02*
X378099Y278449D01*
X378099Y278451D01*
X378101Y278451D01*
X378101Y278449D01*
X378099Y278449D01*
G37*
%LPD*%
%LPC*%
G36*
X-228601Y963209D02*
X-228601Y963209D01*
X-228601Y963211D01*
X-228599Y963211D01*
X-228599Y963209D01*
X-228601Y963209D01*
G37*
%LPD*%
%LPC*%
G36*
X69849Y965749D02*
X69849Y965749D01*
X69849Y965751D01*
X69851Y965751D01*
X69851Y965749D01*
X69849Y965749D01*
G37*
%LPD*%
D10*
X-317900Y87150D02*
X-317895Y87543D01*
X-317881Y87935D01*
X-317857Y88327D01*
X-317823Y88718D01*
X-317780Y89109D01*
X-317727Y89498D01*
X-317664Y89885D01*
X-317593Y90271D01*
X-317511Y90656D01*
X-317421Y91038D01*
X-317320Y91417D01*
X-317211Y91795D01*
X-317092Y92169D01*
X-316965Y92540D01*
X-316828Y92908D01*
X-316682Y93273D01*
X-316527Y93634D01*
X-316364Y93991D01*
X-316192Y94344D01*
X-316011Y94692D01*
X-315821Y95036D01*
X-315624Y95376D01*
X-315418Y95710D01*
X-315204Y96039D01*
X-314981Y96363D01*
X-314751Y96681D01*
X-314514Y96994D01*
X-314268Y97300D01*
X-314015Y97601D01*
X-313755Y97895D01*
X-313488Y98183D01*
X-313214Y98464D01*
X-312933Y98738D01*
X-312645Y99005D01*
X-312351Y99265D01*
X-312050Y99518D01*
X-311744Y99764D01*
X-311431Y100001D01*
X-311113Y100231D01*
X-310789Y100454D01*
X-310460Y100668D01*
X-310126Y100874D01*
X-309786Y101071D01*
X-309442Y101261D01*
X-309094Y101442D01*
X-308741Y101614D01*
X-308384Y101777D01*
X-308023Y101932D01*
X-307658Y102078D01*
X-307290Y102215D01*
X-306919Y102342D01*
X-306545Y102461D01*
X-306167Y102570D01*
X-305788Y102671D01*
X-305406Y102761D01*
X-305021Y102843D01*
X-304635Y102914D01*
X-304248Y102977D01*
X-303859Y103030D01*
X-303468Y103073D01*
X-303077Y103107D01*
X-302685Y103131D01*
X-302293Y103145D01*
X-301900Y103150D01*
X-301507Y103145D01*
X-301115Y103131D01*
X-300723Y103107D01*
X-300332Y103073D01*
X-299941Y103030D01*
X-299552Y102977D01*
X-299165Y102914D01*
X-298779Y102843D01*
X-298394Y102761D01*
X-298012Y102671D01*
X-297633Y102570D01*
X-297255Y102461D01*
X-296881Y102342D01*
X-296510Y102215D01*
X-296142Y102078D01*
X-295777Y101932D01*
X-295416Y101777D01*
X-295059Y101614D01*
X-294706Y101442D01*
X-294358Y101261D01*
X-294014Y101071D01*
X-293674Y100874D01*
X-293340Y100668D01*
X-293011Y100454D01*
X-292687Y100231D01*
X-292369Y100001D01*
X-292056Y99764D01*
X-291750Y99518D01*
X-291449Y99265D01*
X-291155Y99005D01*
X-290867Y98738D01*
X-290586Y98464D01*
X-290312Y98183D01*
X-290045Y97895D01*
X-289785Y97601D01*
X-289532Y97300D01*
X-289286Y96994D01*
X-289049Y96681D01*
X-288819Y96363D01*
X-288596Y96039D01*
X-288382Y95710D01*
X-288176Y95376D01*
X-287979Y95036D01*
X-287789Y94692D01*
X-287608Y94344D01*
X-287436Y93991D01*
X-287273Y93634D01*
X-287118Y93273D01*
X-286972Y92908D01*
X-286835Y92540D01*
X-286708Y92169D01*
X-286589Y91795D01*
X-286480Y91417D01*
X-286379Y91038D01*
X-286289Y90656D01*
X-286207Y90271D01*
X-286136Y89885D01*
X-286073Y89498D01*
X-286020Y89109D01*
X-285977Y88718D01*
X-285943Y88327D01*
X-285919Y87935D01*
X-285905Y87543D01*
X-285900Y87150D01*
X-285905Y86757D01*
X-285919Y86365D01*
X-285943Y85973D01*
X-285977Y85582D01*
X-286020Y85191D01*
X-286073Y84802D01*
X-286136Y84415D01*
X-286207Y84029D01*
X-286289Y83644D01*
X-286379Y83262D01*
X-286480Y82883D01*
X-286589Y82505D01*
X-286708Y82131D01*
X-286835Y81760D01*
X-286972Y81392D01*
X-287118Y81027D01*
X-287273Y80666D01*
X-287436Y80309D01*
X-287608Y79956D01*
X-287789Y79608D01*
X-287979Y79264D01*
X-288176Y78924D01*
X-288382Y78590D01*
X-288596Y78261D01*
X-288819Y77937D01*
X-289049Y77619D01*
X-289286Y77306D01*
X-289532Y77000D01*
X-289785Y76699D01*
X-290045Y76405D01*
X-290312Y76117D01*
X-290586Y75836D01*
X-290867Y75562D01*
X-291155Y75295D01*
X-291449Y75035D01*
X-291750Y74782D01*
X-292056Y74536D01*
X-292369Y74299D01*
X-292687Y74069D01*
X-293011Y73846D01*
X-293340Y73632D01*
X-293674Y73426D01*
X-294014Y73229D01*
X-294358Y73039D01*
X-294706Y72858D01*
X-295059Y72686D01*
X-295416Y72523D01*
X-295777Y72368D01*
X-296142Y72222D01*
X-296510Y72085D01*
X-296881Y71958D01*
X-297255Y71839D01*
X-297633Y71730D01*
X-298012Y71629D01*
X-298394Y71539D01*
X-298779Y71457D01*
X-299165Y71386D01*
X-299552Y71323D01*
X-299941Y71270D01*
X-300332Y71227D01*
X-300723Y71193D01*
X-301115Y71169D01*
X-301507Y71155D01*
X-301900Y71150D01*
X-302293Y71155D01*
X-302685Y71169D01*
X-303077Y71193D01*
X-303468Y71227D01*
X-303859Y71270D01*
X-304248Y71323D01*
X-304635Y71386D01*
X-305021Y71457D01*
X-305406Y71539D01*
X-305788Y71629D01*
X-306167Y71730D01*
X-306545Y71839D01*
X-306919Y71958D01*
X-307290Y72085D01*
X-307658Y72222D01*
X-308023Y72368D01*
X-308384Y72523D01*
X-308741Y72686D01*
X-309094Y72858D01*
X-309442Y73039D01*
X-309786Y73229D01*
X-310126Y73426D01*
X-310460Y73632D01*
X-310789Y73846D01*
X-311113Y74069D01*
X-311431Y74299D01*
X-311744Y74536D01*
X-312050Y74782D01*
X-312351Y75035D01*
X-312645Y75295D01*
X-312933Y75562D01*
X-313214Y75836D01*
X-313488Y76117D01*
X-313755Y76405D01*
X-314015Y76699D01*
X-314268Y77000D01*
X-314514Y77306D01*
X-314751Y77619D01*
X-314981Y77937D01*
X-315204Y78261D01*
X-315418Y78590D01*
X-315624Y78924D01*
X-315821Y79264D01*
X-316011Y79608D01*
X-316192Y79956D01*
X-316364Y80309D01*
X-316527Y80666D01*
X-316682Y81027D01*
X-316828Y81392D01*
X-316965Y81760D01*
X-317092Y82131D01*
X-317211Y82505D01*
X-317320Y82883D01*
X-317421Y83262D01*
X-317511Y83644D01*
X-317593Y84029D01*
X-317664Y84415D01*
X-317727Y84802D01*
X-317780Y85191D01*
X-317823Y85582D01*
X-317857Y85973D01*
X-317881Y86365D01*
X-317895Y86757D01*
X-317900Y87150D01*
X-317900Y941050D02*
X-317895Y941443D01*
X-317881Y941835D01*
X-317857Y942227D01*
X-317823Y942618D01*
X-317780Y943009D01*
X-317727Y943398D01*
X-317664Y943785D01*
X-317593Y944171D01*
X-317511Y944556D01*
X-317421Y944938D01*
X-317320Y945317D01*
X-317211Y945695D01*
X-317092Y946069D01*
X-316965Y946440D01*
X-316828Y946808D01*
X-316682Y947173D01*
X-316527Y947534D01*
X-316364Y947891D01*
X-316192Y948244D01*
X-316011Y948592D01*
X-315821Y948936D01*
X-315624Y949276D01*
X-315418Y949610D01*
X-315204Y949939D01*
X-314981Y950263D01*
X-314751Y950581D01*
X-314514Y950894D01*
X-314268Y951200D01*
X-314015Y951501D01*
X-313755Y951795D01*
X-313488Y952083D01*
X-313214Y952364D01*
X-312933Y952638D01*
X-312645Y952905D01*
X-312351Y953165D01*
X-312050Y953418D01*
X-311744Y953664D01*
X-311431Y953901D01*
X-311113Y954131D01*
X-310789Y954354D01*
X-310460Y954568D01*
X-310126Y954774D01*
X-309786Y954971D01*
X-309442Y955161D01*
X-309094Y955342D01*
X-308741Y955514D01*
X-308384Y955677D01*
X-308023Y955832D01*
X-307658Y955978D01*
X-307290Y956115D01*
X-306919Y956242D01*
X-306545Y956361D01*
X-306167Y956470D01*
X-305788Y956571D01*
X-305406Y956661D01*
X-305021Y956743D01*
X-304635Y956814D01*
X-304248Y956877D01*
X-303859Y956930D01*
X-303468Y956973D01*
X-303077Y957007D01*
X-302685Y957031D01*
X-302293Y957045D01*
X-301900Y957050D01*
X-301507Y957045D01*
X-301115Y957031D01*
X-300723Y957007D01*
X-300332Y956973D01*
X-299941Y956930D01*
X-299552Y956877D01*
X-299165Y956814D01*
X-298779Y956743D01*
X-298394Y956661D01*
X-298012Y956571D01*
X-297633Y956470D01*
X-297255Y956361D01*
X-296881Y956242D01*
X-296510Y956115D01*
X-296142Y955978D01*
X-295777Y955832D01*
X-295416Y955677D01*
X-295059Y955514D01*
X-294706Y955342D01*
X-294358Y955161D01*
X-294014Y954971D01*
X-293674Y954774D01*
X-293340Y954568D01*
X-293011Y954354D01*
X-292687Y954131D01*
X-292369Y953901D01*
X-292056Y953664D01*
X-291750Y953418D01*
X-291449Y953165D01*
X-291155Y952905D01*
X-290867Y952638D01*
X-290586Y952364D01*
X-290312Y952083D01*
X-290045Y951795D01*
X-289785Y951501D01*
X-289532Y951200D01*
X-289286Y950894D01*
X-289049Y950581D01*
X-288819Y950263D01*
X-288596Y949939D01*
X-288382Y949610D01*
X-288176Y949276D01*
X-287979Y948936D01*
X-287789Y948592D01*
X-287608Y948244D01*
X-287436Y947891D01*
X-287273Y947534D01*
X-287118Y947173D01*
X-286972Y946808D01*
X-286835Y946440D01*
X-286708Y946069D01*
X-286589Y945695D01*
X-286480Y945317D01*
X-286379Y944938D01*
X-286289Y944556D01*
X-286207Y944171D01*
X-286136Y943785D01*
X-286073Y943398D01*
X-286020Y943009D01*
X-285977Y942618D01*
X-285943Y942227D01*
X-285919Y941835D01*
X-285905Y941443D01*
X-285900Y941050D01*
X-285905Y940657D01*
X-285919Y940265D01*
X-285943Y939873D01*
X-285977Y939482D01*
X-286020Y939091D01*
X-286073Y938702D01*
X-286136Y938315D01*
X-286207Y937929D01*
X-286289Y937544D01*
X-286379Y937162D01*
X-286480Y936783D01*
X-286589Y936405D01*
X-286708Y936031D01*
X-286835Y935660D01*
X-286972Y935292D01*
X-287118Y934927D01*
X-287273Y934566D01*
X-287436Y934209D01*
X-287608Y933856D01*
X-287789Y933508D01*
X-287979Y933164D01*
X-288176Y932824D01*
X-288382Y932490D01*
X-288596Y932161D01*
X-288819Y931837D01*
X-289049Y931519D01*
X-289286Y931206D01*
X-289532Y930900D01*
X-289785Y930599D01*
X-290045Y930305D01*
X-290312Y930017D01*
X-290586Y929736D01*
X-290867Y929462D01*
X-291155Y929195D01*
X-291449Y928935D01*
X-291750Y928682D01*
X-292056Y928436D01*
X-292369Y928199D01*
X-292687Y927969D01*
X-293011Y927746D01*
X-293340Y927532D01*
X-293674Y927326D01*
X-294014Y927129D01*
X-294358Y926939D01*
X-294706Y926758D01*
X-295059Y926586D01*
X-295416Y926423D01*
X-295777Y926268D01*
X-296142Y926122D01*
X-296510Y925985D01*
X-296881Y925858D01*
X-297255Y925739D01*
X-297633Y925630D01*
X-298012Y925529D01*
X-298394Y925439D01*
X-298779Y925357D01*
X-299165Y925286D01*
X-299552Y925223D01*
X-299941Y925170D01*
X-300332Y925127D01*
X-300723Y925093D01*
X-301115Y925069D01*
X-301507Y925055D01*
X-301900Y925050D01*
X-302293Y925055D01*
X-302685Y925069D01*
X-303077Y925093D01*
X-303468Y925127D01*
X-303859Y925170D01*
X-304248Y925223D01*
X-304635Y925286D01*
X-305021Y925357D01*
X-305406Y925439D01*
X-305788Y925529D01*
X-306167Y925630D01*
X-306545Y925739D01*
X-306919Y925858D01*
X-307290Y925985D01*
X-307658Y926122D01*
X-308023Y926268D01*
X-308384Y926423D01*
X-308741Y926586D01*
X-309094Y926758D01*
X-309442Y926939D01*
X-309786Y927129D01*
X-310126Y927326D01*
X-310460Y927532D01*
X-310789Y927746D01*
X-311113Y927969D01*
X-311431Y928199D01*
X-311744Y928436D01*
X-312050Y928682D01*
X-312351Y928935D01*
X-312645Y929195D01*
X-312933Y929462D01*
X-313214Y929736D01*
X-313488Y930017D01*
X-313755Y930305D01*
X-314015Y930599D01*
X-314268Y930900D01*
X-314514Y931206D01*
X-314751Y931519D01*
X-314981Y931837D01*
X-315204Y932161D01*
X-315418Y932490D01*
X-315624Y932824D01*
X-315821Y933164D01*
X-316011Y933508D01*
X-316192Y933856D01*
X-316364Y934209D01*
X-316527Y934566D01*
X-316682Y934927D01*
X-316828Y935292D01*
X-316965Y935660D01*
X-317092Y936031D01*
X-317211Y936405D01*
X-317320Y936783D01*
X-317421Y937162D01*
X-317511Y937544D01*
X-317593Y937929D01*
X-317664Y938315D01*
X-317727Y938702D01*
X-317780Y939091D01*
X-317823Y939482D01*
X-317857Y939873D01*
X-317881Y940265D01*
X-317895Y940657D01*
X-317900Y941050D01*
D11*
X79900Y90500D02*
X79900Y3500D01*
X81900Y500D01*
X186900Y500D01*
X209900Y3500D02*
X209900Y78000D01*
X189900Y3500D02*
X186900Y500D01*
X209900Y3500D02*
X212900Y500D01*
X330000Y500D01*
X209900Y78000D02*
X209897Y78244D01*
X209888Y78487D01*
X209873Y78730D01*
X209853Y78973D01*
X209826Y79215D01*
X209793Y79456D01*
X209755Y79696D01*
X209711Y79936D01*
X209661Y80174D01*
X209605Y80411D01*
X209543Y80647D01*
X209476Y80881D01*
X209403Y81113D01*
X209324Y81344D01*
X209240Y81572D01*
X209150Y81799D01*
X209055Y82023D01*
X208954Y82245D01*
X208848Y82464D01*
X208737Y82680D01*
X208620Y82894D01*
X208499Y83105D01*
X208372Y83313D01*
X208240Y83518D01*
X208103Y83719D01*
X207961Y83917D01*
X207815Y84112D01*
X207664Y84303D01*
X207508Y84490D01*
X207348Y84673D01*
X207183Y84853D01*
X207014Y85028D01*
X206841Y85199D01*
X206663Y85366D01*
X206482Y85528D01*
X206297Y85686D01*
X206108Y85840D01*
X205915Y85989D01*
X205719Y86133D01*
X205519Y86272D01*
X205316Y86407D01*
X205109Y86536D01*
X204900Y86660D01*
X204688Y86779D01*
X204472Y86893D01*
X204255Y87002D01*
X204034Y87105D01*
X203811Y87203D01*
X203586Y87296D01*
X203358Y87383D01*
X203129Y87464D01*
X202897Y87540D01*
X202664Y87610D01*
X202429Y87675D01*
X202193Y87734D01*
X201955Y87787D01*
X201716Y87834D01*
X201476Y87875D01*
X201235Y87910D01*
X200994Y87940D01*
X200751Y87964D01*
X200508Y87981D01*
X200265Y87993D01*
X200022Y87999D01*
X199778Y87999D01*
X199535Y87993D01*
X199292Y87981D01*
X199049Y87964D01*
X198806Y87940D01*
X198565Y87910D01*
X198324Y87875D01*
X198084Y87834D01*
X197845Y87787D01*
X197607Y87734D01*
X197371Y87675D01*
X197136Y87610D01*
X196903Y87540D01*
X196671Y87464D01*
X196442Y87383D01*
X196214Y87296D01*
X195989Y87203D01*
X195766Y87105D01*
X195545Y87002D01*
X195328Y86893D01*
X195112Y86779D01*
X194900Y86660D01*
X194691Y86536D01*
X194484Y86407D01*
X194281Y86272D01*
X194081Y86133D01*
X193885Y85989D01*
X193692Y85840D01*
X193503Y85686D01*
X193318Y85528D01*
X193137Y85366D01*
X192959Y85199D01*
X192786Y85028D01*
X192617Y84853D01*
X192452Y84673D01*
X192292Y84490D01*
X192136Y84303D01*
X191985Y84112D01*
X191839Y83917D01*
X191697Y83719D01*
X191560Y83518D01*
X191428Y83313D01*
X191301Y83105D01*
X191180Y82894D01*
X191063Y82680D01*
X190952Y82464D01*
X190846Y82245D01*
X190745Y82023D01*
X190650Y81799D01*
X190560Y81572D01*
X190476Y81344D01*
X190397Y81113D01*
X190324Y80881D01*
X190257Y80647D01*
X190195Y80411D01*
X190139Y80174D01*
X190089Y79936D01*
X190045Y79696D01*
X190007Y79456D01*
X189974Y79215D01*
X189947Y78973D01*
X189927Y78730D01*
X189912Y78487D01*
X189903Y78244D01*
X189900Y78000D01*
X54900Y115500D02*
X54296Y115493D01*
X53692Y115471D01*
X53089Y115434D01*
X52487Y115383D01*
X51887Y115318D01*
X51288Y115238D01*
X50691Y115143D01*
X50097Y115034D01*
X49505Y114911D01*
X48917Y114774D01*
X48332Y114622D01*
X47751Y114456D01*
X47175Y114276D01*
X46602Y114083D01*
X46035Y113875D01*
X45473Y113654D01*
X44916Y113420D01*
X44365Y113172D01*
X43820Y112911D01*
X43282Y112636D01*
X42750Y112349D01*
X42226Y112049D01*
X41709Y111737D01*
X41200Y111412D01*
X40698Y111075D01*
X40205Y110725D01*
X39721Y110364D01*
X39245Y109992D01*
X38779Y109608D01*
X38322Y109213D01*
X37875Y108807D01*
X37437Y108390D01*
X37010Y107963D01*
X36593Y107525D01*
X36187Y107078D01*
X35792Y106621D01*
X35408Y106155D01*
X35036Y105679D01*
X34675Y105195D01*
X34325Y104702D01*
X33988Y104200D01*
X33663Y103691D01*
X33351Y103174D01*
X33051Y102650D01*
X32764Y102118D01*
X32489Y101580D01*
X32228Y101035D01*
X31980Y100484D01*
X31746Y99927D01*
X31525Y99365D01*
X31317Y98798D01*
X31124Y98225D01*
X30944Y97649D01*
X30778Y97068D01*
X30626Y96483D01*
X30489Y95895D01*
X30366Y95303D01*
X30257Y94709D01*
X30162Y94112D01*
X30082Y93513D01*
X30017Y92913D01*
X29966Y92311D01*
X29929Y91708D01*
X29907Y91104D01*
X29900Y90500D01*
X54900Y115500D02*
X55504Y115493D01*
X56108Y115471D01*
X56711Y115434D01*
X57313Y115383D01*
X57913Y115318D01*
X58512Y115238D01*
X59109Y115143D01*
X59703Y115034D01*
X60295Y114911D01*
X60883Y114774D01*
X61468Y114622D01*
X62049Y114456D01*
X62625Y114276D01*
X63198Y114083D01*
X63765Y113875D01*
X64327Y113654D01*
X64884Y113420D01*
X65435Y113172D01*
X65980Y112911D01*
X66518Y112636D01*
X67050Y112349D01*
X67574Y112049D01*
X68091Y111737D01*
X68600Y111412D01*
X69102Y111075D01*
X69595Y110725D01*
X70079Y110364D01*
X70555Y109992D01*
X71021Y109608D01*
X71478Y109213D01*
X71925Y108807D01*
X72363Y108390D01*
X72790Y107963D01*
X73207Y107525D01*
X73613Y107078D01*
X74008Y106621D01*
X74392Y106155D01*
X74764Y105679D01*
X75125Y105195D01*
X75475Y104702D01*
X75812Y104200D01*
X76137Y103691D01*
X76449Y103174D01*
X76749Y102650D01*
X77036Y102118D01*
X77311Y101580D01*
X77572Y101035D01*
X77820Y100484D01*
X78054Y99927D01*
X78275Y99365D01*
X78483Y98798D01*
X78676Y98225D01*
X78856Y97649D01*
X79022Y97068D01*
X79174Y96483D01*
X79311Y95895D01*
X79434Y95303D01*
X79543Y94709D01*
X79638Y94112D01*
X79718Y93513D01*
X79783Y92913D01*
X79834Y92311D01*
X79871Y91708D01*
X79893Y91104D01*
X79900Y90500D01*
X29900Y90500D02*
X29900Y47500D01*
X-389090Y47500D02*
X-389090Y1000030D01*
X330000Y1000030D01*
X189900Y78000D02*
X189900Y3500D01*
X-389090Y47498D02*
X-389090Y47500D01*
X29900Y47500D01*
D10*
X330000Y700000D02*
X550000Y700000D01*
X550000Y1000030D01*
X330000Y1000030D01*
X330000Y227050D02*
X550000Y227050D01*
X550000Y527050D01*
X330000Y527050D01*
X330000Y227050D02*
X330000Y500D01*
X330000Y527050D02*
X330000Y700000D01*
X335000Y297050D02*
X335000Y247050D01*
X330000Y247050D01*
X330000Y297050D02*
X335000Y297050D01*
X330000Y297050D02*
X330000Y247050D01*
X335000Y317050D02*
X335000Y367050D01*
X335000Y317050D02*
X330000Y317050D01*
X330000Y367050D02*
X335000Y367050D01*
X330000Y367050D02*
X330000Y317050D01*
X335000Y387050D02*
X335000Y437050D01*
X335000Y387050D02*
X330000Y387050D01*
X330000Y437050D02*
X335000Y437050D01*
X330000Y437050D02*
X330000Y387050D01*
X335000Y457050D02*
X335000Y507050D01*
X335000Y457050D02*
X330000Y457050D01*
X330000Y507050D02*
X335000Y507050D01*
X330000Y507050D02*
X330000Y457050D01*
X335000Y717050D02*
X335000Y767050D01*
X335000Y717050D02*
X330000Y717050D01*
X330000Y767050D02*
X335000Y767050D01*
X330000Y767050D02*
X330000Y717050D01*
X335000Y787050D02*
X335000Y837050D01*
X335000Y787050D02*
X330000Y787050D01*
X330000Y837050D02*
X335000Y837050D01*
X330000Y837050D02*
X330000Y787050D01*
X335000Y857050D02*
X335000Y907050D01*
X335000Y857050D02*
X330000Y857050D01*
X330000Y907050D02*
X335000Y907050D01*
X330000Y907050D02*
X330000Y857050D01*
X335000Y927050D02*
X335000Y977050D01*
X335000Y927050D02*
X330000Y927050D01*
X330000Y977050D02*
X335000Y977050D01*
X330000Y977050D02*
X330000Y927050D01*
D12*
X-57020Y603190D02*
X-57020Y590110D01*
X-31620Y590110D02*
X-31620Y603190D01*
X-6220Y603190D02*
X-6220Y590110D01*
X19180Y590110D02*
X19180Y603190D01*
X44580Y603190D02*
X44580Y590110D01*
X69980Y590110D02*
X69980Y603190D01*
X95380Y603190D02*
X95380Y590110D01*
X120780Y590110D02*
X120780Y603190D01*
X146180Y603190D02*
X146180Y590110D01*
X171580Y590110D02*
X171580Y603190D01*
X196980Y603190D02*
X196980Y590110D01*
X222380Y590110D02*
X222380Y603190D01*
X-57020Y742510D02*
X-57020Y755590D01*
X-31620Y755590D02*
X-31620Y742510D01*
X-6220Y742510D02*
X-6220Y755590D01*
X146180Y755590D02*
X146180Y742510D01*
X171580Y742510D02*
X171580Y755590D01*
X196980Y755590D02*
X196980Y742510D01*
X222380Y742510D02*
X222380Y755590D01*
X298580Y755590D02*
X298580Y742510D01*
X298580Y603190D02*
X298580Y590110D01*
X273180Y590110D02*
X273180Y603190D01*
X247780Y603190D02*
X247780Y590110D01*
X273180Y742510D02*
X273180Y755590D01*
X247780Y755590D02*
X247780Y742510D01*
X19180Y742510D02*
X19180Y755590D01*
D13*
X-44320Y698250D03*
X-44320Y672850D03*
X-44320Y647450D03*
D12*
X120780Y742510D02*
X120780Y755590D01*
X95380Y755590D02*
X95380Y742510D01*
X69980Y742510D02*
X69980Y755590D01*
X44580Y755590D02*
X44580Y742510D01*
D13*
X-69720Y698250D03*
X-69720Y672850D03*
X-69720Y647450D03*
D14*
X-298500Y758570D02*
X-313740Y758570D01*
X-316280Y733170D02*
X-301040Y733170D01*
X-298500Y707770D02*
X-313740Y707770D01*
X-316280Y682370D02*
X-301040Y682370D01*
X-298500Y656970D02*
X-313740Y656970D01*
X-316280Y631570D02*
X-301040Y631570D01*
X257510Y335650D02*
X272750Y335650D01*
X275290Y361050D02*
X260050Y361050D01*
X257510Y386450D02*
X272750Y386450D01*
X275290Y411850D02*
X260050Y411850D01*
X257510Y437250D02*
X272750Y437250D01*
X275290Y462650D02*
X260050Y462650D01*
D15*
X-228600Y963210D03*
D16*
X-203200Y960670D03*
X-177800Y963210D03*
X-152400Y960670D03*
D10*
X-184300Y983940D02*
X-184298Y984101D01*
X-184292Y984261D01*
X-184282Y984422D01*
X-184268Y984582D01*
X-184250Y984742D01*
X-184229Y984901D01*
X-184203Y985060D01*
X-184173Y985218D01*
X-184140Y985375D01*
X-184102Y985532D01*
X-184061Y985687D01*
X-184016Y985841D01*
X-183967Y985994D01*
X-183914Y986146D01*
X-183858Y986297D01*
X-183797Y986446D01*
X-183734Y986594D01*
X-183666Y986740D01*
X-183595Y986884D01*
X-183521Y987026D01*
X-183443Y987167D01*
X-183361Y987305D01*
X-183276Y987442D01*
X-183188Y987576D01*
X-183096Y987708D01*
X-183001Y987838D01*
X-182903Y987966D01*
X-182802Y988091D01*
X-182698Y988213D01*
X-182591Y988333D01*
X-182481Y988450D01*
X-182368Y988565D01*
X-182252Y988676D01*
X-182133Y988785D01*
X-182012Y988890D01*
X-181888Y988993D01*
X-181762Y989093D01*
X-181634Y989189D01*
X-181503Y989282D01*
X-181369Y989372D01*
X-181234Y989459D01*
X-181096Y989542D01*
X-180957Y989622D01*
X-180815Y989698D01*
X-180672Y989771D01*
X-180527Y989840D01*
X-180380Y989906D01*
X-180232Y989968D01*
X-180082Y990026D01*
X-179931Y990081D01*
X-179778Y990132D01*
X-179624Y990179D01*
X-179469Y990222D01*
X-179313Y990261D01*
X-179157Y990297D01*
X-178999Y990328D01*
X-178841Y990356D01*
X-178682Y990380D01*
X-178522Y990400D01*
X-178362Y990416D01*
X-178202Y990428D01*
X-178041Y990436D01*
X-177880Y990440D01*
X-177720Y990440D01*
X-177559Y990436D01*
X-177398Y990428D01*
X-177238Y990416D01*
X-177078Y990400D01*
X-176918Y990380D01*
X-176759Y990356D01*
X-176601Y990328D01*
X-176443Y990297D01*
X-176287Y990261D01*
X-176131Y990222D01*
X-175976Y990179D01*
X-175822Y990132D01*
X-175669Y990081D01*
X-175518Y990026D01*
X-175368Y989968D01*
X-175220Y989906D01*
X-175073Y989840D01*
X-174928Y989771D01*
X-174785Y989698D01*
X-174643Y989622D01*
X-174504Y989542D01*
X-174366Y989459D01*
X-174231Y989372D01*
X-174097Y989282D01*
X-173966Y989189D01*
X-173838Y989093D01*
X-173712Y988993D01*
X-173588Y988890D01*
X-173467Y988785D01*
X-173348Y988676D01*
X-173232Y988565D01*
X-173119Y988450D01*
X-173009Y988333D01*
X-172902Y988213D01*
X-172798Y988091D01*
X-172697Y987966D01*
X-172599Y987838D01*
X-172504Y987708D01*
X-172412Y987576D01*
X-172324Y987442D01*
X-172239Y987305D01*
X-172157Y987167D01*
X-172079Y987026D01*
X-172005Y986884D01*
X-171934Y986740D01*
X-171866Y986594D01*
X-171803Y986446D01*
X-171742Y986297D01*
X-171686Y986146D01*
X-171633Y985994D01*
X-171584Y985841D01*
X-171539Y985687D01*
X-171498Y985532D01*
X-171460Y985375D01*
X-171427Y985218D01*
X-171397Y985060D01*
X-171371Y984901D01*
X-171350Y984742D01*
X-171332Y984582D01*
X-171318Y984422D01*
X-171308Y984261D01*
X-171302Y984101D01*
X-171300Y983940D01*
X-171302Y983779D01*
X-171308Y983619D01*
X-171318Y983458D01*
X-171332Y983298D01*
X-171350Y983138D01*
X-171371Y982979D01*
X-171397Y982820D01*
X-171427Y982662D01*
X-171460Y982505D01*
X-171498Y982348D01*
X-171539Y982193D01*
X-171584Y982039D01*
X-171633Y981886D01*
X-171686Y981734D01*
X-171742Y981583D01*
X-171803Y981434D01*
X-171866Y981286D01*
X-171934Y981140D01*
X-172005Y980996D01*
X-172079Y980854D01*
X-172157Y980713D01*
X-172239Y980575D01*
X-172324Y980438D01*
X-172412Y980304D01*
X-172504Y980172D01*
X-172599Y980042D01*
X-172697Y979914D01*
X-172798Y979789D01*
X-172902Y979667D01*
X-173009Y979547D01*
X-173119Y979430D01*
X-173232Y979315D01*
X-173348Y979204D01*
X-173467Y979095D01*
X-173588Y978990D01*
X-173712Y978887D01*
X-173838Y978787D01*
X-173966Y978691D01*
X-174097Y978598D01*
X-174231Y978508D01*
X-174366Y978421D01*
X-174504Y978338D01*
X-174643Y978258D01*
X-174785Y978182D01*
X-174928Y978109D01*
X-175073Y978040D01*
X-175220Y977974D01*
X-175368Y977912D01*
X-175518Y977854D01*
X-175669Y977799D01*
X-175822Y977748D01*
X-175976Y977701D01*
X-176131Y977658D01*
X-176287Y977619D01*
X-176443Y977583D01*
X-176601Y977552D01*
X-176759Y977524D01*
X-176918Y977500D01*
X-177078Y977480D01*
X-177238Y977464D01*
X-177398Y977452D01*
X-177559Y977444D01*
X-177720Y977440D01*
X-177880Y977440D01*
X-178041Y977444D01*
X-178202Y977452D01*
X-178362Y977464D01*
X-178522Y977480D01*
X-178682Y977500D01*
X-178841Y977524D01*
X-178999Y977552D01*
X-179157Y977583D01*
X-179313Y977619D01*
X-179469Y977658D01*
X-179624Y977701D01*
X-179778Y977748D01*
X-179931Y977799D01*
X-180082Y977854D01*
X-180232Y977912D01*
X-180380Y977974D01*
X-180527Y978040D01*
X-180672Y978109D01*
X-180815Y978182D01*
X-180957Y978258D01*
X-181096Y978338D01*
X-181234Y978421D01*
X-181369Y978508D01*
X-181503Y978598D01*
X-181634Y978691D01*
X-181762Y978787D01*
X-181888Y978887D01*
X-182012Y978990D01*
X-182133Y979095D01*
X-182252Y979204D01*
X-182368Y979315D01*
X-182481Y979430D01*
X-182591Y979547D01*
X-182698Y979667D01*
X-182802Y979789D01*
X-182903Y979914D01*
X-183001Y980042D01*
X-183096Y980172D01*
X-183188Y980304D01*
X-183276Y980438D01*
X-183361Y980575D01*
X-183443Y980713D01*
X-183521Y980854D01*
X-183595Y980996D01*
X-183666Y981140D01*
X-183734Y981286D01*
X-183797Y981434D01*
X-183858Y981583D01*
X-183914Y981734D01*
X-183967Y981886D01*
X-184016Y982039D01*
X-184061Y982193D01*
X-184102Y982348D01*
X-184140Y982505D01*
X-184173Y982662D01*
X-184203Y982820D01*
X-184229Y982979D01*
X-184250Y983138D01*
X-184268Y983298D01*
X-184282Y983458D01*
X-184292Y983619D01*
X-184298Y983779D01*
X-184300Y983940D01*
X-184300Y939940D02*
X-184298Y940101D01*
X-184292Y940261D01*
X-184282Y940422D01*
X-184268Y940582D01*
X-184250Y940742D01*
X-184229Y940901D01*
X-184203Y941060D01*
X-184173Y941218D01*
X-184140Y941375D01*
X-184102Y941532D01*
X-184061Y941687D01*
X-184016Y941841D01*
X-183967Y941994D01*
X-183914Y942146D01*
X-183858Y942297D01*
X-183797Y942446D01*
X-183734Y942594D01*
X-183666Y942740D01*
X-183595Y942884D01*
X-183521Y943026D01*
X-183443Y943167D01*
X-183361Y943305D01*
X-183276Y943442D01*
X-183188Y943576D01*
X-183096Y943708D01*
X-183001Y943838D01*
X-182903Y943966D01*
X-182802Y944091D01*
X-182698Y944213D01*
X-182591Y944333D01*
X-182481Y944450D01*
X-182368Y944565D01*
X-182252Y944676D01*
X-182133Y944785D01*
X-182012Y944890D01*
X-181888Y944993D01*
X-181762Y945093D01*
X-181634Y945189D01*
X-181503Y945282D01*
X-181369Y945372D01*
X-181234Y945459D01*
X-181096Y945542D01*
X-180957Y945622D01*
X-180815Y945698D01*
X-180672Y945771D01*
X-180527Y945840D01*
X-180380Y945906D01*
X-180232Y945968D01*
X-180082Y946026D01*
X-179931Y946081D01*
X-179778Y946132D01*
X-179624Y946179D01*
X-179469Y946222D01*
X-179313Y946261D01*
X-179157Y946297D01*
X-178999Y946328D01*
X-178841Y946356D01*
X-178682Y946380D01*
X-178522Y946400D01*
X-178362Y946416D01*
X-178202Y946428D01*
X-178041Y946436D01*
X-177880Y946440D01*
X-177720Y946440D01*
X-177559Y946436D01*
X-177398Y946428D01*
X-177238Y946416D01*
X-177078Y946400D01*
X-176918Y946380D01*
X-176759Y946356D01*
X-176601Y946328D01*
X-176443Y946297D01*
X-176287Y946261D01*
X-176131Y946222D01*
X-175976Y946179D01*
X-175822Y946132D01*
X-175669Y946081D01*
X-175518Y946026D01*
X-175368Y945968D01*
X-175220Y945906D01*
X-175073Y945840D01*
X-174928Y945771D01*
X-174785Y945698D01*
X-174643Y945622D01*
X-174504Y945542D01*
X-174366Y945459D01*
X-174231Y945372D01*
X-174097Y945282D01*
X-173966Y945189D01*
X-173838Y945093D01*
X-173712Y944993D01*
X-173588Y944890D01*
X-173467Y944785D01*
X-173348Y944676D01*
X-173232Y944565D01*
X-173119Y944450D01*
X-173009Y944333D01*
X-172902Y944213D01*
X-172798Y944091D01*
X-172697Y943966D01*
X-172599Y943838D01*
X-172504Y943708D01*
X-172412Y943576D01*
X-172324Y943442D01*
X-172239Y943305D01*
X-172157Y943167D01*
X-172079Y943026D01*
X-172005Y942884D01*
X-171934Y942740D01*
X-171866Y942594D01*
X-171803Y942446D01*
X-171742Y942297D01*
X-171686Y942146D01*
X-171633Y941994D01*
X-171584Y941841D01*
X-171539Y941687D01*
X-171498Y941532D01*
X-171460Y941375D01*
X-171427Y941218D01*
X-171397Y941060D01*
X-171371Y940901D01*
X-171350Y940742D01*
X-171332Y940582D01*
X-171318Y940422D01*
X-171308Y940261D01*
X-171302Y940101D01*
X-171300Y939940D01*
X-171302Y939779D01*
X-171308Y939619D01*
X-171318Y939458D01*
X-171332Y939298D01*
X-171350Y939138D01*
X-171371Y938979D01*
X-171397Y938820D01*
X-171427Y938662D01*
X-171460Y938505D01*
X-171498Y938348D01*
X-171539Y938193D01*
X-171584Y938039D01*
X-171633Y937886D01*
X-171686Y937734D01*
X-171742Y937583D01*
X-171803Y937434D01*
X-171866Y937286D01*
X-171934Y937140D01*
X-172005Y936996D01*
X-172079Y936854D01*
X-172157Y936713D01*
X-172239Y936575D01*
X-172324Y936438D01*
X-172412Y936304D01*
X-172504Y936172D01*
X-172599Y936042D01*
X-172697Y935914D01*
X-172798Y935789D01*
X-172902Y935667D01*
X-173009Y935547D01*
X-173119Y935430D01*
X-173232Y935315D01*
X-173348Y935204D01*
X-173467Y935095D01*
X-173588Y934990D01*
X-173712Y934887D01*
X-173838Y934787D01*
X-173966Y934691D01*
X-174097Y934598D01*
X-174231Y934508D01*
X-174366Y934421D01*
X-174504Y934338D01*
X-174643Y934258D01*
X-174785Y934182D01*
X-174928Y934109D01*
X-175073Y934040D01*
X-175220Y933974D01*
X-175368Y933912D01*
X-175518Y933854D01*
X-175669Y933799D01*
X-175822Y933748D01*
X-175976Y933701D01*
X-176131Y933658D01*
X-176287Y933619D01*
X-176443Y933583D01*
X-176601Y933552D01*
X-176759Y933524D01*
X-176918Y933500D01*
X-177078Y933480D01*
X-177238Y933464D01*
X-177398Y933452D01*
X-177559Y933444D01*
X-177720Y933440D01*
X-177880Y933440D01*
X-178041Y933444D01*
X-178202Y933452D01*
X-178362Y933464D01*
X-178522Y933480D01*
X-178682Y933500D01*
X-178841Y933524D01*
X-178999Y933552D01*
X-179157Y933583D01*
X-179313Y933619D01*
X-179469Y933658D01*
X-179624Y933701D01*
X-179778Y933748D01*
X-179931Y933799D01*
X-180082Y933854D01*
X-180232Y933912D01*
X-180380Y933974D01*
X-180527Y934040D01*
X-180672Y934109D01*
X-180815Y934182D01*
X-180957Y934258D01*
X-181096Y934338D01*
X-181234Y934421D01*
X-181369Y934508D01*
X-181503Y934598D01*
X-181634Y934691D01*
X-181762Y934787D01*
X-181888Y934887D01*
X-182012Y934990D01*
X-182133Y935095D01*
X-182252Y935204D01*
X-182368Y935315D01*
X-182481Y935430D01*
X-182591Y935547D01*
X-182698Y935667D01*
X-182802Y935789D01*
X-182903Y935914D01*
X-183001Y936042D01*
X-183096Y936172D01*
X-183188Y936304D01*
X-183276Y936438D01*
X-183361Y936575D01*
X-183443Y936713D01*
X-183521Y936854D01*
X-183595Y936996D01*
X-183666Y937140D01*
X-183734Y937286D01*
X-183797Y937434D01*
X-183858Y937583D01*
X-183914Y937734D01*
X-183967Y937886D01*
X-184016Y938039D01*
X-184061Y938193D01*
X-184102Y938348D01*
X-184140Y938505D01*
X-184173Y938662D01*
X-184203Y938820D01*
X-184229Y938979D01*
X-184250Y939138D01*
X-184268Y939298D01*
X-184282Y939458D01*
X-184292Y939619D01*
X-184298Y939779D01*
X-184300Y939940D01*
D15*
X-78740Y964480D03*
D16*
X-53340Y961940D03*
X-27940Y964480D03*
X-2540Y961940D03*
D10*
X-34440Y985210D02*
X-34438Y985371D01*
X-34432Y985531D01*
X-34422Y985692D01*
X-34408Y985852D01*
X-34390Y986012D01*
X-34369Y986171D01*
X-34343Y986330D01*
X-34313Y986488D01*
X-34280Y986645D01*
X-34242Y986802D01*
X-34201Y986957D01*
X-34156Y987111D01*
X-34107Y987264D01*
X-34054Y987416D01*
X-33998Y987567D01*
X-33937Y987716D01*
X-33874Y987864D01*
X-33806Y988010D01*
X-33735Y988154D01*
X-33661Y988296D01*
X-33583Y988437D01*
X-33501Y988575D01*
X-33416Y988712D01*
X-33328Y988846D01*
X-33236Y988978D01*
X-33141Y989108D01*
X-33043Y989236D01*
X-32942Y989361D01*
X-32838Y989483D01*
X-32731Y989603D01*
X-32621Y989720D01*
X-32508Y989835D01*
X-32392Y989946D01*
X-32273Y990055D01*
X-32152Y990160D01*
X-32028Y990263D01*
X-31902Y990363D01*
X-31774Y990459D01*
X-31643Y990552D01*
X-31509Y990642D01*
X-31374Y990729D01*
X-31236Y990812D01*
X-31097Y990892D01*
X-30955Y990968D01*
X-30812Y991041D01*
X-30667Y991110D01*
X-30520Y991176D01*
X-30372Y991238D01*
X-30222Y991296D01*
X-30071Y991351D01*
X-29918Y991402D01*
X-29764Y991449D01*
X-29609Y991492D01*
X-29453Y991531D01*
X-29297Y991567D01*
X-29139Y991598D01*
X-28981Y991626D01*
X-28822Y991650D01*
X-28662Y991670D01*
X-28502Y991686D01*
X-28342Y991698D01*
X-28181Y991706D01*
X-28020Y991710D01*
X-27860Y991710D01*
X-27699Y991706D01*
X-27538Y991698D01*
X-27378Y991686D01*
X-27218Y991670D01*
X-27058Y991650D01*
X-26899Y991626D01*
X-26741Y991598D01*
X-26583Y991567D01*
X-26427Y991531D01*
X-26271Y991492D01*
X-26116Y991449D01*
X-25962Y991402D01*
X-25809Y991351D01*
X-25658Y991296D01*
X-25508Y991238D01*
X-25360Y991176D01*
X-25213Y991110D01*
X-25068Y991041D01*
X-24925Y990968D01*
X-24783Y990892D01*
X-24644Y990812D01*
X-24506Y990729D01*
X-24371Y990642D01*
X-24237Y990552D01*
X-24106Y990459D01*
X-23978Y990363D01*
X-23852Y990263D01*
X-23728Y990160D01*
X-23607Y990055D01*
X-23488Y989946D01*
X-23372Y989835D01*
X-23259Y989720D01*
X-23149Y989603D01*
X-23042Y989483D01*
X-22938Y989361D01*
X-22837Y989236D01*
X-22739Y989108D01*
X-22644Y988978D01*
X-22552Y988846D01*
X-22464Y988712D01*
X-22379Y988575D01*
X-22297Y988437D01*
X-22219Y988296D01*
X-22145Y988154D01*
X-22074Y988010D01*
X-22006Y987864D01*
X-21943Y987716D01*
X-21882Y987567D01*
X-21826Y987416D01*
X-21773Y987264D01*
X-21724Y987111D01*
X-21679Y986957D01*
X-21638Y986802D01*
X-21600Y986645D01*
X-21567Y986488D01*
X-21537Y986330D01*
X-21511Y986171D01*
X-21490Y986012D01*
X-21472Y985852D01*
X-21458Y985692D01*
X-21448Y985531D01*
X-21442Y985371D01*
X-21440Y985210D01*
X-21442Y985049D01*
X-21448Y984889D01*
X-21458Y984728D01*
X-21472Y984568D01*
X-21490Y984408D01*
X-21511Y984249D01*
X-21537Y984090D01*
X-21567Y983932D01*
X-21600Y983775D01*
X-21638Y983618D01*
X-21679Y983463D01*
X-21724Y983309D01*
X-21773Y983156D01*
X-21826Y983004D01*
X-21882Y982853D01*
X-21943Y982704D01*
X-22006Y982556D01*
X-22074Y982410D01*
X-22145Y982266D01*
X-22219Y982124D01*
X-22297Y981983D01*
X-22379Y981845D01*
X-22464Y981708D01*
X-22552Y981574D01*
X-22644Y981442D01*
X-22739Y981312D01*
X-22837Y981184D01*
X-22938Y981059D01*
X-23042Y980937D01*
X-23149Y980817D01*
X-23259Y980700D01*
X-23372Y980585D01*
X-23488Y980474D01*
X-23607Y980365D01*
X-23728Y980260D01*
X-23852Y980157D01*
X-23978Y980057D01*
X-24106Y979961D01*
X-24237Y979868D01*
X-24371Y979778D01*
X-24506Y979691D01*
X-24644Y979608D01*
X-24783Y979528D01*
X-24925Y979452D01*
X-25068Y979379D01*
X-25213Y979310D01*
X-25360Y979244D01*
X-25508Y979182D01*
X-25658Y979124D01*
X-25809Y979069D01*
X-25962Y979018D01*
X-26116Y978971D01*
X-26271Y978928D01*
X-26427Y978889D01*
X-26583Y978853D01*
X-26741Y978822D01*
X-26899Y978794D01*
X-27058Y978770D01*
X-27218Y978750D01*
X-27378Y978734D01*
X-27538Y978722D01*
X-27699Y978714D01*
X-27860Y978710D01*
X-28020Y978710D01*
X-28181Y978714D01*
X-28342Y978722D01*
X-28502Y978734D01*
X-28662Y978750D01*
X-28822Y978770D01*
X-28981Y978794D01*
X-29139Y978822D01*
X-29297Y978853D01*
X-29453Y978889D01*
X-29609Y978928D01*
X-29764Y978971D01*
X-29918Y979018D01*
X-30071Y979069D01*
X-30222Y979124D01*
X-30372Y979182D01*
X-30520Y979244D01*
X-30667Y979310D01*
X-30812Y979379D01*
X-30955Y979452D01*
X-31097Y979528D01*
X-31236Y979608D01*
X-31374Y979691D01*
X-31509Y979778D01*
X-31643Y979868D01*
X-31774Y979961D01*
X-31902Y980057D01*
X-32028Y980157D01*
X-32152Y980260D01*
X-32273Y980365D01*
X-32392Y980474D01*
X-32508Y980585D01*
X-32621Y980700D01*
X-32731Y980817D01*
X-32838Y980937D01*
X-32942Y981059D01*
X-33043Y981184D01*
X-33141Y981312D01*
X-33236Y981442D01*
X-33328Y981574D01*
X-33416Y981708D01*
X-33501Y981845D01*
X-33583Y981983D01*
X-33661Y982124D01*
X-33735Y982266D01*
X-33806Y982410D01*
X-33874Y982556D01*
X-33937Y982704D01*
X-33998Y982853D01*
X-34054Y983004D01*
X-34107Y983156D01*
X-34156Y983309D01*
X-34201Y983463D01*
X-34242Y983618D01*
X-34280Y983775D01*
X-34313Y983932D01*
X-34343Y984090D01*
X-34369Y984249D01*
X-34390Y984408D01*
X-34408Y984568D01*
X-34422Y984728D01*
X-34432Y984889D01*
X-34438Y985049D01*
X-34440Y985210D01*
X-34440Y941210D02*
X-34438Y941371D01*
X-34432Y941531D01*
X-34422Y941692D01*
X-34408Y941852D01*
X-34390Y942012D01*
X-34369Y942171D01*
X-34343Y942330D01*
X-34313Y942488D01*
X-34280Y942645D01*
X-34242Y942802D01*
X-34201Y942957D01*
X-34156Y943111D01*
X-34107Y943264D01*
X-34054Y943416D01*
X-33998Y943567D01*
X-33937Y943716D01*
X-33874Y943864D01*
X-33806Y944010D01*
X-33735Y944154D01*
X-33661Y944296D01*
X-33583Y944437D01*
X-33501Y944575D01*
X-33416Y944712D01*
X-33328Y944846D01*
X-33236Y944978D01*
X-33141Y945108D01*
X-33043Y945236D01*
X-32942Y945361D01*
X-32838Y945483D01*
X-32731Y945603D01*
X-32621Y945720D01*
X-32508Y945835D01*
X-32392Y945946D01*
X-32273Y946055D01*
X-32152Y946160D01*
X-32028Y946263D01*
X-31902Y946363D01*
X-31774Y946459D01*
X-31643Y946552D01*
X-31509Y946642D01*
X-31374Y946729D01*
X-31236Y946812D01*
X-31097Y946892D01*
X-30955Y946968D01*
X-30812Y947041D01*
X-30667Y947110D01*
X-30520Y947176D01*
X-30372Y947238D01*
X-30222Y947296D01*
X-30071Y947351D01*
X-29918Y947402D01*
X-29764Y947449D01*
X-29609Y947492D01*
X-29453Y947531D01*
X-29297Y947567D01*
X-29139Y947598D01*
X-28981Y947626D01*
X-28822Y947650D01*
X-28662Y947670D01*
X-28502Y947686D01*
X-28342Y947698D01*
X-28181Y947706D01*
X-28020Y947710D01*
X-27860Y947710D01*
X-27699Y947706D01*
X-27538Y947698D01*
X-27378Y947686D01*
X-27218Y947670D01*
X-27058Y947650D01*
X-26899Y947626D01*
X-26741Y947598D01*
X-26583Y947567D01*
X-26427Y947531D01*
X-26271Y947492D01*
X-26116Y947449D01*
X-25962Y947402D01*
X-25809Y947351D01*
X-25658Y947296D01*
X-25508Y947238D01*
X-25360Y947176D01*
X-25213Y947110D01*
X-25068Y947041D01*
X-24925Y946968D01*
X-24783Y946892D01*
X-24644Y946812D01*
X-24506Y946729D01*
X-24371Y946642D01*
X-24237Y946552D01*
X-24106Y946459D01*
X-23978Y946363D01*
X-23852Y946263D01*
X-23728Y946160D01*
X-23607Y946055D01*
X-23488Y945946D01*
X-23372Y945835D01*
X-23259Y945720D01*
X-23149Y945603D01*
X-23042Y945483D01*
X-22938Y945361D01*
X-22837Y945236D01*
X-22739Y945108D01*
X-22644Y944978D01*
X-22552Y944846D01*
X-22464Y944712D01*
X-22379Y944575D01*
X-22297Y944437D01*
X-22219Y944296D01*
X-22145Y944154D01*
X-22074Y944010D01*
X-22006Y943864D01*
X-21943Y943716D01*
X-21882Y943567D01*
X-21826Y943416D01*
X-21773Y943264D01*
X-21724Y943111D01*
X-21679Y942957D01*
X-21638Y942802D01*
X-21600Y942645D01*
X-21567Y942488D01*
X-21537Y942330D01*
X-21511Y942171D01*
X-21490Y942012D01*
X-21472Y941852D01*
X-21458Y941692D01*
X-21448Y941531D01*
X-21442Y941371D01*
X-21440Y941210D01*
X-21442Y941049D01*
X-21448Y940889D01*
X-21458Y940728D01*
X-21472Y940568D01*
X-21490Y940408D01*
X-21511Y940249D01*
X-21537Y940090D01*
X-21567Y939932D01*
X-21600Y939775D01*
X-21638Y939618D01*
X-21679Y939463D01*
X-21724Y939309D01*
X-21773Y939156D01*
X-21826Y939004D01*
X-21882Y938853D01*
X-21943Y938704D01*
X-22006Y938556D01*
X-22074Y938410D01*
X-22145Y938266D01*
X-22219Y938124D01*
X-22297Y937983D01*
X-22379Y937845D01*
X-22464Y937708D01*
X-22552Y937574D01*
X-22644Y937442D01*
X-22739Y937312D01*
X-22837Y937184D01*
X-22938Y937059D01*
X-23042Y936937D01*
X-23149Y936817D01*
X-23259Y936700D01*
X-23372Y936585D01*
X-23488Y936474D01*
X-23607Y936365D01*
X-23728Y936260D01*
X-23852Y936157D01*
X-23978Y936057D01*
X-24106Y935961D01*
X-24237Y935868D01*
X-24371Y935778D01*
X-24506Y935691D01*
X-24644Y935608D01*
X-24783Y935528D01*
X-24925Y935452D01*
X-25068Y935379D01*
X-25213Y935310D01*
X-25360Y935244D01*
X-25508Y935182D01*
X-25658Y935124D01*
X-25809Y935069D01*
X-25962Y935018D01*
X-26116Y934971D01*
X-26271Y934928D01*
X-26427Y934889D01*
X-26583Y934853D01*
X-26741Y934822D01*
X-26899Y934794D01*
X-27058Y934770D01*
X-27218Y934750D01*
X-27378Y934734D01*
X-27538Y934722D01*
X-27699Y934714D01*
X-27860Y934710D01*
X-28020Y934710D01*
X-28181Y934714D01*
X-28342Y934722D01*
X-28502Y934734D01*
X-28662Y934750D01*
X-28822Y934770D01*
X-28981Y934794D01*
X-29139Y934822D01*
X-29297Y934853D01*
X-29453Y934889D01*
X-29609Y934928D01*
X-29764Y934971D01*
X-29918Y935018D01*
X-30071Y935069D01*
X-30222Y935124D01*
X-30372Y935182D01*
X-30520Y935244D01*
X-30667Y935310D01*
X-30812Y935379D01*
X-30955Y935452D01*
X-31097Y935528D01*
X-31236Y935608D01*
X-31374Y935691D01*
X-31509Y935778D01*
X-31643Y935868D01*
X-31774Y935961D01*
X-31902Y936057D01*
X-32028Y936157D01*
X-32152Y936260D01*
X-32273Y936365D01*
X-32392Y936474D01*
X-32508Y936585D01*
X-32621Y936700D01*
X-32731Y936817D01*
X-32838Y936937D01*
X-32942Y937059D01*
X-33043Y937184D01*
X-33141Y937312D01*
X-33236Y937442D01*
X-33328Y937574D01*
X-33416Y937708D01*
X-33501Y937845D01*
X-33583Y937983D01*
X-33661Y938124D01*
X-33735Y938266D01*
X-33806Y938410D01*
X-33874Y938556D01*
X-33937Y938704D01*
X-33998Y938853D01*
X-34054Y939004D01*
X-34107Y939156D01*
X-34156Y939309D01*
X-34201Y939463D01*
X-34242Y939618D01*
X-34280Y939775D01*
X-34313Y939932D01*
X-34343Y940090D01*
X-34369Y940249D01*
X-34390Y940408D01*
X-34408Y940568D01*
X-34422Y940728D01*
X-34432Y940889D01*
X-34438Y941049D01*
X-34440Y941210D01*
D15*
X69850Y965750D03*
D16*
X95250Y963210D03*
X120650Y965750D03*
X146050Y963210D03*
D10*
X114150Y986480D02*
X114152Y986641D01*
X114158Y986801D01*
X114168Y986962D01*
X114182Y987122D01*
X114200Y987282D01*
X114221Y987441D01*
X114247Y987600D01*
X114277Y987758D01*
X114310Y987915D01*
X114348Y988072D01*
X114389Y988227D01*
X114434Y988381D01*
X114483Y988534D01*
X114536Y988686D01*
X114592Y988837D01*
X114653Y988986D01*
X114716Y989134D01*
X114784Y989280D01*
X114855Y989424D01*
X114929Y989566D01*
X115007Y989707D01*
X115089Y989845D01*
X115174Y989982D01*
X115262Y990116D01*
X115354Y990248D01*
X115449Y990378D01*
X115547Y990506D01*
X115648Y990631D01*
X115752Y990753D01*
X115859Y990873D01*
X115969Y990990D01*
X116082Y991105D01*
X116198Y991216D01*
X116317Y991325D01*
X116438Y991430D01*
X116562Y991533D01*
X116688Y991633D01*
X116816Y991729D01*
X116947Y991822D01*
X117081Y991912D01*
X117216Y991999D01*
X117354Y992082D01*
X117493Y992162D01*
X117635Y992238D01*
X117778Y992311D01*
X117923Y992380D01*
X118070Y992446D01*
X118218Y992508D01*
X118368Y992566D01*
X118519Y992621D01*
X118672Y992672D01*
X118826Y992719D01*
X118981Y992762D01*
X119137Y992801D01*
X119293Y992837D01*
X119451Y992868D01*
X119609Y992896D01*
X119768Y992920D01*
X119928Y992940D01*
X120088Y992956D01*
X120248Y992968D01*
X120409Y992976D01*
X120570Y992980D01*
X120730Y992980D01*
X120891Y992976D01*
X121052Y992968D01*
X121212Y992956D01*
X121372Y992940D01*
X121532Y992920D01*
X121691Y992896D01*
X121849Y992868D01*
X122007Y992837D01*
X122163Y992801D01*
X122319Y992762D01*
X122474Y992719D01*
X122628Y992672D01*
X122781Y992621D01*
X122932Y992566D01*
X123082Y992508D01*
X123230Y992446D01*
X123377Y992380D01*
X123522Y992311D01*
X123665Y992238D01*
X123807Y992162D01*
X123946Y992082D01*
X124084Y991999D01*
X124219Y991912D01*
X124353Y991822D01*
X124484Y991729D01*
X124612Y991633D01*
X124738Y991533D01*
X124862Y991430D01*
X124983Y991325D01*
X125102Y991216D01*
X125218Y991105D01*
X125331Y990990D01*
X125441Y990873D01*
X125548Y990753D01*
X125652Y990631D01*
X125753Y990506D01*
X125851Y990378D01*
X125946Y990248D01*
X126038Y990116D01*
X126126Y989982D01*
X126211Y989845D01*
X126293Y989707D01*
X126371Y989566D01*
X126445Y989424D01*
X126516Y989280D01*
X126584Y989134D01*
X126647Y988986D01*
X126708Y988837D01*
X126764Y988686D01*
X126817Y988534D01*
X126866Y988381D01*
X126911Y988227D01*
X126952Y988072D01*
X126990Y987915D01*
X127023Y987758D01*
X127053Y987600D01*
X127079Y987441D01*
X127100Y987282D01*
X127118Y987122D01*
X127132Y986962D01*
X127142Y986801D01*
X127148Y986641D01*
X127150Y986480D01*
X127148Y986319D01*
X127142Y986159D01*
X127132Y985998D01*
X127118Y985838D01*
X127100Y985678D01*
X127079Y985519D01*
X127053Y985360D01*
X127023Y985202D01*
X126990Y985045D01*
X126952Y984888D01*
X126911Y984733D01*
X126866Y984579D01*
X126817Y984426D01*
X126764Y984274D01*
X126708Y984123D01*
X126647Y983974D01*
X126584Y983826D01*
X126516Y983680D01*
X126445Y983536D01*
X126371Y983394D01*
X126293Y983253D01*
X126211Y983115D01*
X126126Y982978D01*
X126038Y982844D01*
X125946Y982712D01*
X125851Y982582D01*
X125753Y982454D01*
X125652Y982329D01*
X125548Y982207D01*
X125441Y982087D01*
X125331Y981970D01*
X125218Y981855D01*
X125102Y981744D01*
X124983Y981635D01*
X124862Y981530D01*
X124738Y981427D01*
X124612Y981327D01*
X124484Y981231D01*
X124353Y981138D01*
X124219Y981048D01*
X124084Y980961D01*
X123946Y980878D01*
X123807Y980798D01*
X123665Y980722D01*
X123522Y980649D01*
X123377Y980580D01*
X123230Y980514D01*
X123082Y980452D01*
X122932Y980394D01*
X122781Y980339D01*
X122628Y980288D01*
X122474Y980241D01*
X122319Y980198D01*
X122163Y980159D01*
X122007Y980123D01*
X121849Y980092D01*
X121691Y980064D01*
X121532Y980040D01*
X121372Y980020D01*
X121212Y980004D01*
X121052Y979992D01*
X120891Y979984D01*
X120730Y979980D01*
X120570Y979980D01*
X120409Y979984D01*
X120248Y979992D01*
X120088Y980004D01*
X119928Y980020D01*
X119768Y980040D01*
X119609Y980064D01*
X119451Y980092D01*
X119293Y980123D01*
X119137Y980159D01*
X118981Y980198D01*
X118826Y980241D01*
X118672Y980288D01*
X118519Y980339D01*
X118368Y980394D01*
X118218Y980452D01*
X118070Y980514D01*
X117923Y980580D01*
X117778Y980649D01*
X117635Y980722D01*
X117493Y980798D01*
X117354Y980878D01*
X117216Y980961D01*
X117081Y981048D01*
X116947Y981138D01*
X116816Y981231D01*
X116688Y981327D01*
X116562Y981427D01*
X116438Y981530D01*
X116317Y981635D01*
X116198Y981744D01*
X116082Y981855D01*
X115969Y981970D01*
X115859Y982087D01*
X115752Y982207D01*
X115648Y982329D01*
X115547Y982454D01*
X115449Y982582D01*
X115354Y982712D01*
X115262Y982844D01*
X115174Y982978D01*
X115089Y983115D01*
X115007Y983253D01*
X114929Y983394D01*
X114855Y983536D01*
X114784Y983680D01*
X114716Y983826D01*
X114653Y983974D01*
X114592Y984123D01*
X114536Y984274D01*
X114483Y984426D01*
X114434Y984579D01*
X114389Y984733D01*
X114348Y984888D01*
X114310Y985045D01*
X114277Y985202D01*
X114247Y985360D01*
X114221Y985519D01*
X114200Y985678D01*
X114182Y985838D01*
X114168Y985998D01*
X114158Y986159D01*
X114152Y986319D01*
X114150Y986480D01*
X114150Y942480D02*
X114152Y942641D01*
X114158Y942801D01*
X114168Y942962D01*
X114182Y943122D01*
X114200Y943282D01*
X114221Y943441D01*
X114247Y943600D01*
X114277Y943758D01*
X114310Y943915D01*
X114348Y944072D01*
X114389Y944227D01*
X114434Y944381D01*
X114483Y944534D01*
X114536Y944686D01*
X114592Y944837D01*
X114653Y944986D01*
X114716Y945134D01*
X114784Y945280D01*
X114855Y945424D01*
X114929Y945566D01*
X115007Y945707D01*
X115089Y945845D01*
X115174Y945982D01*
X115262Y946116D01*
X115354Y946248D01*
X115449Y946378D01*
X115547Y946506D01*
X115648Y946631D01*
X115752Y946753D01*
X115859Y946873D01*
X115969Y946990D01*
X116082Y947105D01*
X116198Y947216D01*
X116317Y947325D01*
X116438Y947430D01*
X116562Y947533D01*
X116688Y947633D01*
X116816Y947729D01*
X116947Y947822D01*
X117081Y947912D01*
X117216Y947999D01*
X117354Y948082D01*
X117493Y948162D01*
X117635Y948238D01*
X117778Y948311D01*
X117923Y948380D01*
X118070Y948446D01*
X118218Y948508D01*
X118368Y948566D01*
X118519Y948621D01*
X118672Y948672D01*
X118826Y948719D01*
X118981Y948762D01*
X119137Y948801D01*
X119293Y948837D01*
X119451Y948868D01*
X119609Y948896D01*
X119768Y948920D01*
X119928Y948940D01*
X120088Y948956D01*
X120248Y948968D01*
X120409Y948976D01*
X120570Y948980D01*
X120730Y948980D01*
X120891Y948976D01*
X121052Y948968D01*
X121212Y948956D01*
X121372Y948940D01*
X121532Y948920D01*
X121691Y948896D01*
X121849Y948868D01*
X122007Y948837D01*
X122163Y948801D01*
X122319Y948762D01*
X122474Y948719D01*
X122628Y948672D01*
X122781Y948621D01*
X122932Y948566D01*
X123082Y948508D01*
X123230Y948446D01*
X123377Y948380D01*
X123522Y948311D01*
X123665Y948238D01*
X123807Y948162D01*
X123946Y948082D01*
X124084Y947999D01*
X124219Y947912D01*
X124353Y947822D01*
X124484Y947729D01*
X124612Y947633D01*
X124738Y947533D01*
X124862Y947430D01*
X124983Y947325D01*
X125102Y947216D01*
X125218Y947105D01*
X125331Y946990D01*
X125441Y946873D01*
X125548Y946753D01*
X125652Y946631D01*
X125753Y946506D01*
X125851Y946378D01*
X125946Y946248D01*
X126038Y946116D01*
X126126Y945982D01*
X126211Y945845D01*
X126293Y945707D01*
X126371Y945566D01*
X126445Y945424D01*
X126516Y945280D01*
X126584Y945134D01*
X126647Y944986D01*
X126708Y944837D01*
X126764Y944686D01*
X126817Y944534D01*
X126866Y944381D01*
X126911Y944227D01*
X126952Y944072D01*
X126990Y943915D01*
X127023Y943758D01*
X127053Y943600D01*
X127079Y943441D01*
X127100Y943282D01*
X127118Y943122D01*
X127132Y942962D01*
X127142Y942801D01*
X127148Y942641D01*
X127150Y942480D01*
X127148Y942319D01*
X127142Y942159D01*
X127132Y941998D01*
X127118Y941838D01*
X127100Y941678D01*
X127079Y941519D01*
X127053Y941360D01*
X127023Y941202D01*
X126990Y941045D01*
X126952Y940888D01*
X126911Y940733D01*
X126866Y940579D01*
X126817Y940426D01*
X126764Y940274D01*
X126708Y940123D01*
X126647Y939974D01*
X126584Y939826D01*
X126516Y939680D01*
X126445Y939536D01*
X126371Y939394D01*
X126293Y939253D01*
X126211Y939115D01*
X126126Y938978D01*
X126038Y938844D01*
X125946Y938712D01*
X125851Y938582D01*
X125753Y938454D01*
X125652Y938329D01*
X125548Y938207D01*
X125441Y938087D01*
X125331Y937970D01*
X125218Y937855D01*
X125102Y937744D01*
X124983Y937635D01*
X124862Y937530D01*
X124738Y937427D01*
X124612Y937327D01*
X124484Y937231D01*
X124353Y937138D01*
X124219Y937048D01*
X124084Y936961D01*
X123946Y936878D01*
X123807Y936798D01*
X123665Y936722D01*
X123522Y936649D01*
X123377Y936580D01*
X123230Y936514D01*
X123082Y936452D01*
X122932Y936394D01*
X122781Y936339D01*
X122628Y936288D01*
X122474Y936241D01*
X122319Y936198D01*
X122163Y936159D01*
X122007Y936123D01*
X121849Y936092D01*
X121691Y936064D01*
X121532Y936040D01*
X121372Y936020D01*
X121212Y936004D01*
X121052Y935992D01*
X120891Y935984D01*
X120730Y935980D01*
X120570Y935980D01*
X120409Y935984D01*
X120248Y935992D01*
X120088Y936004D01*
X119928Y936020D01*
X119768Y936040D01*
X119609Y936064D01*
X119451Y936092D01*
X119293Y936123D01*
X119137Y936159D01*
X118981Y936198D01*
X118826Y936241D01*
X118672Y936288D01*
X118519Y936339D01*
X118368Y936394D01*
X118218Y936452D01*
X118070Y936514D01*
X117923Y936580D01*
X117778Y936649D01*
X117635Y936722D01*
X117493Y936798D01*
X117354Y936878D01*
X117216Y936961D01*
X117081Y937048D01*
X116947Y937138D01*
X116816Y937231D01*
X116688Y937327D01*
X116562Y937427D01*
X116438Y937530D01*
X116317Y937635D01*
X116198Y937744D01*
X116082Y937855D01*
X115969Y937970D01*
X115859Y938087D01*
X115752Y938207D01*
X115648Y938329D01*
X115547Y938454D01*
X115449Y938582D01*
X115354Y938712D01*
X115262Y938844D01*
X115174Y938978D01*
X115089Y939115D01*
X115007Y939253D01*
X114929Y939394D01*
X114855Y939536D01*
X114784Y939680D01*
X114716Y939826D01*
X114653Y939974D01*
X114592Y940123D01*
X114536Y940274D01*
X114483Y940426D01*
X114434Y940579D01*
X114389Y940733D01*
X114348Y940888D01*
X114310Y941045D01*
X114277Y941202D01*
X114247Y941360D01*
X114221Y941519D01*
X114200Y941678D01*
X114182Y941838D01*
X114168Y941998D01*
X114158Y942159D01*
X114152Y942319D01*
X114150Y942480D01*
D15*
X273710Y907480D03*
D16*
X271170Y882080D03*
X273710Y856680D03*
X271170Y831280D03*
D10*
X287940Y856680D02*
X287942Y856841D01*
X287948Y857001D01*
X287958Y857162D01*
X287972Y857322D01*
X287990Y857482D01*
X288011Y857641D01*
X288037Y857800D01*
X288067Y857958D01*
X288100Y858115D01*
X288138Y858272D01*
X288179Y858427D01*
X288224Y858581D01*
X288273Y858734D01*
X288326Y858886D01*
X288382Y859037D01*
X288443Y859186D01*
X288506Y859334D01*
X288574Y859480D01*
X288645Y859624D01*
X288719Y859766D01*
X288797Y859907D01*
X288879Y860045D01*
X288964Y860182D01*
X289052Y860316D01*
X289144Y860448D01*
X289239Y860578D01*
X289337Y860706D01*
X289438Y860831D01*
X289542Y860953D01*
X289649Y861073D01*
X289759Y861190D01*
X289872Y861305D01*
X289988Y861416D01*
X290107Y861525D01*
X290228Y861630D01*
X290352Y861733D01*
X290478Y861833D01*
X290606Y861929D01*
X290737Y862022D01*
X290871Y862112D01*
X291006Y862199D01*
X291144Y862282D01*
X291283Y862362D01*
X291425Y862438D01*
X291568Y862511D01*
X291713Y862580D01*
X291860Y862646D01*
X292008Y862708D01*
X292158Y862766D01*
X292309Y862821D01*
X292462Y862872D01*
X292616Y862919D01*
X292771Y862962D01*
X292927Y863001D01*
X293083Y863037D01*
X293241Y863068D01*
X293399Y863096D01*
X293558Y863120D01*
X293718Y863140D01*
X293878Y863156D01*
X294038Y863168D01*
X294199Y863176D01*
X294360Y863180D01*
X294520Y863180D01*
X294681Y863176D01*
X294842Y863168D01*
X295002Y863156D01*
X295162Y863140D01*
X295322Y863120D01*
X295481Y863096D01*
X295639Y863068D01*
X295797Y863037D01*
X295953Y863001D01*
X296109Y862962D01*
X296264Y862919D01*
X296418Y862872D01*
X296571Y862821D01*
X296722Y862766D01*
X296872Y862708D01*
X297020Y862646D01*
X297167Y862580D01*
X297312Y862511D01*
X297455Y862438D01*
X297597Y862362D01*
X297736Y862282D01*
X297874Y862199D01*
X298009Y862112D01*
X298143Y862022D01*
X298274Y861929D01*
X298402Y861833D01*
X298528Y861733D01*
X298652Y861630D01*
X298773Y861525D01*
X298892Y861416D01*
X299008Y861305D01*
X299121Y861190D01*
X299231Y861073D01*
X299338Y860953D01*
X299442Y860831D01*
X299543Y860706D01*
X299641Y860578D01*
X299736Y860448D01*
X299828Y860316D01*
X299916Y860182D01*
X300001Y860045D01*
X300083Y859907D01*
X300161Y859766D01*
X300235Y859624D01*
X300306Y859480D01*
X300374Y859334D01*
X300437Y859186D01*
X300498Y859037D01*
X300554Y858886D01*
X300607Y858734D01*
X300656Y858581D01*
X300701Y858427D01*
X300742Y858272D01*
X300780Y858115D01*
X300813Y857958D01*
X300843Y857800D01*
X300869Y857641D01*
X300890Y857482D01*
X300908Y857322D01*
X300922Y857162D01*
X300932Y857001D01*
X300938Y856841D01*
X300940Y856680D01*
X300938Y856519D01*
X300932Y856359D01*
X300922Y856198D01*
X300908Y856038D01*
X300890Y855878D01*
X300869Y855719D01*
X300843Y855560D01*
X300813Y855402D01*
X300780Y855245D01*
X300742Y855088D01*
X300701Y854933D01*
X300656Y854779D01*
X300607Y854626D01*
X300554Y854474D01*
X300498Y854323D01*
X300437Y854174D01*
X300374Y854026D01*
X300306Y853880D01*
X300235Y853736D01*
X300161Y853594D01*
X300083Y853453D01*
X300001Y853315D01*
X299916Y853178D01*
X299828Y853044D01*
X299736Y852912D01*
X299641Y852782D01*
X299543Y852654D01*
X299442Y852529D01*
X299338Y852407D01*
X299231Y852287D01*
X299121Y852170D01*
X299008Y852055D01*
X298892Y851944D01*
X298773Y851835D01*
X298652Y851730D01*
X298528Y851627D01*
X298402Y851527D01*
X298274Y851431D01*
X298143Y851338D01*
X298009Y851248D01*
X297874Y851161D01*
X297736Y851078D01*
X297597Y850998D01*
X297455Y850922D01*
X297312Y850849D01*
X297167Y850780D01*
X297020Y850714D01*
X296872Y850652D01*
X296722Y850594D01*
X296571Y850539D01*
X296418Y850488D01*
X296264Y850441D01*
X296109Y850398D01*
X295953Y850359D01*
X295797Y850323D01*
X295639Y850292D01*
X295481Y850264D01*
X295322Y850240D01*
X295162Y850220D01*
X295002Y850204D01*
X294842Y850192D01*
X294681Y850184D01*
X294520Y850180D01*
X294360Y850180D01*
X294199Y850184D01*
X294038Y850192D01*
X293878Y850204D01*
X293718Y850220D01*
X293558Y850240D01*
X293399Y850264D01*
X293241Y850292D01*
X293083Y850323D01*
X292927Y850359D01*
X292771Y850398D01*
X292616Y850441D01*
X292462Y850488D01*
X292309Y850539D01*
X292158Y850594D01*
X292008Y850652D01*
X291860Y850714D01*
X291713Y850780D01*
X291568Y850849D01*
X291425Y850922D01*
X291283Y850998D01*
X291144Y851078D01*
X291006Y851161D01*
X290871Y851248D01*
X290737Y851338D01*
X290606Y851431D01*
X290478Y851527D01*
X290352Y851627D01*
X290228Y851730D01*
X290107Y851835D01*
X289988Y851944D01*
X289872Y852055D01*
X289759Y852170D01*
X289649Y852287D01*
X289542Y852407D01*
X289438Y852529D01*
X289337Y852654D01*
X289239Y852782D01*
X289144Y852912D01*
X289052Y853044D01*
X288964Y853178D01*
X288879Y853315D01*
X288797Y853453D01*
X288719Y853594D01*
X288645Y853736D01*
X288574Y853880D01*
X288506Y854026D01*
X288443Y854174D01*
X288382Y854323D01*
X288326Y854474D01*
X288273Y854626D01*
X288224Y854779D01*
X288179Y854933D01*
X288138Y855088D01*
X288100Y855245D01*
X288067Y855402D01*
X288037Y855560D01*
X288011Y855719D01*
X287990Y855878D01*
X287972Y856038D01*
X287958Y856198D01*
X287948Y856359D01*
X287942Y856519D01*
X287940Y856680D01*
X243940Y856680D02*
X243942Y856841D01*
X243948Y857001D01*
X243958Y857162D01*
X243972Y857322D01*
X243990Y857482D01*
X244011Y857641D01*
X244037Y857800D01*
X244067Y857958D01*
X244100Y858115D01*
X244138Y858272D01*
X244179Y858427D01*
X244224Y858581D01*
X244273Y858734D01*
X244326Y858886D01*
X244382Y859037D01*
X244443Y859186D01*
X244506Y859334D01*
X244574Y859480D01*
X244645Y859624D01*
X244719Y859766D01*
X244797Y859907D01*
X244879Y860045D01*
X244964Y860182D01*
X245052Y860316D01*
X245144Y860448D01*
X245239Y860578D01*
X245337Y860706D01*
X245438Y860831D01*
X245542Y860953D01*
X245649Y861073D01*
X245759Y861190D01*
X245872Y861305D01*
X245988Y861416D01*
X246107Y861525D01*
X246228Y861630D01*
X246352Y861733D01*
X246478Y861833D01*
X246606Y861929D01*
X246737Y862022D01*
X246871Y862112D01*
X247006Y862199D01*
X247144Y862282D01*
X247283Y862362D01*
X247425Y862438D01*
X247568Y862511D01*
X247713Y862580D01*
X247860Y862646D01*
X248008Y862708D01*
X248158Y862766D01*
X248309Y862821D01*
X248462Y862872D01*
X248616Y862919D01*
X248771Y862962D01*
X248927Y863001D01*
X249083Y863037D01*
X249241Y863068D01*
X249399Y863096D01*
X249558Y863120D01*
X249718Y863140D01*
X249878Y863156D01*
X250038Y863168D01*
X250199Y863176D01*
X250360Y863180D01*
X250520Y863180D01*
X250681Y863176D01*
X250842Y863168D01*
X251002Y863156D01*
X251162Y863140D01*
X251322Y863120D01*
X251481Y863096D01*
X251639Y863068D01*
X251797Y863037D01*
X251953Y863001D01*
X252109Y862962D01*
X252264Y862919D01*
X252418Y862872D01*
X252571Y862821D01*
X252722Y862766D01*
X252872Y862708D01*
X253020Y862646D01*
X253167Y862580D01*
X253312Y862511D01*
X253455Y862438D01*
X253597Y862362D01*
X253736Y862282D01*
X253874Y862199D01*
X254009Y862112D01*
X254143Y862022D01*
X254274Y861929D01*
X254402Y861833D01*
X254528Y861733D01*
X254652Y861630D01*
X254773Y861525D01*
X254892Y861416D01*
X255008Y861305D01*
X255121Y861190D01*
X255231Y861073D01*
X255338Y860953D01*
X255442Y860831D01*
X255543Y860706D01*
X255641Y860578D01*
X255736Y860448D01*
X255828Y860316D01*
X255916Y860182D01*
X256001Y860045D01*
X256083Y859907D01*
X256161Y859766D01*
X256235Y859624D01*
X256306Y859480D01*
X256374Y859334D01*
X256437Y859186D01*
X256498Y859037D01*
X256554Y858886D01*
X256607Y858734D01*
X256656Y858581D01*
X256701Y858427D01*
X256742Y858272D01*
X256780Y858115D01*
X256813Y857958D01*
X256843Y857800D01*
X256869Y857641D01*
X256890Y857482D01*
X256908Y857322D01*
X256922Y857162D01*
X256932Y857001D01*
X256938Y856841D01*
X256940Y856680D01*
X256938Y856519D01*
X256932Y856359D01*
X256922Y856198D01*
X256908Y856038D01*
X256890Y855878D01*
X256869Y855719D01*
X256843Y855560D01*
X256813Y855402D01*
X256780Y855245D01*
X256742Y855088D01*
X256701Y854933D01*
X256656Y854779D01*
X256607Y854626D01*
X256554Y854474D01*
X256498Y854323D01*
X256437Y854174D01*
X256374Y854026D01*
X256306Y853880D01*
X256235Y853736D01*
X256161Y853594D01*
X256083Y853453D01*
X256001Y853315D01*
X255916Y853178D01*
X255828Y853044D01*
X255736Y852912D01*
X255641Y852782D01*
X255543Y852654D01*
X255442Y852529D01*
X255338Y852407D01*
X255231Y852287D01*
X255121Y852170D01*
X255008Y852055D01*
X254892Y851944D01*
X254773Y851835D01*
X254652Y851730D01*
X254528Y851627D01*
X254402Y851527D01*
X254274Y851431D01*
X254143Y851338D01*
X254009Y851248D01*
X253874Y851161D01*
X253736Y851078D01*
X253597Y850998D01*
X253455Y850922D01*
X253312Y850849D01*
X253167Y850780D01*
X253020Y850714D01*
X252872Y850652D01*
X252722Y850594D01*
X252571Y850539D01*
X252418Y850488D01*
X252264Y850441D01*
X252109Y850398D01*
X251953Y850359D01*
X251797Y850323D01*
X251639Y850292D01*
X251481Y850264D01*
X251322Y850240D01*
X251162Y850220D01*
X251002Y850204D01*
X250842Y850192D01*
X250681Y850184D01*
X250520Y850180D01*
X250360Y850180D01*
X250199Y850184D01*
X250038Y850192D01*
X249878Y850204D01*
X249718Y850220D01*
X249558Y850240D01*
X249399Y850264D01*
X249241Y850292D01*
X249083Y850323D01*
X248927Y850359D01*
X248771Y850398D01*
X248616Y850441D01*
X248462Y850488D01*
X248309Y850539D01*
X248158Y850594D01*
X248008Y850652D01*
X247860Y850714D01*
X247713Y850780D01*
X247568Y850849D01*
X247425Y850922D01*
X247283Y850998D01*
X247144Y851078D01*
X247006Y851161D01*
X246871Y851248D01*
X246737Y851338D01*
X246606Y851431D01*
X246478Y851527D01*
X246352Y851627D01*
X246228Y851730D01*
X246107Y851835D01*
X245988Y851944D01*
X245872Y852055D01*
X245759Y852170D01*
X245649Y852287D01*
X245542Y852407D01*
X245438Y852529D01*
X245337Y852654D01*
X245239Y852782D01*
X245144Y852912D01*
X245052Y853044D01*
X244964Y853178D01*
X244879Y853315D01*
X244797Y853453D01*
X244719Y853594D01*
X244645Y853736D01*
X244574Y853880D01*
X244506Y854026D01*
X244443Y854174D01*
X244382Y854323D01*
X244326Y854474D01*
X244273Y854626D01*
X244224Y854779D01*
X244179Y854933D01*
X244138Y855088D01*
X244100Y855245D01*
X244067Y855402D01*
X244037Y855560D01*
X244011Y855719D01*
X243990Y855878D01*
X243972Y856038D01*
X243958Y856198D01*
X243948Y856359D01*
X243942Y856519D01*
X243940Y856680D01*
D17*
X172800Y424550D03*
X-287200Y424550D03*
D16*
X-221800Y601350D03*
X-196400Y601350D03*
X-171000Y601350D03*
X-145600Y601350D03*
X-120200Y601350D03*
D14*
X378100Y743780D02*
X378100Y759020D01*
X403500Y756480D02*
X403500Y741240D01*
X428900Y743780D02*
X428900Y759020D01*
X454300Y756480D02*
X454300Y741240D01*
X479700Y743780D02*
X479700Y759020D01*
X505100Y756480D02*
X505100Y741240D01*
X378100Y286070D02*
X378100Y270830D01*
X403500Y268290D02*
X403500Y283530D01*
X428900Y286070D02*
X428900Y270830D01*
X454300Y268290D02*
X454300Y283530D01*
X479700Y286070D02*
X479700Y270830D01*
X505100Y268290D02*
X505100Y283530D01*
D18*
X-218500Y746550D03*
X-144200Y849450D03*
X6400Y850050D03*
X155000Y850750D03*
X229400Y798350D03*
X-145200Y757650D03*
X493000Y888000D03*
X409000Y882000D03*
X423000Y867000D03*
X493000Y415050D03*
X409000Y409050D03*
X423000Y394050D03*
X-175600Y656950D03*
D19*
X-171300Y661250D01*
X-171300Y696550D01*
D18*
X-171300Y696550D03*
D19*
X265130Y437250D02*
X311900Y437250D01*
D18*
X311900Y437250D03*
X-133000Y712750D03*
D20*
X-125700Y712750D01*
X-116700Y703750D01*
D18*
X-116700Y703750D03*
X120300Y705550D03*
D20*
X120300Y748570D01*
X120780Y749050D01*
D18*
X-183400Y696150D03*
D19*
X-183400Y678270D01*
X-183200Y678070D01*
D18*
X-183200Y678070D03*
X2900Y771450D03*
D20*
X48580Y771450D01*
X69980Y750050D02*
X69980Y749050D01*
X69980Y750050D02*
X48580Y771450D01*
D18*
X31000Y525950D03*
D20*
X31000Y569750D01*
X32300Y571050D01*
D18*
X32300Y571050D03*
X32400Y650450D03*
D20*
X44580Y662630D01*
X44580Y749050D01*
D18*
X-176530Y840020D03*
D20*
X-176530Y810810D01*
D18*
X-176530Y810810D03*
X121920Y842560D03*
D20*
X121920Y790490D01*
D18*
X121920Y790490D03*
X-26670Y842560D03*
D20*
X-26670Y800650D01*
D18*
X-26670Y800650D03*
X183500Y619450D03*
D20*
X183500Y858150D01*
X183600Y858250D01*
D18*
X183600Y858250D03*
X41910Y838750D03*
D20*
X41910Y789220D01*
D18*
X41910Y789220D03*
X133800Y724050D03*
D20*
X133800Y620150D01*
X133900Y620050D01*
D18*
X133900Y620050D03*
X-110490Y831130D03*
D20*
X-110490Y795570D01*
D18*
X-110490Y795570D03*
X82700Y730650D03*
D20*
X84900Y728450D01*
X84900Y630850D01*
D18*
X84900Y630850D03*
X208700Y619850D03*
D20*
X208700Y875950D01*
X208400Y876250D01*
D18*
X208400Y876250D03*
X26670Y838750D03*
D20*
X26670Y789220D01*
D18*
X26670Y789220D03*
X107900Y724450D03*
D20*
X107900Y619850D01*
X108100Y619650D01*
D18*
X108100Y619650D03*
X-125730Y831130D03*
D20*
X-125730Y795570D01*
D18*
X-125730Y795570D03*
X58300Y730850D03*
D20*
X58300Y642450D01*
X58500Y642250D01*
D18*
X58500Y642250D03*
X6200Y651850D03*
D20*
X6200Y719450D01*
X11500Y724750D01*
D18*
X11500Y724750D03*
X197200Y549050D03*
D20*
X197200Y596430D01*
X196980Y596650D01*
M02*
