G04 EAGLE Gerber RS-274X export*
G75*
%MOMM*%
%FSLAX34Y34*%
%LPD*%
%INSilk top*%
%IPPOS*%
%AMOC8*
5,1,8,0,0,1.08239X$1,22.5*%
G01*
%ADD10C,0.000000*%
%ADD11C,0.000003*%
%ADD12C,0.101600*%
%ADD13C,0.127000*%
%ADD14C,0.200000*%
%ADD15C,0.203200*%


D10*
X-317900Y87150D02*
X-317895Y87543D01*
X-317881Y87935D01*
X-317857Y88327D01*
X-317823Y88718D01*
X-317780Y89109D01*
X-317727Y89498D01*
X-317664Y89885D01*
X-317593Y90271D01*
X-317511Y90656D01*
X-317421Y91038D01*
X-317320Y91417D01*
X-317211Y91795D01*
X-317092Y92169D01*
X-316965Y92540D01*
X-316828Y92908D01*
X-316682Y93273D01*
X-316527Y93634D01*
X-316364Y93991D01*
X-316192Y94344D01*
X-316011Y94692D01*
X-315821Y95036D01*
X-315624Y95376D01*
X-315418Y95710D01*
X-315204Y96039D01*
X-314981Y96363D01*
X-314751Y96681D01*
X-314514Y96994D01*
X-314268Y97300D01*
X-314015Y97601D01*
X-313755Y97895D01*
X-313488Y98183D01*
X-313214Y98464D01*
X-312933Y98738D01*
X-312645Y99005D01*
X-312351Y99265D01*
X-312050Y99518D01*
X-311744Y99764D01*
X-311431Y100001D01*
X-311113Y100231D01*
X-310789Y100454D01*
X-310460Y100668D01*
X-310126Y100874D01*
X-309786Y101071D01*
X-309442Y101261D01*
X-309094Y101442D01*
X-308741Y101614D01*
X-308384Y101777D01*
X-308023Y101932D01*
X-307658Y102078D01*
X-307290Y102215D01*
X-306919Y102342D01*
X-306545Y102461D01*
X-306167Y102570D01*
X-305788Y102671D01*
X-305406Y102761D01*
X-305021Y102843D01*
X-304635Y102914D01*
X-304248Y102977D01*
X-303859Y103030D01*
X-303468Y103073D01*
X-303077Y103107D01*
X-302685Y103131D01*
X-302293Y103145D01*
X-301900Y103150D01*
X-301507Y103145D01*
X-301115Y103131D01*
X-300723Y103107D01*
X-300332Y103073D01*
X-299941Y103030D01*
X-299552Y102977D01*
X-299165Y102914D01*
X-298779Y102843D01*
X-298394Y102761D01*
X-298012Y102671D01*
X-297633Y102570D01*
X-297255Y102461D01*
X-296881Y102342D01*
X-296510Y102215D01*
X-296142Y102078D01*
X-295777Y101932D01*
X-295416Y101777D01*
X-295059Y101614D01*
X-294706Y101442D01*
X-294358Y101261D01*
X-294014Y101071D01*
X-293674Y100874D01*
X-293340Y100668D01*
X-293011Y100454D01*
X-292687Y100231D01*
X-292369Y100001D01*
X-292056Y99764D01*
X-291750Y99518D01*
X-291449Y99265D01*
X-291155Y99005D01*
X-290867Y98738D01*
X-290586Y98464D01*
X-290312Y98183D01*
X-290045Y97895D01*
X-289785Y97601D01*
X-289532Y97300D01*
X-289286Y96994D01*
X-289049Y96681D01*
X-288819Y96363D01*
X-288596Y96039D01*
X-288382Y95710D01*
X-288176Y95376D01*
X-287979Y95036D01*
X-287789Y94692D01*
X-287608Y94344D01*
X-287436Y93991D01*
X-287273Y93634D01*
X-287118Y93273D01*
X-286972Y92908D01*
X-286835Y92540D01*
X-286708Y92169D01*
X-286589Y91795D01*
X-286480Y91417D01*
X-286379Y91038D01*
X-286289Y90656D01*
X-286207Y90271D01*
X-286136Y89885D01*
X-286073Y89498D01*
X-286020Y89109D01*
X-285977Y88718D01*
X-285943Y88327D01*
X-285919Y87935D01*
X-285905Y87543D01*
X-285900Y87150D01*
X-285905Y86757D01*
X-285919Y86365D01*
X-285943Y85973D01*
X-285977Y85582D01*
X-286020Y85191D01*
X-286073Y84802D01*
X-286136Y84415D01*
X-286207Y84029D01*
X-286289Y83644D01*
X-286379Y83262D01*
X-286480Y82883D01*
X-286589Y82505D01*
X-286708Y82131D01*
X-286835Y81760D01*
X-286972Y81392D01*
X-287118Y81027D01*
X-287273Y80666D01*
X-287436Y80309D01*
X-287608Y79956D01*
X-287789Y79608D01*
X-287979Y79264D01*
X-288176Y78924D01*
X-288382Y78590D01*
X-288596Y78261D01*
X-288819Y77937D01*
X-289049Y77619D01*
X-289286Y77306D01*
X-289532Y77000D01*
X-289785Y76699D01*
X-290045Y76405D01*
X-290312Y76117D01*
X-290586Y75836D01*
X-290867Y75562D01*
X-291155Y75295D01*
X-291449Y75035D01*
X-291750Y74782D01*
X-292056Y74536D01*
X-292369Y74299D01*
X-292687Y74069D01*
X-293011Y73846D01*
X-293340Y73632D01*
X-293674Y73426D01*
X-294014Y73229D01*
X-294358Y73039D01*
X-294706Y72858D01*
X-295059Y72686D01*
X-295416Y72523D01*
X-295777Y72368D01*
X-296142Y72222D01*
X-296510Y72085D01*
X-296881Y71958D01*
X-297255Y71839D01*
X-297633Y71730D01*
X-298012Y71629D01*
X-298394Y71539D01*
X-298779Y71457D01*
X-299165Y71386D01*
X-299552Y71323D01*
X-299941Y71270D01*
X-300332Y71227D01*
X-300723Y71193D01*
X-301115Y71169D01*
X-301507Y71155D01*
X-301900Y71150D01*
X-302293Y71155D01*
X-302685Y71169D01*
X-303077Y71193D01*
X-303468Y71227D01*
X-303859Y71270D01*
X-304248Y71323D01*
X-304635Y71386D01*
X-305021Y71457D01*
X-305406Y71539D01*
X-305788Y71629D01*
X-306167Y71730D01*
X-306545Y71839D01*
X-306919Y71958D01*
X-307290Y72085D01*
X-307658Y72222D01*
X-308023Y72368D01*
X-308384Y72523D01*
X-308741Y72686D01*
X-309094Y72858D01*
X-309442Y73039D01*
X-309786Y73229D01*
X-310126Y73426D01*
X-310460Y73632D01*
X-310789Y73846D01*
X-311113Y74069D01*
X-311431Y74299D01*
X-311744Y74536D01*
X-312050Y74782D01*
X-312351Y75035D01*
X-312645Y75295D01*
X-312933Y75562D01*
X-313214Y75836D01*
X-313488Y76117D01*
X-313755Y76405D01*
X-314015Y76699D01*
X-314268Y77000D01*
X-314514Y77306D01*
X-314751Y77619D01*
X-314981Y77937D01*
X-315204Y78261D01*
X-315418Y78590D01*
X-315624Y78924D01*
X-315821Y79264D01*
X-316011Y79608D01*
X-316192Y79956D01*
X-316364Y80309D01*
X-316527Y80666D01*
X-316682Y81027D01*
X-316828Y81392D01*
X-316965Y81760D01*
X-317092Y82131D01*
X-317211Y82505D01*
X-317320Y82883D01*
X-317421Y83262D01*
X-317511Y83644D01*
X-317593Y84029D01*
X-317664Y84415D01*
X-317727Y84802D01*
X-317780Y85191D01*
X-317823Y85582D01*
X-317857Y85973D01*
X-317881Y86365D01*
X-317895Y86757D01*
X-317900Y87150D01*
X-317900Y941050D02*
X-317895Y941443D01*
X-317881Y941835D01*
X-317857Y942227D01*
X-317823Y942618D01*
X-317780Y943009D01*
X-317727Y943398D01*
X-317664Y943785D01*
X-317593Y944171D01*
X-317511Y944556D01*
X-317421Y944938D01*
X-317320Y945317D01*
X-317211Y945695D01*
X-317092Y946069D01*
X-316965Y946440D01*
X-316828Y946808D01*
X-316682Y947173D01*
X-316527Y947534D01*
X-316364Y947891D01*
X-316192Y948244D01*
X-316011Y948592D01*
X-315821Y948936D01*
X-315624Y949276D01*
X-315418Y949610D01*
X-315204Y949939D01*
X-314981Y950263D01*
X-314751Y950581D01*
X-314514Y950894D01*
X-314268Y951200D01*
X-314015Y951501D01*
X-313755Y951795D01*
X-313488Y952083D01*
X-313214Y952364D01*
X-312933Y952638D01*
X-312645Y952905D01*
X-312351Y953165D01*
X-312050Y953418D01*
X-311744Y953664D01*
X-311431Y953901D01*
X-311113Y954131D01*
X-310789Y954354D01*
X-310460Y954568D01*
X-310126Y954774D01*
X-309786Y954971D01*
X-309442Y955161D01*
X-309094Y955342D01*
X-308741Y955514D01*
X-308384Y955677D01*
X-308023Y955832D01*
X-307658Y955978D01*
X-307290Y956115D01*
X-306919Y956242D01*
X-306545Y956361D01*
X-306167Y956470D01*
X-305788Y956571D01*
X-305406Y956661D01*
X-305021Y956743D01*
X-304635Y956814D01*
X-304248Y956877D01*
X-303859Y956930D01*
X-303468Y956973D01*
X-303077Y957007D01*
X-302685Y957031D01*
X-302293Y957045D01*
X-301900Y957050D01*
X-301507Y957045D01*
X-301115Y957031D01*
X-300723Y957007D01*
X-300332Y956973D01*
X-299941Y956930D01*
X-299552Y956877D01*
X-299165Y956814D01*
X-298779Y956743D01*
X-298394Y956661D01*
X-298012Y956571D01*
X-297633Y956470D01*
X-297255Y956361D01*
X-296881Y956242D01*
X-296510Y956115D01*
X-296142Y955978D01*
X-295777Y955832D01*
X-295416Y955677D01*
X-295059Y955514D01*
X-294706Y955342D01*
X-294358Y955161D01*
X-294014Y954971D01*
X-293674Y954774D01*
X-293340Y954568D01*
X-293011Y954354D01*
X-292687Y954131D01*
X-292369Y953901D01*
X-292056Y953664D01*
X-291750Y953418D01*
X-291449Y953165D01*
X-291155Y952905D01*
X-290867Y952638D01*
X-290586Y952364D01*
X-290312Y952083D01*
X-290045Y951795D01*
X-289785Y951501D01*
X-289532Y951200D01*
X-289286Y950894D01*
X-289049Y950581D01*
X-288819Y950263D01*
X-288596Y949939D01*
X-288382Y949610D01*
X-288176Y949276D01*
X-287979Y948936D01*
X-287789Y948592D01*
X-287608Y948244D01*
X-287436Y947891D01*
X-287273Y947534D01*
X-287118Y947173D01*
X-286972Y946808D01*
X-286835Y946440D01*
X-286708Y946069D01*
X-286589Y945695D01*
X-286480Y945317D01*
X-286379Y944938D01*
X-286289Y944556D01*
X-286207Y944171D01*
X-286136Y943785D01*
X-286073Y943398D01*
X-286020Y943009D01*
X-285977Y942618D01*
X-285943Y942227D01*
X-285919Y941835D01*
X-285905Y941443D01*
X-285900Y941050D01*
X-285905Y940657D01*
X-285919Y940265D01*
X-285943Y939873D01*
X-285977Y939482D01*
X-286020Y939091D01*
X-286073Y938702D01*
X-286136Y938315D01*
X-286207Y937929D01*
X-286289Y937544D01*
X-286379Y937162D01*
X-286480Y936783D01*
X-286589Y936405D01*
X-286708Y936031D01*
X-286835Y935660D01*
X-286972Y935292D01*
X-287118Y934927D01*
X-287273Y934566D01*
X-287436Y934209D01*
X-287608Y933856D01*
X-287789Y933508D01*
X-287979Y933164D01*
X-288176Y932824D01*
X-288382Y932490D01*
X-288596Y932161D01*
X-288819Y931837D01*
X-289049Y931519D01*
X-289286Y931206D01*
X-289532Y930900D01*
X-289785Y930599D01*
X-290045Y930305D01*
X-290312Y930017D01*
X-290586Y929736D01*
X-290867Y929462D01*
X-291155Y929195D01*
X-291449Y928935D01*
X-291750Y928682D01*
X-292056Y928436D01*
X-292369Y928199D01*
X-292687Y927969D01*
X-293011Y927746D01*
X-293340Y927532D01*
X-293674Y927326D01*
X-294014Y927129D01*
X-294358Y926939D01*
X-294706Y926758D01*
X-295059Y926586D01*
X-295416Y926423D01*
X-295777Y926268D01*
X-296142Y926122D01*
X-296510Y925985D01*
X-296881Y925858D01*
X-297255Y925739D01*
X-297633Y925630D01*
X-298012Y925529D01*
X-298394Y925439D01*
X-298779Y925357D01*
X-299165Y925286D01*
X-299552Y925223D01*
X-299941Y925170D01*
X-300332Y925127D01*
X-300723Y925093D01*
X-301115Y925069D01*
X-301507Y925055D01*
X-301900Y925050D01*
X-302293Y925055D01*
X-302685Y925069D01*
X-303077Y925093D01*
X-303468Y925127D01*
X-303859Y925170D01*
X-304248Y925223D01*
X-304635Y925286D01*
X-305021Y925357D01*
X-305406Y925439D01*
X-305788Y925529D01*
X-306167Y925630D01*
X-306545Y925739D01*
X-306919Y925858D01*
X-307290Y925985D01*
X-307658Y926122D01*
X-308023Y926268D01*
X-308384Y926423D01*
X-308741Y926586D01*
X-309094Y926758D01*
X-309442Y926939D01*
X-309786Y927129D01*
X-310126Y927326D01*
X-310460Y927532D01*
X-310789Y927746D01*
X-311113Y927969D01*
X-311431Y928199D01*
X-311744Y928436D01*
X-312050Y928682D01*
X-312351Y928935D01*
X-312645Y929195D01*
X-312933Y929462D01*
X-313214Y929736D01*
X-313488Y930017D01*
X-313755Y930305D01*
X-314015Y930599D01*
X-314268Y930900D01*
X-314514Y931206D01*
X-314751Y931519D01*
X-314981Y931837D01*
X-315204Y932161D01*
X-315418Y932490D01*
X-315624Y932824D01*
X-315821Y933164D01*
X-316011Y933508D01*
X-316192Y933856D01*
X-316364Y934209D01*
X-316527Y934566D01*
X-316682Y934927D01*
X-316828Y935292D01*
X-316965Y935660D01*
X-317092Y936031D01*
X-317211Y936405D01*
X-317320Y936783D01*
X-317421Y937162D01*
X-317511Y937544D01*
X-317593Y937929D01*
X-317664Y938315D01*
X-317727Y938702D01*
X-317780Y939091D01*
X-317823Y939482D01*
X-317857Y939873D01*
X-317881Y940265D01*
X-317895Y940657D01*
X-317900Y941050D01*
D11*
X79900Y90500D02*
X79900Y3500D01*
X81900Y500D01*
X186900Y500D01*
X209900Y3500D02*
X209900Y78000D01*
X189900Y3500D02*
X186900Y500D01*
X209900Y3500D02*
X212900Y500D01*
X330000Y500D01*
X209900Y78000D02*
X209897Y78244D01*
X209888Y78487D01*
X209873Y78730D01*
X209853Y78973D01*
X209826Y79215D01*
X209793Y79456D01*
X209755Y79696D01*
X209711Y79936D01*
X209661Y80174D01*
X209605Y80411D01*
X209543Y80647D01*
X209476Y80881D01*
X209403Y81113D01*
X209324Y81344D01*
X209240Y81572D01*
X209150Y81799D01*
X209055Y82023D01*
X208954Y82245D01*
X208848Y82464D01*
X208737Y82680D01*
X208620Y82894D01*
X208499Y83105D01*
X208372Y83313D01*
X208240Y83518D01*
X208103Y83719D01*
X207961Y83917D01*
X207815Y84112D01*
X207664Y84303D01*
X207508Y84490D01*
X207348Y84673D01*
X207183Y84853D01*
X207014Y85028D01*
X206841Y85199D01*
X206663Y85366D01*
X206482Y85528D01*
X206297Y85686D01*
X206108Y85840D01*
X205915Y85989D01*
X205719Y86133D01*
X205519Y86272D01*
X205316Y86407D01*
X205109Y86536D01*
X204900Y86660D01*
X204688Y86779D01*
X204472Y86893D01*
X204255Y87002D01*
X204034Y87105D01*
X203811Y87203D01*
X203586Y87296D01*
X203358Y87383D01*
X203129Y87464D01*
X202897Y87540D01*
X202664Y87610D01*
X202429Y87675D01*
X202193Y87734D01*
X201955Y87787D01*
X201716Y87834D01*
X201476Y87875D01*
X201235Y87910D01*
X200994Y87940D01*
X200751Y87964D01*
X200508Y87981D01*
X200265Y87993D01*
X200022Y87999D01*
X199778Y87999D01*
X199535Y87993D01*
X199292Y87981D01*
X199049Y87964D01*
X198806Y87940D01*
X198565Y87910D01*
X198324Y87875D01*
X198084Y87834D01*
X197845Y87787D01*
X197607Y87734D01*
X197371Y87675D01*
X197136Y87610D01*
X196903Y87540D01*
X196671Y87464D01*
X196442Y87383D01*
X196214Y87296D01*
X195989Y87203D01*
X195766Y87105D01*
X195545Y87002D01*
X195328Y86893D01*
X195112Y86779D01*
X194900Y86660D01*
X194691Y86536D01*
X194484Y86407D01*
X194281Y86272D01*
X194081Y86133D01*
X193885Y85989D01*
X193692Y85840D01*
X193503Y85686D01*
X193318Y85528D01*
X193137Y85366D01*
X192959Y85199D01*
X192786Y85028D01*
X192617Y84853D01*
X192452Y84673D01*
X192292Y84490D01*
X192136Y84303D01*
X191985Y84112D01*
X191839Y83917D01*
X191697Y83719D01*
X191560Y83518D01*
X191428Y83313D01*
X191301Y83105D01*
X191180Y82894D01*
X191063Y82680D01*
X190952Y82464D01*
X190846Y82245D01*
X190745Y82023D01*
X190650Y81799D01*
X190560Y81572D01*
X190476Y81344D01*
X190397Y81113D01*
X190324Y80881D01*
X190257Y80647D01*
X190195Y80411D01*
X190139Y80174D01*
X190089Y79936D01*
X190045Y79696D01*
X190007Y79456D01*
X189974Y79215D01*
X189947Y78973D01*
X189927Y78730D01*
X189912Y78487D01*
X189903Y78244D01*
X189900Y78000D01*
X54900Y115500D02*
X54296Y115493D01*
X53692Y115471D01*
X53089Y115434D01*
X52487Y115383D01*
X51887Y115318D01*
X51288Y115238D01*
X50691Y115143D01*
X50097Y115034D01*
X49505Y114911D01*
X48917Y114774D01*
X48332Y114622D01*
X47751Y114456D01*
X47175Y114276D01*
X46602Y114083D01*
X46035Y113875D01*
X45473Y113654D01*
X44916Y113420D01*
X44365Y113172D01*
X43820Y112911D01*
X43282Y112636D01*
X42750Y112349D01*
X42226Y112049D01*
X41709Y111737D01*
X41200Y111412D01*
X40698Y111075D01*
X40205Y110725D01*
X39721Y110364D01*
X39245Y109992D01*
X38779Y109608D01*
X38322Y109213D01*
X37875Y108807D01*
X37437Y108390D01*
X37010Y107963D01*
X36593Y107525D01*
X36187Y107078D01*
X35792Y106621D01*
X35408Y106155D01*
X35036Y105679D01*
X34675Y105195D01*
X34325Y104702D01*
X33988Y104200D01*
X33663Y103691D01*
X33351Y103174D01*
X33051Y102650D01*
X32764Y102118D01*
X32489Y101580D01*
X32228Y101035D01*
X31980Y100484D01*
X31746Y99927D01*
X31525Y99365D01*
X31317Y98798D01*
X31124Y98225D01*
X30944Y97649D01*
X30778Y97068D01*
X30626Y96483D01*
X30489Y95895D01*
X30366Y95303D01*
X30257Y94709D01*
X30162Y94112D01*
X30082Y93513D01*
X30017Y92913D01*
X29966Y92311D01*
X29929Y91708D01*
X29907Y91104D01*
X29900Y90500D01*
X54900Y115500D02*
X55504Y115493D01*
X56108Y115471D01*
X56711Y115434D01*
X57313Y115383D01*
X57913Y115318D01*
X58512Y115238D01*
X59109Y115143D01*
X59703Y115034D01*
X60295Y114911D01*
X60883Y114774D01*
X61468Y114622D01*
X62049Y114456D01*
X62625Y114276D01*
X63198Y114083D01*
X63765Y113875D01*
X64327Y113654D01*
X64884Y113420D01*
X65435Y113172D01*
X65980Y112911D01*
X66518Y112636D01*
X67050Y112349D01*
X67574Y112049D01*
X68091Y111737D01*
X68600Y111412D01*
X69102Y111075D01*
X69595Y110725D01*
X70079Y110364D01*
X70555Y109992D01*
X71021Y109608D01*
X71478Y109213D01*
X71925Y108807D01*
X72363Y108390D01*
X72790Y107963D01*
X73207Y107525D01*
X73613Y107078D01*
X74008Y106621D01*
X74392Y106155D01*
X74764Y105679D01*
X75125Y105195D01*
X75475Y104702D01*
X75812Y104200D01*
X76137Y103691D01*
X76449Y103174D01*
X76749Y102650D01*
X77036Y102118D01*
X77311Y101580D01*
X77572Y101035D01*
X77820Y100484D01*
X78054Y99927D01*
X78275Y99365D01*
X78483Y98798D01*
X78676Y98225D01*
X78856Y97649D01*
X79022Y97068D01*
X79174Y96483D01*
X79311Y95895D01*
X79434Y95303D01*
X79543Y94709D01*
X79638Y94112D01*
X79718Y93513D01*
X79783Y92913D01*
X79834Y92311D01*
X79871Y91708D01*
X79893Y91104D01*
X79900Y90500D01*
X29900Y90500D02*
X29900Y47500D01*
X-389090Y47500D02*
X-389090Y1000030D01*
X330000Y1000030D01*
X189900Y78000D02*
X189900Y3500D01*
X-389090Y47498D02*
X-389090Y47500D01*
X29900Y47500D01*
D12*
X-42603Y61652D02*
X-50392Y64897D01*
X-50392Y58406D02*
X-42603Y61652D01*
X-37170Y57108D02*
X-37170Y68792D01*
X-30679Y57108D01*
X-30679Y68792D01*
X-22113Y68792D02*
X-26008Y57108D01*
X-18219Y57108D02*
X-22113Y68792D01*
X-19192Y60029D02*
X-25034Y60029D01*
X-13435Y57108D02*
X-13435Y68792D01*
X-9540Y62301D01*
X-5646Y68792D01*
X-5646Y57108D01*
X191Y57108D02*
X5384Y57108D01*
X191Y57108D02*
X191Y68792D01*
X5384Y68792D01*
X4085Y63599D02*
X191Y63599D01*
D10*
X330000Y700000D02*
X550000Y700000D01*
X550000Y1000030D01*
X330000Y1000030D01*
X330000Y227050D02*
X550000Y227050D01*
X550000Y527050D01*
X330000Y527050D01*
X330000Y227050D02*
X330000Y500D01*
X330000Y527050D02*
X330000Y700000D01*
X335000Y297050D02*
X335000Y247050D01*
X330000Y247050D01*
X330000Y297050D02*
X335000Y297050D01*
X330000Y297050D02*
X330000Y247050D01*
X335000Y317050D02*
X335000Y367050D01*
X335000Y317050D02*
X330000Y317050D01*
X330000Y367050D02*
X335000Y367050D01*
X330000Y367050D02*
X330000Y317050D01*
X335000Y387050D02*
X335000Y437050D01*
X335000Y387050D02*
X330000Y387050D01*
X330000Y437050D02*
X335000Y437050D01*
X330000Y437050D02*
X330000Y387050D01*
X335000Y457050D02*
X335000Y507050D01*
X335000Y457050D02*
X330000Y457050D01*
X330000Y507050D02*
X335000Y507050D01*
X330000Y507050D02*
X330000Y457050D01*
X335000Y717050D02*
X335000Y767050D01*
X335000Y717050D02*
X330000Y717050D01*
X330000Y767050D02*
X335000Y767050D01*
X330000Y767050D02*
X330000Y717050D01*
X335000Y787050D02*
X335000Y837050D01*
X335000Y787050D02*
X330000Y787050D01*
X330000Y837050D02*
X335000Y837050D01*
X330000Y837050D02*
X330000Y787050D01*
X335000Y857050D02*
X335000Y907050D01*
X335000Y857050D02*
X330000Y857050D01*
X330000Y907050D02*
X335000Y907050D01*
X330000Y907050D02*
X330000Y857050D01*
X335000Y927050D02*
X335000Y977050D01*
X335000Y927050D02*
X330000Y927050D01*
X330000Y977050D02*
X335000Y977050D01*
X330000Y977050D02*
X330000Y927050D01*
D13*
X-164620Y701570D02*
X-214620Y701570D01*
X-214620Y731570D01*
X-164620Y731570D01*
X-164620Y701570D01*
D14*
X-164620Y735570D02*
X-164618Y735633D01*
X-164612Y735695D01*
X-164602Y735757D01*
X-164589Y735819D01*
X-164571Y735879D01*
X-164550Y735938D01*
X-164525Y735996D01*
X-164496Y736052D01*
X-164464Y736106D01*
X-164429Y736158D01*
X-164391Y736207D01*
X-164349Y736255D01*
X-164305Y736299D01*
X-164257Y736341D01*
X-164208Y736379D01*
X-164156Y736414D01*
X-164102Y736446D01*
X-164046Y736475D01*
X-163988Y736500D01*
X-163929Y736521D01*
X-163869Y736539D01*
X-163807Y736552D01*
X-163745Y736562D01*
X-163683Y736568D01*
X-163620Y736570D01*
X-163557Y736568D01*
X-163495Y736562D01*
X-163433Y736552D01*
X-163371Y736539D01*
X-163311Y736521D01*
X-163252Y736500D01*
X-163194Y736475D01*
X-163138Y736446D01*
X-163084Y736414D01*
X-163032Y736379D01*
X-162983Y736341D01*
X-162935Y736299D01*
X-162891Y736255D01*
X-162849Y736207D01*
X-162811Y736158D01*
X-162776Y736106D01*
X-162744Y736052D01*
X-162715Y735996D01*
X-162690Y735938D01*
X-162669Y735879D01*
X-162651Y735819D01*
X-162638Y735757D01*
X-162628Y735695D01*
X-162622Y735633D01*
X-162620Y735570D01*
X-162622Y735507D01*
X-162628Y735445D01*
X-162638Y735383D01*
X-162651Y735321D01*
X-162669Y735261D01*
X-162690Y735202D01*
X-162715Y735144D01*
X-162744Y735088D01*
X-162776Y735034D01*
X-162811Y734982D01*
X-162849Y734933D01*
X-162891Y734885D01*
X-162935Y734841D01*
X-162983Y734799D01*
X-163032Y734761D01*
X-163084Y734726D01*
X-163138Y734694D01*
X-163194Y734665D01*
X-163252Y734640D01*
X-163311Y734619D01*
X-163371Y734601D01*
X-163433Y734588D01*
X-163495Y734578D01*
X-163557Y734572D01*
X-163620Y734570D01*
X-163683Y734572D01*
X-163745Y734578D01*
X-163807Y734588D01*
X-163869Y734601D01*
X-163929Y734619D01*
X-163988Y734640D01*
X-164046Y734665D01*
X-164102Y734694D01*
X-164156Y734726D01*
X-164208Y734761D01*
X-164257Y734799D01*
X-164305Y734841D01*
X-164349Y734885D01*
X-164391Y734933D01*
X-164429Y734982D01*
X-164464Y735034D01*
X-164496Y735088D01*
X-164525Y735144D01*
X-164550Y735202D01*
X-164571Y735261D01*
X-164589Y735321D01*
X-164602Y735383D01*
X-164612Y735445D01*
X-164618Y735507D01*
X-164620Y735570D01*
D12*
X-121438Y732301D02*
X-121438Y729704D01*
X-121440Y729605D01*
X-121446Y729505D01*
X-121455Y729406D01*
X-121468Y729308D01*
X-121485Y729210D01*
X-121506Y729112D01*
X-121531Y729016D01*
X-121559Y728921D01*
X-121591Y728827D01*
X-121626Y728734D01*
X-121665Y728642D01*
X-121708Y728552D01*
X-121753Y728464D01*
X-121803Y728377D01*
X-121855Y728293D01*
X-121911Y728210D01*
X-121969Y728130D01*
X-122031Y728052D01*
X-122096Y727977D01*
X-122164Y727904D01*
X-122234Y727834D01*
X-122307Y727766D01*
X-122382Y727701D01*
X-122460Y727639D01*
X-122540Y727581D01*
X-122623Y727525D01*
X-122707Y727473D01*
X-122794Y727423D01*
X-122882Y727378D01*
X-122972Y727335D01*
X-123064Y727296D01*
X-123157Y727261D01*
X-123251Y727229D01*
X-123346Y727201D01*
X-123442Y727176D01*
X-123540Y727155D01*
X-123638Y727138D01*
X-123736Y727125D01*
X-123835Y727116D01*
X-123935Y727110D01*
X-124034Y727108D01*
X-130526Y727108D01*
X-130625Y727110D01*
X-130725Y727116D01*
X-130824Y727125D01*
X-130922Y727138D01*
X-131020Y727155D01*
X-131118Y727176D01*
X-131214Y727201D01*
X-131309Y727229D01*
X-131403Y727261D01*
X-131496Y727296D01*
X-131588Y727335D01*
X-131678Y727378D01*
X-131766Y727423D01*
X-131853Y727473D01*
X-131937Y727525D01*
X-132020Y727581D01*
X-132100Y727639D01*
X-132178Y727701D01*
X-132253Y727766D01*
X-132326Y727834D01*
X-132396Y727904D01*
X-132464Y727977D01*
X-132529Y728052D01*
X-132591Y728130D01*
X-132649Y728210D01*
X-132705Y728293D01*
X-132757Y728377D01*
X-132807Y728464D01*
X-132852Y728552D01*
X-132895Y728642D01*
X-132934Y728734D01*
X-132969Y728826D01*
X-133001Y728921D01*
X-133029Y729016D01*
X-133054Y729112D01*
X-133075Y729210D01*
X-133092Y729308D01*
X-133105Y729406D01*
X-133114Y729505D01*
X-133120Y729605D01*
X-133122Y729704D01*
X-133122Y732301D01*
X-130526Y736666D02*
X-133122Y739912D01*
X-121438Y739912D01*
X-121438Y743157D02*
X-121438Y736666D01*
X-194634Y766608D02*
X-197231Y766608D01*
X-197330Y766610D01*
X-197430Y766616D01*
X-197529Y766625D01*
X-197627Y766638D01*
X-197725Y766655D01*
X-197823Y766676D01*
X-197919Y766701D01*
X-198014Y766729D01*
X-198108Y766761D01*
X-198201Y766796D01*
X-198293Y766835D01*
X-198383Y766878D01*
X-198471Y766923D01*
X-198558Y766973D01*
X-198642Y767025D01*
X-198725Y767081D01*
X-198805Y767139D01*
X-198883Y767201D01*
X-198958Y767266D01*
X-199031Y767334D01*
X-199101Y767404D01*
X-199169Y767477D01*
X-199234Y767552D01*
X-199296Y767630D01*
X-199354Y767710D01*
X-199410Y767793D01*
X-199462Y767877D01*
X-199512Y767964D01*
X-199557Y768052D01*
X-199600Y768142D01*
X-199639Y768234D01*
X-199674Y768327D01*
X-199706Y768421D01*
X-199734Y768516D01*
X-199759Y768612D01*
X-199780Y768710D01*
X-199797Y768808D01*
X-199810Y768906D01*
X-199819Y769005D01*
X-199825Y769105D01*
X-199827Y769204D01*
X-199827Y775696D01*
X-199825Y775795D01*
X-199819Y775895D01*
X-199810Y775994D01*
X-199797Y776092D01*
X-199780Y776190D01*
X-199759Y776288D01*
X-199734Y776384D01*
X-199706Y776479D01*
X-199674Y776573D01*
X-199639Y776666D01*
X-199600Y776758D01*
X-199557Y776848D01*
X-199512Y776936D01*
X-199462Y777023D01*
X-199410Y777107D01*
X-199354Y777190D01*
X-199296Y777270D01*
X-199234Y777348D01*
X-199169Y777423D01*
X-199101Y777496D01*
X-199031Y777566D01*
X-198958Y777634D01*
X-198883Y777699D01*
X-198805Y777761D01*
X-198725Y777819D01*
X-198642Y777875D01*
X-198558Y777927D01*
X-198471Y777977D01*
X-198383Y778022D01*
X-198293Y778065D01*
X-198201Y778104D01*
X-198108Y778139D01*
X-198014Y778171D01*
X-197919Y778199D01*
X-197823Y778224D01*
X-197725Y778245D01*
X-197627Y778262D01*
X-197529Y778275D01*
X-197430Y778284D01*
X-197330Y778290D01*
X-197231Y778292D01*
X-194634Y778292D01*
X-186699Y778292D02*
X-186592Y778290D01*
X-186486Y778284D01*
X-186380Y778274D01*
X-186274Y778261D01*
X-186168Y778243D01*
X-186064Y778222D01*
X-185960Y778197D01*
X-185857Y778168D01*
X-185756Y778136D01*
X-185656Y778099D01*
X-185557Y778059D01*
X-185459Y778016D01*
X-185363Y777969D01*
X-185269Y777918D01*
X-185177Y777864D01*
X-185087Y777807D01*
X-184999Y777747D01*
X-184914Y777683D01*
X-184831Y777616D01*
X-184750Y777546D01*
X-184672Y777474D01*
X-184596Y777398D01*
X-184524Y777320D01*
X-184454Y777239D01*
X-184387Y777156D01*
X-184323Y777071D01*
X-184263Y776983D01*
X-184206Y776893D01*
X-184152Y776801D01*
X-184101Y776707D01*
X-184054Y776611D01*
X-184011Y776513D01*
X-183971Y776414D01*
X-183934Y776314D01*
X-183902Y776213D01*
X-183873Y776110D01*
X-183848Y776006D01*
X-183827Y775902D01*
X-183809Y775796D01*
X-183796Y775690D01*
X-183786Y775584D01*
X-183780Y775478D01*
X-183778Y775371D01*
X-186699Y778292D02*
X-186820Y778290D01*
X-186941Y778284D01*
X-187061Y778274D01*
X-187182Y778261D01*
X-187301Y778243D01*
X-187421Y778222D01*
X-187539Y778197D01*
X-187656Y778168D01*
X-187773Y778135D01*
X-187888Y778099D01*
X-188002Y778058D01*
X-188115Y778015D01*
X-188227Y777967D01*
X-188336Y777916D01*
X-188444Y777861D01*
X-188551Y777803D01*
X-188655Y777742D01*
X-188757Y777677D01*
X-188857Y777609D01*
X-188955Y777538D01*
X-189051Y777464D01*
X-189144Y777387D01*
X-189234Y777306D01*
X-189322Y777223D01*
X-189407Y777137D01*
X-189490Y777048D01*
X-189569Y776957D01*
X-189646Y776863D01*
X-189719Y776767D01*
X-189789Y776669D01*
X-189856Y776568D01*
X-189920Y776465D01*
X-189981Y776360D01*
X-190038Y776253D01*
X-190091Y776145D01*
X-190141Y776035D01*
X-190187Y775923D01*
X-190230Y775810D01*
X-190269Y775695D01*
X-184752Y773099D02*
X-184673Y773177D01*
X-184597Y773257D01*
X-184524Y773340D01*
X-184454Y773426D01*
X-184387Y773513D01*
X-184323Y773604D01*
X-184263Y773696D01*
X-184205Y773790D01*
X-184151Y773887D01*
X-184101Y773985D01*
X-184054Y774085D01*
X-184010Y774186D01*
X-183970Y774289D01*
X-183934Y774394D01*
X-183902Y774499D01*
X-183873Y774606D01*
X-183848Y774713D01*
X-183826Y774822D01*
X-183809Y774931D01*
X-183795Y775040D01*
X-183786Y775150D01*
X-183780Y775261D01*
X-183778Y775371D01*
X-184752Y773099D02*
X-190269Y766608D01*
X-183778Y766608D01*
D15*
X-307390Y748410D02*
X-307390Y743330D01*
X-307390Y723010D02*
X-307390Y717930D01*
X-307390Y697610D02*
X-307390Y692530D01*
X-307390Y672210D02*
X-307390Y667130D01*
X-307390Y646810D02*
X-307390Y641730D01*
X-307390Y768730D02*
X-307390Y771270D01*
X-297484Y771270D01*
X-294690Y768476D01*
X-307390Y771270D02*
X-317296Y771270D01*
X-320090Y768476D01*
X-307390Y621410D02*
X-307390Y618870D01*
X-317296Y618870D01*
X-320090Y621664D01*
X-307390Y618870D02*
X-297484Y618870D01*
X-294690Y621664D01*
D13*
X-285165Y763736D02*
X-281411Y763736D01*
X-281346Y763734D01*
X-281282Y763728D01*
X-281218Y763718D01*
X-281154Y763705D01*
X-281092Y763687D01*
X-281031Y763666D01*
X-280971Y763642D01*
X-280913Y763613D01*
X-280856Y763581D01*
X-280802Y763546D01*
X-280750Y763508D01*
X-280700Y763466D01*
X-280653Y763422D01*
X-280609Y763375D01*
X-280567Y763325D01*
X-280529Y763273D01*
X-280494Y763219D01*
X-280462Y763162D01*
X-280433Y763104D01*
X-280409Y763044D01*
X-280388Y762983D01*
X-280370Y762921D01*
X-280357Y762857D01*
X-280347Y762793D01*
X-280341Y762729D01*
X-280339Y762664D01*
X-280339Y762127D01*
X-280339Y766684D02*
X-280339Y768293D01*
X-280341Y768358D01*
X-280347Y768422D01*
X-280357Y768486D01*
X-280370Y768550D01*
X-280388Y768612D01*
X-280409Y768673D01*
X-280433Y768733D01*
X-280462Y768791D01*
X-280494Y768848D01*
X-280529Y768902D01*
X-280567Y768954D01*
X-280609Y769004D01*
X-280653Y769051D01*
X-280700Y769095D01*
X-280750Y769137D01*
X-280802Y769175D01*
X-280856Y769210D01*
X-280913Y769242D01*
X-280971Y769271D01*
X-281031Y769295D01*
X-281092Y769316D01*
X-281154Y769334D01*
X-281218Y769347D01*
X-281282Y769357D01*
X-281346Y769363D01*
X-281411Y769365D01*
X-281948Y769365D01*
X-282013Y769363D01*
X-282077Y769357D01*
X-282141Y769347D01*
X-282205Y769334D01*
X-282267Y769316D01*
X-282328Y769295D01*
X-282388Y769271D01*
X-282446Y769242D01*
X-282503Y769210D01*
X-282557Y769175D01*
X-282609Y769137D01*
X-282659Y769095D01*
X-282706Y769051D01*
X-282750Y769004D01*
X-282792Y768954D01*
X-282830Y768902D01*
X-282865Y768848D01*
X-282897Y768791D01*
X-282926Y768733D01*
X-282950Y768673D01*
X-282971Y768612D01*
X-282989Y768550D01*
X-283002Y768486D01*
X-283012Y768422D01*
X-283018Y768358D01*
X-283020Y768293D01*
X-283020Y766684D01*
X-285165Y766684D01*
X-285165Y769365D01*
D15*
X266400Y350890D02*
X266400Y345810D01*
X266400Y371210D02*
X266400Y376290D01*
X266400Y396610D02*
X266400Y401690D01*
X266400Y422010D02*
X266400Y427090D01*
X266400Y447410D02*
X266400Y452490D01*
X266400Y325490D02*
X266400Y322950D01*
X256494Y322950D01*
X253700Y325744D01*
X266400Y322950D02*
X276306Y322950D01*
X279100Y325744D01*
X266400Y472810D02*
X266400Y475350D01*
X276306Y475350D01*
X279100Y472556D01*
X266400Y475350D02*
X256494Y475350D01*
X253700Y472556D01*
D13*
X238103Y322364D02*
X234349Y322364D01*
X238103Y322363D02*
X238168Y322361D01*
X238232Y322355D01*
X238296Y322345D01*
X238360Y322332D01*
X238422Y322314D01*
X238483Y322293D01*
X238543Y322269D01*
X238601Y322240D01*
X238658Y322208D01*
X238712Y322173D01*
X238764Y322135D01*
X238814Y322093D01*
X238861Y322049D01*
X238905Y322002D01*
X238947Y321952D01*
X238985Y321900D01*
X239020Y321846D01*
X239052Y321789D01*
X239081Y321731D01*
X239105Y321671D01*
X239126Y321610D01*
X239144Y321548D01*
X239157Y321484D01*
X239167Y321420D01*
X239173Y321356D01*
X239175Y321291D01*
X239175Y320755D01*
X236494Y325312D02*
X236494Y326920D01*
X236496Y326985D01*
X236502Y327049D01*
X236512Y327113D01*
X236525Y327177D01*
X236543Y327239D01*
X236564Y327300D01*
X236588Y327360D01*
X236617Y327418D01*
X236649Y327475D01*
X236684Y327529D01*
X236722Y327581D01*
X236764Y327631D01*
X236808Y327678D01*
X236855Y327722D01*
X236905Y327764D01*
X236957Y327802D01*
X237011Y327837D01*
X237068Y327869D01*
X237126Y327898D01*
X237186Y327922D01*
X237247Y327943D01*
X237309Y327961D01*
X237373Y327974D01*
X237437Y327984D01*
X237501Y327990D01*
X237566Y327992D01*
X237566Y327993D02*
X237834Y327993D01*
X237905Y327991D01*
X237977Y327985D01*
X238047Y327976D01*
X238117Y327963D01*
X238187Y327946D01*
X238255Y327925D01*
X238322Y327901D01*
X238388Y327873D01*
X238452Y327842D01*
X238515Y327807D01*
X238575Y327769D01*
X238634Y327728D01*
X238690Y327684D01*
X238744Y327637D01*
X238795Y327588D01*
X238843Y327535D01*
X238889Y327480D01*
X238931Y327423D01*
X238971Y327363D01*
X239007Y327302D01*
X239040Y327238D01*
X239069Y327173D01*
X239095Y327107D01*
X239118Y327039D01*
X239137Y326970D01*
X239152Y326900D01*
X239163Y326830D01*
X239171Y326759D01*
X239175Y326688D01*
X239175Y326616D01*
X239171Y326545D01*
X239163Y326474D01*
X239152Y326404D01*
X239137Y326334D01*
X239118Y326265D01*
X239095Y326197D01*
X239069Y326131D01*
X239040Y326066D01*
X239007Y326002D01*
X238971Y325941D01*
X238931Y325881D01*
X238889Y325824D01*
X238843Y325769D01*
X238795Y325716D01*
X238744Y325667D01*
X238690Y325620D01*
X238634Y325576D01*
X238575Y325535D01*
X238515Y325497D01*
X238452Y325462D01*
X238388Y325431D01*
X238322Y325403D01*
X238255Y325379D01*
X238187Y325358D01*
X238117Y325341D01*
X238047Y325328D01*
X237977Y325319D01*
X237905Y325313D01*
X237834Y325311D01*
X237834Y325312D02*
X236494Y325312D01*
X236403Y325314D01*
X236312Y325320D01*
X236222Y325329D01*
X236131Y325343D01*
X236042Y325360D01*
X235954Y325381D01*
X235866Y325406D01*
X235779Y325435D01*
X235694Y325467D01*
X235610Y325502D01*
X235528Y325542D01*
X235448Y325584D01*
X235369Y325630D01*
X235293Y325680D01*
X235219Y325732D01*
X235146Y325788D01*
X235077Y325847D01*
X235010Y325908D01*
X234945Y325973D01*
X234884Y326040D01*
X234825Y326109D01*
X234769Y326181D01*
X234717Y326256D01*
X234667Y326332D01*
X234621Y326411D01*
X234579Y326491D01*
X234539Y326573D01*
X234504Y326657D01*
X234472Y326742D01*
X234443Y326829D01*
X234418Y326916D01*
X234397Y327005D01*
X234380Y327094D01*
X234366Y327184D01*
X234357Y327275D01*
X234351Y327366D01*
X234349Y327457D01*
X-241300Y923840D02*
X-241300Y992420D01*
X-139700Y992420D02*
X-139700Y923840D01*
X-139700Y992420D02*
X-241300Y992420D01*
X-177800Y923840D02*
X-139700Y923840D01*
X-177800Y923840D02*
X-228600Y923840D01*
X-241300Y923840D01*
X-228600Y923840D02*
X-228600Y936540D01*
X-177800Y936540D01*
X-177800Y923840D01*
D10*
X-184300Y983940D02*
X-184298Y984101D01*
X-184292Y984261D01*
X-184282Y984422D01*
X-184268Y984582D01*
X-184250Y984742D01*
X-184229Y984901D01*
X-184203Y985060D01*
X-184173Y985218D01*
X-184140Y985375D01*
X-184102Y985532D01*
X-184061Y985687D01*
X-184016Y985841D01*
X-183967Y985994D01*
X-183914Y986146D01*
X-183858Y986297D01*
X-183797Y986446D01*
X-183734Y986594D01*
X-183666Y986740D01*
X-183595Y986884D01*
X-183521Y987026D01*
X-183443Y987167D01*
X-183361Y987305D01*
X-183276Y987442D01*
X-183188Y987576D01*
X-183096Y987708D01*
X-183001Y987838D01*
X-182903Y987966D01*
X-182802Y988091D01*
X-182698Y988213D01*
X-182591Y988333D01*
X-182481Y988450D01*
X-182368Y988565D01*
X-182252Y988676D01*
X-182133Y988785D01*
X-182012Y988890D01*
X-181888Y988993D01*
X-181762Y989093D01*
X-181634Y989189D01*
X-181503Y989282D01*
X-181369Y989372D01*
X-181234Y989459D01*
X-181096Y989542D01*
X-180957Y989622D01*
X-180815Y989698D01*
X-180672Y989771D01*
X-180527Y989840D01*
X-180380Y989906D01*
X-180232Y989968D01*
X-180082Y990026D01*
X-179931Y990081D01*
X-179778Y990132D01*
X-179624Y990179D01*
X-179469Y990222D01*
X-179313Y990261D01*
X-179157Y990297D01*
X-178999Y990328D01*
X-178841Y990356D01*
X-178682Y990380D01*
X-178522Y990400D01*
X-178362Y990416D01*
X-178202Y990428D01*
X-178041Y990436D01*
X-177880Y990440D01*
X-177720Y990440D01*
X-177559Y990436D01*
X-177398Y990428D01*
X-177238Y990416D01*
X-177078Y990400D01*
X-176918Y990380D01*
X-176759Y990356D01*
X-176601Y990328D01*
X-176443Y990297D01*
X-176287Y990261D01*
X-176131Y990222D01*
X-175976Y990179D01*
X-175822Y990132D01*
X-175669Y990081D01*
X-175518Y990026D01*
X-175368Y989968D01*
X-175220Y989906D01*
X-175073Y989840D01*
X-174928Y989771D01*
X-174785Y989698D01*
X-174643Y989622D01*
X-174504Y989542D01*
X-174366Y989459D01*
X-174231Y989372D01*
X-174097Y989282D01*
X-173966Y989189D01*
X-173838Y989093D01*
X-173712Y988993D01*
X-173588Y988890D01*
X-173467Y988785D01*
X-173348Y988676D01*
X-173232Y988565D01*
X-173119Y988450D01*
X-173009Y988333D01*
X-172902Y988213D01*
X-172798Y988091D01*
X-172697Y987966D01*
X-172599Y987838D01*
X-172504Y987708D01*
X-172412Y987576D01*
X-172324Y987442D01*
X-172239Y987305D01*
X-172157Y987167D01*
X-172079Y987026D01*
X-172005Y986884D01*
X-171934Y986740D01*
X-171866Y986594D01*
X-171803Y986446D01*
X-171742Y986297D01*
X-171686Y986146D01*
X-171633Y985994D01*
X-171584Y985841D01*
X-171539Y985687D01*
X-171498Y985532D01*
X-171460Y985375D01*
X-171427Y985218D01*
X-171397Y985060D01*
X-171371Y984901D01*
X-171350Y984742D01*
X-171332Y984582D01*
X-171318Y984422D01*
X-171308Y984261D01*
X-171302Y984101D01*
X-171300Y983940D01*
X-171302Y983779D01*
X-171308Y983619D01*
X-171318Y983458D01*
X-171332Y983298D01*
X-171350Y983138D01*
X-171371Y982979D01*
X-171397Y982820D01*
X-171427Y982662D01*
X-171460Y982505D01*
X-171498Y982348D01*
X-171539Y982193D01*
X-171584Y982039D01*
X-171633Y981886D01*
X-171686Y981734D01*
X-171742Y981583D01*
X-171803Y981434D01*
X-171866Y981286D01*
X-171934Y981140D01*
X-172005Y980996D01*
X-172079Y980854D01*
X-172157Y980713D01*
X-172239Y980575D01*
X-172324Y980438D01*
X-172412Y980304D01*
X-172504Y980172D01*
X-172599Y980042D01*
X-172697Y979914D01*
X-172798Y979789D01*
X-172902Y979667D01*
X-173009Y979547D01*
X-173119Y979430D01*
X-173232Y979315D01*
X-173348Y979204D01*
X-173467Y979095D01*
X-173588Y978990D01*
X-173712Y978887D01*
X-173838Y978787D01*
X-173966Y978691D01*
X-174097Y978598D01*
X-174231Y978508D01*
X-174366Y978421D01*
X-174504Y978338D01*
X-174643Y978258D01*
X-174785Y978182D01*
X-174928Y978109D01*
X-175073Y978040D01*
X-175220Y977974D01*
X-175368Y977912D01*
X-175518Y977854D01*
X-175669Y977799D01*
X-175822Y977748D01*
X-175976Y977701D01*
X-176131Y977658D01*
X-176287Y977619D01*
X-176443Y977583D01*
X-176601Y977552D01*
X-176759Y977524D01*
X-176918Y977500D01*
X-177078Y977480D01*
X-177238Y977464D01*
X-177398Y977452D01*
X-177559Y977444D01*
X-177720Y977440D01*
X-177880Y977440D01*
X-178041Y977444D01*
X-178202Y977452D01*
X-178362Y977464D01*
X-178522Y977480D01*
X-178682Y977500D01*
X-178841Y977524D01*
X-178999Y977552D01*
X-179157Y977583D01*
X-179313Y977619D01*
X-179469Y977658D01*
X-179624Y977701D01*
X-179778Y977748D01*
X-179931Y977799D01*
X-180082Y977854D01*
X-180232Y977912D01*
X-180380Y977974D01*
X-180527Y978040D01*
X-180672Y978109D01*
X-180815Y978182D01*
X-180957Y978258D01*
X-181096Y978338D01*
X-181234Y978421D01*
X-181369Y978508D01*
X-181503Y978598D01*
X-181634Y978691D01*
X-181762Y978787D01*
X-181888Y978887D01*
X-182012Y978990D01*
X-182133Y979095D01*
X-182252Y979204D01*
X-182368Y979315D01*
X-182481Y979430D01*
X-182591Y979547D01*
X-182698Y979667D01*
X-182802Y979789D01*
X-182903Y979914D01*
X-183001Y980042D01*
X-183096Y980172D01*
X-183188Y980304D01*
X-183276Y980438D01*
X-183361Y980575D01*
X-183443Y980713D01*
X-183521Y980854D01*
X-183595Y980996D01*
X-183666Y981140D01*
X-183734Y981286D01*
X-183797Y981434D01*
X-183858Y981583D01*
X-183914Y981734D01*
X-183967Y981886D01*
X-184016Y982039D01*
X-184061Y982193D01*
X-184102Y982348D01*
X-184140Y982505D01*
X-184173Y982662D01*
X-184203Y982820D01*
X-184229Y982979D01*
X-184250Y983138D01*
X-184268Y983298D01*
X-184282Y983458D01*
X-184292Y983619D01*
X-184298Y983779D01*
X-184300Y983940D01*
X-184300Y939940D02*
X-184298Y940101D01*
X-184292Y940261D01*
X-184282Y940422D01*
X-184268Y940582D01*
X-184250Y940742D01*
X-184229Y940901D01*
X-184203Y941060D01*
X-184173Y941218D01*
X-184140Y941375D01*
X-184102Y941532D01*
X-184061Y941687D01*
X-184016Y941841D01*
X-183967Y941994D01*
X-183914Y942146D01*
X-183858Y942297D01*
X-183797Y942446D01*
X-183734Y942594D01*
X-183666Y942740D01*
X-183595Y942884D01*
X-183521Y943026D01*
X-183443Y943167D01*
X-183361Y943305D01*
X-183276Y943442D01*
X-183188Y943576D01*
X-183096Y943708D01*
X-183001Y943838D01*
X-182903Y943966D01*
X-182802Y944091D01*
X-182698Y944213D01*
X-182591Y944333D01*
X-182481Y944450D01*
X-182368Y944565D01*
X-182252Y944676D01*
X-182133Y944785D01*
X-182012Y944890D01*
X-181888Y944993D01*
X-181762Y945093D01*
X-181634Y945189D01*
X-181503Y945282D01*
X-181369Y945372D01*
X-181234Y945459D01*
X-181096Y945542D01*
X-180957Y945622D01*
X-180815Y945698D01*
X-180672Y945771D01*
X-180527Y945840D01*
X-180380Y945906D01*
X-180232Y945968D01*
X-180082Y946026D01*
X-179931Y946081D01*
X-179778Y946132D01*
X-179624Y946179D01*
X-179469Y946222D01*
X-179313Y946261D01*
X-179157Y946297D01*
X-178999Y946328D01*
X-178841Y946356D01*
X-178682Y946380D01*
X-178522Y946400D01*
X-178362Y946416D01*
X-178202Y946428D01*
X-178041Y946436D01*
X-177880Y946440D01*
X-177720Y946440D01*
X-177559Y946436D01*
X-177398Y946428D01*
X-177238Y946416D01*
X-177078Y946400D01*
X-176918Y946380D01*
X-176759Y946356D01*
X-176601Y946328D01*
X-176443Y946297D01*
X-176287Y946261D01*
X-176131Y946222D01*
X-175976Y946179D01*
X-175822Y946132D01*
X-175669Y946081D01*
X-175518Y946026D01*
X-175368Y945968D01*
X-175220Y945906D01*
X-175073Y945840D01*
X-174928Y945771D01*
X-174785Y945698D01*
X-174643Y945622D01*
X-174504Y945542D01*
X-174366Y945459D01*
X-174231Y945372D01*
X-174097Y945282D01*
X-173966Y945189D01*
X-173838Y945093D01*
X-173712Y944993D01*
X-173588Y944890D01*
X-173467Y944785D01*
X-173348Y944676D01*
X-173232Y944565D01*
X-173119Y944450D01*
X-173009Y944333D01*
X-172902Y944213D01*
X-172798Y944091D01*
X-172697Y943966D01*
X-172599Y943838D01*
X-172504Y943708D01*
X-172412Y943576D01*
X-172324Y943442D01*
X-172239Y943305D01*
X-172157Y943167D01*
X-172079Y943026D01*
X-172005Y942884D01*
X-171934Y942740D01*
X-171866Y942594D01*
X-171803Y942446D01*
X-171742Y942297D01*
X-171686Y942146D01*
X-171633Y941994D01*
X-171584Y941841D01*
X-171539Y941687D01*
X-171498Y941532D01*
X-171460Y941375D01*
X-171427Y941218D01*
X-171397Y941060D01*
X-171371Y940901D01*
X-171350Y940742D01*
X-171332Y940582D01*
X-171318Y940422D01*
X-171308Y940261D01*
X-171302Y940101D01*
X-171300Y939940D01*
X-171302Y939779D01*
X-171308Y939619D01*
X-171318Y939458D01*
X-171332Y939298D01*
X-171350Y939138D01*
X-171371Y938979D01*
X-171397Y938820D01*
X-171427Y938662D01*
X-171460Y938505D01*
X-171498Y938348D01*
X-171539Y938193D01*
X-171584Y938039D01*
X-171633Y937886D01*
X-171686Y937734D01*
X-171742Y937583D01*
X-171803Y937434D01*
X-171866Y937286D01*
X-171934Y937140D01*
X-172005Y936996D01*
X-172079Y936854D01*
X-172157Y936713D01*
X-172239Y936575D01*
X-172324Y936438D01*
X-172412Y936304D01*
X-172504Y936172D01*
X-172599Y936042D01*
X-172697Y935914D01*
X-172798Y935789D01*
X-172902Y935667D01*
X-173009Y935547D01*
X-173119Y935430D01*
X-173232Y935315D01*
X-173348Y935204D01*
X-173467Y935095D01*
X-173588Y934990D01*
X-173712Y934887D01*
X-173838Y934787D01*
X-173966Y934691D01*
X-174097Y934598D01*
X-174231Y934508D01*
X-174366Y934421D01*
X-174504Y934338D01*
X-174643Y934258D01*
X-174785Y934182D01*
X-174928Y934109D01*
X-175073Y934040D01*
X-175220Y933974D01*
X-175368Y933912D01*
X-175518Y933854D01*
X-175669Y933799D01*
X-175822Y933748D01*
X-175976Y933701D01*
X-176131Y933658D01*
X-176287Y933619D01*
X-176443Y933583D01*
X-176601Y933552D01*
X-176759Y933524D01*
X-176918Y933500D01*
X-177078Y933480D01*
X-177238Y933464D01*
X-177398Y933452D01*
X-177559Y933444D01*
X-177720Y933440D01*
X-177880Y933440D01*
X-178041Y933444D01*
X-178202Y933452D01*
X-178362Y933464D01*
X-178522Y933480D01*
X-178682Y933500D01*
X-178841Y933524D01*
X-178999Y933552D01*
X-179157Y933583D01*
X-179313Y933619D01*
X-179469Y933658D01*
X-179624Y933701D01*
X-179778Y933748D01*
X-179931Y933799D01*
X-180082Y933854D01*
X-180232Y933912D01*
X-180380Y933974D01*
X-180527Y934040D01*
X-180672Y934109D01*
X-180815Y934182D01*
X-180957Y934258D01*
X-181096Y934338D01*
X-181234Y934421D01*
X-181369Y934508D01*
X-181503Y934598D01*
X-181634Y934691D01*
X-181762Y934787D01*
X-181888Y934887D01*
X-182012Y934990D01*
X-182133Y935095D01*
X-182252Y935204D01*
X-182368Y935315D01*
X-182481Y935430D01*
X-182591Y935547D01*
X-182698Y935667D01*
X-182802Y935789D01*
X-182903Y935914D01*
X-183001Y936042D01*
X-183096Y936172D01*
X-183188Y936304D01*
X-183276Y936438D01*
X-183361Y936575D01*
X-183443Y936713D01*
X-183521Y936854D01*
X-183595Y936996D01*
X-183666Y937140D01*
X-183734Y937286D01*
X-183797Y937434D01*
X-183858Y937583D01*
X-183914Y937734D01*
X-183967Y937886D01*
X-184016Y938039D01*
X-184061Y938193D01*
X-184102Y938348D01*
X-184140Y938505D01*
X-184173Y938662D01*
X-184203Y938820D01*
X-184229Y938979D01*
X-184250Y939138D01*
X-184268Y939298D01*
X-184282Y939458D01*
X-184292Y939619D01*
X-184298Y939779D01*
X-184300Y939940D01*
D13*
X-239056Y980157D02*
X-239056Y983911D01*
X-239057Y980157D02*
X-239059Y980092D01*
X-239065Y980028D01*
X-239075Y979964D01*
X-239088Y979900D01*
X-239106Y979838D01*
X-239127Y979777D01*
X-239151Y979717D01*
X-239180Y979659D01*
X-239212Y979602D01*
X-239247Y979548D01*
X-239285Y979496D01*
X-239327Y979446D01*
X-239371Y979399D01*
X-239418Y979355D01*
X-239468Y979313D01*
X-239520Y979275D01*
X-239574Y979240D01*
X-239631Y979208D01*
X-239689Y979179D01*
X-239749Y979155D01*
X-239810Y979134D01*
X-239872Y979116D01*
X-239936Y979103D01*
X-240000Y979093D01*
X-240064Y979087D01*
X-240129Y979085D01*
X-240665Y979085D01*
X-234634Y983911D02*
X-234566Y983909D01*
X-234499Y983903D01*
X-234432Y983894D01*
X-234365Y983881D01*
X-234300Y983864D01*
X-234235Y983843D01*
X-234172Y983819D01*
X-234110Y983791D01*
X-234050Y983760D01*
X-233992Y983726D01*
X-233936Y983688D01*
X-233881Y983648D01*
X-233830Y983604D01*
X-233781Y983557D01*
X-233734Y983508D01*
X-233690Y983457D01*
X-233650Y983402D01*
X-233612Y983346D01*
X-233578Y983288D01*
X-233547Y983228D01*
X-233519Y983166D01*
X-233495Y983103D01*
X-233474Y983038D01*
X-233457Y982973D01*
X-233444Y982906D01*
X-233435Y982839D01*
X-233429Y982772D01*
X-233427Y982704D01*
X-234634Y983911D02*
X-234712Y983909D01*
X-234790Y983903D01*
X-234867Y983893D01*
X-234944Y983880D01*
X-235020Y983862D01*
X-235095Y983841D01*
X-235169Y983816D01*
X-235241Y983787D01*
X-235312Y983755D01*
X-235381Y983719D01*
X-235449Y983680D01*
X-235514Y983637D01*
X-235577Y983591D01*
X-235638Y983542D01*
X-235696Y983490D01*
X-235751Y983435D01*
X-235804Y983378D01*
X-235853Y983318D01*
X-235900Y983255D01*
X-235943Y983190D01*
X-235983Y983124D01*
X-236020Y983055D01*
X-236053Y982984D01*
X-236083Y982912D01*
X-236109Y982838D01*
X-233829Y981766D02*
X-233780Y981815D01*
X-233733Y981867D01*
X-233690Y981922D01*
X-233649Y981979D01*
X-233611Y982038D01*
X-233577Y982099D01*
X-233546Y982162D01*
X-233518Y982226D01*
X-233494Y982292D01*
X-233474Y982358D01*
X-233457Y982426D01*
X-233444Y982495D01*
X-233435Y982564D01*
X-233429Y982634D01*
X-233427Y982704D01*
X-233829Y981766D02*
X-236108Y979085D01*
X-233427Y979085D01*
X-202960Y897800D02*
X-172960Y897800D01*
X-202960Y897800D02*
X-202960Y881300D01*
X-172960Y881300D01*
X-172960Y897800D01*
X-178290Y893490D02*
X-178288Y893570D01*
X-178282Y893650D01*
X-178272Y893730D01*
X-178258Y893809D01*
X-178241Y893887D01*
X-178219Y893964D01*
X-178194Y894040D01*
X-178165Y894115D01*
X-178132Y894188D01*
X-178096Y894259D01*
X-178056Y894329D01*
X-178013Y894396D01*
X-177966Y894462D01*
X-177917Y894524D01*
X-177864Y894585D01*
X-177808Y894643D01*
X-177750Y894697D01*
X-177689Y894749D01*
X-177625Y894798D01*
X-177560Y894844D01*
X-177492Y894886D01*
X-177421Y894925D01*
X-177350Y894961D01*
X-177276Y894992D01*
X-177201Y895021D01*
X-177125Y895045D01*
X-177047Y895065D01*
X-176969Y895082D01*
X-176890Y895095D01*
X-176810Y895104D01*
X-176730Y895109D01*
X-176650Y895110D01*
X-176570Y895107D01*
X-176490Y895100D01*
X-176411Y895089D01*
X-176332Y895074D01*
X-176254Y895056D01*
X-176177Y895033D01*
X-176101Y895007D01*
X-176027Y894977D01*
X-175954Y894943D01*
X-175883Y894906D01*
X-175814Y894865D01*
X-175747Y894821D01*
X-175682Y894774D01*
X-175620Y894724D01*
X-175560Y894670D01*
X-175503Y894614D01*
X-175449Y894555D01*
X-175398Y894493D01*
X-175350Y894429D01*
X-175305Y894363D01*
X-175264Y894294D01*
X-175226Y894224D01*
X-175191Y894151D01*
X-175160Y894077D01*
X-175133Y894002D01*
X-175110Y893925D01*
X-175090Y893848D01*
X-175074Y893769D01*
X-175062Y893690D01*
X-175054Y893610D01*
X-175050Y893530D01*
X-175050Y893450D01*
X-175054Y893370D01*
X-175062Y893290D01*
X-175074Y893211D01*
X-175090Y893132D01*
X-175110Y893055D01*
X-175133Y892978D01*
X-175160Y892903D01*
X-175191Y892829D01*
X-175226Y892756D01*
X-175264Y892686D01*
X-175305Y892617D01*
X-175350Y892551D01*
X-175398Y892487D01*
X-175449Y892425D01*
X-175503Y892366D01*
X-175560Y892310D01*
X-175620Y892256D01*
X-175682Y892206D01*
X-175747Y892159D01*
X-175814Y892115D01*
X-175883Y892074D01*
X-175954Y892037D01*
X-176027Y892003D01*
X-176101Y891973D01*
X-176177Y891947D01*
X-176254Y891924D01*
X-176332Y891906D01*
X-176411Y891891D01*
X-176490Y891880D01*
X-176570Y891873D01*
X-176650Y891870D01*
X-176730Y891871D01*
X-176810Y891876D01*
X-176890Y891885D01*
X-176969Y891898D01*
X-177047Y891915D01*
X-177125Y891935D01*
X-177201Y891959D01*
X-177276Y891988D01*
X-177350Y892019D01*
X-177421Y892055D01*
X-177492Y892094D01*
X-177560Y892136D01*
X-177625Y892182D01*
X-177689Y892231D01*
X-177750Y892283D01*
X-177808Y892337D01*
X-177864Y892395D01*
X-177917Y892456D01*
X-177966Y892518D01*
X-178013Y892584D01*
X-178056Y892651D01*
X-178096Y892721D01*
X-178132Y892792D01*
X-178165Y892865D01*
X-178194Y892940D01*
X-178219Y893016D01*
X-178241Y893093D01*
X-178258Y893171D01*
X-178272Y893250D01*
X-178282Y893330D01*
X-178288Y893410D01*
X-178290Y893490D01*
D12*
X-137922Y879898D02*
X-126238Y879898D01*
X-137922Y879898D02*
X-137922Y883144D01*
X-137920Y883257D01*
X-137914Y883370D01*
X-137904Y883483D01*
X-137890Y883596D01*
X-137873Y883708D01*
X-137851Y883819D01*
X-137826Y883929D01*
X-137796Y884039D01*
X-137763Y884147D01*
X-137726Y884254D01*
X-137686Y884360D01*
X-137641Y884464D01*
X-137593Y884567D01*
X-137542Y884668D01*
X-137487Y884767D01*
X-137429Y884864D01*
X-137367Y884959D01*
X-137302Y885052D01*
X-137234Y885142D01*
X-137163Y885230D01*
X-137088Y885316D01*
X-137011Y885399D01*
X-136931Y885479D01*
X-136848Y885556D01*
X-136762Y885631D01*
X-136674Y885702D01*
X-136584Y885770D01*
X-136491Y885835D01*
X-136396Y885897D01*
X-136299Y885955D01*
X-136200Y886010D01*
X-136099Y886061D01*
X-135996Y886109D01*
X-135892Y886154D01*
X-135786Y886194D01*
X-135679Y886231D01*
X-135571Y886264D01*
X-135461Y886294D01*
X-135351Y886319D01*
X-135240Y886341D01*
X-135128Y886358D01*
X-135015Y886372D01*
X-134902Y886382D01*
X-134789Y886388D01*
X-134676Y886390D01*
X-134563Y886388D01*
X-134450Y886382D01*
X-134337Y886372D01*
X-134224Y886358D01*
X-134112Y886341D01*
X-134001Y886319D01*
X-133891Y886294D01*
X-133781Y886264D01*
X-133673Y886231D01*
X-133566Y886194D01*
X-133460Y886154D01*
X-133356Y886109D01*
X-133253Y886061D01*
X-133152Y886010D01*
X-133053Y885955D01*
X-132956Y885897D01*
X-132861Y885835D01*
X-132768Y885770D01*
X-132678Y885702D01*
X-132590Y885631D01*
X-132504Y885556D01*
X-132421Y885479D01*
X-132341Y885399D01*
X-132264Y885316D01*
X-132189Y885230D01*
X-132118Y885142D01*
X-132050Y885052D01*
X-131985Y884959D01*
X-131923Y884864D01*
X-131865Y884767D01*
X-131810Y884668D01*
X-131759Y884567D01*
X-131711Y884464D01*
X-131666Y884360D01*
X-131626Y884254D01*
X-131589Y884147D01*
X-131556Y884039D01*
X-131526Y883929D01*
X-131501Y883819D01*
X-131479Y883708D01*
X-131462Y883596D01*
X-131448Y883483D01*
X-131438Y883370D01*
X-131432Y883257D01*
X-131430Y883144D01*
X-131431Y883144D02*
X-131431Y879898D01*
X-131431Y883793D02*
X-126238Y886389D01*
X-135326Y891254D02*
X-137922Y894500D01*
X-126238Y894500D01*
X-126238Y897745D02*
X-126238Y891254D01*
X-243078Y882551D02*
X-243078Y879954D01*
X-243080Y879855D01*
X-243086Y879755D01*
X-243095Y879656D01*
X-243108Y879558D01*
X-243125Y879460D01*
X-243146Y879362D01*
X-243171Y879266D01*
X-243199Y879171D01*
X-243231Y879077D01*
X-243266Y878984D01*
X-243305Y878892D01*
X-243348Y878802D01*
X-243393Y878714D01*
X-243443Y878627D01*
X-243495Y878543D01*
X-243551Y878460D01*
X-243609Y878380D01*
X-243671Y878302D01*
X-243736Y878227D01*
X-243804Y878154D01*
X-243874Y878084D01*
X-243947Y878016D01*
X-244022Y877951D01*
X-244100Y877889D01*
X-244180Y877831D01*
X-244263Y877775D01*
X-244347Y877723D01*
X-244434Y877673D01*
X-244522Y877628D01*
X-244612Y877585D01*
X-244704Y877546D01*
X-244797Y877511D01*
X-244891Y877479D01*
X-244986Y877451D01*
X-245082Y877426D01*
X-245180Y877405D01*
X-245278Y877388D01*
X-245376Y877375D01*
X-245475Y877366D01*
X-245575Y877360D01*
X-245674Y877358D01*
X-252166Y877358D01*
X-252265Y877360D01*
X-252365Y877366D01*
X-252464Y877375D01*
X-252562Y877388D01*
X-252660Y877405D01*
X-252758Y877426D01*
X-252854Y877451D01*
X-252949Y877479D01*
X-253043Y877511D01*
X-253136Y877546D01*
X-253228Y877585D01*
X-253318Y877628D01*
X-253406Y877673D01*
X-253493Y877723D01*
X-253577Y877775D01*
X-253660Y877831D01*
X-253740Y877889D01*
X-253818Y877951D01*
X-253893Y878016D01*
X-253966Y878084D01*
X-254036Y878154D01*
X-254104Y878227D01*
X-254169Y878302D01*
X-254231Y878380D01*
X-254289Y878460D01*
X-254345Y878543D01*
X-254397Y878627D01*
X-254447Y878714D01*
X-254492Y878802D01*
X-254535Y878892D01*
X-254574Y878984D01*
X-254609Y879076D01*
X-254641Y879171D01*
X-254669Y879266D01*
X-254694Y879362D01*
X-254715Y879460D01*
X-254732Y879558D01*
X-254745Y879656D01*
X-254754Y879755D01*
X-254760Y879855D01*
X-254762Y879954D01*
X-254762Y882551D01*
X-243078Y886916D02*
X-243078Y890162D01*
X-243080Y890275D01*
X-243086Y890388D01*
X-243096Y890501D01*
X-243110Y890614D01*
X-243127Y890726D01*
X-243149Y890837D01*
X-243174Y890947D01*
X-243204Y891057D01*
X-243237Y891165D01*
X-243274Y891272D01*
X-243314Y891378D01*
X-243359Y891482D01*
X-243407Y891585D01*
X-243458Y891686D01*
X-243513Y891785D01*
X-243571Y891882D01*
X-243633Y891977D01*
X-243698Y892070D01*
X-243766Y892160D01*
X-243837Y892248D01*
X-243912Y892334D01*
X-243989Y892417D01*
X-244069Y892497D01*
X-244152Y892574D01*
X-244238Y892649D01*
X-244326Y892720D01*
X-244416Y892788D01*
X-244509Y892853D01*
X-244604Y892915D01*
X-244701Y892973D01*
X-244800Y893028D01*
X-244901Y893079D01*
X-245004Y893127D01*
X-245108Y893172D01*
X-245214Y893212D01*
X-245321Y893249D01*
X-245429Y893282D01*
X-245539Y893312D01*
X-245649Y893337D01*
X-245760Y893359D01*
X-245872Y893376D01*
X-245985Y893390D01*
X-246098Y893400D01*
X-246211Y893406D01*
X-246324Y893408D01*
X-246437Y893406D01*
X-246550Y893400D01*
X-246663Y893390D01*
X-246776Y893376D01*
X-246888Y893359D01*
X-246999Y893337D01*
X-247109Y893312D01*
X-247219Y893282D01*
X-247327Y893249D01*
X-247434Y893212D01*
X-247540Y893172D01*
X-247644Y893127D01*
X-247747Y893079D01*
X-247848Y893028D01*
X-247947Y892973D01*
X-248044Y892915D01*
X-248139Y892853D01*
X-248232Y892788D01*
X-248322Y892720D01*
X-248410Y892649D01*
X-248496Y892574D01*
X-248579Y892497D01*
X-248659Y892417D01*
X-248736Y892334D01*
X-248811Y892248D01*
X-248882Y892160D01*
X-248950Y892070D01*
X-249015Y891977D01*
X-249077Y891882D01*
X-249135Y891785D01*
X-249190Y891686D01*
X-249241Y891585D01*
X-249289Y891482D01*
X-249334Y891378D01*
X-249374Y891272D01*
X-249411Y891165D01*
X-249444Y891057D01*
X-249474Y890947D01*
X-249499Y890837D01*
X-249521Y890726D01*
X-249538Y890614D01*
X-249552Y890501D01*
X-249562Y890388D01*
X-249568Y890275D01*
X-249570Y890162D01*
X-254762Y890811D02*
X-254762Y886916D01*
X-254762Y890811D02*
X-254760Y890912D01*
X-254754Y891012D01*
X-254744Y891112D01*
X-254731Y891212D01*
X-254713Y891311D01*
X-254692Y891410D01*
X-254667Y891507D01*
X-254638Y891604D01*
X-254605Y891699D01*
X-254569Y891793D01*
X-254529Y891885D01*
X-254486Y891976D01*
X-254439Y892065D01*
X-254389Y892152D01*
X-254335Y892238D01*
X-254278Y892321D01*
X-254218Y892401D01*
X-254155Y892480D01*
X-254088Y892556D01*
X-254019Y892629D01*
X-253947Y892699D01*
X-253873Y892767D01*
X-253796Y892832D01*
X-253716Y892893D01*
X-253634Y892952D01*
X-253550Y893007D01*
X-253464Y893059D01*
X-253376Y893108D01*
X-253286Y893153D01*
X-253194Y893195D01*
X-253101Y893233D01*
X-253006Y893267D01*
X-252911Y893298D01*
X-252814Y893325D01*
X-252716Y893348D01*
X-252617Y893368D01*
X-252517Y893383D01*
X-252417Y893395D01*
X-252317Y893403D01*
X-252216Y893407D01*
X-252116Y893407D01*
X-252015Y893403D01*
X-251915Y893395D01*
X-251815Y893383D01*
X-251715Y893368D01*
X-251616Y893348D01*
X-251518Y893325D01*
X-251421Y893298D01*
X-251326Y893267D01*
X-251231Y893233D01*
X-251138Y893195D01*
X-251046Y893153D01*
X-250956Y893108D01*
X-250868Y893059D01*
X-250782Y893007D01*
X-250698Y892952D01*
X-250616Y892893D01*
X-250536Y892832D01*
X-250459Y892767D01*
X-250385Y892699D01*
X-250313Y892629D01*
X-250244Y892556D01*
X-250177Y892480D01*
X-250114Y892401D01*
X-250054Y892321D01*
X-249997Y892238D01*
X-249943Y892152D01*
X-249893Y892065D01*
X-249846Y891976D01*
X-249803Y891885D01*
X-249763Y891793D01*
X-249727Y891699D01*
X-249694Y891604D01*
X-249665Y891507D01*
X-249640Y891410D01*
X-249619Y891311D01*
X-249601Y891212D01*
X-249588Y891112D01*
X-249578Y891012D01*
X-249572Y890912D01*
X-249570Y890811D01*
X-249569Y890811D02*
X-249569Y888214D01*
X-217932Y835702D02*
X-217932Y824018D01*
X-217932Y835702D02*
X-214686Y835702D01*
X-214573Y835700D01*
X-214460Y835694D01*
X-214347Y835684D01*
X-214234Y835670D01*
X-214122Y835653D01*
X-214011Y835631D01*
X-213901Y835606D01*
X-213791Y835576D01*
X-213683Y835543D01*
X-213576Y835506D01*
X-213470Y835466D01*
X-213366Y835421D01*
X-213263Y835373D01*
X-213162Y835322D01*
X-213063Y835267D01*
X-212966Y835209D01*
X-212871Y835147D01*
X-212778Y835082D01*
X-212688Y835014D01*
X-212600Y834943D01*
X-212514Y834868D01*
X-212431Y834791D01*
X-212351Y834711D01*
X-212274Y834628D01*
X-212199Y834542D01*
X-212128Y834454D01*
X-212060Y834364D01*
X-211995Y834271D01*
X-211933Y834176D01*
X-211875Y834079D01*
X-211820Y833980D01*
X-211769Y833879D01*
X-211721Y833776D01*
X-211676Y833672D01*
X-211636Y833566D01*
X-211599Y833459D01*
X-211566Y833351D01*
X-211536Y833241D01*
X-211511Y833131D01*
X-211489Y833020D01*
X-211472Y832908D01*
X-211458Y832795D01*
X-211448Y832682D01*
X-211442Y832569D01*
X-211440Y832456D01*
X-211442Y832343D01*
X-211448Y832230D01*
X-211458Y832117D01*
X-211472Y832004D01*
X-211489Y831892D01*
X-211511Y831781D01*
X-211536Y831671D01*
X-211566Y831561D01*
X-211599Y831453D01*
X-211636Y831346D01*
X-211676Y831240D01*
X-211721Y831136D01*
X-211769Y831033D01*
X-211820Y830932D01*
X-211875Y830833D01*
X-211933Y830736D01*
X-211995Y830641D01*
X-212060Y830548D01*
X-212128Y830458D01*
X-212199Y830370D01*
X-212274Y830284D01*
X-212351Y830201D01*
X-212431Y830121D01*
X-212514Y830044D01*
X-212600Y829969D01*
X-212688Y829898D01*
X-212778Y829830D01*
X-212871Y829765D01*
X-212966Y829703D01*
X-213063Y829645D01*
X-213162Y829590D01*
X-213263Y829539D01*
X-213366Y829491D01*
X-213470Y829446D01*
X-213576Y829406D01*
X-213683Y829369D01*
X-213791Y829336D01*
X-213901Y829306D01*
X-214011Y829281D01*
X-214122Y829259D01*
X-214234Y829242D01*
X-214347Y829228D01*
X-214460Y829218D01*
X-214573Y829212D01*
X-214686Y829210D01*
X-214686Y829211D02*
X-217932Y829211D01*
X-214037Y829211D02*
X-211441Y824018D01*
X-200085Y832781D02*
X-200087Y832888D01*
X-200093Y832994D01*
X-200103Y833100D01*
X-200116Y833206D01*
X-200134Y833312D01*
X-200155Y833416D01*
X-200180Y833520D01*
X-200209Y833623D01*
X-200241Y833724D01*
X-200278Y833824D01*
X-200318Y833923D01*
X-200361Y834021D01*
X-200408Y834117D01*
X-200459Y834211D01*
X-200513Y834303D01*
X-200570Y834393D01*
X-200630Y834481D01*
X-200694Y834566D01*
X-200761Y834649D01*
X-200831Y834730D01*
X-200903Y834808D01*
X-200979Y834884D01*
X-201057Y834956D01*
X-201138Y835026D01*
X-201221Y835093D01*
X-201306Y835157D01*
X-201394Y835217D01*
X-201484Y835274D01*
X-201576Y835328D01*
X-201670Y835379D01*
X-201766Y835426D01*
X-201864Y835469D01*
X-201963Y835509D01*
X-202063Y835546D01*
X-202164Y835578D01*
X-202267Y835607D01*
X-202371Y835632D01*
X-202475Y835653D01*
X-202581Y835671D01*
X-202687Y835684D01*
X-202793Y835694D01*
X-202899Y835700D01*
X-203006Y835702D01*
X-203127Y835700D01*
X-203248Y835694D01*
X-203368Y835684D01*
X-203489Y835671D01*
X-203608Y835653D01*
X-203728Y835632D01*
X-203846Y835607D01*
X-203963Y835578D01*
X-204080Y835545D01*
X-204195Y835509D01*
X-204309Y835468D01*
X-204422Y835425D01*
X-204534Y835377D01*
X-204643Y835326D01*
X-204751Y835271D01*
X-204858Y835213D01*
X-204962Y835152D01*
X-205064Y835087D01*
X-205164Y835019D01*
X-205262Y834948D01*
X-205358Y834874D01*
X-205451Y834797D01*
X-205541Y834716D01*
X-205629Y834633D01*
X-205714Y834547D01*
X-205797Y834458D01*
X-205876Y834367D01*
X-205953Y834273D01*
X-206026Y834177D01*
X-206096Y834079D01*
X-206163Y833978D01*
X-206227Y833875D01*
X-206288Y833770D01*
X-206345Y833663D01*
X-206398Y833555D01*
X-206448Y833445D01*
X-206494Y833333D01*
X-206537Y833220D01*
X-206576Y833105D01*
X-201059Y830509D02*
X-200980Y830587D01*
X-200904Y830667D01*
X-200831Y830750D01*
X-200761Y830836D01*
X-200694Y830923D01*
X-200630Y831014D01*
X-200570Y831106D01*
X-200512Y831200D01*
X-200458Y831297D01*
X-200408Y831395D01*
X-200361Y831495D01*
X-200317Y831596D01*
X-200277Y831699D01*
X-200241Y831804D01*
X-200209Y831909D01*
X-200180Y832016D01*
X-200155Y832123D01*
X-200133Y832232D01*
X-200116Y832341D01*
X-200102Y832450D01*
X-200093Y832560D01*
X-200087Y832671D01*
X-200085Y832781D01*
X-201058Y830509D02*
X-206576Y824018D01*
X-200085Y824018D01*
X-176022Y824018D02*
X-176022Y835702D01*
X-172776Y835702D01*
X-172663Y835700D01*
X-172550Y835694D01*
X-172437Y835684D01*
X-172324Y835670D01*
X-172212Y835653D01*
X-172101Y835631D01*
X-171991Y835606D01*
X-171881Y835576D01*
X-171773Y835543D01*
X-171666Y835506D01*
X-171560Y835466D01*
X-171456Y835421D01*
X-171353Y835373D01*
X-171252Y835322D01*
X-171153Y835267D01*
X-171056Y835209D01*
X-170961Y835147D01*
X-170868Y835082D01*
X-170778Y835014D01*
X-170690Y834943D01*
X-170604Y834868D01*
X-170521Y834791D01*
X-170441Y834711D01*
X-170364Y834628D01*
X-170289Y834542D01*
X-170218Y834454D01*
X-170150Y834364D01*
X-170085Y834271D01*
X-170023Y834176D01*
X-169965Y834079D01*
X-169910Y833980D01*
X-169859Y833879D01*
X-169811Y833776D01*
X-169766Y833672D01*
X-169726Y833566D01*
X-169689Y833459D01*
X-169656Y833351D01*
X-169626Y833241D01*
X-169601Y833131D01*
X-169579Y833020D01*
X-169562Y832908D01*
X-169548Y832795D01*
X-169538Y832682D01*
X-169532Y832569D01*
X-169530Y832456D01*
X-169532Y832343D01*
X-169538Y832230D01*
X-169548Y832117D01*
X-169562Y832004D01*
X-169579Y831892D01*
X-169601Y831781D01*
X-169626Y831671D01*
X-169656Y831561D01*
X-169689Y831453D01*
X-169726Y831346D01*
X-169766Y831240D01*
X-169811Y831136D01*
X-169859Y831033D01*
X-169910Y830932D01*
X-169965Y830833D01*
X-170023Y830736D01*
X-170085Y830641D01*
X-170150Y830548D01*
X-170218Y830458D01*
X-170289Y830370D01*
X-170364Y830284D01*
X-170441Y830201D01*
X-170521Y830121D01*
X-170604Y830044D01*
X-170690Y829969D01*
X-170778Y829898D01*
X-170868Y829830D01*
X-170961Y829765D01*
X-171056Y829703D01*
X-171153Y829645D01*
X-171252Y829590D01*
X-171353Y829539D01*
X-171456Y829491D01*
X-171560Y829446D01*
X-171666Y829406D01*
X-171773Y829369D01*
X-171881Y829336D01*
X-171991Y829306D01*
X-172101Y829281D01*
X-172212Y829259D01*
X-172324Y829242D01*
X-172437Y829228D01*
X-172550Y829218D01*
X-172663Y829212D01*
X-172776Y829210D01*
X-172776Y829211D02*
X-176022Y829211D01*
X-172127Y829211D02*
X-169531Y824018D01*
X-164666Y824018D02*
X-161420Y824018D01*
X-161307Y824020D01*
X-161194Y824026D01*
X-161081Y824036D01*
X-160968Y824050D01*
X-160856Y824067D01*
X-160745Y824089D01*
X-160635Y824114D01*
X-160525Y824144D01*
X-160417Y824177D01*
X-160310Y824214D01*
X-160204Y824254D01*
X-160100Y824299D01*
X-159997Y824347D01*
X-159896Y824398D01*
X-159797Y824453D01*
X-159700Y824511D01*
X-159605Y824573D01*
X-159512Y824638D01*
X-159422Y824706D01*
X-159334Y824777D01*
X-159248Y824852D01*
X-159165Y824929D01*
X-159085Y825009D01*
X-159008Y825092D01*
X-158933Y825178D01*
X-158862Y825266D01*
X-158794Y825356D01*
X-158729Y825449D01*
X-158667Y825544D01*
X-158609Y825641D01*
X-158554Y825740D01*
X-158503Y825841D01*
X-158455Y825944D01*
X-158410Y826048D01*
X-158370Y826154D01*
X-158333Y826261D01*
X-158300Y826369D01*
X-158270Y826479D01*
X-158245Y826589D01*
X-158223Y826700D01*
X-158206Y826812D01*
X-158192Y826925D01*
X-158182Y827038D01*
X-158176Y827151D01*
X-158174Y827264D01*
X-158176Y827377D01*
X-158182Y827490D01*
X-158192Y827603D01*
X-158206Y827716D01*
X-158223Y827828D01*
X-158245Y827939D01*
X-158270Y828049D01*
X-158300Y828159D01*
X-158333Y828267D01*
X-158370Y828374D01*
X-158410Y828480D01*
X-158455Y828584D01*
X-158503Y828687D01*
X-158554Y828788D01*
X-158609Y828887D01*
X-158667Y828984D01*
X-158729Y829079D01*
X-158794Y829172D01*
X-158862Y829262D01*
X-158933Y829350D01*
X-159008Y829436D01*
X-159085Y829519D01*
X-159165Y829599D01*
X-159248Y829676D01*
X-159334Y829751D01*
X-159422Y829822D01*
X-159512Y829890D01*
X-159605Y829955D01*
X-159700Y830017D01*
X-159797Y830075D01*
X-159896Y830130D01*
X-159997Y830181D01*
X-160100Y830229D01*
X-160204Y830274D01*
X-160310Y830314D01*
X-160417Y830351D01*
X-160525Y830384D01*
X-160635Y830414D01*
X-160745Y830439D01*
X-160856Y830461D01*
X-160968Y830478D01*
X-161081Y830492D01*
X-161194Y830502D01*
X-161307Y830508D01*
X-161420Y830510D01*
X-160771Y835702D02*
X-164666Y835702D01*
X-160771Y835702D02*
X-160670Y835700D01*
X-160570Y835694D01*
X-160470Y835684D01*
X-160370Y835671D01*
X-160271Y835653D01*
X-160172Y835632D01*
X-160075Y835607D01*
X-159978Y835578D01*
X-159883Y835545D01*
X-159789Y835509D01*
X-159697Y835469D01*
X-159606Y835426D01*
X-159517Y835379D01*
X-159430Y835329D01*
X-159344Y835275D01*
X-159261Y835218D01*
X-159181Y835158D01*
X-159102Y835095D01*
X-159026Y835028D01*
X-158953Y834959D01*
X-158883Y834887D01*
X-158815Y834813D01*
X-158750Y834736D01*
X-158689Y834656D01*
X-158630Y834574D01*
X-158575Y834490D01*
X-158523Y834404D01*
X-158474Y834316D01*
X-158429Y834226D01*
X-158387Y834134D01*
X-158349Y834041D01*
X-158315Y833946D01*
X-158284Y833851D01*
X-158257Y833754D01*
X-158234Y833656D01*
X-158214Y833557D01*
X-158199Y833457D01*
X-158187Y833357D01*
X-158179Y833257D01*
X-158175Y833156D01*
X-158175Y833056D01*
X-158179Y832955D01*
X-158187Y832855D01*
X-158199Y832755D01*
X-158214Y832655D01*
X-158234Y832556D01*
X-158257Y832458D01*
X-158284Y832361D01*
X-158315Y832266D01*
X-158349Y832171D01*
X-158387Y832078D01*
X-158429Y831986D01*
X-158474Y831896D01*
X-158523Y831808D01*
X-158575Y831722D01*
X-158630Y831638D01*
X-158689Y831556D01*
X-158750Y831476D01*
X-158815Y831399D01*
X-158883Y831325D01*
X-158953Y831253D01*
X-159026Y831184D01*
X-159102Y831117D01*
X-159181Y831054D01*
X-159261Y830994D01*
X-159344Y830937D01*
X-159430Y830883D01*
X-159517Y830833D01*
X-159606Y830786D01*
X-159697Y830743D01*
X-159789Y830703D01*
X-159883Y830667D01*
X-159978Y830634D01*
X-160075Y830605D01*
X-160172Y830580D01*
X-160271Y830559D01*
X-160370Y830541D01*
X-160470Y830528D01*
X-160570Y830518D01*
X-160670Y830512D01*
X-160771Y830510D01*
X-160771Y830509D02*
X-163367Y830509D01*
D13*
X-91440Y925110D02*
X-91440Y993690D01*
X10160Y993690D02*
X10160Y925110D01*
X10160Y993690D02*
X-91440Y993690D01*
X-27940Y925110D02*
X10160Y925110D01*
X-27940Y925110D02*
X-78740Y925110D01*
X-91440Y925110D01*
X-78740Y925110D02*
X-78740Y937810D01*
X-27940Y937810D01*
X-27940Y925110D01*
D10*
X-34440Y985210D02*
X-34438Y985371D01*
X-34432Y985531D01*
X-34422Y985692D01*
X-34408Y985852D01*
X-34390Y986012D01*
X-34369Y986171D01*
X-34343Y986330D01*
X-34313Y986488D01*
X-34280Y986645D01*
X-34242Y986802D01*
X-34201Y986957D01*
X-34156Y987111D01*
X-34107Y987264D01*
X-34054Y987416D01*
X-33998Y987567D01*
X-33937Y987716D01*
X-33874Y987864D01*
X-33806Y988010D01*
X-33735Y988154D01*
X-33661Y988296D01*
X-33583Y988437D01*
X-33501Y988575D01*
X-33416Y988712D01*
X-33328Y988846D01*
X-33236Y988978D01*
X-33141Y989108D01*
X-33043Y989236D01*
X-32942Y989361D01*
X-32838Y989483D01*
X-32731Y989603D01*
X-32621Y989720D01*
X-32508Y989835D01*
X-32392Y989946D01*
X-32273Y990055D01*
X-32152Y990160D01*
X-32028Y990263D01*
X-31902Y990363D01*
X-31774Y990459D01*
X-31643Y990552D01*
X-31509Y990642D01*
X-31374Y990729D01*
X-31236Y990812D01*
X-31097Y990892D01*
X-30955Y990968D01*
X-30812Y991041D01*
X-30667Y991110D01*
X-30520Y991176D01*
X-30372Y991238D01*
X-30222Y991296D01*
X-30071Y991351D01*
X-29918Y991402D01*
X-29764Y991449D01*
X-29609Y991492D01*
X-29453Y991531D01*
X-29297Y991567D01*
X-29139Y991598D01*
X-28981Y991626D01*
X-28822Y991650D01*
X-28662Y991670D01*
X-28502Y991686D01*
X-28342Y991698D01*
X-28181Y991706D01*
X-28020Y991710D01*
X-27860Y991710D01*
X-27699Y991706D01*
X-27538Y991698D01*
X-27378Y991686D01*
X-27218Y991670D01*
X-27058Y991650D01*
X-26899Y991626D01*
X-26741Y991598D01*
X-26583Y991567D01*
X-26427Y991531D01*
X-26271Y991492D01*
X-26116Y991449D01*
X-25962Y991402D01*
X-25809Y991351D01*
X-25658Y991296D01*
X-25508Y991238D01*
X-25360Y991176D01*
X-25213Y991110D01*
X-25068Y991041D01*
X-24925Y990968D01*
X-24783Y990892D01*
X-24644Y990812D01*
X-24506Y990729D01*
X-24371Y990642D01*
X-24237Y990552D01*
X-24106Y990459D01*
X-23978Y990363D01*
X-23852Y990263D01*
X-23728Y990160D01*
X-23607Y990055D01*
X-23488Y989946D01*
X-23372Y989835D01*
X-23259Y989720D01*
X-23149Y989603D01*
X-23042Y989483D01*
X-22938Y989361D01*
X-22837Y989236D01*
X-22739Y989108D01*
X-22644Y988978D01*
X-22552Y988846D01*
X-22464Y988712D01*
X-22379Y988575D01*
X-22297Y988437D01*
X-22219Y988296D01*
X-22145Y988154D01*
X-22074Y988010D01*
X-22006Y987864D01*
X-21943Y987716D01*
X-21882Y987567D01*
X-21826Y987416D01*
X-21773Y987264D01*
X-21724Y987111D01*
X-21679Y986957D01*
X-21638Y986802D01*
X-21600Y986645D01*
X-21567Y986488D01*
X-21537Y986330D01*
X-21511Y986171D01*
X-21490Y986012D01*
X-21472Y985852D01*
X-21458Y985692D01*
X-21448Y985531D01*
X-21442Y985371D01*
X-21440Y985210D01*
X-21442Y985049D01*
X-21448Y984889D01*
X-21458Y984728D01*
X-21472Y984568D01*
X-21490Y984408D01*
X-21511Y984249D01*
X-21537Y984090D01*
X-21567Y983932D01*
X-21600Y983775D01*
X-21638Y983618D01*
X-21679Y983463D01*
X-21724Y983309D01*
X-21773Y983156D01*
X-21826Y983004D01*
X-21882Y982853D01*
X-21943Y982704D01*
X-22006Y982556D01*
X-22074Y982410D01*
X-22145Y982266D01*
X-22219Y982124D01*
X-22297Y981983D01*
X-22379Y981845D01*
X-22464Y981708D01*
X-22552Y981574D01*
X-22644Y981442D01*
X-22739Y981312D01*
X-22837Y981184D01*
X-22938Y981059D01*
X-23042Y980937D01*
X-23149Y980817D01*
X-23259Y980700D01*
X-23372Y980585D01*
X-23488Y980474D01*
X-23607Y980365D01*
X-23728Y980260D01*
X-23852Y980157D01*
X-23978Y980057D01*
X-24106Y979961D01*
X-24237Y979868D01*
X-24371Y979778D01*
X-24506Y979691D01*
X-24644Y979608D01*
X-24783Y979528D01*
X-24925Y979452D01*
X-25068Y979379D01*
X-25213Y979310D01*
X-25360Y979244D01*
X-25508Y979182D01*
X-25658Y979124D01*
X-25809Y979069D01*
X-25962Y979018D01*
X-26116Y978971D01*
X-26271Y978928D01*
X-26427Y978889D01*
X-26583Y978853D01*
X-26741Y978822D01*
X-26899Y978794D01*
X-27058Y978770D01*
X-27218Y978750D01*
X-27378Y978734D01*
X-27538Y978722D01*
X-27699Y978714D01*
X-27860Y978710D01*
X-28020Y978710D01*
X-28181Y978714D01*
X-28342Y978722D01*
X-28502Y978734D01*
X-28662Y978750D01*
X-28822Y978770D01*
X-28981Y978794D01*
X-29139Y978822D01*
X-29297Y978853D01*
X-29453Y978889D01*
X-29609Y978928D01*
X-29764Y978971D01*
X-29918Y979018D01*
X-30071Y979069D01*
X-30222Y979124D01*
X-30372Y979182D01*
X-30520Y979244D01*
X-30667Y979310D01*
X-30812Y979379D01*
X-30955Y979452D01*
X-31097Y979528D01*
X-31236Y979608D01*
X-31374Y979691D01*
X-31509Y979778D01*
X-31643Y979868D01*
X-31774Y979961D01*
X-31902Y980057D01*
X-32028Y980157D01*
X-32152Y980260D01*
X-32273Y980365D01*
X-32392Y980474D01*
X-32508Y980585D01*
X-32621Y980700D01*
X-32731Y980817D01*
X-32838Y980937D01*
X-32942Y981059D01*
X-33043Y981184D01*
X-33141Y981312D01*
X-33236Y981442D01*
X-33328Y981574D01*
X-33416Y981708D01*
X-33501Y981845D01*
X-33583Y981983D01*
X-33661Y982124D01*
X-33735Y982266D01*
X-33806Y982410D01*
X-33874Y982556D01*
X-33937Y982704D01*
X-33998Y982853D01*
X-34054Y983004D01*
X-34107Y983156D01*
X-34156Y983309D01*
X-34201Y983463D01*
X-34242Y983618D01*
X-34280Y983775D01*
X-34313Y983932D01*
X-34343Y984090D01*
X-34369Y984249D01*
X-34390Y984408D01*
X-34408Y984568D01*
X-34422Y984728D01*
X-34432Y984889D01*
X-34438Y985049D01*
X-34440Y985210D01*
X-34440Y941210D02*
X-34438Y941371D01*
X-34432Y941531D01*
X-34422Y941692D01*
X-34408Y941852D01*
X-34390Y942012D01*
X-34369Y942171D01*
X-34343Y942330D01*
X-34313Y942488D01*
X-34280Y942645D01*
X-34242Y942802D01*
X-34201Y942957D01*
X-34156Y943111D01*
X-34107Y943264D01*
X-34054Y943416D01*
X-33998Y943567D01*
X-33937Y943716D01*
X-33874Y943864D01*
X-33806Y944010D01*
X-33735Y944154D01*
X-33661Y944296D01*
X-33583Y944437D01*
X-33501Y944575D01*
X-33416Y944712D01*
X-33328Y944846D01*
X-33236Y944978D01*
X-33141Y945108D01*
X-33043Y945236D01*
X-32942Y945361D01*
X-32838Y945483D01*
X-32731Y945603D01*
X-32621Y945720D01*
X-32508Y945835D01*
X-32392Y945946D01*
X-32273Y946055D01*
X-32152Y946160D01*
X-32028Y946263D01*
X-31902Y946363D01*
X-31774Y946459D01*
X-31643Y946552D01*
X-31509Y946642D01*
X-31374Y946729D01*
X-31236Y946812D01*
X-31097Y946892D01*
X-30955Y946968D01*
X-30812Y947041D01*
X-30667Y947110D01*
X-30520Y947176D01*
X-30372Y947238D01*
X-30222Y947296D01*
X-30071Y947351D01*
X-29918Y947402D01*
X-29764Y947449D01*
X-29609Y947492D01*
X-29453Y947531D01*
X-29297Y947567D01*
X-29139Y947598D01*
X-28981Y947626D01*
X-28822Y947650D01*
X-28662Y947670D01*
X-28502Y947686D01*
X-28342Y947698D01*
X-28181Y947706D01*
X-28020Y947710D01*
X-27860Y947710D01*
X-27699Y947706D01*
X-27538Y947698D01*
X-27378Y947686D01*
X-27218Y947670D01*
X-27058Y947650D01*
X-26899Y947626D01*
X-26741Y947598D01*
X-26583Y947567D01*
X-26427Y947531D01*
X-26271Y947492D01*
X-26116Y947449D01*
X-25962Y947402D01*
X-25809Y947351D01*
X-25658Y947296D01*
X-25508Y947238D01*
X-25360Y947176D01*
X-25213Y947110D01*
X-25068Y947041D01*
X-24925Y946968D01*
X-24783Y946892D01*
X-24644Y946812D01*
X-24506Y946729D01*
X-24371Y946642D01*
X-24237Y946552D01*
X-24106Y946459D01*
X-23978Y946363D01*
X-23852Y946263D01*
X-23728Y946160D01*
X-23607Y946055D01*
X-23488Y945946D01*
X-23372Y945835D01*
X-23259Y945720D01*
X-23149Y945603D01*
X-23042Y945483D01*
X-22938Y945361D01*
X-22837Y945236D01*
X-22739Y945108D01*
X-22644Y944978D01*
X-22552Y944846D01*
X-22464Y944712D01*
X-22379Y944575D01*
X-22297Y944437D01*
X-22219Y944296D01*
X-22145Y944154D01*
X-22074Y944010D01*
X-22006Y943864D01*
X-21943Y943716D01*
X-21882Y943567D01*
X-21826Y943416D01*
X-21773Y943264D01*
X-21724Y943111D01*
X-21679Y942957D01*
X-21638Y942802D01*
X-21600Y942645D01*
X-21567Y942488D01*
X-21537Y942330D01*
X-21511Y942171D01*
X-21490Y942012D01*
X-21472Y941852D01*
X-21458Y941692D01*
X-21448Y941531D01*
X-21442Y941371D01*
X-21440Y941210D01*
X-21442Y941049D01*
X-21448Y940889D01*
X-21458Y940728D01*
X-21472Y940568D01*
X-21490Y940408D01*
X-21511Y940249D01*
X-21537Y940090D01*
X-21567Y939932D01*
X-21600Y939775D01*
X-21638Y939618D01*
X-21679Y939463D01*
X-21724Y939309D01*
X-21773Y939156D01*
X-21826Y939004D01*
X-21882Y938853D01*
X-21943Y938704D01*
X-22006Y938556D01*
X-22074Y938410D01*
X-22145Y938266D01*
X-22219Y938124D01*
X-22297Y937983D01*
X-22379Y937845D01*
X-22464Y937708D01*
X-22552Y937574D01*
X-22644Y937442D01*
X-22739Y937312D01*
X-22837Y937184D01*
X-22938Y937059D01*
X-23042Y936937D01*
X-23149Y936817D01*
X-23259Y936700D01*
X-23372Y936585D01*
X-23488Y936474D01*
X-23607Y936365D01*
X-23728Y936260D01*
X-23852Y936157D01*
X-23978Y936057D01*
X-24106Y935961D01*
X-24237Y935868D01*
X-24371Y935778D01*
X-24506Y935691D01*
X-24644Y935608D01*
X-24783Y935528D01*
X-24925Y935452D01*
X-25068Y935379D01*
X-25213Y935310D01*
X-25360Y935244D01*
X-25508Y935182D01*
X-25658Y935124D01*
X-25809Y935069D01*
X-25962Y935018D01*
X-26116Y934971D01*
X-26271Y934928D01*
X-26427Y934889D01*
X-26583Y934853D01*
X-26741Y934822D01*
X-26899Y934794D01*
X-27058Y934770D01*
X-27218Y934750D01*
X-27378Y934734D01*
X-27538Y934722D01*
X-27699Y934714D01*
X-27860Y934710D01*
X-28020Y934710D01*
X-28181Y934714D01*
X-28342Y934722D01*
X-28502Y934734D01*
X-28662Y934750D01*
X-28822Y934770D01*
X-28981Y934794D01*
X-29139Y934822D01*
X-29297Y934853D01*
X-29453Y934889D01*
X-29609Y934928D01*
X-29764Y934971D01*
X-29918Y935018D01*
X-30071Y935069D01*
X-30222Y935124D01*
X-30372Y935182D01*
X-30520Y935244D01*
X-30667Y935310D01*
X-30812Y935379D01*
X-30955Y935452D01*
X-31097Y935528D01*
X-31236Y935608D01*
X-31374Y935691D01*
X-31509Y935778D01*
X-31643Y935868D01*
X-31774Y935961D01*
X-31902Y936057D01*
X-32028Y936157D01*
X-32152Y936260D01*
X-32273Y936365D01*
X-32392Y936474D01*
X-32508Y936585D01*
X-32621Y936700D01*
X-32731Y936817D01*
X-32838Y936937D01*
X-32942Y937059D01*
X-33043Y937184D01*
X-33141Y937312D01*
X-33236Y937442D01*
X-33328Y937574D01*
X-33416Y937708D01*
X-33501Y937845D01*
X-33583Y937983D01*
X-33661Y938124D01*
X-33735Y938266D01*
X-33806Y938410D01*
X-33874Y938556D01*
X-33937Y938704D01*
X-33998Y938853D01*
X-34054Y939004D01*
X-34107Y939156D01*
X-34156Y939309D01*
X-34201Y939463D01*
X-34242Y939618D01*
X-34280Y939775D01*
X-34313Y939932D01*
X-34343Y940090D01*
X-34369Y940249D01*
X-34390Y940408D01*
X-34408Y940568D01*
X-34422Y940728D01*
X-34432Y940889D01*
X-34438Y941049D01*
X-34440Y941210D01*
D13*
X-89196Y981427D02*
X-89196Y985181D01*
X-89197Y981427D02*
X-89199Y981362D01*
X-89205Y981298D01*
X-89215Y981234D01*
X-89228Y981170D01*
X-89246Y981108D01*
X-89267Y981047D01*
X-89291Y980987D01*
X-89320Y980929D01*
X-89352Y980872D01*
X-89387Y980818D01*
X-89425Y980766D01*
X-89467Y980716D01*
X-89511Y980669D01*
X-89558Y980625D01*
X-89608Y980583D01*
X-89660Y980545D01*
X-89714Y980510D01*
X-89771Y980478D01*
X-89829Y980449D01*
X-89889Y980425D01*
X-89950Y980404D01*
X-90012Y980386D01*
X-90076Y980373D01*
X-90140Y980363D01*
X-90204Y980357D01*
X-90269Y980355D01*
X-90805Y980355D01*
X-86248Y981427D02*
X-85176Y985181D01*
X-86248Y981427D02*
X-83567Y981427D01*
X-84372Y980355D02*
X-84372Y982500D01*
X-53100Y899070D02*
X-23100Y899070D01*
X-53100Y899070D02*
X-53100Y882570D01*
X-23100Y882570D01*
X-23100Y899070D01*
X-28430Y894760D02*
X-28428Y894840D01*
X-28422Y894920D01*
X-28412Y895000D01*
X-28398Y895079D01*
X-28381Y895157D01*
X-28359Y895234D01*
X-28334Y895310D01*
X-28305Y895385D01*
X-28272Y895458D01*
X-28236Y895529D01*
X-28196Y895599D01*
X-28153Y895666D01*
X-28106Y895732D01*
X-28057Y895794D01*
X-28004Y895855D01*
X-27948Y895913D01*
X-27890Y895967D01*
X-27829Y896019D01*
X-27765Y896068D01*
X-27700Y896114D01*
X-27632Y896156D01*
X-27561Y896195D01*
X-27490Y896231D01*
X-27416Y896262D01*
X-27341Y896291D01*
X-27265Y896315D01*
X-27187Y896335D01*
X-27109Y896352D01*
X-27030Y896365D01*
X-26950Y896374D01*
X-26870Y896379D01*
X-26790Y896380D01*
X-26710Y896377D01*
X-26630Y896370D01*
X-26551Y896359D01*
X-26472Y896344D01*
X-26394Y896326D01*
X-26317Y896303D01*
X-26241Y896277D01*
X-26167Y896247D01*
X-26094Y896213D01*
X-26023Y896176D01*
X-25954Y896135D01*
X-25887Y896091D01*
X-25822Y896044D01*
X-25760Y895994D01*
X-25700Y895940D01*
X-25643Y895884D01*
X-25589Y895825D01*
X-25538Y895763D01*
X-25490Y895699D01*
X-25445Y895633D01*
X-25404Y895564D01*
X-25366Y895494D01*
X-25331Y895421D01*
X-25300Y895347D01*
X-25273Y895272D01*
X-25250Y895195D01*
X-25230Y895118D01*
X-25214Y895039D01*
X-25202Y894960D01*
X-25194Y894880D01*
X-25190Y894800D01*
X-25190Y894720D01*
X-25194Y894640D01*
X-25202Y894560D01*
X-25214Y894481D01*
X-25230Y894402D01*
X-25250Y894325D01*
X-25273Y894248D01*
X-25300Y894173D01*
X-25331Y894099D01*
X-25366Y894026D01*
X-25404Y893956D01*
X-25445Y893887D01*
X-25490Y893821D01*
X-25538Y893757D01*
X-25589Y893695D01*
X-25643Y893636D01*
X-25700Y893580D01*
X-25760Y893526D01*
X-25822Y893476D01*
X-25887Y893429D01*
X-25954Y893385D01*
X-26023Y893344D01*
X-26094Y893307D01*
X-26167Y893273D01*
X-26241Y893243D01*
X-26317Y893217D01*
X-26394Y893194D01*
X-26472Y893176D01*
X-26551Y893161D01*
X-26630Y893150D01*
X-26710Y893143D01*
X-26790Y893140D01*
X-26870Y893141D01*
X-26950Y893146D01*
X-27030Y893155D01*
X-27109Y893168D01*
X-27187Y893185D01*
X-27265Y893205D01*
X-27341Y893229D01*
X-27416Y893258D01*
X-27490Y893289D01*
X-27561Y893325D01*
X-27632Y893364D01*
X-27700Y893406D01*
X-27765Y893452D01*
X-27829Y893501D01*
X-27890Y893553D01*
X-27948Y893607D01*
X-28004Y893665D01*
X-28057Y893726D01*
X-28106Y893788D01*
X-28153Y893854D01*
X-28196Y893921D01*
X-28236Y893991D01*
X-28272Y894062D01*
X-28305Y894135D01*
X-28334Y894210D01*
X-28359Y894286D01*
X-28381Y894363D01*
X-28398Y894441D01*
X-28412Y894520D01*
X-28422Y894600D01*
X-28428Y894680D01*
X-28430Y894760D01*
D12*
X13208Y882438D02*
X24892Y882438D01*
X13208Y882438D02*
X13208Y885684D01*
X13210Y885797D01*
X13216Y885910D01*
X13226Y886023D01*
X13240Y886136D01*
X13257Y886248D01*
X13279Y886359D01*
X13304Y886469D01*
X13334Y886579D01*
X13367Y886687D01*
X13404Y886794D01*
X13444Y886900D01*
X13489Y887004D01*
X13537Y887107D01*
X13588Y887208D01*
X13643Y887307D01*
X13701Y887404D01*
X13763Y887499D01*
X13828Y887592D01*
X13896Y887682D01*
X13967Y887770D01*
X14042Y887856D01*
X14119Y887939D01*
X14199Y888019D01*
X14282Y888096D01*
X14368Y888171D01*
X14456Y888242D01*
X14546Y888310D01*
X14639Y888375D01*
X14734Y888437D01*
X14831Y888495D01*
X14930Y888550D01*
X15031Y888601D01*
X15134Y888649D01*
X15238Y888694D01*
X15344Y888734D01*
X15451Y888771D01*
X15559Y888804D01*
X15669Y888834D01*
X15779Y888859D01*
X15890Y888881D01*
X16002Y888898D01*
X16115Y888912D01*
X16228Y888922D01*
X16341Y888928D01*
X16454Y888930D01*
X16567Y888928D01*
X16680Y888922D01*
X16793Y888912D01*
X16906Y888898D01*
X17018Y888881D01*
X17129Y888859D01*
X17239Y888834D01*
X17349Y888804D01*
X17457Y888771D01*
X17564Y888734D01*
X17670Y888694D01*
X17774Y888649D01*
X17877Y888601D01*
X17978Y888550D01*
X18077Y888495D01*
X18174Y888437D01*
X18269Y888375D01*
X18362Y888310D01*
X18452Y888242D01*
X18540Y888171D01*
X18626Y888096D01*
X18709Y888019D01*
X18789Y887939D01*
X18866Y887856D01*
X18941Y887770D01*
X19012Y887682D01*
X19080Y887592D01*
X19145Y887499D01*
X19207Y887404D01*
X19265Y887307D01*
X19320Y887208D01*
X19371Y887107D01*
X19419Y887004D01*
X19464Y886900D01*
X19504Y886794D01*
X19541Y886687D01*
X19574Y886579D01*
X19604Y886469D01*
X19629Y886359D01*
X19651Y886248D01*
X19668Y886136D01*
X19682Y886023D01*
X19692Y885910D01*
X19698Y885797D01*
X19700Y885684D01*
X19699Y885684D02*
X19699Y882438D01*
X19699Y886333D02*
X24892Y888929D01*
X14506Y893794D02*
X13208Y893794D01*
X13208Y900285D01*
X24892Y897040D01*
X-91948Y892156D02*
X-91948Y889559D01*
X-91950Y889460D01*
X-91956Y889360D01*
X-91965Y889261D01*
X-91978Y889163D01*
X-91995Y889065D01*
X-92016Y888967D01*
X-92041Y888871D01*
X-92069Y888776D01*
X-92101Y888682D01*
X-92136Y888589D01*
X-92175Y888497D01*
X-92218Y888407D01*
X-92263Y888319D01*
X-92313Y888232D01*
X-92365Y888148D01*
X-92421Y888065D01*
X-92479Y887985D01*
X-92541Y887907D01*
X-92606Y887832D01*
X-92674Y887759D01*
X-92744Y887689D01*
X-92817Y887621D01*
X-92892Y887556D01*
X-92970Y887494D01*
X-93050Y887436D01*
X-93133Y887380D01*
X-93217Y887328D01*
X-93304Y887278D01*
X-93392Y887233D01*
X-93482Y887190D01*
X-93574Y887151D01*
X-93667Y887116D01*
X-93761Y887084D01*
X-93856Y887056D01*
X-93952Y887031D01*
X-94050Y887010D01*
X-94148Y886993D01*
X-94246Y886980D01*
X-94345Y886971D01*
X-94445Y886965D01*
X-94544Y886963D01*
X-101036Y886963D01*
X-101135Y886965D01*
X-101235Y886971D01*
X-101334Y886980D01*
X-101432Y886993D01*
X-101530Y887010D01*
X-101628Y887031D01*
X-101724Y887056D01*
X-101819Y887084D01*
X-101913Y887116D01*
X-102006Y887151D01*
X-102098Y887190D01*
X-102188Y887233D01*
X-102276Y887278D01*
X-102363Y887328D01*
X-102447Y887380D01*
X-102530Y887436D01*
X-102610Y887494D01*
X-102688Y887556D01*
X-102763Y887621D01*
X-102836Y887689D01*
X-102906Y887759D01*
X-102974Y887832D01*
X-103039Y887907D01*
X-103101Y887985D01*
X-103159Y888065D01*
X-103215Y888148D01*
X-103267Y888232D01*
X-103317Y888319D01*
X-103362Y888407D01*
X-103405Y888497D01*
X-103444Y888589D01*
X-103479Y888681D01*
X-103511Y888776D01*
X-103539Y888871D01*
X-103564Y888967D01*
X-103585Y889065D01*
X-103602Y889163D01*
X-103615Y889261D01*
X-103624Y889360D01*
X-103630Y889460D01*
X-103632Y889559D01*
X-103632Y892156D01*
X-91948Y896521D02*
X-91948Y900416D01*
X-91950Y900515D01*
X-91956Y900615D01*
X-91965Y900714D01*
X-91978Y900812D01*
X-91995Y900910D01*
X-92016Y901008D01*
X-92041Y901104D01*
X-92069Y901199D01*
X-92101Y901293D01*
X-92136Y901386D01*
X-92175Y901478D01*
X-92218Y901568D01*
X-92263Y901656D01*
X-92313Y901743D01*
X-92365Y901827D01*
X-92421Y901910D01*
X-92479Y901990D01*
X-92541Y902068D01*
X-92606Y902143D01*
X-92674Y902216D01*
X-92744Y902286D01*
X-92817Y902354D01*
X-92892Y902419D01*
X-92970Y902481D01*
X-93050Y902539D01*
X-93133Y902595D01*
X-93217Y902647D01*
X-93304Y902697D01*
X-93392Y902742D01*
X-93482Y902785D01*
X-93574Y902824D01*
X-93667Y902859D01*
X-93761Y902891D01*
X-93856Y902919D01*
X-93952Y902944D01*
X-94050Y902965D01*
X-94148Y902982D01*
X-94246Y902995D01*
X-94345Y903004D01*
X-94445Y903010D01*
X-94544Y903012D01*
X-95843Y903012D01*
X-95942Y903010D01*
X-96042Y903004D01*
X-96141Y902995D01*
X-96239Y902982D01*
X-96337Y902965D01*
X-96435Y902944D01*
X-96531Y902919D01*
X-96626Y902891D01*
X-96720Y902859D01*
X-96813Y902824D01*
X-96905Y902785D01*
X-96995Y902742D01*
X-97083Y902697D01*
X-97170Y902647D01*
X-97254Y902595D01*
X-97337Y902539D01*
X-97417Y902481D01*
X-97495Y902419D01*
X-97570Y902354D01*
X-97643Y902286D01*
X-97713Y902216D01*
X-97781Y902143D01*
X-97846Y902068D01*
X-97908Y901990D01*
X-97966Y901910D01*
X-98022Y901827D01*
X-98074Y901743D01*
X-98124Y901656D01*
X-98169Y901568D01*
X-98212Y901478D01*
X-98251Y901386D01*
X-98286Y901293D01*
X-98318Y901199D01*
X-98346Y901104D01*
X-98371Y901008D01*
X-98392Y900910D01*
X-98409Y900812D01*
X-98422Y900714D01*
X-98431Y900615D01*
X-98437Y900515D01*
X-98439Y900416D01*
X-98439Y896521D01*
X-103632Y896521D01*
X-103632Y903012D01*
X-71882Y838242D02*
X-71882Y826558D01*
X-71882Y838242D02*
X-68636Y838242D01*
X-68523Y838240D01*
X-68410Y838234D01*
X-68297Y838224D01*
X-68184Y838210D01*
X-68072Y838193D01*
X-67961Y838171D01*
X-67851Y838146D01*
X-67741Y838116D01*
X-67633Y838083D01*
X-67526Y838046D01*
X-67420Y838006D01*
X-67316Y837961D01*
X-67213Y837913D01*
X-67112Y837862D01*
X-67013Y837807D01*
X-66916Y837749D01*
X-66821Y837687D01*
X-66728Y837622D01*
X-66638Y837554D01*
X-66550Y837483D01*
X-66464Y837408D01*
X-66381Y837331D01*
X-66301Y837251D01*
X-66224Y837168D01*
X-66149Y837082D01*
X-66078Y836994D01*
X-66010Y836904D01*
X-65945Y836811D01*
X-65883Y836716D01*
X-65825Y836619D01*
X-65770Y836520D01*
X-65719Y836419D01*
X-65671Y836316D01*
X-65626Y836212D01*
X-65586Y836106D01*
X-65549Y835999D01*
X-65516Y835891D01*
X-65486Y835781D01*
X-65461Y835671D01*
X-65439Y835560D01*
X-65422Y835448D01*
X-65408Y835335D01*
X-65398Y835222D01*
X-65392Y835109D01*
X-65390Y834996D01*
X-65392Y834883D01*
X-65398Y834770D01*
X-65408Y834657D01*
X-65422Y834544D01*
X-65439Y834432D01*
X-65461Y834321D01*
X-65486Y834211D01*
X-65516Y834101D01*
X-65549Y833993D01*
X-65586Y833886D01*
X-65626Y833780D01*
X-65671Y833676D01*
X-65719Y833573D01*
X-65770Y833472D01*
X-65825Y833373D01*
X-65883Y833276D01*
X-65945Y833181D01*
X-66010Y833088D01*
X-66078Y832998D01*
X-66149Y832910D01*
X-66224Y832824D01*
X-66301Y832741D01*
X-66381Y832661D01*
X-66464Y832584D01*
X-66550Y832509D01*
X-66638Y832438D01*
X-66728Y832370D01*
X-66821Y832305D01*
X-66916Y832243D01*
X-67013Y832185D01*
X-67112Y832130D01*
X-67213Y832079D01*
X-67316Y832031D01*
X-67420Y831986D01*
X-67526Y831946D01*
X-67633Y831909D01*
X-67741Y831876D01*
X-67851Y831846D01*
X-67961Y831821D01*
X-68072Y831799D01*
X-68184Y831782D01*
X-68297Y831768D01*
X-68410Y831758D01*
X-68523Y831752D01*
X-68636Y831750D01*
X-68636Y831751D02*
X-71882Y831751D01*
X-67987Y831751D02*
X-65391Y826558D01*
X-60526Y829804D02*
X-60524Y829917D01*
X-60518Y830030D01*
X-60508Y830143D01*
X-60494Y830256D01*
X-60477Y830368D01*
X-60455Y830479D01*
X-60430Y830589D01*
X-60400Y830699D01*
X-60367Y830807D01*
X-60330Y830914D01*
X-60290Y831020D01*
X-60245Y831124D01*
X-60197Y831227D01*
X-60146Y831328D01*
X-60091Y831427D01*
X-60033Y831524D01*
X-59971Y831619D01*
X-59906Y831712D01*
X-59838Y831802D01*
X-59767Y831890D01*
X-59692Y831976D01*
X-59615Y832059D01*
X-59535Y832139D01*
X-59452Y832216D01*
X-59366Y832291D01*
X-59278Y832362D01*
X-59188Y832430D01*
X-59095Y832495D01*
X-59000Y832557D01*
X-58903Y832615D01*
X-58804Y832670D01*
X-58703Y832721D01*
X-58600Y832769D01*
X-58496Y832814D01*
X-58390Y832854D01*
X-58283Y832891D01*
X-58175Y832924D01*
X-58065Y832954D01*
X-57955Y832979D01*
X-57844Y833001D01*
X-57732Y833018D01*
X-57619Y833032D01*
X-57506Y833042D01*
X-57393Y833048D01*
X-57280Y833050D01*
X-57167Y833048D01*
X-57054Y833042D01*
X-56941Y833032D01*
X-56828Y833018D01*
X-56716Y833001D01*
X-56605Y832979D01*
X-56495Y832954D01*
X-56385Y832924D01*
X-56277Y832891D01*
X-56170Y832854D01*
X-56064Y832814D01*
X-55960Y832769D01*
X-55857Y832721D01*
X-55756Y832670D01*
X-55657Y832615D01*
X-55560Y832557D01*
X-55465Y832495D01*
X-55372Y832430D01*
X-55282Y832362D01*
X-55194Y832291D01*
X-55108Y832216D01*
X-55025Y832139D01*
X-54945Y832059D01*
X-54868Y831976D01*
X-54793Y831890D01*
X-54722Y831802D01*
X-54654Y831712D01*
X-54589Y831619D01*
X-54527Y831524D01*
X-54469Y831427D01*
X-54414Y831328D01*
X-54363Y831227D01*
X-54315Y831124D01*
X-54270Y831020D01*
X-54230Y830914D01*
X-54193Y830807D01*
X-54160Y830699D01*
X-54130Y830589D01*
X-54105Y830479D01*
X-54083Y830368D01*
X-54066Y830256D01*
X-54052Y830143D01*
X-54042Y830030D01*
X-54036Y829917D01*
X-54034Y829804D01*
X-54036Y829691D01*
X-54042Y829578D01*
X-54052Y829465D01*
X-54066Y829352D01*
X-54083Y829240D01*
X-54105Y829129D01*
X-54130Y829019D01*
X-54160Y828909D01*
X-54193Y828801D01*
X-54230Y828694D01*
X-54270Y828588D01*
X-54315Y828484D01*
X-54363Y828381D01*
X-54414Y828280D01*
X-54469Y828181D01*
X-54527Y828084D01*
X-54589Y827989D01*
X-54654Y827896D01*
X-54722Y827806D01*
X-54793Y827718D01*
X-54868Y827632D01*
X-54945Y827549D01*
X-55025Y827469D01*
X-55108Y827392D01*
X-55194Y827317D01*
X-55282Y827246D01*
X-55372Y827178D01*
X-55465Y827113D01*
X-55560Y827051D01*
X-55657Y826993D01*
X-55756Y826938D01*
X-55857Y826887D01*
X-55960Y826839D01*
X-56064Y826794D01*
X-56170Y826754D01*
X-56277Y826717D01*
X-56385Y826684D01*
X-56495Y826654D01*
X-56605Y826629D01*
X-56716Y826607D01*
X-56828Y826590D01*
X-56941Y826576D01*
X-57054Y826566D01*
X-57167Y826560D01*
X-57280Y826558D01*
X-57393Y826560D01*
X-57506Y826566D01*
X-57619Y826576D01*
X-57732Y826590D01*
X-57844Y826607D01*
X-57955Y826629D01*
X-58065Y826654D01*
X-58175Y826684D01*
X-58283Y826717D01*
X-58390Y826754D01*
X-58496Y826794D01*
X-58600Y826839D01*
X-58703Y826887D01*
X-58804Y826938D01*
X-58903Y826993D01*
X-59000Y827051D01*
X-59095Y827113D01*
X-59188Y827178D01*
X-59278Y827246D01*
X-59366Y827317D01*
X-59452Y827392D01*
X-59535Y827469D01*
X-59615Y827549D01*
X-59692Y827632D01*
X-59767Y827718D01*
X-59838Y827806D01*
X-59906Y827896D01*
X-59971Y827989D01*
X-60033Y828084D01*
X-60091Y828181D01*
X-60146Y828280D01*
X-60197Y828381D01*
X-60245Y828484D01*
X-60290Y828588D01*
X-60330Y828694D01*
X-60367Y828801D01*
X-60400Y828909D01*
X-60430Y829019D01*
X-60455Y829129D01*
X-60477Y829240D01*
X-60494Y829352D01*
X-60508Y829465D01*
X-60518Y829578D01*
X-60524Y829691D01*
X-60526Y829804D01*
X-59876Y835646D02*
X-59874Y835747D01*
X-59868Y835847D01*
X-59858Y835947D01*
X-59845Y836047D01*
X-59827Y836146D01*
X-59806Y836245D01*
X-59781Y836342D01*
X-59752Y836439D01*
X-59719Y836534D01*
X-59683Y836628D01*
X-59643Y836720D01*
X-59600Y836811D01*
X-59553Y836900D01*
X-59503Y836987D01*
X-59449Y837073D01*
X-59392Y837156D01*
X-59332Y837236D01*
X-59269Y837315D01*
X-59202Y837391D01*
X-59133Y837464D01*
X-59061Y837534D01*
X-58987Y837602D01*
X-58910Y837667D01*
X-58830Y837728D01*
X-58748Y837787D01*
X-58664Y837842D01*
X-58578Y837894D01*
X-58490Y837943D01*
X-58400Y837988D01*
X-58308Y838030D01*
X-58215Y838068D01*
X-58120Y838102D01*
X-58025Y838133D01*
X-57928Y838160D01*
X-57830Y838183D01*
X-57731Y838203D01*
X-57631Y838218D01*
X-57531Y838230D01*
X-57431Y838238D01*
X-57330Y838242D01*
X-57230Y838242D01*
X-57129Y838238D01*
X-57029Y838230D01*
X-56929Y838218D01*
X-56829Y838203D01*
X-56730Y838183D01*
X-56632Y838160D01*
X-56535Y838133D01*
X-56440Y838102D01*
X-56345Y838068D01*
X-56252Y838030D01*
X-56160Y837988D01*
X-56070Y837943D01*
X-55982Y837894D01*
X-55896Y837842D01*
X-55812Y837787D01*
X-55730Y837728D01*
X-55650Y837667D01*
X-55573Y837602D01*
X-55499Y837534D01*
X-55427Y837464D01*
X-55358Y837391D01*
X-55291Y837315D01*
X-55228Y837236D01*
X-55168Y837156D01*
X-55111Y837073D01*
X-55057Y836987D01*
X-55007Y836900D01*
X-54960Y836811D01*
X-54917Y836720D01*
X-54877Y836628D01*
X-54841Y836534D01*
X-54808Y836439D01*
X-54779Y836342D01*
X-54754Y836245D01*
X-54733Y836146D01*
X-54715Y836047D01*
X-54702Y835947D01*
X-54692Y835847D01*
X-54686Y835747D01*
X-54684Y835646D01*
X-54686Y835545D01*
X-54692Y835445D01*
X-54702Y835345D01*
X-54715Y835245D01*
X-54733Y835146D01*
X-54754Y835047D01*
X-54779Y834950D01*
X-54808Y834853D01*
X-54841Y834758D01*
X-54877Y834664D01*
X-54917Y834572D01*
X-54960Y834481D01*
X-55007Y834392D01*
X-55057Y834305D01*
X-55111Y834219D01*
X-55168Y834136D01*
X-55228Y834056D01*
X-55291Y833977D01*
X-55358Y833901D01*
X-55427Y833828D01*
X-55499Y833758D01*
X-55573Y833690D01*
X-55650Y833625D01*
X-55730Y833564D01*
X-55812Y833505D01*
X-55896Y833450D01*
X-55982Y833398D01*
X-56070Y833349D01*
X-56160Y833304D01*
X-56252Y833262D01*
X-56345Y833224D01*
X-56440Y833190D01*
X-56535Y833159D01*
X-56632Y833132D01*
X-56730Y833109D01*
X-56829Y833089D01*
X-56929Y833074D01*
X-57029Y833062D01*
X-57129Y833054D01*
X-57230Y833050D01*
X-57330Y833050D01*
X-57431Y833054D01*
X-57531Y833062D01*
X-57631Y833074D01*
X-57731Y833089D01*
X-57830Y833109D01*
X-57928Y833132D01*
X-58025Y833159D01*
X-58120Y833190D01*
X-58215Y833224D01*
X-58308Y833262D01*
X-58400Y833304D01*
X-58490Y833349D01*
X-58578Y833398D01*
X-58664Y833450D01*
X-58748Y833505D01*
X-58830Y833564D01*
X-58910Y833625D01*
X-58987Y833690D01*
X-59061Y833758D01*
X-59133Y833828D01*
X-59202Y833901D01*
X-59269Y833977D01*
X-59332Y834056D01*
X-59392Y834136D01*
X-59449Y834219D01*
X-59503Y834305D01*
X-59553Y834392D01*
X-59600Y834481D01*
X-59643Y834572D01*
X-59683Y834664D01*
X-59719Y834758D01*
X-59752Y834853D01*
X-59781Y834950D01*
X-59806Y835047D01*
X-59827Y835146D01*
X-59845Y835245D01*
X-59858Y835345D01*
X-59868Y835445D01*
X-59874Y835545D01*
X-59876Y835646D01*
X-23435Y838242D02*
X-23435Y826558D01*
X-23435Y838242D02*
X-20190Y838242D01*
X-20077Y838240D01*
X-19964Y838234D01*
X-19851Y838224D01*
X-19738Y838210D01*
X-19626Y838193D01*
X-19515Y838171D01*
X-19405Y838146D01*
X-19295Y838116D01*
X-19187Y838083D01*
X-19080Y838046D01*
X-18974Y838006D01*
X-18870Y837961D01*
X-18767Y837913D01*
X-18666Y837862D01*
X-18567Y837807D01*
X-18470Y837749D01*
X-18375Y837687D01*
X-18282Y837622D01*
X-18192Y837554D01*
X-18104Y837483D01*
X-18018Y837408D01*
X-17935Y837331D01*
X-17855Y837251D01*
X-17778Y837168D01*
X-17703Y837082D01*
X-17632Y836994D01*
X-17564Y836904D01*
X-17499Y836811D01*
X-17437Y836716D01*
X-17379Y836619D01*
X-17324Y836520D01*
X-17273Y836419D01*
X-17225Y836316D01*
X-17180Y836212D01*
X-17140Y836106D01*
X-17103Y835999D01*
X-17070Y835891D01*
X-17040Y835781D01*
X-17015Y835671D01*
X-16993Y835560D01*
X-16976Y835448D01*
X-16962Y835335D01*
X-16952Y835222D01*
X-16946Y835109D01*
X-16944Y834996D01*
X-16946Y834883D01*
X-16952Y834770D01*
X-16962Y834657D01*
X-16976Y834544D01*
X-16993Y834432D01*
X-17015Y834321D01*
X-17040Y834211D01*
X-17070Y834101D01*
X-17103Y833993D01*
X-17140Y833886D01*
X-17180Y833780D01*
X-17225Y833676D01*
X-17273Y833573D01*
X-17324Y833472D01*
X-17379Y833373D01*
X-17437Y833276D01*
X-17499Y833181D01*
X-17564Y833088D01*
X-17632Y832998D01*
X-17703Y832910D01*
X-17778Y832824D01*
X-17855Y832741D01*
X-17935Y832661D01*
X-18018Y832584D01*
X-18104Y832509D01*
X-18192Y832438D01*
X-18282Y832370D01*
X-18375Y832305D01*
X-18470Y832243D01*
X-18567Y832185D01*
X-18666Y832130D01*
X-18767Y832079D01*
X-18870Y832031D01*
X-18974Y831986D01*
X-19080Y831946D01*
X-19187Y831909D01*
X-19295Y831876D01*
X-19405Y831846D01*
X-19515Y831821D01*
X-19626Y831799D01*
X-19738Y831782D01*
X-19851Y831768D01*
X-19964Y831758D01*
X-20077Y831752D01*
X-20190Y831750D01*
X-20190Y831751D02*
X-23435Y831751D01*
X-19541Y831751D02*
X-16944Y826558D01*
X-9483Y831751D02*
X-5588Y831751D01*
X-9483Y831751D02*
X-9582Y831753D01*
X-9682Y831759D01*
X-9781Y831768D01*
X-9879Y831781D01*
X-9977Y831798D01*
X-10075Y831819D01*
X-10171Y831844D01*
X-10266Y831872D01*
X-10360Y831904D01*
X-10453Y831939D01*
X-10545Y831978D01*
X-10635Y832021D01*
X-10723Y832066D01*
X-10810Y832116D01*
X-10894Y832168D01*
X-10977Y832224D01*
X-11057Y832282D01*
X-11135Y832344D01*
X-11210Y832409D01*
X-11283Y832477D01*
X-11353Y832547D01*
X-11421Y832620D01*
X-11486Y832695D01*
X-11548Y832773D01*
X-11606Y832853D01*
X-11662Y832936D01*
X-11714Y833020D01*
X-11764Y833107D01*
X-11809Y833195D01*
X-11852Y833285D01*
X-11891Y833377D01*
X-11926Y833470D01*
X-11958Y833564D01*
X-11986Y833659D01*
X-12011Y833755D01*
X-12032Y833853D01*
X-12049Y833951D01*
X-12062Y834049D01*
X-12071Y834148D01*
X-12077Y834248D01*
X-12079Y834347D01*
X-12079Y834996D01*
X-12080Y834996D02*
X-12078Y835109D01*
X-12072Y835222D01*
X-12062Y835335D01*
X-12048Y835448D01*
X-12031Y835560D01*
X-12009Y835671D01*
X-11984Y835781D01*
X-11954Y835891D01*
X-11921Y835999D01*
X-11884Y836106D01*
X-11844Y836212D01*
X-11799Y836316D01*
X-11751Y836419D01*
X-11700Y836520D01*
X-11645Y836619D01*
X-11587Y836716D01*
X-11525Y836811D01*
X-11460Y836904D01*
X-11392Y836994D01*
X-11321Y837082D01*
X-11246Y837168D01*
X-11169Y837251D01*
X-11089Y837331D01*
X-11006Y837408D01*
X-10920Y837483D01*
X-10832Y837554D01*
X-10742Y837622D01*
X-10649Y837687D01*
X-10554Y837749D01*
X-10457Y837807D01*
X-10358Y837862D01*
X-10257Y837913D01*
X-10154Y837961D01*
X-10050Y838006D01*
X-9944Y838046D01*
X-9837Y838083D01*
X-9729Y838116D01*
X-9619Y838146D01*
X-9509Y838171D01*
X-9398Y838193D01*
X-9286Y838210D01*
X-9173Y838224D01*
X-9060Y838234D01*
X-8947Y838240D01*
X-8834Y838242D01*
X-8721Y838240D01*
X-8608Y838234D01*
X-8495Y838224D01*
X-8382Y838210D01*
X-8270Y838193D01*
X-8159Y838171D01*
X-8049Y838146D01*
X-7939Y838116D01*
X-7831Y838083D01*
X-7724Y838046D01*
X-7618Y838006D01*
X-7514Y837961D01*
X-7411Y837913D01*
X-7310Y837862D01*
X-7211Y837807D01*
X-7114Y837749D01*
X-7019Y837687D01*
X-6926Y837622D01*
X-6836Y837554D01*
X-6748Y837483D01*
X-6662Y837408D01*
X-6579Y837331D01*
X-6499Y837251D01*
X-6422Y837168D01*
X-6347Y837082D01*
X-6276Y836994D01*
X-6208Y836904D01*
X-6143Y836811D01*
X-6081Y836716D01*
X-6023Y836619D01*
X-5968Y836520D01*
X-5917Y836419D01*
X-5869Y836316D01*
X-5824Y836212D01*
X-5784Y836106D01*
X-5747Y835999D01*
X-5714Y835891D01*
X-5684Y835781D01*
X-5659Y835671D01*
X-5637Y835560D01*
X-5620Y835448D01*
X-5606Y835335D01*
X-5596Y835222D01*
X-5590Y835109D01*
X-5588Y834996D01*
X-5588Y831751D01*
X-5590Y831608D01*
X-5596Y831465D01*
X-5606Y831322D01*
X-5620Y831180D01*
X-5637Y831038D01*
X-5659Y830896D01*
X-5684Y830755D01*
X-5714Y830615D01*
X-5747Y830476D01*
X-5784Y830338D01*
X-5825Y830201D01*
X-5869Y830065D01*
X-5918Y829930D01*
X-5970Y829797D01*
X-6025Y829665D01*
X-6085Y829535D01*
X-6148Y829406D01*
X-6214Y829279D01*
X-6284Y829155D01*
X-6357Y829032D01*
X-6434Y828911D01*
X-6514Y828792D01*
X-6597Y828676D01*
X-6683Y828561D01*
X-6772Y828450D01*
X-6865Y828340D01*
X-6960Y828234D01*
X-7059Y828130D01*
X-7160Y828029D01*
X-7264Y827930D01*
X-7370Y827835D01*
X-7480Y827742D01*
X-7591Y827653D01*
X-7706Y827567D01*
X-7822Y827484D01*
X-7941Y827404D01*
X-8062Y827327D01*
X-8185Y827254D01*
X-8309Y827184D01*
X-8436Y827118D01*
X-8565Y827055D01*
X-8695Y826995D01*
X-8827Y826940D01*
X-8960Y826888D01*
X-9095Y826839D01*
X-9231Y826795D01*
X-9368Y826754D01*
X-9506Y826717D01*
X-9645Y826684D01*
X-9785Y826654D01*
X-9926Y826629D01*
X-10068Y826607D01*
X-10210Y826590D01*
X-10352Y826576D01*
X-10495Y826566D01*
X-10638Y826560D01*
X-10781Y826558D01*
D13*
X57150Y926380D02*
X57150Y994960D01*
X158750Y994960D02*
X158750Y926380D01*
X158750Y994960D02*
X57150Y994960D01*
X120650Y926380D02*
X158750Y926380D01*
X120650Y926380D02*
X69850Y926380D01*
X57150Y926380D01*
X69850Y926380D02*
X69850Y939080D01*
X120650Y939080D01*
X120650Y926380D01*
D10*
X114150Y986480D02*
X114152Y986641D01*
X114158Y986801D01*
X114168Y986962D01*
X114182Y987122D01*
X114200Y987282D01*
X114221Y987441D01*
X114247Y987600D01*
X114277Y987758D01*
X114310Y987915D01*
X114348Y988072D01*
X114389Y988227D01*
X114434Y988381D01*
X114483Y988534D01*
X114536Y988686D01*
X114592Y988837D01*
X114653Y988986D01*
X114716Y989134D01*
X114784Y989280D01*
X114855Y989424D01*
X114929Y989566D01*
X115007Y989707D01*
X115089Y989845D01*
X115174Y989982D01*
X115262Y990116D01*
X115354Y990248D01*
X115449Y990378D01*
X115547Y990506D01*
X115648Y990631D01*
X115752Y990753D01*
X115859Y990873D01*
X115969Y990990D01*
X116082Y991105D01*
X116198Y991216D01*
X116317Y991325D01*
X116438Y991430D01*
X116562Y991533D01*
X116688Y991633D01*
X116816Y991729D01*
X116947Y991822D01*
X117081Y991912D01*
X117216Y991999D01*
X117354Y992082D01*
X117493Y992162D01*
X117635Y992238D01*
X117778Y992311D01*
X117923Y992380D01*
X118070Y992446D01*
X118218Y992508D01*
X118368Y992566D01*
X118519Y992621D01*
X118672Y992672D01*
X118826Y992719D01*
X118981Y992762D01*
X119137Y992801D01*
X119293Y992837D01*
X119451Y992868D01*
X119609Y992896D01*
X119768Y992920D01*
X119928Y992940D01*
X120088Y992956D01*
X120248Y992968D01*
X120409Y992976D01*
X120570Y992980D01*
X120730Y992980D01*
X120891Y992976D01*
X121052Y992968D01*
X121212Y992956D01*
X121372Y992940D01*
X121532Y992920D01*
X121691Y992896D01*
X121849Y992868D01*
X122007Y992837D01*
X122163Y992801D01*
X122319Y992762D01*
X122474Y992719D01*
X122628Y992672D01*
X122781Y992621D01*
X122932Y992566D01*
X123082Y992508D01*
X123230Y992446D01*
X123377Y992380D01*
X123522Y992311D01*
X123665Y992238D01*
X123807Y992162D01*
X123946Y992082D01*
X124084Y991999D01*
X124219Y991912D01*
X124353Y991822D01*
X124484Y991729D01*
X124612Y991633D01*
X124738Y991533D01*
X124862Y991430D01*
X124983Y991325D01*
X125102Y991216D01*
X125218Y991105D01*
X125331Y990990D01*
X125441Y990873D01*
X125548Y990753D01*
X125652Y990631D01*
X125753Y990506D01*
X125851Y990378D01*
X125946Y990248D01*
X126038Y990116D01*
X126126Y989982D01*
X126211Y989845D01*
X126293Y989707D01*
X126371Y989566D01*
X126445Y989424D01*
X126516Y989280D01*
X126584Y989134D01*
X126647Y988986D01*
X126708Y988837D01*
X126764Y988686D01*
X126817Y988534D01*
X126866Y988381D01*
X126911Y988227D01*
X126952Y988072D01*
X126990Y987915D01*
X127023Y987758D01*
X127053Y987600D01*
X127079Y987441D01*
X127100Y987282D01*
X127118Y987122D01*
X127132Y986962D01*
X127142Y986801D01*
X127148Y986641D01*
X127150Y986480D01*
X127148Y986319D01*
X127142Y986159D01*
X127132Y985998D01*
X127118Y985838D01*
X127100Y985678D01*
X127079Y985519D01*
X127053Y985360D01*
X127023Y985202D01*
X126990Y985045D01*
X126952Y984888D01*
X126911Y984733D01*
X126866Y984579D01*
X126817Y984426D01*
X126764Y984274D01*
X126708Y984123D01*
X126647Y983974D01*
X126584Y983826D01*
X126516Y983680D01*
X126445Y983536D01*
X126371Y983394D01*
X126293Y983253D01*
X126211Y983115D01*
X126126Y982978D01*
X126038Y982844D01*
X125946Y982712D01*
X125851Y982582D01*
X125753Y982454D01*
X125652Y982329D01*
X125548Y982207D01*
X125441Y982087D01*
X125331Y981970D01*
X125218Y981855D01*
X125102Y981744D01*
X124983Y981635D01*
X124862Y981530D01*
X124738Y981427D01*
X124612Y981327D01*
X124484Y981231D01*
X124353Y981138D01*
X124219Y981048D01*
X124084Y980961D01*
X123946Y980878D01*
X123807Y980798D01*
X123665Y980722D01*
X123522Y980649D01*
X123377Y980580D01*
X123230Y980514D01*
X123082Y980452D01*
X122932Y980394D01*
X122781Y980339D01*
X122628Y980288D01*
X122474Y980241D01*
X122319Y980198D01*
X122163Y980159D01*
X122007Y980123D01*
X121849Y980092D01*
X121691Y980064D01*
X121532Y980040D01*
X121372Y980020D01*
X121212Y980004D01*
X121052Y979992D01*
X120891Y979984D01*
X120730Y979980D01*
X120570Y979980D01*
X120409Y979984D01*
X120248Y979992D01*
X120088Y980004D01*
X119928Y980020D01*
X119768Y980040D01*
X119609Y980064D01*
X119451Y980092D01*
X119293Y980123D01*
X119137Y980159D01*
X118981Y980198D01*
X118826Y980241D01*
X118672Y980288D01*
X118519Y980339D01*
X118368Y980394D01*
X118218Y980452D01*
X118070Y980514D01*
X117923Y980580D01*
X117778Y980649D01*
X117635Y980722D01*
X117493Y980798D01*
X117354Y980878D01*
X117216Y980961D01*
X117081Y981048D01*
X116947Y981138D01*
X116816Y981231D01*
X116688Y981327D01*
X116562Y981427D01*
X116438Y981530D01*
X116317Y981635D01*
X116198Y981744D01*
X116082Y981855D01*
X115969Y981970D01*
X115859Y982087D01*
X115752Y982207D01*
X115648Y982329D01*
X115547Y982454D01*
X115449Y982582D01*
X115354Y982712D01*
X115262Y982844D01*
X115174Y982978D01*
X115089Y983115D01*
X115007Y983253D01*
X114929Y983394D01*
X114855Y983536D01*
X114784Y983680D01*
X114716Y983826D01*
X114653Y983974D01*
X114592Y984123D01*
X114536Y984274D01*
X114483Y984426D01*
X114434Y984579D01*
X114389Y984733D01*
X114348Y984888D01*
X114310Y985045D01*
X114277Y985202D01*
X114247Y985360D01*
X114221Y985519D01*
X114200Y985678D01*
X114182Y985838D01*
X114168Y985998D01*
X114158Y986159D01*
X114152Y986319D01*
X114150Y986480D01*
X114150Y942480D02*
X114152Y942641D01*
X114158Y942801D01*
X114168Y942962D01*
X114182Y943122D01*
X114200Y943282D01*
X114221Y943441D01*
X114247Y943600D01*
X114277Y943758D01*
X114310Y943915D01*
X114348Y944072D01*
X114389Y944227D01*
X114434Y944381D01*
X114483Y944534D01*
X114536Y944686D01*
X114592Y944837D01*
X114653Y944986D01*
X114716Y945134D01*
X114784Y945280D01*
X114855Y945424D01*
X114929Y945566D01*
X115007Y945707D01*
X115089Y945845D01*
X115174Y945982D01*
X115262Y946116D01*
X115354Y946248D01*
X115449Y946378D01*
X115547Y946506D01*
X115648Y946631D01*
X115752Y946753D01*
X115859Y946873D01*
X115969Y946990D01*
X116082Y947105D01*
X116198Y947216D01*
X116317Y947325D01*
X116438Y947430D01*
X116562Y947533D01*
X116688Y947633D01*
X116816Y947729D01*
X116947Y947822D01*
X117081Y947912D01*
X117216Y947999D01*
X117354Y948082D01*
X117493Y948162D01*
X117635Y948238D01*
X117778Y948311D01*
X117923Y948380D01*
X118070Y948446D01*
X118218Y948508D01*
X118368Y948566D01*
X118519Y948621D01*
X118672Y948672D01*
X118826Y948719D01*
X118981Y948762D01*
X119137Y948801D01*
X119293Y948837D01*
X119451Y948868D01*
X119609Y948896D01*
X119768Y948920D01*
X119928Y948940D01*
X120088Y948956D01*
X120248Y948968D01*
X120409Y948976D01*
X120570Y948980D01*
X120730Y948980D01*
X120891Y948976D01*
X121052Y948968D01*
X121212Y948956D01*
X121372Y948940D01*
X121532Y948920D01*
X121691Y948896D01*
X121849Y948868D01*
X122007Y948837D01*
X122163Y948801D01*
X122319Y948762D01*
X122474Y948719D01*
X122628Y948672D01*
X122781Y948621D01*
X122932Y948566D01*
X123082Y948508D01*
X123230Y948446D01*
X123377Y948380D01*
X123522Y948311D01*
X123665Y948238D01*
X123807Y948162D01*
X123946Y948082D01*
X124084Y947999D01*
X124219Y947912D01*
X124353Y947822D01*
X124484Y947729D01*
X124612Y947633D01*
X124738Y947533D01*
X124862Y947430D01*
X124983Y947325D01*
X125102Y947216D01*
X125218Y947105D01*
X125331Y946990D01*
X125441Y946873D01*
X125548Y946753D01*
X125652Y946631D01*
X125753Y946506D01*
X125851Y946378D01*
X125946Y946248D01*
X126038Y946116D01*
X126126Y945982D01*
X126211Y945845D01*
X126293Y945707D01*
X126371Y945566D01*
X126445Y945424D01*
X126516Y945280D01*
X126584Y945134D01*
X126647Y944986D01*
X126708Y944837D01*
X126764Y944686D01*
X126817Y944534D01*
X126866Y944381D01*
X126911Y944227D01*
X126952Y944072D01*
X126990Y943915D01*
X127023Y943758D01*
X127053Y943600D01*
X127079Y943441D01*
X127100Y943282D01*
X127118Y943122D01*
X127132Y942962D01*
X127142Y942801D01*
X127148Y942641D01*
X127150Y942480D01*
X127148Y942319D01*
X127142Y942159D01*
X127132Y941998D01*
X127118Y941838D01*
X127100Y941678D01*
X127079Y941519D01*
X127053Y941360D01*
X127023Y941202D01*
X126990Y941045D01*
X126952Y940888D01*
X126911Y940733D01*
X126866Y940579D01*
X126817Y940426D01*
X126764Y940274D01*
X126708Y940123D01*
X126647Y939974D01*
X126584Y939826D01*
X126516Y939680D01*
X126445Y939536D01*
X126371Y939394D01*
X126293Y939253D01*
X126211Y939115D01*
X126126Y938978D01*
X126038Y938844D01*
X125946Y938712D01*
X125851Y938582D01*
X125753Y938454D01*
X125652Y938329D01*
X125548Y938207D01*
X125441Y938087D01*
X125331Y937970D01*
X125218Y937855D01*
X125102Y937744D01*
X124983Y937635D01*
X124862Y937530D01*
X124738Y937427D01*
X124612Y937327D01*
X124484Y937231D01*
X124353Y937138D01*
X124219Y937048D01*
X124084Y936961D01*
X123946Y936878D01*
X123807Y936798D01*
X123665Y936722D01*
X123522Y936649D01*
X123377Y936580D01*
X123230Y936514D01*
X123082Y936452D01*
X122932Y936394D01*
X122781Y936339D01*
X122628Y936288D01*
X122474Y936241D01*
X122319Y936198D01*
X122163Y936159D01*
X122007Y936123D01*
X121849Y936092D01*
X121691Y936064D01*
X121532Y936040D01*
X121372Y936020D01*
X121212Y936004D01*
X121052Y935992D01*
X120891Y935984D01*
X120730Y935980D01*
X120570Y935980D01*
X120409Y935984D01*
X120248Y935992D01*
X120088Y936004D01*
X119928Y936020D01*
X119768Y936040D01*
X119609Y936064D01*
X119451Y936092D01*
X119293Y936123D01*
X119137Y936159D01*
X118981Y936198D01*
X118826Y936241D01*
X118672Y936288D01*
X118519Y936339D01*
X118368Y936394D01*
X118218Y936452D01*
X118070Y936514D01*
X117923Y936580D01*
X117778Y936649D01*
X117635Y936722D01*
X117493Y936798D01*
X117354Y936878D01*
X117216Y936961D01*
X117081Y937048D01*
X116947Y937138D01*
X116816Y937231D01*
X116688Y937327D01*
X116562Y937427D01*
X116438Y937530D01*
X116317Y937635D01*
X116198Y937744D01*
X116082Y937855D01*
X115969Y937970D01*
X115859Y938087D01*
X115752Y938207D01*
X115648Y938329D01*
X115547Y938454D01*
X115449Y938582D01*
X115354Y938712D01*
X115262Y938844D01*
X115174Y938978D01*
X115089Y939115D01*
X115007Y939253D01*
X114929Y939394D01*
X114855Y939536D01*
X114784Y939680D01*
X114716Y939826D01*
X114653Y939974D01*
X114592Y940123D01*
X114536Y940274D01*
X114483Y940426D01*
X114434Y940579D01*
X114389Y940733D01*
X114348Y940888D01*
X114310Y941045D01*
X114277Y941202D01*
X114247Y941360D01*
X114221Y941519D01*
X114200Y941678D01*
X114182Y941838D01*
X114168Y941998D01*
X114158Y942159D01*
X114152Y942319D01*
X114150Y942480D01*
D13*
X59394Y982697D02*
X59394Y986451D01*
X59393Y982697D02*
X59391Y982632D01*
X59385Y982568D01*
X59375Y982504D01*
X59362Y982440D01*
X59344Y982378D01*
X59323Y982317D01*
X59299Y982257D01*
X59270Y982199D01*
X59238Y982142D01*
X59203Y982088D01*
X59165Y982036D01*
X59123Y981986D01*
X59079Y981939D01*
X59032Y981895D01*
X58982Y981853D01*
X58930Y981815D01*
X58876Y981780D01*
X58819Y981748D01*
X58761Y981719D01*
X58701Y981695D01*
X58640Y981674D01*
X58578Y981656D01*
X58514Y981643D01*
X58450Y981633D01*
X58386Y981627D01*
X58321Y981625D01*
X57785Y981625D01*
X62341Y982966D02*
X62343Y983037D01*
X62349Y983109D01*
X62358Y983179D01*
X62371Y983249D01*
X62388Y983319D01*
X62409Y983387D01*
X62433Y983454D01*
X62461Y983520D01*
X62492Y983584D01*
X62527Y983647D01*
X62565Y983707D01*
X62606Y983766D01*
X62650Y983822D01*
X62697Y983876D01*
X62746Y983927D01*
X62799Y983975D01*
X62854Y984021D01*
X62911Y984063D01*
X62971Y984103D01*
X63032Y984139D01*
X63096Y984172D01*
X63161Y984201D01*
X63227Y984227D01*
X63295Y984250D01*
X63364Y984269D01*
X63434Y984284D01*
X63504Y984295D01*
X63575Y984303D01*
X63646Y984307D01*
X63718Y984307D01*
X63789Y984303D01*
X63860Y984295D01*
X63930Y984284D01*
X64000Y984269D01*
X64069Y984250D01*
X64137Y984227D01*
X64203Y984201D01*
X64268Y984172D01*
X64332Y984139D01*
X64393Y984103D01*
X64453Y984063D01*
X64510Y984021D01*
X64565Y983975D01*
X64618Y983927D01*
X64667Y983876D01*
X64714Y983822D01*
X64758Y983766D01*
X64799Y983707D01*
X64837Y983647D01*
X64872Y983584D01*
X64903Y983520D01*
X64931Y983454D01*
X64955Y983387D01*
X64976Y983319D01*
X64993Y983249D01*
X65006Y983179D01*
X65015Y983109D01*
X65021Y983037D01*
X65023Y982966D01*
X65021Y982895D01*
X65015Y982823D01*
X65006Y982753D01*
X64993Y982683D01*
X64976Y982613D01*
X64955Y982545D01*
X64931Y982478D01*
X64903Y982412D01*
X64872Y982348D01*
X64837Y982285D01*
X64799Y982225D01*
X64758Y982166D01*
X64714Y982110D01*
X64667Y982056D01*
X64618Y982005D01*
X64565Y981957D01*
X64510Y981911D01*
X64453Y981869D01*
X64393Y981829D01*
X64332Y981793D01*
X64268Y981760D01*
X64203Y981731D01*
X64137Y981705D01*
X64069Y981682D01*
X64000Y981663D01*
X63930Y981648D01*
X63860Y981637D01*
X63789Y981629D01*
X63718Y981625D01*
X63646Y981625D01*
X63575Y981629D01*
X63504Y981637D01*
X63434Y981648D01*
X63364Y981663D01*
X63295Y981682D01*
X63227Y981705D01*
X63161Y981731D01*
X63096Y981760D01*
X63032Y981793D01*
X62971Y981829D01*
X62911Y981869D01*
X62854Y981911D01*
X62799Y981957D01*
X62746Y982005D01*
X62697Y982056D01*
X62650Y982110D01*
X62606Y982166D01*
X62565Y982225D01*
X62527Y982285D01*
X62492Y982348D01*
X62461Y982412D01*
X62433Y982478D01*
X62409Y982545D01*
X62388Y982613D01*
X62371Y982683D01*
X62358Y982753D01*
X62349Y982823D01*
X62343Y982895D01*
X62341Y982966D01*
X62610Y985379D02*
X62612Y985444D01*
X62618Y985508D01*
X62628Y985572D01*
X62641Y985636D01*
X62659Y985698D01*
X62680Y985759D01*
X62704Y985819D01*
X62733Y985877D01*
X62765Y985934D01*
X62800Y985988D01*
X62838Y986040D01*
X62880Y986090D01*
X62924Y986137D01*
X62971Y986181D01*
X63021Y986223D01*
X63073Y986261D01*
X63127Y986296D01*
X63184Y986328D01*
X63242Y986357D01*
X63302Y986381D01*
X63363Y986402D01*
X63425Y986420D01*
X63489Y986433D01*
X63553Y986443D01*
X63617Y986449D01*
X63682Y986451D01*
X63747Y986449D01*
X63811Y986443D01*
X63875Y986433D01*
X63939Y986420D01*
X64001Y986402D01*
X64062Y986381D01*
X64122Y986357D01*
X64180Y986328D01*
X64237Y986296D01*
X64291Y986261D01*
X64343Y986223D01*
X64393Y986181D01*
X64440Y986137D01*
X64484Y986090D01*
X64526Y986040D01*
X64564Y985988D01*
X64599Y985934D01*
X64631Y985877D01*
X64660Y985819D01*
X64684Y985759D01*
X64705Y985698D01*
X64723Y985636D01*
X64736Y985572D01*
X64746Y985508D01*
X64752Y985444D01*
X64754Y985379D01*
X64752Y985314D01*
X64746Y985250D01*
X64736Y985186D01*
X64723Y985122D01*
X64705Y985060D01*
X64684Y984999D01*
X64660Y984939D01*
X64631Y984881D01*
X64599Y984824D01*
X64564Y984770D01*
X64526Y984718D01*
X64484Y984668D01*
X64440Y984621D01*
X64393Y984577D01*
X64343Y984535D01*
X64291Y984497D01*
X64237Y984462D01*
X64180Y984430D01*
X64122Y984401D01*
X64062Y984377D01*
X64001Y984356D01*
X63939Y984338D01*
X63875Y984325D01*
X63811Y984315D01*
X63747Y984309D01*
X63682Y984307D01*
X63617Y984309D01*
X63553Y984315D01*
X63489Y984325D01*
X63425Y984338D01*
X63363Y984356D01*
X63302Y984377D01*
X63242Y984401D01*
X63184Y984430D01*
X63127Y984462D01*
X63073Y984497D01*
X63021Y984535D01*
X62971Y984577D01*
X62924Y984621D01*
X62880Y984668D01*
X62838Y984718D01*
X62800Y984770D01*
X62765Y984824D01*
X62733Y984881D01*
X62704Y984939D01*
X62680Y984999D01*
X62659Y985060D01*
X62641Y985122D01*
X62628Y985186D01*
X62618Y985250D01*
X62612Y985314D01*
X62610Y985379D01*
X95490Y900340D02*
X125490Y900340D01*
X95490Y900340D02*
X95490Y883840D01*
X125490Y883840D01*
X125490Y900340D01*
X120160Y896030D02*
X120162Y896110D01*
X120168Y896190D01*
X120178Y896270D01*
X120192Y896349D01*
X120209Y896427D01*
X120231Y896504D01*
X120256Y896580D01*
X120285Y896655D01*
X120318Y896728D01*
X120354Y896799D01*
X120394Y896869D01*
X120437Y896936D01*
X120484Y897002D01*
X120533Y897064D01*
X120586Y897125D01*
X120642Y897183D01*
X120700Y897237D01*
X120761Y897289D01*
X120825Y897338D01*
X120890Y897384D01*
X120958Y897426D01*
X121029Y897465D01*
X121100Y897501D01*
X121174Y897532D01*
X121249Y897561D01*
X121325Y897585D01*
X121403Y897605D01*
X121481Y897622D01*
X121560Y897635D01*
X121640Y897644D01*
X121720Y897649D01*
X121800Y897650D01*
X121880Y897647D01*
X121960Y897640D01*
X122039Y897629D01*
X122118Y897614D01*
X122196Y897596D01*
X122273Y897573D01*
X122349Y897547D01*
X122423Y897517D01*
X122496Y897483D01*
X122567Y897446D01*
X122636Y897405D01*
X122703Y897361D01*
X122768Y897314D01*
X122830Y897264D01*
X122890Y897210D01*
X122947Y897154D01*
X123001Y897095D01*
X123052Y897033D01*
X123100Y896969D01*
X123145Y896903D01*
X123186Y896834D01*
X123224Y896764D01*
X123259Y896691D01*
X123290Y896617D01*
X123317Y896542D01*
X123340Y896465D01*
X123360Y896388D01*
X123376Y896309D01*
X123388Y896230D01*
X123396Y896150D01*
X123400Y896070D01*
X123400Y895990D01*
X123396Y895910D01*
X123388Y895830D01*
X123376Y895751D01*
X123360Y895672D01*
X123340Y895595D01*
X123317Y895518D01*
X123290Y895443D01*
X123259Y895369D01*
X123224Y895296D01*
X123186Y895226D01*
X123145Y895157D01*
X123100Y895091D01*
X123052Y895027D01*
X123001Y894965D01*
X122947Y894906D01*
X122890Y894850D01*
X122830Y894796D01*
X122768Y894746D01*
X122703Y894699D01*
X122636Y894655D01*
X122567Y894614D01*
X122496Y894577D01*
X122423Y894543D01*
X122349Y894513D01*
X122273Y894487D01*
X122196Y894464D01*
X122118Y894446D01*
X122039Y894431D01*
X121960Y894420D01*
X121880Y894413D01*
X121800Y894410D01*
X121720Y894411D01*
X121640Y894416D01*
X121560Y894425D01*
X121481Y894438D01*
X121403Y894455D01*
X121325Y894475D01*
X121249Y894499D01*
X121174Y894528D01*
X121100Y894559D01*
X121029Y894595D01*
X120958Y894634D01*
X120890Y894676D01*
X120825Y894722D01*
X120761Y894771D01*
X120700Y894823D01*
X120642Y894877D01*
X120586Y894935D01*
X120533Y894996D01*
X120484Y895058D01*
X120437Y895124D01*
X120394Y895191D01*
X120354Y895261D01*
X120318Y895332D01*
X120285Y895405D01*
X120256Y895480D01*
X120231Y895556D01*
X120209Y895633D01*
X120192Y895711D01*
X120178Y895790D01*
X120168Y895870D01*
X120162Y895950D01*
X120160Y896030D01*
D12*
X161798Y878628D02*
X173482Y878628D01*
X161798Y878628D02*
X161798Y881874D01*
X161800Y881987D01*
X161806Y882100D01*
X161816Y882213D01*
X161830Y882326D01*
X161847Y882438D01*
X161869Y882549D01*
X161894Y882659D01*
X161924Y882769D01*
X161957Y882877D01*
X161994Y882984D01*
X162034Y883090D01*
X162079Y883194D01*
X162127Y883297D01*
X162178Y883398D01*
X162233Y883497D01*
X162291Y883594D01*
X162353Y883689D01*
X162418Y883782D01*
X162486Y883872D01*
X162557Y883960D01*
X162632Y884046D01*
X162709Y884129D01*
X162789Y884209D01*
X162872Y884286D01*
X162958Y884361D01*
X163046Y884432D01*
X163136Y884500D01*
X163229Y884565D01*
X163324Y884627D01*
X163421Y884685D01*
X163520Y884740D01*
X163621Y884791D01*
X163724Y884839D01*
X163828Y884884D01*
X163934Y884924D01*
X164041Y884961D01*
X164149Y884994D01*
X164259Y885024D01*
X164369Y885049D01*
X164480Y885071D01*
X164592Y885088D01*
X164705Y885102D01*
X164818Y885112D01*
X164931Y885118D01*
X165044Y885120D01*
X165157Y885118D01*
X165270Y885112D01*
X165383Y885102D01*
X165496Y885088D01*
X165608Y885071D01*
X165719Y885049D01*
X165829Y885024D01*
X165939Y884994D01*
X166047Y884961D01*
X166154Y884924D01*
X166260Y884884D01*
X166364Y884839D01*
X166467Y884791D01*
X166568Y884740D01*
X166667Y884685D01*
X166764Y884627D01*
X166859Y884565D01*
X166952Y884500D01*
X167042Y884432D01*
X167130Y884361D01*
X167216Y884286D01*
X167299Y884209D01*
X167379Y884129D01*
X167456Y884046D01*
X167531Y883960D01*
X167602Y883872D01*
X167670Y883782D01*
X167735Y883689D01*
X167797Y883594D01*
X167855Y883497D01*
X167910Y883398D01*
X167961Y883297D01*
X168009Y883194D01*
X168054Y883090D01*
X168094Y882984D01*
X168131Y882877D01*
X168164Y882769D01*
X168194Y882659D01*
X168219Y882549D01*
X168241Y882438D01*
X168258Y882326D01*
X168272Y882213D01*
X168282Y882100D01*
X168288Y881987D01*
X168290Y881874D01*
X168289Y881874D02*
X168289Y878628D01*
X168289Y882523D02*
X173482Y885119D01*
X164394Y889984D02*
X161798Y893230D01*
X173482Y893230D01*
X173482Y896475D02*
X173482Y889984D01*
X173482Y901414D02*
X173482Y904660D01*
X173480Y904773D01*
X173474Y904886D01*
X173464Y904999D01*
X173450Y905112D01*
X173433Y905224D01*
X173411Y905335D01*
X173386Y905445D01*
X173356Y905555D01*
X173323Y905663D01*
X173286Y905770D01*
X173246Y905876D01*
X173201Y905980D01*
X173153Y906083D01*
X173102Y906184D01*
X173047Y906283D01*
X172989Y906380D01*
X172927Y906475D01*
X172862Y906568D01*
X172794Y906658D01*
X172723Y906746D01*
X172648Y906832D01*
X172571Y906915D01*
X172491Y906995D01*
X172408Y907072D01*
X172322Y907147D01*
X172234Y907218D01*
X172144Y907286D01*
X172051Y907351D01*
X171956Y907413D01*
X171859Y907471D01*
X171760Y907526D01*
X171659Y907577D01*
X171556Y907625D01*
X171452Y907670D01*
X171346Y907710D01*
X171239Y907747D01*
X171131Y907780D01*
X171021Y907810D01*
X170911Y907835D01*
X170800Y907857D01*
X170688Y907874D01*
X170575Y907888D01*
X170462Y907898D01*
X170349Y907904D01*
X170236Y907906D01*
X170123Y907904D01*
X170010Y907898D01*
X169897Y907888D01*
X169784Y907874D01*
X169672Y907857D01*
X169561Y907835D01*
X169451Y907810D01*
X169341Y907780D01*
X169233Y907747D01*
X169126Y907710D01*
X169020Y907670D01*
X168916Y907625D01*
X168813Y907577D01*
X168712Y907526D01*
X168613Y907471D01*
X168516Y907413D01*
X168421Y907351D01*
X168328Y907286D01*
X168238Y907218D01*
X168150Y907147D01*
X168064Y907072D01*
X167981Y906995D01*
X167901Y906915D01*
X167824Y906832D01*
X167749Y906746D01*
X167678Y906658D01*
X167610Y906568D01*
X167545Y906475D01*
X167483Y906380D01*
X167425Y906283D01*
X167370Y906184D01*
X167319Y906083D01*
X167271Y905980D01*
X167226Y905876D01*
X167186Y905770D01*
X167149Y905663D01*
X167116Y905555D01*
X167086Y905445D01*
X167061Y905335D01*
X167039Y905224D01*
X167022Y905112D01*
X167008Y904999D01*
X166998Y904886D01*
X166992Y904773D01*
X166990Y904660D01*
X161798Y905309D02*
X161798Y901414D01*
X161798Y905309D02*
X161800Y905410D01*
X161806Y905510D01*
X161816Y905610D01*
X161829Y905710D01*
X161847Y905809D01*
X161868Y905908D01*
X161893Y906005D01*
X161922Y906102D01*
X161955Y906197D01*
X161991Y906291D01*
X162031Y906383D01*
X162074Y906474D01*
X162121Y906563D01*
X162171Y906650D01*
X162225Y906736D01*
X162282Y906819D01*
X162342Y906899D01*
X162405Y906978D01*
X162472Y907054D01*
X162541Y907127D01*
X162613Y907197D01*
X162687Y907265D01*
X162764Y907330D01*
X162844Y907391D01*
X162926Y907450D01*
X163010Y907505D01*
X163096Y907557D01*
X163184Y907606D01*
X163274Y907651D01*
X163366Y907693D01*
X163459Y907731D01*
X163554Y907765D01*
X163649Y907796D01*
X163746Y907823D01*
X163844Y907846D01*
X163943Y907866D01*
X164043Y907881D01*
X164143Y907893D01*
X164243Y907901D01*
X164344Y907905D01*
X164444Y907905D01*
X164545Y907901D01*
X164645Y907893D01*
X164745Y907881D01*
X164845Y907866D01*
X164944Y907846D01*
X165042Y907823D01*
X165139Y907796D01*
X165234Y907765D01*
X165329Y907731D01*
X165422Y907693D01*
X165514Y907651D01*
X165604Y907606D01*
X165692Y907557D01*
X165778Y907505D01*
X165862Y907450D01*
X165944Y907391D01*
X166024Y907330D01*
X166101Y907265D01*
X166175Y907197D01*
X166247Y907127D01*
X166316Y907054D01*
X166383Y906978D01*
X166446Y906899D01*
X166506Y906819D01*
X166563Y906736D01*
X166617Y906650D01*
X166667Y906563D01*
X166714Y906474D01*
X166757Y906383D01*
X166797Y906291D01*
X166833Y906197D01*
X166866Y906102D01*
X166895Y906005D01*
X166920Y905908D01*
X166941Y905809D01*
X166959Y905710D01*
X166972Y905610D01*
X166982Y905510D01*
X166988Y905410D01*
X166990Y905309D01*
X166991Y905309D02*
X166991Y902713D01*
X56642Y893426D02*
X56642Y890829D01*
X56640Y890730D01*
X56634Y890630D01*
X56625Y890531D01*
X56612Y890433D01*
X56595Y890335D01*
X56574Y890237D01*
X56549Y890141D01*
X56521Y890046D01*
X56489Y889952D01*
X56454Y889859D01*
X56415Y889767D01*
X56372Y889677D01*
X56327Y889589D01*
X56277Y889502D01*
X56225Y889418D01*
X56169Y889335D01*
X56111Y889255D01*
X56049Y889177D01*
X55984Y889102D01*
X55916Y889029D01*
X55846Y888959D01*
X55773Y888891D01*
X55698Y888826D01*
X55620Y888764D01*
X55540Y888706D01*
X55457Y888650D01*
X55373Y888598D01*
X55286Y888548D01*
X55198Y888503D01*
X55108Y888460D01*
X55016Y888421D01*
X54923Y888386D01*
X54829Y888354D01*
X54734Y888326D01*
X54638Y888301D01*
X54540Y888280D01*
X54442Y888263D01*
X54344Y888250D01*
X54245Y888241D01*
X54145Y888235D01*
X54046Y888233D01*
X47554Y888233D01*
X47554Y888232D02*
X47455Y888234D01*
X47355Y888240D01*
X47256Y888249D01*
X47158Y888262D01*
X47060Y888280D01*
X46962Y888300D01*
X46866Y888325D01*
X46770Y888353D01*
X46676Y888385D01*
X46583Y888420D01*
X46492Y888459D01*
X46402Y888502D01*
X46313Y888547D01*
X46227Y888597D01*
X46142Y888649D01*
X46060Y888705D01*
X45980Y888764D01*
X45902Y888825D01*
X45826Y888890D01*
X45753Y888958D01*
X45683Y889028D01*
X45615Y889101D01*
X45550Y889177D01*
X45489Y889255D01*
X45430Y889335D01*
X45374Y889417D01*
X45322Y889502D01*
X45273Y889588D01*
X45227Y889677D01*
X45184Y889767D01*
X45145Y889858D01*
X45110Y889951D01*
X45078Y890045D01*
X45050Y890141D01*
X45025Y890237D01*
X45005Y890335D01*
X44987Y890433D01*
X44974Y890531D01*
X44965Y890630D01*
X44959Y890729D01*
X44957Y890829D01*
X44958Y890829D02*
X44958Y893426D01*
X44958Y897791D02*
X46256Y897791D01*
X44958Y897791D02*
X44958Y904282D01*
X56642Y901036D01*
X69088Y839512D02*
X69088Y827828D01*
X69088Y839512D02*
X72334Y839512D01*
X72447Y839510D01*
X72560Y839504D01*
X72673Y839494D01*
X72786Y839480D01*
X72898Y839463D01*
X73009Y839441D01*
X73119Y839416D01*
X73229Y839386D01*
X73337Y839353D01*
X73444Y839316D01*
X73550Y839276D01*
X73654Y839231D01*
X73757Y839183D01*
X73858Y839132D01*
X73957Y839077D01*
X74054Y839019D01*
X74149Y838957D01*
X74242Y838892D01*
X74332Y838824D01*
X74420Y838753D01*
X74506Y838678D01*
X74589Y838601D01*
X74669Y838521D01*
X74746Y838438D01*
X74821Y838352D01*
X74892Y838264D01*
X74960Y838174D01*
X75025Y838081D01*
X75087Y837986D01*
X75145Y837889D01*
X75200Y837790D01*
X75251Y837689D01*
X75299Y837586D01*
X75344Y837482D01*
X75384Y837376D01*
X75421Y837269D01*
X75454Y837161D01*
X75484Y837051D01*
X75509Y836941D01*
X75531Y836830D01*
X75548Y836718D01*
X75562Y836605D01*
X75572Y836492D01*
X75578Y836379D01*
X75580Y836266D01*
X75578Y836153D01*
X75572Y836040D01*
X75562Y835927D01*
X75548Y835814D01*
X75531Y835702D01*
X75509Y835591D01*
X75484Y835481D01*
X75454Y835371D01*
X75421Y835263D01*
X75384Y835156D01*
X75344Y835050D01*
X75299Y834946D01*
X75251Y834843D01*
X75200Y834742D01*
X75145Y834643D01*
X75087Y834546D01*
X75025Y834451D01*
X74960Y834358D01*
X74892Y834268D01*
X74821Y834180D01*
X74746Y834094D01*
X74669Y834011D01*
X74589Y833931D01*
X74506Y833854D01*
X74420Y833779D01*
X74332Y833708D01*
X74242Y833640D01*
X74149Y833575D01*
X74054Y833513D01*
X73957Y833455D01*
X73858Y833400D01*
X73757Y833349D01*
X73654Y833301D01*
X73550Y833256D01*
X73444Y833216D01*
X73337Y833179D01*
X73229Y833146D01*
X73119Y833116D01*
X73009Y833091D01*
X72898Y833069D01*
X72786Y833052D01*
X72673Y833038D01*
X72560Y833028D01*
X72447Y833022D01*
X72334Y833020D01*
X72334Y833021D02*
X69088Y833021D01*
X72983Y833021D02*
X75579Y827828D01*
X80444Y836916D02*
X83690Y839512D01*
X83690Y827828D01*
X86935Y827828D02*
X80444Y827828D01*
X91874Y830424D02*
X94471Y839512D01*
X91874Y830424D02*
X98365Y830424D01*
X96418Y833021D02*
X96418Y827828D01*
X118805Y826558D02*
X118805Y838242D01*
X122050Y838242D01*
X122163Y838240D01*
X122276Y838234D01*
X122389Y838224D01*
X122502Y838210D01*
X122614Y838193D01*
X122725Y838171D01*
X122835Y838146D01*
X122945Y838116D01*
X123053Y838083D01*
X123160Y838046D01*
X123266Y838006D01*
X123370Y837961D01*
X123473Y837913D01*
X123574Y837862D01*
X123673Y837807D01*
X123770Y837749D01*
X123865Y837687D01*
X123958Y837622D01*
X124048Y837554D01*
X124136Y837483D01*
X124222Y837408D01*
X124305Y837331D01*
X124385Y837251D01*
X124462Y837168D01*
X124537Y837082D01*
X124608Y836994D01*
X124676Y836904D01*
X124741Y836811D01*
X124803Y836716D01*
X124861Y836619D01*
X124916Y836520D01*
X124967Y836419D01*
X125015Y836316D01*
X125060Y836212D01*
X125100Y836106D01*
X125137Y835999D01*
X125170Y835891D01*
X125200Y835781D01*
X125225Y835671D01*
X125247Y835560D01*
X125264Y835448D01*
X125278Y835335D01*
X125288Y835222D01*
X125294Y835109D01*
X125296Y834996D01*
X125294Y834883D01*
X125288Y834770D01*
X125278Y834657D01*
X125264Y834544D01*
X125247Y834432D01*
X125225Y834321D01*
X125200Y834211D01*
X125170Y834101D01*
X125137Y833993D01*
X125100Y833886D01*
X125060Y833780D01*
X125015Y833676D01*
X124967Y833573D01*
X124916Y833472D01*
X124861Y833373D01*
X124803Y833276D01*
X124741Y833181D01*
X124676Y833088D01*
X124608Y832998D01*
X124537Y832910D01*
X124462Y832824D01*
X124385Y832741D01*
X124305Y832661D01*
X124222Y832584D01*
X124136Y832509D01*
X124048Y832438D01*
X123958Y832370D01*
X123865Y832305D01*
X123770Y832243D01*
X123673Y832185D01*
X123574Y832130D01*
X123473Y832079D01*
X123370Y832031D01*
X123266Y831986D01*
X123160Y831946D01*
X123053Y831909D01*
X122945Y831876D01*
X122835Y831846D01*
X122725Y831821D01*
X122614Y831799D01*
X122502Y831782D01*
X122389Y831768D01*
X122276Y831758D01*
X122163Y831752D01*
X122050Y831750D01*
X122050Y831751D02*
X118805Y831751D01*
X122699Y831751D02*
X125296Y826558D01*
X130161Y835646D02*
X133406Y838242D01*
X133406Y826558D01*
X130161Y826558D02*
X136652Y826558D01*
X141591Y826558D02*
X145486Y826558D01*
X145585Y826560D01*
X145685Y826566D01*
X145784Y826575D01*
X145882Y826588D01*
X145980Y826605D01*
X146078Y826626D01*
X146174Y826651D01*
X146269Y826679D01*
X146363Y826711D01*
X146456Y826746D01*
X146548Y826785D01*
X146638Y826828D01*
X146726Y826873D01*
X146813Y826923D01*
X146897Y826975D01*
X146980Y827031D01*
X147060Y827089D01*
X147138Y827151D01*
X147213Y827216D01*
X147286Y827284D01*
X147356Y827354D01*
X147424Y827427D01*
X147489Y827502D01*
X147551Y827580D01*
X147609Y827660D01*
X147665Y827743D01*
X147717Y827827D01*
X147767Y827914D01*
X147812Y828002D01*
X147855Y828092D01*
X147894Y828184D01*
X147929Y828277D01*
X147961Y828371D01*
X147989Y828466D01*
X148014Y828562D01*
X148035Y828660D01*
X148052Y828758D01*
X148065Y828856D01*
X148074Y828955D01*
X148080Y829055D01*
X148082Y829154D01*
X148082Y830453D01*
X148080Y830552D01*
X148074Y830652D01*
X148065Y830751D01*
X148052Y830849D01*
X148035Y830947D01*
X148014Y831045D01*
X147989Y831141D01*
X147961Y831236D01*
X147929Y831330D01*
X147894Y831423D01*
X147855Y831515D01*
X147812Y831605D01*
X147767Y831693D01*
X147717Y831780D01*
X147665Y831864D01*
X147609Y831947D01*
X147551Y832027D01*
X147489Y832105D01*
X147424Y832180D01*
X147356Y832253D01*
X147286Y832323D01*
X147213Y832391D01*
X147138Y832456D01*
X147060Y832518D01*
X146980Y832576D01*
X146897Y832632D01*
X146813Y832684D01*
X146726Y832734D01*
X146638Y832779D01*
X146548Y832822D01*
X146456Y832861D01*
X146363Y832896D01*
X146269Y832928D01*
X146174Y832956D01*
X146078Y832981D01*
X145980Y833002D01*
X145882Y833019D01*
X145784Y833032D01*
X145685Y833041D01*
X145585Y833047D01*
X145486Y833049D01*
X141591Y833049D01*
X141591Y838242D01*
X148082Y838242D01*
D13*
X234340Y920180D02*
X302920Y920180D01*
X302920Y818580D02*
X234340Y818580D01*
X302920Y818580D02*
X302920Y920180D01*
X234340Y856680D02*
X234340Y818580D01*
X234340Y856680D02*
X234340Y907480D01*
X234340Y920180D01*
X234340Y907480D02*
X247040Y907480D01*
X247040Y856680D01*
X234340Y856680D01*
D10*
X287940Y856680D02*
X287942Y856841D01*
X287948Y857001D01*
X287958Y857162D01*
X287972Y857322D01*
X287990Y857482D01*
X288011Y857641D01*
X288037Y857800D01*
X288067Y857958D01*
X288100Y858115D01*
X288138Y858272D01*
X288179Y858427D01*
X288224Y858581D01*
X288273Y858734D01*
X288326Y858886D01*
X288382Y859037D01*
X288443Y859186D01*
X288506Y859334D01*
X288574Y859480D01*
X288645Y859624D01*
X288719Y859766D01*
X288797Y859907D01*
X288879Y860045D01*
X288964Y860182D01*
X289052Y860316D01*
X289144Y860448D01*
X289239Y860578D01*
X289337Y860706D01*
X289438Y860831D01*
X289542Y860953D01*
X289649Y861073D01*
X289759Y861190D01*
X289872Y861305D01*
X289988Y861416D01*
X290107Y861525D01*
X290228Y861630D01*
X290352Y861733D01*
X290478Y861833D01*
X290606Y861929D01*
X290737Y862022D01*
X290871Y862112D01*
X291006Y862199D01*
X291144Y862282D01*
X291283Y862362D01*
X291425Y862438D01*
X291568Y862511D01*
X291713Y862580D01*
X291860Y862646D01*
X292008Y862708D01*
X292158Y862766D01*
X292309Y862821D01*
X292462Y862872D01*
X292616Y862919D01*
X292771Y862962D01*
X292927Y863001D01*
X293083Y863037D01*
X293241Y863068D01*
X293399Y863096D01*
X293558Y863120D01*
X293718Y863140D01*
X293878Y863156D01*
X294038Y863168D01*
X294199Y863176D01*
X294360Y863180D01*
X294520Y863180D01*
X294681Y863176D01*
X294842Y863168D01*
X295002Y863156D01*
X295162Y863140D01*
X295322Y863120D01*
X295481Y863096D01*
X295639Y863068D01*
X295797Y863037D01*
X295953Y863001D01*
X296109Y862962D01*
X296264Y862919D01*
X296418Y862872D01*
X296571Y862821D01*
X296722Y862766D01*
X296872Y862708D01*
X297020Y862646D01*
X297167Y862580D01*
X297312Y862511D01*
X297455Y862438D01*
X297597Y862362D01*
X297736Y862282D01*
X297874Y862199D01*
X298009Y862112D01*
X298143Y862022D01*
X298274Y861929D01*
X298402Y861833D01*
X298528Y861733D01*
X298652Y861630D01*
X298773Y861525D01*
X298892Y861416D01*
X299008Y861305D01*
X299121Y861190D01*
X299231Y861073D01*
X299338Y860953D01*
X299442Y860831D01*
X299543Y860706D01*
X299641Y860578D01*
X299736Y860448D01*
X299828Y860316D01*
X299916Y860182D01*
X300001Y860045D01*
X300083Y859907D01*
X300161Y859766D01*
X300235Y859624D01*
X300306Y859480D01*
X300374Y859334D01*
X300437Y859186D01*
X300498Y859037D01*
X300554Y858886D01*
X300607Y858734D01*
X300656Y858581D01*
X300701Y858427D01*
X300742Y858272D01*
X300780Y858115D01*
X300813Y857958D01*
X300843Y857800D01*
X300869Y857641D01*
X300890Y857482D01*
X300908Y857322D01*
X300922Y857162D01*
X300932Y857001D01*
X300938Y856841D01*
X300940Y856680D01*
X300938Y856519D01*
X300932Y856359D01*
X300922Y856198D01*
X300908Y856038D01*
X300890Y855878D01*
X300869Y855719D01*
X300843Y855560D01*
X300813Y855402D01*
X300780Y855245D01*
X300742Y855088D01*
X300701Y854933D01*
X300656Y854779D01*
X300607Y854626D01*
X300554Y854474D01*
X300498Y854323D01*
X300437Y854174D01*
X300374Y854026D01*
X300306Y853880D01*
X300235Y853736D01*
X300161Y853594D01*
X300083Y853453D01*
X300001Y853315D01*
X299916Y853178D01*
X299828Y853044D01*
X299736Y852912D01*
X299641Y852782D01*
X299543Y852654D01*
X299442Y852529D01*
X299338Y852407D01*
X299231Y852287D01*
X299121Y852170D01*
X299008Y852055D01*
X298892Y851944D01*
X298773Y851835D01*
X298652Y851730D01*
X298528Y851627D01*
X298402Y851527D01*
X298274Y851431D01*
X298143Y851338D01*
X298009Y851248D01*
X297874Y851161D01*
X297736Y851078D01*
X297597Y850998D01*
X297455Y850922D01*
X297312Y850849D01*
X297167Y850780D01*
X297020Y850714D01*
X296872Y850652D01*
X296722Y850594D01*
X296571Y850539D01*
X296418Y850488D01*
X296264Y850441D01*
X296109Y850398D01*
X295953Y850359D01*
X295797Y850323D01*
X295639Y850292D01*
X295481Y850264D01*
X295322Y850240D01*
X295162Y850220D01*
X295002Y850204D01*
X294842Y850192D01*
X294681Y850184D01*
X294520Y850180D01*
X294360Y850180D01*
X294199Y850184D01*
X294038Y850192D01*
X293878Y850204D01*
X293718Y850220D01*
X293558Y850240D01*
X293399Y850264D01*
X293241Y850292D01*
X293083Y850323D01*
X292927Y850359D01*
X292771Y850398D01*
X292616Y850441D01*
X292462Y850488D01*
X292309Y850539D01*
X292158Y850594D01*
X292008Y850652D01*
X291860Y850714D01*
X291713Y850780D01*
X291568Y850849D01*
X291425Y850922D01*
X291283Y850998D01*
X291144Y851078D01*
X291006Y851161D01*
X290871Y851248D01*
X290737Y851338D01*
X290606Y851431D01*
X290478Y851527D01*
X290352Y851627D01*
X290228Y851730D01*
X290107Y851835D01*
X289988Y851944D01*
X289872Y852055D01*
X289759Y852170D01*
X289649Y852287D01*
X289542Y852407D01*
X289438Y852529D01*
X289337Y852654D01*
X289239Y852782D01*
X289144Y852912D01*
X289052Y853044D01*
X288964Y853178D01*
X288879Y853315D01*
X288797Y853453D01*
X288719Y853594D01*
X288645Y853736D01*
X288574Y853880D01*
X288506Y854026D01*
X288443Y854174D01*
X288382Y854323D01*
X288326Y854474D01*
X288273Y854626D01*
X288224Y854779D01*
X288179Y854933D01*
X288138Y855088D01*
X288100Y855245D01*
X288067Y855402D01*
X288037Y855560D01*
X288011Y855719D01*
X287990Y855878D01*
X287972Y856038D01*
X287958Y856198D01*
X287948Y856359D01*
X287942Y856519D01*
X287940Y856680D01*
X243940Y856680D02*
X243942Y856841D01*
X243948Y857001D01*
X243958Y857162D01*
X243972Y857322D01*
X243990Y857482D01*
X244011Y857641D01*
X244037Y857800D01*
X244067Y857958D01*
X244100Y858115D01*
X244138Y858272D01*
X244179Y858427D01*
X244224Y858581D01*
X244273Y858734D01*
X244326Y858886D01*
X244382Y859037D01*
X244443Y859186D01*
X244506Y859334D01*
X244574Y859480D01*
X244645Y859624D01*
X244719Y859766D01*
X244797Y859907D01*
X244879Y860045D01*
X244964Y860182D01*
X245052Y860316D01*
X245144Y860448D01*
X245239Y860578D01*
X245337Y860706D01*
X245438Y860831D01*
X245542Y860953D01*
X245649Y861073D01*
X245759Y861190D01*
X245872Y861305D01*
X245988Y861416D01*
X246107Y861525D01*
X246228Y861630D01*
X246352Y861733D01*
X246478Y861833D01*
X246606Y861929D01*
X246737Y862022D01*
X246871Y862112D01*
X247006Y862199D01*
X247144Y862282D01*
X247283Y862362D01*
X247425Y862438D01*
X247568Y862511D01*
X247713Y862580D01*
X247860Y862646D01*
X248008Y862708D01*
X248158Y862766D01*
X248309Y862821D01*
X248462Y862872D01*
X248616Y862919D01*
X248771Y862962D01*
X248927Y863001D01*
X249083Y863037D01*
X249241Y863068D01*
X249399Y863096D01*
X249558Y863120D01*
X249718Y863140D01*
X249878Y863156D01*
X250038Y863168D01*
X250199Y863176D01*
X250360Y863180D01*
X250520Y863180D01*
X250681Y863176D01*
X250842Y863168D01*
X251002Y863156D01*
X251162Y863140D01*
X251322Y863120D01*
X251481Y863096D01*
X251639Y863068D01*
X251797Y863037D01*
X251953Y863001D01*
X252109Y862962D01*
X252264Y862919D01*
X252418Y862872D01*
X252571Y862821D01*
X252722Y862766D01*
X252872Y862708D01*
X253020Y862646D01*
X253167Y862580D01*
X253312Y862511D01*
X253455Y862438D01*
X253597Y862362D01*
X253736Y862282D01*
X253874Y862199D01*
X254009Y862112D01*
X254143Y862022D01*
X254274Y861929D01*
X254402Y861833D01*
X254528Y861733D01*
X254652Y861630D01*
X254773Y861525D01*
X254892Y861416D01*
X255008Y861305D01*
X255121Y861190D01*
X255231Y861073D01*
X255338Y860953D01*
X255442Y860831D01*
X255543Y860706D01*
X255641Y860578D01*
X255736Y860448D01*
X255828Y860316D01*
X255916Y860182D01*
X256001Y860045D01*
X256083Y859907D01*
X256161Y859766D01*
X256235Y859624D01*
X256306Y859480D01*
X256374Y859334D01*
X256437Y859186D01*
X256498Y859037D01*
X256554Y858886D01*
X256607Y858734D01*
X256656Y858581D01*
X256701Y858427D01*
X256742Y858272D01*
X256780Y858115D01*
X256813Y857958D01*
X256843Y857800D01*
X256869Y857641D01*
X256890Y857482D01*
X256908Y857322D01*
X256922Y857162D01*
X256932Y857001D01*
X256938Y856841D01*
X256940Y856680D01*
X256938Y856519D01*
X256932Y856359D01*
X256922Y856198D01*
X256908Y856038D01*
X256890Y855878D01*
X256869Y855719D01*
X256843Y855560D01*
X256813Y855402D01*
X256780Y855245D01*
X256742Y855088D01*
X256701Y854933D01*
X256656Y854779D01*
X256607Y854626D01*
X256554Y854474D01*
X256498Y854323D01*
X256437Y854174D01*
X256374Y854026D01*
X256306Y853880D01*
X256235Y853736D01*
X256161Y853594D01*
X256083Y853453D01*
X256001Y853315D01*
X255916Y853178D01*
X255828Y853044D01*
X255736Y852912D01*
X255641Y852782D01*
X255543Y852654D01*
X255442Y852529D01*
X255338Y852407D01*
X255231Y852287D01*
X255121Y852170D01*
X255008Y852055D01*
X254892Y851944D01*
X254773Y851835D01*
X254652Y851730D01*
X254528Y851627D01*
X254402Y851527D01*
X254274Y851431D01*
X254143Y851338D01*
X254009Y851248D01*
X253874Y851161D01*
X253736Y851078D01*
X253597Y850998D01*
X253455Y850922D01*
X253312Y850849D01*
X253167Y850780D01*
X253020Y850714D01*
X252872Y850652D01*
X252722Y850594D01*
X252571Y850539D01*
X252418Y850488D01*
X252264Y850441D01*
X252109Y850398D01*
X251953Y850359D01*
X251797Y850323D01*
X251639Y850292D01*
X251481Y850264D01*
X251322Y850240D01*
X251162Y850220D01*
X251002Y850204D01*
X250842Y850192D01*
X250681Y850184D01*
X250520Y850180D01*
X250360Y850180D01*
X250199Y850184D01*
X250038Y850192D01*
X249878Y850204D01*
X249718Y850220D01*
X249558Y850240D01*
X249399Y850264D01*
X249241Y850292D01*
X249083Y850323D01*
X248927Y850359D01*
X248771Y850398D01*
X248616Y850441D01*
X248462Y850488D01*
X248309Y850539D01*
X248158Y850594D01*
X248008Y850652D01*
X247860Y850714D01*
X247713Y850780D01*
X247568Y850849D01*
X247425Y850922D01*
X247283Y850998D01*
X247144Y851078D01*
X247006Y851161D01*
X246871Y851248D01*
X246737Y851338D01*
X246606Y851431D01*
X246478Y851527D01*
X246352Y851627D01*
X246228Y851730D01*
X246107Y851835D01*
X245988Y851944D01*
X245872Y852055D01*
X245759Y852170D01*
X245649Y852287D01*
X245542Y852407D01*
X245438Y852529D01*
X245337Y852654D01*
X245239Y852782D01*
X245144Y852912D01*
X245052Y853044D01*
X244964Y853178D01*
X244879Y853315D01*
X244797Y853453D01*
X244719Y853594D01*
X244645Y853736D01*
X244574Y853880D01*
X244506Y854026D01*
X244443Y854174D01*
X244382Y854323D01*
X244326Y854474D01*
X244273Y854626D01*
X244224Y854779D01*
X244179Y854933D01*
X244138Y855088D01*
X244100Y855245D01*
X244067Y855402D01*
X244037Y855560D01*
X244011Y855719D01*
X243990Y855878D01*
X243972Y856038D01*
X243958Y856198D01*
X243948Y856359D01*
X243942Y856519D01*
X243940Y856680D01*
D13*
X306095Y874546D02*
X309849Y874546D01*
X309914Y874544D01*
X309978Y874538D01*
X310042Y874528D01*
X310106Y874515D01*
X310168Y874497D01*
X310229Y874476D01*
X310289Y874452D01*
X310347Y874423D01*
X310404Y874391D01*
X310458Y874356D01*
X310510Y874318D01*
X310560Y874276D01*
X310607Y874232D01*
X310651Y874185D01*
X310693Y874135D01*
X310731Y874083D01*
X310766Y874029D01*
X310798Y873972D01*
X310827Y873914D01*
X310851Y873854D01*
X310872Y873793D01*
X310890Y873731D01*
X310903Y873667D01*
X310913Y873603D01*
X310919Y873539D01*
X310921Y873474D01*
X310921Y872937D01*
X307167Y877494D02*
X306095Y878834D01*
X310921Y878834D01*
X310921Y877494D02*
X310921Y880175D01*
X-232256Y620781D02*
X-232256Y617027D01*
X-232257Y617027D02*
X-232259Y616962D01*
X-232265Y616898D01*
X-232275Y616834D01*
X-232288Y616770D01*
X-232306Y616708D01*
X-232327Y616647D01*
X-232351Y616587D01*
X-232380Y616529D01*
X-232412Y616472D01*
X-232447Y616418D01*
X-232485Y616366D01*
X-232527Y616316D01*
X-232571Y616269D01*
X-232618Y616225D01*
X-232668Y616183D01*
X-232720Y616145D01*
X-232774Y616110D01*
X-232831Y616078D01*
X-232889Y616049D01*
X-232949Y616025D01*
X-233010Y616004D01*
X-233072Y615986D01*
X-233136Y615973D01*
X-233200Y615963D01*
X-233264Y615957D01*
X-233329Y615955D01*
X-233865Y615955D01*
X-229308Y615955D02*
X-227968Y615955D01*
X-227897Y615957D01*
X-227825Y615963D01*
X-227755Y615972D01*
X-227685Y615985D01*
X-227615Y616002D01*
X-227547Y616023D01*
X-227480Y616047D01*
X-227414Y616075D01*
X-227350Y616106D01*
X-227287Y616141D01*
X-227227Y616179D01*
X-227168Y616220D01*
X-227112Y616264D01*
X-227058Y616311D01*
X-227007Y616360D01*
X-226959Y616413D01*
X-226913Y616468D01*
X-226871Y616525D01*
X-226831Y616585D01*
X-226795Y616646D01*
X-226762Y616710D01*
X-226733Y616775D01*
X-226707Y616841D01*
X-226684Y616909D01*
X-226665Y616978D01*
X-226650Y617048D01*
X-226639Y617118D01*
X-226631Y617189D01*
X-226627Y617260D01*
X-226627Y617332D01*
X-226631Y617403D01*
X-226639Y617474D01*
X-226650Y617544D01*
X-226665Y617614D01*
X-226684Y617683D01*
X-226707Y617751D01*
X-226733Y617817D01*
X-226762Y617882D01*
X-226795Y617946D01*
X-226831Y618007D01*
X-226871Y618067D01*
X-226913Y618124D01*
X-226959Y618179D01*
X-227007Y618232D01*
X-227058Y618281D01*
X-227112Y618328D01*
X-227168Y618372D01*
X-227227Y618413D01*
X-227287Y618451D01*
X-227350Y618486D01*
X-227414Y618517D01*
X-227480Y618545D01*
X-227547Y618569D01*
X-227615Y618590D01*
X-227685Y618607D01*
X-227755Y618620D01*
X-227825Y618629D01*
X-227897Y618635D01*
X-227968Y618637D01*
X-227700Y620781D02*
X-229308Y620781D01*
X-227700Y620781D02*
X-227635Y620779D01*
X-227571Y620773D01*
X-227507Y620763D01*
X-227443Y620750D01*
X-227381Y620732D01*
X-227320Y620711D01*
X-227260Y620687D01*
X-227202Y620658D01*
X-227145Y620626D01*
X-227091Y620591D01*
X-227039Y620553D01*
X-226989Y620511D01*
X-226942Y620467D01*
X-226898Y620420D01*
X-226856Y620370D01*
X-226818Y620318D01*
X-226783Y620264D01*
X-226751Y620207D01*
X-226722Y620149D01*
X-226698Y620089D01*
X-226677Y620028D01*
X-226659Y619966D01*
X-226646Y619902D01*
X-226636Y619838D01*
X-226630Y619774D01*
X-226628Y619709D01*
X-226630Y619644D01*
X-226636Y619580D01*
X-226646Y619516D01*
X-226659Y619452D01*
X-226677Y619390D01*
X-226698Y619329D01*
X-226722Y619269D01*
X-226751Y619211D01*
X-226783Y619154D01*
X-226818Y619100D01*
X-226856Y619048D01*
X-226898Y618998D01*
X-226942Y618951D01*
X-226989Y618907D01*
X-227039Y618865D01*
X-227091Y618827D01*
X-227145Y618792D01*
X-227202Y618760D01*
X-227260Y618731D01*
X-227320Y618707D01*
X-227381Y618686D01*
X-227443Y618668D01*
X-227507Y618655D01*
X-227571Y618645D01*
X-227635Y618639D01*
X-227700Y618637D01*
X-227700Y618636D02*
X-228772Y618636D01*
D12*
X190808Y842708D02*
X202492Y842708D01*
X190808Y842708D02*
X190808Y845954D01*
X190810Y846067D01*
X190816Y846180D01*
X190826Y846293D01*
X190840Y846406D01*
X190857Y846518D01*
X190879Y846629D01*
X190904Y846739D01*
X190934Y846849D01*
X190967Y846957D01*
X191004Y847064D01*
X191044Y847170D01*
X191089Y847274D01*
X191137Y847377D01*
X191188Y847478D01*
X191243Y847577D01*
X191301Y847674D01*
X191363Y847769D01*
X191428Y847862D01*
X191496Y847952D01*
X191567Y848040D01*
X191642Y848126D01*
X191719Y848209D01*
X191799Y848289D01*
X191882Y848366D01*
X191968Y848441D01*
X192056Y848512D01*
X192146Y848580D01*
X192239Y848645D01*
X192334Y848707D01*
X192431Y848765D01*
X192530Y848820D01*
X192631Y848871D01*
X192734Y848919D01*
X192838Y848964D01*
X192944Y849004D01*
X193051Y849041D01*
X193159Y849074D01*
X193269Y849104D01*
X193379Y849129D01*
X193490Y849151D01*
X193602Y849168D01*
X193715Y849182D01*
X193828Y849192D01*
X193941Y849198D01*
X194054Y849200D01*
X194167Y849198D01*
X194280Y849192D01*
X194393Y849182D01*
X194506Y849168D01*
X194618Y849151D01*
X194729Y849129D01*
X194839Y849104D01*
X194949Y849074D01*
X195057Y849041D01*
X195164Y849004D01*
X195270Y848964D01*
X195374Y848919D01*
X195477Y848871D01*
X195578Y848820D01*
X195677Y848765D01*
X195774Y848707D01*
X195869Y848645D01*
X195962Y848580D01*
X196052Y848512D01*
X196140Y848441D01*
X196226Y848366D01*
X196309Y848289D01*
X196389Y848209D01*
X196466Y848126D01*
X196541Y848040D01*
X196612Y847952D01*
X196680Y847862D01*
X196745Y847769D01*
X196807Y847674D01*
X196865Y847577D01*
X196920Y847478D01*
X196971Y847377D01*
X197019Y847274D01*
X197064Y847170D01*
X197104Y847064D01*
X197141Y846957D01*
X197174Y846849D01*
X197204Y846739D01*
X197229Y846629D01*
X197251Y846518D01*
X197268Y846406D01*
X197282Y846293D01*
X197292Y846180D01*
X197298Y846067D01*
X197300Y845954D01*
X197299Y845954D02*
X197299Y842708D01*
X197299Y846603D02*
X202492Y849199D01*
X199896Y854064D02*
X190808Y856661D01*
X199896Y854064D02*
X199896Y860555D01*
X197299Y858608D02*
X202492Y858608D01*
X202292Y802208D02*
X190608Y802208D01*
X190608Y805454D01*
X190610Y805567D01*
X190616Y805680D01*
X190626Y805793D01*
X190640Y805906D01*
X190657Y806018D01*
X190679Y806129D01*
X190704Y806239D01*
X190734Y806349D01*
X190767Y806457D01*
X190804Y806564D01*
X190844Y806670D01*
X190889Y806774D01*
X190937Y806877D01*
X190988Y806978D01*
X191043Y807077D01*
X191101Y807174D01*
X191163Y807269D01*
X191228Y807362D01*
X191296Y807452D01*
X191367Y807540D01*
X191442Y807626D01*
X191519Y807709D01*
X191599Y807789D01*
X191682Y807866D01*
X191768Y807941D01*
X191856Y808012D01*
X191946Y808080D01*
X192039Y808145D01*
X192134Y808207D01*
X192231Y808265D01*
X192330Y808320D01*
X192431Y808371D01*
X192534Y808419D01*
X192638Y808464D01*
X192744Y808504D01*
X192851Y808541D01*
X192959Y808574D01*
X193069Y808604D01*
X193179Y808629D01*
X193290Y808651D01*
X193402Y808668D01*
X193515Y808682D01*
X193628Y808692D01*
X193741Y808698D01*
X193854Y808700D01*
X193967Y808698D01*
X194080Y808692D01*
X194193Y808682D01*
X194306Y808668D01*
X194418Y808651D01*
X194529Y808629D01*
X194639Y808604D01*
X194749Y808574D01*
X194857Y808541D01*
X194964Y808504D01*
X195070Y808464D01*
X195174Y808419D01*
X195277Y808371D01*
X195378Y808320D01*
X195477Y808265D01*
X195574Y808207D01*
X195669Y808145D01*
X195762Y808080D01*
X195852Y808012D01*
X195940Y807941D01*
X196026Y807866D01*
X196109Y807789D01*
X196189Y807709D01*
X196266Y807626D01*
X196341Y807540D01*
X196412Y807452D01*
X196480Y807362D01*
X196545Y807269D01*
X196607Y807174D01*
X196665Y807077D01*
X196720Y806978D01*
X196771Y806877D01*
X196819Y806774D01*
X196864Y806670D01*
X196904Y806564D01*
X196941Y806457D01*
X196974Y806349D01*
X197004Y806239D01*
X197029Y806129D01*
X197051Y806018D01*
X197068Y805906D01*
X197082Y805793D01*
X197092Y805680D01*
X197098Y805567D01*
X197100Y805454D01*
X197099Y805454D02*
X197099Y802208D01*
X197099Y806103D02*
X202292Y808699D01*
X202292Y813564D02*
X202292Y817459D01*
X202290Y817558D01*
X202284Y817658D01*
X202275Y817757D01*
X202262Y817855D01*
X202245Y817953D01*
X202224Y818051D01*
X202199Y818147D01*
X202171Y818242D01*
X202139Y818336D01*
X202104Y818429D01*
X202065Y818521D01*
X202022Y818611D01*
X201977Y818699D01*
X201927Y818786D01*
X201875Y818870D01*
X201819Y818953D01*
X201761Y819033D01*
X201699Y819111D01*
X201634Y819186D01*
X201566Y819259D01*
X201496Y819329D01*
X201423Y819397D01*
X201348Y819462D01*
X201270Y819524D01*
X201190Y819582D01*
X201107Y819638D01*
X201023Y819690D01*
X200936Y819740D01*
X200848Y819785D01*
X200758Y819828D01*
X200666Y819867D01*
X200573Y819902D01*
X200479Y819934D01*
X200384Y819962D01*
X200288Y819987D01*
X200190Y820008D01*
X200092Y820025D01*
X199994Y820038D01*
X199895Y820047D01*
X199795Y820053D01*
X199696Y820055D01*
X198397Y820055D01*
X198298Y820053D01*
X198198Y820047D01*
X198099Y820038D01*
X198001Y820025D01*
X197903Y820008D01*
X197805Y819987D01*
X197709Y819962D01*
X197614Y819934D01*
X197520Y819902D01*
X197427Y819867D01*
X197335Y819828D01*
X197245Y819785D01*
X197157Y819740D01*
X197070Y819690D01*
X196986Y819638D01*
X196903Y819582D01*
X196823Y819524D01*
X196745Y819462D01*
X196670Y819397D01*
X196597Y819329D01*
X196527Y819259D01*
X196459Y819186D01*
X196394Y819111D01*
X196332Y819033D01*
X196274Y818953D01*
X196218Y818870D01*
X196166Y818786D01*
X196116Y818699D01*
X196071Y818611D01*
X196028Y818521D01*
X195989Y818429D01*
X195954Y818336D01*
X195922Y818242D01*
X195894Y818147D01*
X195869Y818051D01*
X195848Y817953D01*
X195831Y817855D01*
X195818Y817757D01*
X195809Y817658D01*
X195803Y817558D01*
X195801Y817459D01*
X195801Y813564D01*
X190608Y813564D01*
X190608Y820055D01*
X479492Y853104D02*
X479492Y855701D01*
X479492Y853104D02*
X479490Y853005D01*
X479484Y852905D01*
X479475Y852806D01*
X479462Y852708D01*
X479445Y852610D01*
X479424Y852512D01*
X479399Y852416D01*
X479371Y852321D01*
X479339Y852227D01*
X479304Y852134D01*
X479265Y852042D01*
X479222Y851952D01*
X479177Y851864D01*
X479127Y851777D01*
X479075Y851693D01*
X479019Y851610D01*
X478961Y851530D01*
X478899Y851452D01*
X478834Y851377D01*
X478766Y851304D01*
X478696Y851234D01*
X478623Y851166D01*
X478548Y851101D01*
X478470Y851039D01*
X478390Y850981D01*
X478307Y850925D01*
X478223Y850873D01*
X478136Y850823D01*
X478048Y850778D01*
X477958Y850735D01*
X477866Y850696D01*
X477773Y850661D01*
X477679Y850629D01*
X477584Y850601D01*
X477488Y850576D01*
X477390Y850555D01*
X477292Y850538D01*
X477194Y850525D01*
X477095Y850516D01*
X476995Y850510D01*
X476896Y850508D01*
X470404Y850508D01*
X470305Y850510D01*
X470205Y850516D01*
X470106Y850525D01*
X470008Y850538D01*
X469910Y850556D01*
X469812Y850576D01*
X469716Y850601D01*
X469620Y850629D01*
X469526Y850661D01*
X469433Y850696D01*
X469342Y850735D01*
X469252Y850778D01*
X469163Y850823D01*
X469077Y850873D01*
X468992Y850925D01*
X468910Y850981D01*
X468830Y851040D01*
X468752Y851101D01*
X468676Y851166D01*
X468603Y851234D01*
X468533Y851304D01*
X468465Y851377D01*
X468400Y851453D01*
X468339Y851531D01*
X468280Y851611D01*
X468224Y851693D01*
X468172Y851778D01*
X468123Y851864D01*
X468077Y851953D01*
X468034Y852043D01*
X467995Y852134D01*
X467960Y852227D01*
X467928Y852321D01*
X467900Y852417D01*
X467875Y852513D01*
X467855Y852611D01*
X467837Y852709D01*
X467824Y852807D01*
X467815Y852906D01*
X467809Y853005D01*
X467807Y853105D01*
X467808Y853104D02*
X467808Y855701D01*
X476246Y860066D02*
X476133Y860068D01*
X476020Y860074D01*
X475907Y860084D01*
X475794Y860098D01*
X475682Y860115D01*
X475571Y860137D01*
X475461Y860162D01*
X475351Y860192D01*
X475243Y860225D01*
X475136Y860262D01*
X475030Y860302D01*
X474926Y860347D01*
X474823Y860395D01*
X474722Y860446D01*
X474623Y860501D01*
X474526Y860559D01*
X474431Y860621D01*
X474338Y860686D01*
X474248Y860754D01*
X474160Y860825D01*
X474074Y860900D01*
X473991Y860977D01*
X473911Y861057D01*
X473834Y861140D01*
X473759Y861226D01*
X473688Y861314D01*
X473620Y861404D01*
X473555Y861497D01*
X473493Y861592D01*
X473435Y861689D01*
X473380Y861788D01*
X473329Y861889D01*
X473281Y861992D01*
X473236Y862096D01*
X473196Y862202D01*
X473159Y862309D01*
X473126Y862417D01*
X473096Y862527D01*
X473071Y862637D01*
X473049Y862748D01*
X473032Y862860D01*
X473018Y862973D01*
X473008Y863086D01*
X473002Y863199D01*
X473000Y863312D01*
X473002Y863425D01*
X473008Y863538D01*
X473018Y863651D01*
X473032Y863764D01*
X473049Y863876D01*
X473071Y863987D01*
X473096Y864097D01*
X473126Y864207D01*
X473159Y864315D01*
X473196Y864422D01*
X473236Y864528D01*
X473281Y864632D01*
X473329Y864735D01*
X473380Y864836D01*
X473435Y864935D01*
X473493Y865032D01*
X473555Y865127D01*
X473620Y865220D01*
X473688Y865310D01*
X473759Y865398D01*
X473834Y865484D01*
X473911Y865567D01*
X473991Y865647D01*
X474074Y865724D01*
X474160Y865799D01*
X474248Y865870D01*
X474338Y865938D01*
X474431Y866003D01*
X474526Y866065D01*
X474623Y866123D01*
X474722Y866178D01*
X474823Y866229D01*
X474926Y866277D01*
X475030Y866322D01*
X475136Y866362D01*
X475243Y866399D01*
X475351Y866432D01*
X475461Y866462D01*
X475571Y866487D01*
X475682Y866509D01*
X475794Y866526D01*
X475907Y866540D01*
X476020Y866550D01*
X476133Y866556D01*
X476246Y866558D01*
X476359Y866556D01*
X476472Y866550D01*
X476585Y866540D01*
X476698Y866526D01*
X476810Y866509D01*
X476921Y866487D01*
X477031Y866462D01*
X477141Y866432D01*
X477249Y866399D01*
X477356Y866362D01*
X477462Y866322D01*
X477566Y866277D01*
X477669Y866229D01*
X477770Y866178D01*
X477869Y866123D01*
X477966Y866065D01*
X478061Y866003D01*
X478154Y865938D01*
X478244Y865870D01*
X478332Y865799D01*
X478418Y865724D01*
X478501Y865647D01*
X478581Y865567D01*
X478658Y865484D01*
X478733Y865398D01*
X478804Y865310D01*
X478872Y865220D01*
X478937Y865127D01*
X478999Y865032D01*
X479057Y864935D01*
X479112Y864836D01*
X479163Y864735D01*
X479211Y864632D01*
X479256Y864528D01*
X479296Y864422D01*
X479333Y864315D01*
X479366Y864207D01*
X479396Y864097D01*
X479421Y863987D01*
X479443Y863876D01*
X479460Y863764D01*
X479474Y863651D01*
X479484Y863538D01*
X479490Y863425D01*
X479492Y863312D01*
X479490Y863199D01*
X479484Y863086D01*
X479474Y862973D01*
X479460Y862860D01*
X479443Y862748D01*
X479421Y862637D01*
X479396Y862527D01*
X479366Y862417D01*
X479333Y862309D01*
X479296Y862202D01*
X479256Y862096D01*
X479211Y861992D01*
X479163Y861889D01*
X479112Y861788D01*
X479057Y861689D01*
X478999Y861592D01*
X478937Y861497D01*
X478872Y861404D01*
X478804Y861314D01*
X478733Y861226D01*
X478658Y861140D01*
X478581Y861057D01*
X478501Y860977D01*
X478418Y860900D01*
X478332Y860825D01*
X478244Y860754D01*
X478154Y860686D01*
X478061Y860621D01*
X477966Y860559D01*
X477869Y860501D01*
X477770Y860446D01*
X477669Y860395D01*
X477566Y860347D01*
X477462Y860302D01*
X477356Y860262D01*
X477249Y860225D01*
X477141Y860192D01*
X477031Y860162D01*
X476921Y860137D01*
X476810Y860115D01*
X476698Y860098D01*
X476585Y860084D01*
X476472Y860074D01*
X476359Y860068D01*
X476246Y860066D01*
X470404Y860716D02*
X470303Y860718D01*
X470203Y860724D01*
X470103Y860734D01*
X470003Y860747D01*
X469904Y860765D01*
X469805Y860786D01*
X469708Y860811D01*
X469611Y860840D01*
X469516Y860873D01*
X469422Y860909D01*
X469330Y860949D01*
X469239Y860992D01*
X469150Y861039D01*
X469063Y861089D01*
X468977Y861143D01*
X468894Y861200D01*
X468814Y861260D01*
X468735Y861323D01*
X468659Y861390D01*
X468586Y861459D01*
X468516Y861531D01*
X468448Y861605D01*
X468383Y861682D01*
X468322Y861762D01*
X468263Y861844D01*
X468208Y861928D01*
X468156Y862014D01*
X468107Y862102D01*
X468062Y862192D01*
X468020Y862284D01*
X467982Y862377D01*
X467948Y862472D01*
X467917Y862567D01*
X467890Y862664D01*
X467867Y862762D01*
X467847Y862861D01*
X467832Y862961D01*
X467820Y863061D01*
X467812Y863161D01*
X467808Y863262D01*
X467808Y863362D01*
X467812Y863463D01*
X467820Y863563D01*
X467832Y863663D01*
X467847Y863763D01*
X467867Y863862D01*
X467890Y863960D01*
X467917Y864057D01*
X467948Y864152D01*
X467982Y864247D01*
X468020Y864340D01*
X468062Y864432D01*
X468107Y864522D01*
X468156Y864610D01*
X468208Y864696D01*
X468263Y864780D01*
X468322Y864862D01*
X468383Y864942D01*
X468448Y865019D01*
X468516Y865093D01*
X468586Y865165D01*
X468659Y865234D01*
X468735Y865301D01*
X468814Y865364D01*
X468894Y865424D01*
X468977Y865481D01*
X469063Y865535D01*
X469150Y865585D01*
X469239Y865632D01*
X469330Y865675D01*
X469422Y865715D01*
X469516Y865751D01*
X469611Y865784D01*
X469708Y865813D01*
X469805Y865838D01*
X469904Y865859D01*
X470003Y865877D01*
X470103Y865890D01*
X470203Y865900D01*
X470303Y865906D01*
X470404Y865908D01*
X470505Y865906D01*
X470605Y865900D01*
X470705Y865890D01*
X470805Y865877D01*
X470904Y865859D01*
X471003Y865838D01*
X471100Y865813D01*
X471197Y865784D01*
X471292Y865751D01*
X471386Y865715D01*
X471478Y865675D01*
X471569Y865632D01*
X471658Y865585D01*
X471745Y865535D01*
X471831Y865481D01*
X471914Y865424D01*
X471994Y865364D01*
X472073Y865301D01*
X472149Y865234D01*
X472222Y865165D01*
X472292Y865093D01*
X472360Y865019D01*
X472425Y864942D01*
X472486Y864862D01*
X472545Y864780D01*
X472600Y864696D01*
X472652Y864610D01*
X472701Y864522D01*
X472746Y864432D01*
X472788Y864340D01*
X472826Y864247D01*
X472860Y864152D01*
X472891Y864057D01*
X472918Y863960D01*
X472941Y863862D01*
X472961Y863763D01*
X472976Y863663D01*
X472988Y863563D01*
X472996Y863463D01*
X473000Y863362D01*
X473000Y863262D01*
X472996Y863161D01*
X472988Y863061D01*
X472976Y862961D01*
X472961Y862861D01*
X472941Y862762D01*
X472918Y862664D01*
X472891Y862567D01*
X472860Y862472D01*
X472826Y862377D01*
X472788Y862284D01*
X472746Y862192D01*
X472701Y862102D01*
X472652Y862014D01*
X472600Y861928D01*
X472545Y861844D01*
X472486Y861762D01*
X472425Y861682D01*
X472360Y861605D01*
X472292Y861531D01*
X472222Y861459D01*
X472149Y861390D01*
X472073Y861323D01*
X471994Y861260D01*
X471914Y861200D01*
X471831Y861143D01*
X471745Y861089D01*
X471658Y861039D01*
X471569Y860992D01*
X471478Y860949D01*
X471386Y860909D01*
X471292Y860873D01*
X471197Y860840D01*
X471100Y860811D01*
X471003Y860786D01*
X470904Y860765D01*
X470805Y860747D01*
X470705Y860734D01*
X470605Y860724D01*
X470505Y860718D01*
X470404Y860716D01*
X428536Y873208D02*
X425939Y873208D01*
X425840Y873210D01*
X425740Y873216D01*
X425641Y873225D01*
X425543Y873238D01*
X425445Y873255D01*
X425347Y873276D01*
X425251Y873301D01*
X425156Y873329D01*
X425062Y873361D01*
X424969Y873396D01*
X424877Y873435D01*
X424787Y873478D01*
X424699Y873523D01*
X424612Y873573D01*
X424528Y873625D01*
X424445Y873681D01*
X424365Y873739D01*
X424287Y873801D01*
X424212Y873866D01*
X424139Y873934D01*
X424069Y874004D01*
X424001Y874077D01*
X423936Y874152D01*
X423874Y874230D01*
X423816Y874310D01*
X423760Y874393D01*
X423708Y874477D01*
X423658Y874564D01*
X423613Y874652D01*
X423570Y874742D01*
X423531Y874834D01*
X423496Y874927D01*
X423464Y875021D01*
X423436Y875116D01*
X423411Y875212D01*
X423390Y875310D01*
X423373Y875408D01*
X423360Y875506D01*
X423351Y875605D01*
X423345Y875705D01*
X423343Y875804D01*
X423343Y882296D01*
X423345Y882395D01*
X423351Y882495D01*
X423360Y882594D01*
X423373Y882692D01*
X423390Y882790D01*
X423411Y882888D01*
X423436Y882984D01*
X423464Y883079D01*
X423496Y883173D01*
X423531Y883266D01*
X423570Y883358D01*
X423613Y883448D01*
X423658Y883536D01*
X423708Y883623D01*
X423760Y883707D01*
X423816Y883790D01*
X423874Y883870D01*
X423936Y883948D01*
X424001Y884023D01*
X424069Y884096D01*
X424139Y884166D01*
X424212Y884234D01*
X424287Y884299D01*
X424365Y884361D01*
X424445Y884419D01*
X424528Y884475D01*
X424612Y884527D01*
X424699Y884577D01*
X424787Y884622D01*
X424877Y884665D01*
X424969Y884704D01*
X425061Y884739D01*
X425156Y884771D01*
X425251Y884799D01*
X425347Y884824D01*
X425445Y884845D01*
X425543Y884862D01*
X425641Y884875D01*
X425740Y884884D01*
X425840Y884890D01*
X425939Y884892D01*
X428536Y884892D01*
X435497Y878401D02*
X439392Y878401D01*
X435497Y878401D02*
X435398Y878403D01*
X435298Y878409D01*
X435199Y878418D01*
X435101Y878431D01*
X435003Y878448D01*
X434905Y878469D01*
X434809Y878494D01*
X434714Y878522D01*
X434620Y878554D01*
X434527Y878589D01*
X434435Y878628D01*
X434345Y878671D01*
X434257Y878716D01*
X434170Y878766D01*
X434086Y878818D01*
X434003Y878874D01*
X433923Y878932D01*
X433845Y878994D01*
X433770Y879059D01*
X433697Y879127D01*
X433627Y879197D01*
X433559Y879270D01*
X433494Y879345D01*
X433432Y879423D01*
X433374Y879503D01*
X433318Y879586D01*
X433266Y879670D01*
X433216Y879757D01*
X433171Y879845D01*
X433128Y879935D01*
X433089Y880027D01*
X433054Y880120D01*
X433022Y880214D01*
X432994Y880309D01*
X432969Y880405D01*
X432948Y880503D01*
X432931Y880601D01*
X432918Y880699D01*
X432909Y880798D01*
X432903Y880898D01*
X432901Y880997D01*
X432901Y881646D01*
X432900Y881646D02*
X432902Y881759D01*
X432908Y881872D01*
X432918Y881985D01*
X432932Y882098D01*
X432949Y882210D01*
X432971Y882321D01*
X432996Y882431D01*
X433026Y882541D01*
X433059Y882649D01*
X433096Y882756D01*
X433136Y882862D01*
X433181Y882966D01*
X433229Y883069D01*
X433280Y883170D01*
X433335Y883269D01*
X433393Y883366D01*
X433455Y883461D01*
X433520Y883554D01*
X433588Y883644D01*
X433659Y883732D01*
X433734Y883818D01*
X433811Y883901D01*
X433891Y883981D01*
X433974Y884058D01*
X434060Y884133D01*
X434148Y884204D01*
X434238Y884272D01*
X434331Y884337D01*
X434426Y884399D01*
X434523Y884457D01*
X434622Y884512D01*
X434723Y884563D01*
X434826Y884611D01*
X434930Y884656D01*
X435036Y884696D01*
X435143Y884733D01*
X435251Y884766D01*
X435361Y884796D01*
X435471Y884821D01*
X435582Y884843D01*
X435694Y884860D01*
X435807Y884874D01*
X435920Y884884D01*
X436033Y884890D01*
X436146Y884892D01*
X436259Y884890D01*
X436372Y884884D01*
X436485Y884874D01*
X436598Y884860D01*
X436710Y884843D01*
X436821Y884821D01*
X436931Y884796D01*
X437041Y884766D01*
X437149Y884733D01*
X437256Y884696D01*
X437362Y884656D01*
X437466Y884611D01*
X437569Y884563D01*
X437670Y884512D01*
X437769Y884457D01*
X437866Y884399D01*
X437961Y884337D01*
X438054Y884272D01*
X438144Y884204D01*
X438232Y884133D01*
X438318Y884058D01*
X438401Y883981D01*
X438481Y883901D01*
X438558Y883818D01*
X438633Y883732D01*
X438704Y883644D01*
X438772Y883554D01*
X438837Y883461D01*
X438899Y883366D01*
X438957Y883269D01*
X439012Y883170D01*
X439063Y883069D01*
X439111Y882966D01*
X439156Y882862D01*
X439196Y882756D01*
X439233Y882649D01*
X439266Y882541D01*
X439296Y882431D01*
X439321Y882321D01*
X439343Y882210D01*
X439360Y882098D01*
X439374Y881985D01*
X439384Y881872D01*
X439390Y881759D01*
X439392Y881646D01*
X439392Y878401D01*
X439390Y878258D01*
X439384Y878115D01*
X439374Y877972D01*
X439360Y877830D01*
X439343Y877688D01*
X439321Y877546D01*
X439296Y877405D01*
X439266Y877265D01*
X439233Y877126D01*
X439196Y876988D01*
X439155Y876851D01*
X439111Y876715D01*
X439062Y876580D01*
X439010Y876447D01*
X438955Y876315D01*
X438895Y876185D01*
X438832Y876056D01*
X438766Y875929D01*
X438696Y875805D01*
X438623Y875682D01*
X438546Y875561D01*
X438466Y875442D01*
X438383Y875326D01*
X438297Y875211D01*
X438208Y875100D01*
X438115Y874990D01*
X438020Y874884D01*
X437921Y874780D01*
X437820Y874679D01*
X437716Y874580D01*
X437610Y874485D01*
X437500Y874392D01*
X437389Y874303D01*
X437274Y874217D01*
X437158Y874134D01*
X437039Y874054D01*
X436918Y873977D01*
X436796Y873904D01*
X436671Y873834D01*
X436544Y873768D01*
X436415Y873705D01*
X436285Y873645D01*
X436153Y873590D01*
X436020Y873538D01*
X435885Y873489D01*
X435749Y873445D01*
X435612Y873404D01*
X435474Y873367D01*
X435335Y873334D01*
X435195Y873304D01*
X435054Y873279D01*
X434912Y873257D01*
X434770Y873240D01*
X434628Y873226D01*
X434485Y873216D01*
X434342Y873210D01*
X434199Y873208D01*
D13*
X453900Y828000D02*
X403900Y828000D01*
X403900Y858000D01*
X453900Y858000D01*
X453900Y828000D01*
D14*
X453900Y862000D02*
X453902Y862063D01*
X453908Y862125D01*
X453918Y862187D01*
X453931Y862249D01*
X453949Y862309D01*
X453970Y862368D01*
X453995Y862426D01*
X454024Y862482D01*
X454056Y862536D01*
X454091Y862588D01*
X454129Y862637D01*
X454171Y862685D01*
X454215Y862729D01*
X454263Y862771D01*
X454312Y862809D01*
X454364Y862844D01*
X454418Y862876D01*
X454474Y862905D01*
X454532Y862930D01*
X454591Y862951D01*
X454651Y862969D01*
X454713Y862982D01*
X454775Y862992D01*
X454837Y862998D01*
X454900Y863000D01*
X454963Y862998D01*
X455025Y862992D01*
X455087Y862982D01*
X455149Y862969D01*
X455209Y862951D01*
X455268Y862930D01*
X455326Y862905D01*
X455382Y862876D01*
X455436Y862844D01*
X455488Y862809D01*
X455537Y862771D01*
X455585Y862729D01*
X455629Y862685D01*
X455671Y862637D01*
X455709Y862588D01*
X455744Y862536D01*
X455776Y862482D01*
X455805Y862426D01*
X455830Y862368D01*
X455851Y862309D01*
X455869Y862249D01*
X455882Y862187D01*
X455892Y862125D01*
X455898Y862063D01*
X455900Y862000D01*
X455898Y861937D01*
X455892Y861875D01*
X455882Y861813D01*
X455869Y861751D01*
X455851Y861691D01*
X455830Y861632D01*
X455805Y861574D01*
X455776Y861518D01*
X455744Y861464D01*
X455709Y861412D01*
X455671Y861363D01*
X455629Y861315D01*
X455585Y861271D01*
X455537Y861229D01*
X455488Y861191D01*
X455436Y861156D01*
X455382Y861124D01*
X455326Y861095D01*
X455268Y861070D01*
X455209Y861049D01*
X455149Y861031D01*
X455087Y861018D01*
X455025Y861008D01*
X454963Y861002D01*
X454900Y861000D01*
X454837Y861002D01*
X454775Y861008D01*
X454713Y861018D01*
X454651Y861031D01*
X454591Y861049D01*
X454532Y861070D01*
X454474Y861095D01*
X454418Y861124D01*
X454364Y861156D01*
X454312Y861191D01*
X454263Y861229D01*
X454215Y861271D01*
X454171Y861315D01*
X454129Y861363D01*
X454091Y861412D01*
X454056Y861464D01*
X454024Y861518D01*
X453995Y861574D01*
X453970Y861632D01*
X453949Y861691D01*
X453931Y861751D01*
X453918Y861813D01*
X453908Y861875D01*
X453902Y861937D01*
X453900Y862000D01*
D15*
X393340Y750130D02*
X388260Y750130D01*
X413660Y750130D02*
X418740Y750130D01*
X439060Y750130D02*
X444140Y750130D01*
X464460Y750130D02*
X469540Y750130D01*
X489860Y750130D02*
X494940Y750130D01*
X367940Y750130D02*
X365400Y750130D01*
X365400Y760036D01*
X368194Y762830D01*
X365400Y750130D02*
X365400Y740224D01*
X368194Y737430D01*
X515260Y750130D02*
X517800Y750130D01*
X517800Y740224D01*
X515006Y737430D01*
X517800Y750130D02*
X517800Y760036D01*
X515006Y762830D01*
D13*
X368914Y773427D02*
X368914Y777181D01*
X368913Y773427D02*
X368911Y773362D01*
X368905Y773298D01*
X368895Y773234D01*
X368882Y773170D01*
X368864Y773108D01*
X368843Y773047D01*
X368819Y772987D01*
X368790Y772929D01*
X368758Y772872D01*
X368723Y772818D01*
X368685Y772766D01*
X368643Y772716D01*
X368599Y772669D01*
X368552Y772625D01*
X368502Y772583D01*
X368450Y772545D01*
X368396Y772510D01*
X368339Y772478D01*
X368281Y772449D01*
X368221Y772425D01*
X368160Y772404D01*
X368098Y772386D01*
X368034Y772373D01*
X367970Y772363D01*
X367906Y772357D01*
X367841Y772355D01*
X367305Y772355D01*
X372934Y774500D02*
X374543Y774500D01*
X372934Y774500D02*
X372869Y774502D01*
X372805Y774508D01*
X372741Y774518D01*
X372677Y774531D01*
X372615Y774549D01*
X372554Y774570D01*
X372494Y774594D01*
X372436Y774623D01*
X372379Y774655D01*
X372325Y774690D01*
X372273Y774728D01*
X372223Y774770D01*
X372176Y774814D01*
X372132Y774861D01*
X372090Y774911D01*
X372052Y774963D01*
X372017Y775017D01*
X371985Y775074D01*
X371956Y775132D01*
X371932Y775192D01*
X371911Y775253D01*
X371893Y775315D01*
X371880Y775379D01*
X371870Y775443D01*
X371864Y775507D01*
X371862Y775572D01*
X371862Y775840D01*
X371861Y775840D02*
X371863Y775911D01*
X371869Y775983D01*
X371878Y776053D01*
X371891Y776123D01*
X371908Y776193D01*
X371929Y776261D01*
X371953Y776328D01*
X371981Y776394D01*
X372012Y776458D01*
X372047Y776521D01*
X372085Y776581D01*
X372126Y776640D01*
X372170Y776696D01*
X372217Y776750D01*
X372266Y776801D01*
X372319Y776849D01*
X372374Y776895D01*
X372431Y776937D01*
X372491Y776977D01*
X372552Y777013D01*
X372616Y777046D01*
X372681Y777075D01*
X372747Y777101D01*
X372815Y777124D01*
X372884Y777143D01*
X372954Y777158D01*
X373024Y777169D01*
X373095Y777177D01*
X373166Y777181D01*
X373238Y777181D01*
X373309Y777177D01*
X373380Y777169D01*
X373450Y777158D01*
X373520Y777143D01*
X373589Y777124D01*
X373657Y777101D01*
X373723Y777075D01*
X373788Y777046D01*
X373852Y777013D01*
X373913Y776977D01*
X373973Y776937D01*
X374030Y776895D01*
X374085Y776849D01*
X374138Y776801D01*
X374187Y776750D01*
X374234Y776696D01*
X374278Y776640D01*
X374319Y776581D01*
X374357Y776521D01*
X374392Y776458D01*
X374423Y776394D01*
X374451Y776328D01*
X374475Y776261D01*
X374496Y776193D01*
X374513Y776123D01*
X374526Y776053D01*
X374535Y775983D01*
X374541Y775911D01*
X374543Y775840D01*
X374543Y774500D01*
X374541Y774409D01*
X374535Y774318D01*
X374526Y774228D01*
X374512Y774137D01*
X374495Y774048D01*
X374474Y773960D01*
X374449Y773872D01*
X374420Y773785D01*
X374388Y773700D01*
X374353Y773616D01*
X374313Y773534D01*
X374271Y773454D01*
X374225Y773375D01*
X374175Y773299D01*
X374123Y773225D01*
X374067Y773152D01*
X374008Y773083D01*
X373947Y773016D01*
X373882Y772951D01*
X373815Y772890D01*
X373746Y772831D01*
X373673Y772775D01*
X373599Y772723D01*
X373523Y772673D01*
X373444Y772627D01*
X373364Y772585D01*
X373282Y772545D01*
X373198Y772510D01*
X373113Y772478D01*
X373026Y772449D01*
X372938Y772424D01*
X372850Y772403D01*
X372761Y772386D01*
X372670Y772372D01*
X372580Y772363D01*
X372489Y772357D01*
X372398Y772355D01*
D12*
X479492Y382751D02*
X479492Y380154D01*
X479490Y380055D01*
X479484Y379955D01*
X479475Y379856D01*
X479462Y379758D01*
X479445Y379660D01*
X479424Y379562D01*
X479399Y379466D01*
X479371Y379371D01*
X479339Y379277D01*
X479304Y379184D01*
X479265Y379092D01*
X479222Y379002D01*
X479177Y378914D01*
X479127Y378827D01*
X479075Y378743D01*
X479019Y378660D01*
X478961Y378580D01*
X478899Y378502D01*
X478834Y378427D01*
X478766Y378354D01*
X478696Y378284D01*
X478623Y378216D01*
X478548Y378151D01*
X478470Y378089D01*
X478390Y378031D01*
X478307Y377975D01*
X478223Y377923D01*
X478136Y377873D01*
X478048Y377828D01*
X477958Y377785D01*
X477866Y377746D01*
X477773Y377711D01*
X477679Y377679D01*
X477584Y377651D01*
X477488Y377626D01*
X477390Y377605D01*
X477292Y377588D01*
X477194Y377575D01*
X477095Y377566D01*
X476995Y377560D01*
X476896Y377558D01*
X470404Y377558D01*
X470305Y377560D01*
X470205Y377566D01*
X470106Y377575D01*
X470008Y377588D01*
X469910Y377606D01*
X469812Y377626D01*
X469716Y377651D01*
X469620Y377679D01*
X469526Y377711D01*
X469433Y377746D01*
X469342Y377785D01*
X469252Y377828D01*
X469163Y377873D01*
X469077Y377923D01*
X468992Y377975D01*
X468910Y378031D01*
X468830Y378090D01*
X468752Y378151D01*
X468676Y378216D01*
X468603Y378284D01*
X468533Y378354D01*
X468465Y378427D01*
X468400Y378503D01*
X468339Y378581D01*
X468280Y378661D01*
X468224Y378743D01*
X468172Y378828D01*
X468123Y378914D01*
X468077Y379003D01*
X468034Y379093D01*
X467995Y379184D01*
X467960Y379277D01*
X467928Y379371D01*
X467900Y379467D01*
X467875Y379563D01*
X467855Y379661D01*
X467837Y379759D01*
X467824Y379857D01*
X467815Y379956D01*
X467809Y380055D01*
X467807Y380155D01*
X467808Y380154D02*
X467808Y382751D01*
X470404Y387116D02*
X467808Y390362D01*
X479492Y390362D01*
X479492Y393607D02*
X479492Y387116D01*
X473650Y398546D02*
X473420Y398549D01*
X473190Y398557D01*
X472961Y398571D01*
X472732Y398590D01*
X472503Y398615D01*
X472275Y398645D01*
X472048Y398680D01*
X471822Y398721D01*
X471597Y398767D01*
X471373Y398819D01*
X471150Y398876D01*
X470929Y398938D01*
X470709Y399006D01*
X470491Y399079D01*
X470275Y399157D01*
X470061Y399240D01*
X469849Y399328D01*
X469638Y399421D01*
X469431Y399520D01*
X469341Y399553D01*
X469252Y399589D01*
X469164Y399629D01*
X469079Y399673D01*
X468995Y399720D01*
X468913Y399770D01*
X468833Y399824D01*
X468756Y399880D01*
X468680Y399940D01*
X468607Y400003D01*
X468537Y400068D01*
X468469Y400137D01*
X468405Y400208D01*
X468343Y400281D01*
X468284Y400357D01*
X468228Y400435D01*
X468175Y400516D01*
X468126Y400598D01*
X468080Y400682D01*
X468037Y400769D01*
X467998Y400856D01*
X467962Y400946D01*
X467930Y401036D01*
X467902Y401128D01*
X467877Y401221D01*
X467856Y401315D01*
X467839Y401409D01*
X467825Y401504D01*
X467816Y401600D01*
X467810Y401696D01*
X467808Y401792D01*
X467810Y401888D01*
X467816Y401984D01*
X467825Y402080D01*
X467839Y402175D01*
X467856Y402269D01*
X467877Y402363D01*
X467902Y402456D01*
X467930Y402548D01*
X467962Y402638D01*
X467998Y402728D01*
X468037Y402816D01*
X468080Y402902D01*
X468126Y402986D01*
X468175Y403068D01*
X468228Y403149D01*
X468284Y403227D01*
X468343Y403303D01*
X468405Y403376D01*
X468469Y403447D01*
X468537Y403516D01*
X468607Y403581D01*
X468680Y403644D01*
X468756Y403704D01*
X468833Y403760D01*
X468913Y403814D01*
X468995Y403864D01*
X469079Y403911D01*
X469164Y403955D01*
X469252Y403995D01*
X469341Y404031D01*
X469431Y404064D01*
X469638Y404163D01*
X469849Y404256D01*
X470061Y404344D01*
X470275Y404427D01*
X470491Y404505D01*
X470709Y404578D01*
X470929Y404646D01*
X471150Y404708D01*
X471373Y404765D01*
X471597Y404817D01*
X471822Y404863D01*
X472048Y404904D01*
X472275Y404939D01*
X472503Y404969D01*
X472732Y404994D01*
X472961Y405013D01*
X473190Y405027D01*
X473420Y405035D01*
X473650Y405038D01*
X473650Y398546D02*
X473880Y398549D01*
X474110Y398557D01*
X474339Y398571D01*
X474568Y398590D01*
X474797Y398615D01*
X475025Y398645D01*
X475252Y398680D01*
X475478Y398721D01*
X475703Y398767D01*
X475927Y398819D01*
X476150Y398876D01*
X476371Y398938D01*
X476591Y399006D01*
X476809Y399079D01*
X477025Y399157D01*
X477239Y399240D01*
X477451Y399328D01*
X477662Y399421D01*
X477869Y399520D01*
X477959Y399553D01*
X478048Y399589D01*
X478136Y399630D01*
X478221Y399673D01*
X478305Y399720D01*
X478387Y399770D01*
X478467Y399824D01*
X478544Y399880D01*
X478620Y399940D01*
X478693Y400003D01*
X478763Y400068D01*
X478831Y400137D01*
X478895Y400208D01*
X478957Y400281D01*
X479016Y400357D01*
X479072Y400435D01*
X479125Y400516D01*
X479174Y400598D01*
X479220Y400682D01*
X479263Y400769D01*
X479302Y400856D01*
X479338Y400946D01*
X479370Y401036D01*
X479398Y401128D01*
X479423Y401221D01*
X479444Y401315D01*
X479461Y401409D01*
X479475Y401504D01*
X479484Y401600D01*
X479490Y401696D01*
X479492Y401792D01*
X477869Y404064D02*
X477662Y404163D01*
X477451Y404256D01*
X477239Y404344D01*
X477025Y404427D01*
X476809Y404505D01*
X476591Y404578D01*
X476371Y404646D01*
X476150Y404708D01*
X475927Y404765D01*
X475703Y404817D01*
X475478Y404863D01*
X475252Y404904D01*
X475025Y404939D01*
X474797Y404969D01*
X474568Y404994D01*
X474339Y405013D01*
X474110Y405027D01*
X473880Y405035D01*
X473650Y405038D01*
X477869Y404064D02*
X477959Y404031D01*
X478048Y403995D01*
X478136Y403955D01*
X478221Y403911D01*
X478305Y403864D01*
X478387Y403814D01*
X478467Y403760D01*
X478544Y403704D01*
X478620Y403644D01*
X478693Y403581D01*
X478763Y403516D01*
X478831Y403447D01*
X478895Y403376D01*
X478957Y403303D01*
X479016Y403227D01*
X479072Y403149D01*
X479125Y403068D01*
X479174Y402986D01*
X479220Y402902D01*
X479263Y402815D01*
X479302Y402728D01*
X479338Y402638D01*
X479370Y402548D01*
X479398Y402456D01*
X479423Y402363D01*
X479444Y402269D01*
X479461Y402175D01*
X479475Y402080D01*
X479484Y401984D01*
X479490Y401888D01*
X479492Y401792D01*
X476896Y399195D02*
X470404Y404388D01*
X417106Y400258D02*
X414509Y400258D01*
X414410Y400260D01*
X414310Y400266D01*
X414211Y400275D01*
X414113Y400288D01*
X414015Y400305D01*
X413917Y400326D01*
X413821Y400351D01*
X413726Y400379D01*
X413632Y400411D01*
X413539Y400446D01*
X413447Y400485D01*
X413357Y400528D01*
X413269Y400573D01*
X413182Y400623D01*
X413098Y400675D01*
X413015Y400731D01*
X412935Y400789D01*
X412857Y400851D01*
X412782Y400916D01*
X412709Y400984D01*
X412639Y401054D01*
X412571Y401127D01*
X412506Y401202D01*
X412444Y401280D01*
X412386Y401360D01*
X412330Y401443D01*
X412278Y401527D01*
X412228Y401614D01*
X412183Y401702D01*
X412140Y401792D01*
X412101Y401884D01*
X412066Y401977D01*
X412034Y402071D01*
X412006Y402166D01*
X411981Y402262D01*
X411960Y402360D01*
X411943Y402458D01*
X411930Y402556D01*
X411921Y402655D01*
X411915Y402755D01*
X411913Y402854D01*
X411913Y409346D01*
X411915Y409445D01*
X411921Y409545D01*
X411930Y409644D01*
X411943Y409742D01*
X411960Y409840D01*
X411981Y409938D01*
X412006Y410034D01*
X412034Y410129D01*
X412066Y410223D01*
X412101Y410316D01*
X412140Y410408D01*
X412183Y410498D01*
X412228Y410586D01*
X412278Y410673D01*
X412330Y410757D01*
X412386Y410840D01*
X412444Y410920D01*
X412506Y410998D01*
X412571Y411073D01*
X412639Y411146D01*
X412709Y411216D01*
X412782Y411284D01*
X412857Y411349D01*
X412935Y411411D01*
X413015Y411469D01*
X413098Y411525D01*
X413182Y411577D01*
X413269Y411627D01*
X413357Y411672D01*
X413447Y411715D01*
X413539Y411754D01*
X413631Y411789D01*
X413726Y411821D01*
X413821Y411849D01*
X413917Y411874D01*
X414015Y411895D01*
X414113Y411912D01*
X414211Y411925D01*
X414310Y411934D01*
X414410Y411940D01*
X414509Y411942D01*
X417106Y411942D01*
X421471Y409346D02*
X424716Y411942D01*
X424716Y400258D01*
X421471Y400258D02*
X427962Y400258D01*
X432901Y409346D02*
X436146Y411942D01*
X436146Y400258D01*
X432901Y400258D02*
X439392Y400258D01*
D13*
X453900Y355050D02*
X403900Y355050D01*
X403900Y385050D01*
X453900Y385050D01*
X453900Y355050D01*
D14*
X453900Y389050D02*
X453902Y389113D01*
X453908Y389175D01*
X453918Y389237D01*
X453931Y389299D01*
X453949Y389359D01*
X453970Y389418D01*
X453995Y389476D01*
X454024Y389532D01*
X454056Y389586D01*
X454091Y389638D01*
X454129Y389687D01*
X454171Y389735D01*
X454215Y389779D01*
X454263Y389821D01*
X454312Y389859D01*
X454364Y389894D01*
X454418Y389926D01*
X454474Y389955D01*
X454532Y389980D01*
X454591Y390001D01*
X454651Y390019D01*
X454713Y390032D01*
X454775Y390042D01*
X454837Y390048D01*
X454900Y390050D01*
X454963Y390048D01*
X455025Y390042D01*
X455087Y390032D01*
X455149Y390019D01*
X455209Y390001D01*
X455268Y389980D01*
X455326Y389955D01*
X455382Y389926D01*
X455436Y389894D01*
X455488Y389859D01*
X455537Y389821D01*
X455585Y389779D01*
X455629Y389735D01*
X455671Y389687D01*
X455709Y389638D01*
X455744Y389586D01*
X455776Y389532D01*
X455805Y389476D01*
X455830Y389418D01*
X455851Y389359D01*
X455869Y389299D01*
X455882Y389237D01*
X455892Y389175D01*
X455898Y389113D01*
X455900Y389050D01*
X455898Y388987D01*
X455892Y388925D01*
X455882Y388863D01*
X455869Y388801D01*
X455851Y388741D01*
X455830Y388682D01*
X455805Y388624D01*
X455776Y388568D01*
X455744Y388514D01*
X455709Y388462D01*
X455671Y388413D01*
X455629Y388365D01*
X455585Y388321D01*
X455537Y388279D01*
X455488Y388241D01*
X455436Y388206D01*
X455382Y388174D01*
X455326Y388145D01*
X455268Y388120D01*
X455209Y388099D01*
X455149Y388081D01*
X455087Y388068D01*
X455025Y388058D01*
X454963Y388052D01*
X454900Y388050D01*
X454837Y388052D01*
X454775Y388058D01*
X454713Y388068D01*
X454651Y388081D01*
X454591Y388099D01*
X454532Y388120D01*
X454474Y388145D01*
X454418Y388174D01*
X454364Y388206D01*
X454312Y388241D01*
X454263Y388279D01*
X454215Y388321D01*
X454171Y388365D01*
X454129Y388413D01*
X454091Y388462D01*
X454056Y388514D01*
X454024Y388568D01*
X453995Y388624D01*
X453970Y388682D01*
X453949Y388741D01*
X453931Y388801D01*
X453918Y388863D01*
X453908Y388925D01*
X453902Y388987D01*
X453900Y389050D01*
D15*
X393340Y277180D02*
X388260Y277180D01*
X413660Y277180D02*
X418740Y277180D01*
X439060Y277180D02*
X444140Y277180D01*
X464460Y277180D02*
X469540Y277180D01*
X489860Y277180D02*
X494940Y277180D01*
X367940Y277180D02*
X365400Y277180D01*
X365400Y287086D01*
X368194Y289880D01*
X365400Y277180D02*
X365400Y267274D01*
X368194Y264480D01*
X515260Y277180D02*
X517800Y277180D01*
X517800Y267274D01*
X515006Y264480D01*
X517800Y277180D02*
X517800Y287086D01*
X515006Y289880D01*
D13*
X368914Y300477D02*
X368914Y304231D01*
X368913Y300477D02*
X368911Y300412D01*
X368905Y300348D01*
X368895Y300284D01*
X368882Y300220D01*
X368864Y300158D01*
X368843Y300097D01*
X368819Y300037D01*
X368790Y299979D01*
X368758Y299922D01*
X368723Y299868D01*
X368685Y299816D01*
X368643Y299766D01*
X368599Y299719D01*
X368552Y299675D01*
X368502Y299633D01*
X368450Y299595D01*
X368396Y299560D01*
X368339Y299528D01*
X368281Y299499D01*
X368221Y299475D01*
X368160Y299454D01*
X368098Y299436D01*
X368034Y299423D01*
X367970Y299413D01*
X367906Y299407D01*
X367841Y299405D01*
X367305Y299405D01*
X371862Y303159D02*
X373202Y304231D01*
X373202Y299405D01*
X371862Y299405D02*
X374543Y299405D01*
X377348Y301818D02*
X377350Y301938D01*
X377355Y302058D01*
X377364Y302178D01*
X377377Y302298D01*
X377393Y302417D01*
X377413Y302536D01*
X377437Y302654D01*
X377464Y302771D01*
X377494Y302887D01*
X377528Y303002D01*
X377566Y303117D01*
X377607Y303230D01*
X377651Y303341D01*
X377699Y303452D01*
X377750Y303561D01*
X377771Y303618D01*
X377797Y303674D01*
X377825Y303729D01*
X377857Y303781D01*
X377893Y303832D01*
X377931Y303880D01*
X377972Y303926D01*
X378016Y303969D01*
X378062Y304009D01*
X378111Y304046D01*
X378163Y304080D01*
X378216Y304111D01*
X378271Y304139D01*
X378327Y304163D01*
X378385Y304184D01*
X378444Y304201D01*
X378504Y304214D01*
X378565Y304223D01*
X378627Y304229D01*
X378688Y304231D01*
X378749Y304229D01*
X378811Y304223D01*
X378872Y304214D01*
X378932Y304201D01*
X378991Y304184D01*
X379049Y304163D01*
X379105Y304139D01*
X379160Y304111D01*
X379213Y304080D01*
X379265Y304046D01*
X379314Y304009D01*
X379360Y303969D01*
X379404Y303926D01*
X379445Y303880D01*
X379483Y303832D01*
X379519Y303781D01*
X379551Y303729D01*
X379579Y303674D01*
X379605Y303618D01*
X379626Y303561D01*
X379627Y303561D02*
X379678Y303452D01*
X379726Y303341D01*
X379770Y303230D01*
X379811Y303117D01*
X379849Y303002D01*
X379883Y302887D01*
X379913Y302771D01*
X379940Y302654D01*
X379964Y302536D01*
X379984Y302417D01*
X380000Y302298D01*
X380013Y302178D01*
X380022Y302058D01*
X380027Y301938D01*
X380029Y301818D01*
X377348Y301818D02*
X377350Y301698D01*
X377355Y301578D01*
X377364Y301458D01*
X377377Y301338D01*
X377393Y301219D01*
X377413Y301100D01*
X377437Y300982D01*
X377464Y300865D01*
X377494Y300749D01*
X377528Y300634D01*
X377566Y300519D01*
X377607Y300406D01*
X377651Y300295D01*
X377699Y300184D01*
X377750Y300075D01*
X377771Y300018D01*
X377797Y299962D01*
X377825Y299907D01*
X377857Y299855D01*
X377893Y299804D01*
X377931Y299756D01*
X377972Y299710D01*
X378016Y299667D01*
X378062Y299627D01*
X378111Y299590D01*
X378163Y299556D01*
X378216Y299525D01*
X378271Y299497D01*
X378327Y299473D01*
X378385Y299452D01*
X378444Y299435D01*
X378504Y299422D01*
X378565Y299413D01*
X378627Y299407D01*
X378688Y299405D01*
X379627Y300075D02*
X379678Y300184D01*
X379726Y300295D01*
X379770Y300406D01*
X379811Y300519D01*
X379849Y300634D01*
X379883Y300749D01*
X379913Y300865D01*
X379940Y300982D01*
X379964Y301100D01*
X379984Y301219D01*
X380000Y301338D01*
X380013Y301458D01*
X380022Y301578D01*
X380027Y301698D01*
X380029Y301818D01*
X379626Y300075D02*
X379605Y300018D01*
X379579Y299962D01*
X379551Y299907D01*
X379519Y299855D01*
X379483Y299804D01*
X379445Y299756D01*
X379404Y299710D01*
X379360Y299667D01*
X379313Y299627D01*
X379265Y299590D01*
X379213Y299556D01*
X379160Y299525D01*
X379105Y299497D01*
X379049Y299473D01*
X378991Y299452D01*
X378932Y299435D01*
X378872Y299422D01*
X378811Y299413D01*
X378749Y299407D01*
X378688Y299405D01*
X377616Y300477D02*
X379761Y303159D01*
M02*
