M48
;GenerationSoftware,Autodesk,EAGLE,9.2.0*%
;CreationDate,2018-10-12T19:48:05Z*%
FMAT,2
ICI,OFF
METRIC,TZ,000.000
T6C0.350
T5C0.800
T4C1.016
T3C1.300
T2C3.000
T1C3.200
%
G90
M71
T1
X-30190Y8715
X-30190Y94105
T2
X-28720Y42455
X17280Y42455
T3
X12065Y98648
X12065Y94248
X29444Y85668
X25044Y85668
X-2794Y94121
X-17780Y98394
X-17780Y93994
X-2794Y98521
T4
X37810Y27845
X50510Y74886
X47970Y75140
X45430Y74886
X42890Y75140
X40350Y74886
X37810Y75140
X26513Y43725
X-12020Y60135
X-14560Y60135
X-17100Y60135
X-19640Y60135
X-22180Y60135
X27117Y83128
X27371Y85668
X27117Y88208
X47970Y27845
X14605Y96321
X12065Y96575
X9525Y96321
X6985Y96575
X-254Y96194
X-2794Y96448
X-5334Y96194
X-7874Y96448
X-15240Y96067
X-17780Y96321
X-20320Y96067
X-22860Y96321
X26767Y46265
X50510Y27591
X26767Y41185
X26513Y38645
X26767Y36105
X26513Y33565
X-30866Y63157
X-30612Y65697
X27371Y90748
X-30612Y70777
X-30866Y73317
X-30612Y75857
X45430Y27591
X42890Y27845
X40350Y27591
X-30866Y68237
T5
X9538Y74905
X6998Y74905
X4458Y74905
X-6972Y69825
X-6972Y67285
X-6972Y64745
X-5702Y59665
X-3162Y59665
X-622Y59665
X1918Y59665
X4458Y59665
X6998Y59665
X9538Y59665
X12078Y59665
X14618Y59665
X17158Y59665
X19698Y59665
X22238Y59665
X-5702Y74905
X-3162Y74905
X-622Y74905
X14618Y74905
X17158Y74905
X19698Y74905
X22238Y74905
X29858Y74905
X29858Y59665
X27318Y59665
X24778Y59665
X27318Y74905
X24778Y74905
X1918Y74905
X-4432Y69825
X-4432Y67285
X-4432Y64745
X12078Y74905
T6
X-21850Y74655
X-14420Y84945
X640Y85005
X15500Y85075
X22940Y79835
X-14520Y75765
X19720Y54905
X1150Y72475
X620Y65185
X5850Y64225
X5830Y73085
X-12573Y79557
X-12573Y83113
X10810Y61965
X10790Y72445
X2667Y78922
X2667Y83875
X20840Y87625
X20870Y61985
X8490Y63085
X8270Y73065
X-11049Y79557
X-11049Y83113
X13390Y62005
X13380Y72405
X4191Y78922
X4191Y83875
X18360Y85825
X18350Y61945
X-2667Y80065
X-2667Y84256
X12192Y79049
X12192Y84256
X-17653Y81081
X-18340Y69615
X-17653Y84002
X3240Y65045
X3230Y57105
X3100Y52595
X290Y77145
X-18320Y67807
X12030Y70555
X-11670Y70375
X-13300Y71275
X31190Y43725
X-17130Y69655
X-17560Y65695
X42300Y39405
X40900Y40905
X49300Y41505
X42300Y86700
X40900Y88200
X49300Y88800
M30